<svg xmlns="http://www.w3.org/2000/svg" viewBox="0 0 774.32 774.65"><defs><style>.cls-1,.cls-21,.cls-9{fill:#e0e0e0;}.cls-2{fill:#f5f4f5;}.cls-3{fill:#fff;}.cls-4{fill:#ebebeb;}.cls-5,.cls-8{fill:#f5f4f4;}.cls-6{fill:#fbfbfb;}.cls-20,.cls-7{fill:#263239;}.cls-8{font-size:50.97px;}.cls-8,.cls-9{font-family:mr_Izax_Thin-Izax, mr_Izax_Thin;}.cls-9{font-size:18.24px;letter-spacing:0.07em;}.cls-10{fill:#ad4a3f;}.cls-11{fill:#35484f;}.cls-12{fill:#455a64;}.cls-13{fill:#e9505b;}.cls-14{opacity:0.3;}.cls-15{fill:#e6eefa;}.cls-16{fill:#5dbdaf;}.cls-17{fill:#e5ab91;}.cls-18{fill:#bc8479;}.cls-19{fill:#377c77;}.cls-20{font-size:11.5px;letter-spacing:0.03em;}.cls-20,.cls-21{font-family:mr_Izax-Izax, mr_Izax;}.cls-21{font-size:25.21px;letter-spacing:0.03em;}</style></defs><g id="Слой_2" data-name="Слой 2"><g id="Слой_1-2" data-name="Слой 1"><polygon class="cls-1" points="299.16 0 299.16 196.75 45.04 196.75 35.88 1.38 299.16 0"/><rect class="cls-2" x="65.14" y="-28.12" width="195.61" height="254.12" transform="translate(64 261.89) rotate(-90)"/><path class="cls-1" d="M291,197.72H34.91V.17H291ZM36.85,195.78H289V2.11H36.85Z"/><rect class="cls-3" x="63.4" y="21.24" width="199.07" height="149.76"/><path class="cls-1" d="M262.48,21.24l-1,0-2.8,0-10.84.05L207,21.47,63.4,21.7l.46-.46c0,44.92,0,95.91,0,149.74v0l-.51-.5,199.08.09-.42.41c.09-45.26.17-82.64.22-108.74.05-13.06.08-23.29.11-30.28,0-3.48,0-6.15,0-8s.05-2.77.05-2.77,0,.9,0,2.68,0,4.45.05,7.89c0,7,.06,17.17.11,30.19.05,26.16.12,63.64.21,109v.41h-.41l-199.08.09h-.5V171c0-53.83,0-104.82.05-149.74v-.45h.45L207.34,21l40.72.12,10.76.05,2.75,0Z"/><path class="cls-1" d="M35.88.69c.08-.12,1.72.9,4.3,2.64s6.1,4.19,9.92,7,7.2,5.49,9.59,7.48,3.8,3.31,3.71,3.41-1.66-1-4.15-2.85L49.5,11.16,39.76,3.91C37.29,2,35.8.8,35.88.69Z"/><path class="cls-1" d="M290,1.14c.17.23-5.86,4.91-13.46,10.46s-13.9,9.87-14.06,9.64,5.86-4.9,13.46-10.46S289.84.92,290,1.14Z"/><line class="cls-3" x1="290" y1="196.75" x2="261.47" y2="171"/><path class="cls-1" d="M261.47,171c.18-.21,6.72,5.39,14.6,12.5s14.12,13,13.93,13.25-6.72-5.39-14.6-12.5S261.28,171.21,261.47,171Z"/><path class="cls-1" d="M35.88,196.75c-.19-.21,5.76-5.88,13.28-12.67s13.78-12.13,14-11.92S57.36,178,49.84,184.83,36.07,197,35.88,196.75Z"/><path class="cls-1" d="M209,48.85c0,.29-19.7.53-44,.53s-44-.24-44-.53,19.69-.52,44-.52S209,48.57,209,48.85Z"/><path class="cls-1" d="M228.84,98.37c0,.29-29.5.53-65.89.53S97,98.66,97,98.37s29.5-.52,65.91-.52S228.84,98.09,228.84,98.37Z"/><path class="cls-1" d="M228.84,110.61c0,.28-29.5.52-65.89.52S97,110.89,97,110.61s29.5-.53,65.91-.53S228.84,110.32,228.84,110.61Z"/><path class="cls-1" d="M133.69,141c0,.29-8.27.52-18.47.52s-18.48-.23-18.48-.52,8.27-.52,18.48-.52S133.69,140.73,133.69,141Z"/><path class="cls-1" d="M235,141c0,.29-9.26.52-20.67.52s-20.67-.23-20.67-.52,9.25-.52,20.67-.52S235,140.73,235,141Z"/><path class="cls-4" d="M124.15,138.13a4.3,4.3,0,0,1-.22-1.27,13.74,13.74,0,0,1,2.54-9.08,3.11,3.11,0,0,1,1.58-1.07,2.37,2.37,0,0,1,2,.44,3.67,3.67,0,0,1,1.28,4,11.9,11.9,0,0,1-2.25,4,20.39,20.39,0,0,1-3.4,3.58,10.06,10.06,0,0,1-4.86,2.24,7.81,7.81,0,0,1-5.58-1.25,6,6,0,0,1-2.45-5.46,18.11,18.11,0,0,1,1.66-6,6.85,6.85,0,0,1,2-2.63,4.41,4.41,0,0,1,3.38-.84,3.3,3.3,0,0,1,2.53,2.52,7,7,0,0,1-.2,3.46,21.36,21.36,0,0,1-3,5.85,13.34,13.34,0,0,1-4.89,4.19,9.92,9.92,0,0,1-6.19.78,7.35,7.35,0,0,1-4.9-3.46,9.66,9.66,0,0,1-1.3-5.54,14.61,14.61,0,0,1,1.35-5.14c.69-1.48,1.54-3.24,3.41-3.73a2.26,2.26,0,0,1,2.34,1.09,5,5,0,0,1,.62,2.27,15,15,0,0,1-1.83,7.55,15.67,15.67,0,0,1-3.67,4.56,14.16,14.16,0,0,1-3.1,2,5.13,5.13,0,0,1-1.21.43,20.74,20.74,0,0,0,4-2.75,15.57,15.57,0,0,0,3.42-4.52,14.67,14.67,0,0,0,1.61-7.24,4.26,4.26,0,0,0-.53-1.9,1.47,1.47,0,0,0-1.54-.7,3,3,0,0,0-1.64,1.21,10.21,10.21,0,0,0-1.13,2.07c-1.32,2.92-1.92,6.73,0,9.83a6.42,6.42,0,0,0,4.28,3,9,9,0,0,0,5.56-.74c3.53-1.7,6-5.5,7.34-9.4a6,6,0,0,0,.2-2.92,2.25,2.25,0,0,0-1.73-1.75,3.37,3.37,0,0,0-2.56.65,6,6,0,0,0-1.7,2.25,17.09,17.09,0,0,0-1.58,5.57,5.06,5.06,0,0,0,2,4.63,7,7,0,0,0,4.9,1.12,9.38,9.38,0,0,0,4.45-2,19.85,19.85,0,0,0,3.29-3.39,11.53,11.53,0,0,0,2.18-3.69,3,3,0,0,0-1-3.28,1.92,1.92,0,0,0-2.77.49,13.14,13.14,0,0,0-2.37,5.09A19.74,19.74,0,0,0,124.15,138.13Z"/><path class="cls-4" d="M230.18,135.68a1.76,1.76,0,0,1-.4.22c-.28.13-.68.33-1.23.55a42.53,42.53,0,0,1-4.89,1.69,46.61,46.61,0,0,1-8.1,1.48,44.8,44.8,0,0,1-5.16.19c-1.82,0-3.8-.36-5.7-.14a3.92,3.92,0,0,0-2.48,1.26,2.35,2.35,0,0,0-.3,2.65,13.63,13.63,0,0,0,1.88,2.68c.72.89,1.48,1.78,2.27,2.67s1.62,1.77,2.48,2.64a8.29,8.29,0,0,0,2.81,2.16,2.49,2.49,0,0,0,2.91-1,5.44,5.44,0,0,0,.87-3.51A83.58,83.58,0,0,1,219,114.09l.44-1.32.53,1.28a29.24,29.24,0,0,1,2.07,9.16,30.07,30.07,0,0,1-2.1,12.77,29.15,29.15,0,0,1-3,5.57c-1.16,1.67-2.6,3.49-4.83,4.07a3,3,0,0,1-3.16-1.13,5.89,5.89,0,0,1-.83-3.06,31.26,31.26,0,0,1,.18-5.82,31.85,31.85,0,0,1,3.2-10.53l.33-.66.44.59a7.06,7.06,0,1,1-10.8-.34,3.93,3.93,0,0,1,1.77-1.22,1.89,1.89,0,0,1,2.06.57,2.88,2.88,0,0,1,.5,1.94,5.94,5.94,0,0,1-.39,1.77,22.58,22.58,0,0,1-5.67,8.86,22,22,0,0,1-2.14,1.79,6.6,6.6,0,0,1-.8.51s.23-.24.72-.63,1.18-1,2-1.87a23,23,0,0,0,5.36-8.83,3.6,3.6,0,0,0-.06-3.16c-.7-.88-2.11-.28-2.88.71a6.62,6.62,0,0,0-.48,7.78,6.44,6.44,0,0,0,8.4,1.75c2.9-1.61,3.87-6.19,1.66-9.07l.78-.08a31.21,31.21,0,0,0-3.05,10.23,30.33,30.33,0,0,0-.16,5.65,5,5,0,0,0,.66,2.54,1.91,1.91,0,0,0,2.11.72,5.66,5.66,0,0,0,2.36-1.38A16.26,16.26,0,0,0,216.1,141a28.29,28.29,0,0,0,2.87-5.38,29,29,0,0,0,2-12.32,28.19,28.19,0,0,0-2-8.82l1,0a83.54,83.54,0,0,0-3.9,34.75,6.27,6.27,0,0,1-1.08,4.09,3.94,3.94,0,0,1-1.73,1.33,3.2,3.2,0,0,1-2.2,0,9,9,0,0,1-3.12-2.39c-.87-.9-1.7-1.79-2.5-2.7s-1.55-1.81-2.27-2.71a14.47,14.47,0,0,1-2-2.88,3.12,3.12,0,0,1,.45-3.44A4.64,4.64,0,0,1,204.6,139a13.85,13.85,0,0,1,3,0c1,.08,1.88.15,2.79.17a47,47,0,0,0,5.1-.11,48.14,48.14,0,0,0,8-1.31,51.08,51.08,0,0,0,4.92-1.5A12.7,12.7,0,0,1,230.18,135.68Z"/><path class="cls-5" d="M562.06,663.63v62.45H551.63v6.77h10.43v41.8H756.94v-38H742.51v-8.28h14.43V715.91h6.42v-5.65h-7.62V663.63Z"/><polygon class="cls-1" points="705.19 663.81 705.19 773.95 756.94 773.95 756.94 735.92 742.51 735.92 742.51 728.34 756.94 728.59 756.94 716.17 763.48 716.18 763.36 709.75 755.74 709.57 755.74 663.63 705.19 663.81"/><path class="cls-1" d="M708.88,732c0,.38-35.27.69-78.76.69s-78.76-.31-78.76-.69,35.25-.7,78.76-.7S708.88,731.57,708.88,732Z"/><path class="cls-1" d="M708.88,725.61c0,.39-35.27.7-78.76.7s-78.76-.31-78.76-.7,35.25-.69,78.76-.69S708.88,725.23,708.88,725.61Z"/><path class="cls-1" d="M719,708.54c0,.39-35.26.69-78.75.69s-78.77-.3-78.77-.69,35.26-.69,78.77-.69S719,708.16,719,708.54Z"/><path class="cls-1" d="M720,755.06c0,.38-35.27.69-78.76.69s-78.77-.31-78.77-.69,35.26-.69,78.77-.69S720,754.68,720,755.06Z"/><rect class="cls-6" x="179.43" y="671.55" width="36.05" height="25.72"/><rect class="cls-5" x="26.41" y="670.62" width="153.42" height="27.59"/><path class="cls-2" d="M178.71,672.49h38.75a.93.93,0,0,0,.93-.94h0a.93.93,0,0,0-.93-.93H178.71Z"/><path class="cls-2" d="M178.71,696.34H218a.42.42,0,0,1,.42.42v1a.42.42,0,0,1-.42.42H178.71a0,0,0,0,1,0,0v-1.87A0,0,0,0,1,178.71,696.34Z"/><path class="cls-1" d="M215.48,676.44c0,.12-8,.21-17.83.21s-17.82-.09-17.82-.21,8-.21,17.82-.21S215.48,676.32,215.48,676.44Z"/><path class="cls-1" d="M215.48,681.31c0,.11-8,.21-17.83.21s-17.82-.1-17.82-.21,8-.21,17.82-.21S215.48,681.19,215.48,681.31Z"/><path class="cls-1" d="M215.48,686.17c0,.12-8,.21-17.83.21s-17.82-.09-17.82-.21,8-.21,17.82-.21S215.48,686.06,215.48,686.17Z"/><path class="cls-1" d="M215.48,691c0,.11-8,.21-17.83.21s-17.82-.1-17.82-.21,8-.21,17.82-.21S215.48,690.92,215.48,691Z"/><rect class="cls-4" x="184.15" y="700.66" width="36.8" height="69.72"/><rect class="cls-1" x="11.43" y="698.21" width="172.72" height="75.59"/><path class="cls-1" d="M223.82,773.8H179.43v-4.9h44.39a2.46,2.46,0,0,1,2.46,2.45h0A2.46,2.46,0,0,1,223.82,773.8Z"/><path class="cls-1" d="M179.43,698.21h45.75a1.1,1.1,0,0,1,1.1,1.1V702a1.1,1.1,0,0,1-1.1,1.1H179.43a0,0,0,0,1,0,0v-4.9A0,0,0,0,1,179.43,698.21Z"/><path class="cls-1" d="M220.94,710c0,.12-8.23.22-18.39.22s-18.4-.1-18.4-.22,8.23-.21,18.4-.21S220.94,709.89,220.94,710Z"/><path class="cls-1" d="M220.94,719c0,.11-8.23.21-18.39.21s-18.4-.1-18.4-.21,8.23-.21,18.4-.21S220.94,718.83,220.94,719Z"/><path class="cls-1" d="M220.94,727.89c0,.11-8.23.21-18.39.21s-18.4-.1-18.4-.21,8.23-.21,18.4-.21S220.94,727.77,220.94,727.89Z"/><path class="cls-1" d="M220.94,736.83c0,.12-8.23.21-18.39.21s-18.4-.09-18.4-.21,8.23-.21,18.4-.21S220.94,736.71,220.94,736.83Z"/><path class="cls-1" d="M220.94,745.77c0,.12-8.23.21-18.39.21s-18.4-.09-18.4-.21,8.23-.21,18.4-.21S220.94,745.66,220.94,745.77Z"/><path class="cls-1" d="M220.94,754.71c0,.12-8.23.22-18.39.22s-18.4-.1-18.4-.22,8.23-.21,18.4-.21S220.94,754.6,220.94,754.71Z"/><path class="cls-1" d="M220.94,763.66c0,.11-8.23.21-18.39.21s-18.4-.1-18.4-.21,8.23-.21,18.4-.21S220.94,763.54,220.94,763.66Z"/><rect class="cls-2" x="737.39" y="621.82" width="33.98" height="40.4"/><rect class="cls-1" x="584.97" y="619.18" width="153.59" height="45.58"/><path class="cls-1" d="M772.4,623h-38v-3.84h38a1.92,1.92,0,0,1,1.92,1.92h0A1.92,1.92,0,0,1,772.4,623Z"/><path class="cls-1" d="M772.4,664.76h-38v-3.83h38a1.92,1.92,0,0,1,1.92,1.91h0A1.92,1.92,0,0,1,772.4,664.76Z"/><rect class="cls-5" x="708.34" y="619.18" width="18.15" height="45.58"/><rect class="cls-5" x="599.58" y="619.69" width="18.15" height="45.58"/><path class="cls-1" d="M771.37,628.5c0,.11-7.35.2-16.42.2s-16.43-.09-16.43-.2,7.35-.2,16.43-.2S771.37,628.39,771.37,628.5Z"/><path class="cls-1" d="M771.37,634.56c0,.11-7.35.2-16.42.2s-16.43-.09-16.43-.2,7.35-.2,16.43-.2S771.37,634.45,771.37,634.56Z"/><path class="cls-1" d="M771.37,642c0,.11-7.35.2-16.42.2s-16.43-.09-16.43-.2,7.35-.2,16.43-.2S771.37,641.91,771.37,642Z"/><path class="cls-1" d="M771.37,649.48c0,.11-7.35.2-16.42.2s-16.43-.09-16.43-.2,7.35-.2,16.43-.2S771.37,649.37,771.37,649.48Z"/><path class="cls-1" d="M771.37,656.94c0,.11-7.35.2-16.42.2s-16.43-.09-16.43-.2,7.35-.2,16.43-.2S771.37,656.83,771.37,656.94Z"/><rect class="cls-5" x="629.49" y="637.92" width="69.1" height="8.21"/><polygon class="cls-1" points="706.3 574.94 725.41 619.83 713.11 619.83 704.62 595.85 706.3 574.94"/><polygon class="cls-1" points="647.62 534.32 640.23 619.83 702.7 619.83 709.56 534.32 647.62 534.32"/><polygon class="cls-5" points="653.72 541.1 647.25 612.72 694.14 613.34 700.47 540.68 653.72 541.1"/><polygon class="cls-1" points="663.67 551.01 659.99 600.3 685 600.3 689.41 551.01 663.67 551.01"/><polygon class="cls-1" points="773.23 95.8 773.23 230.94 579.14 230.94 572.14 96.75 773.23 95.8"/><rect class="cls-3" x="602.24" y="66.65" width="133.91" height="194.09" transform="translate(505.49 832.89) rotate(-90)"/><path class="cls-1" d="M767.16,231.57H571.22V95.83H767.16Zm-194.09-1.84H765.32V97.67H573.07Z"/><rect class="cls-3" x="593.17" y="113.38" width="152.05" height="100.63"/><path class="cls-1" d="M745.22,113.38l-.75,0-2.17,0-8.35,0-31.33.12-109.45.21.44-.44c0,30.75,0,64.82,0,100.63h0l-.48-.48,152.05.1-.39.38c.09-30.63.16-55.74.2-73.22.05-8.74.08-15.57.1-20.25,0-2.31,0-4.09,0-5.32s.05-1.85.05-1.85,0,.59,0,1.77,0,3,0,5.25c0,4.66.05,11.46.1,20.16,0,17.54.11,42.73.2,73.46v.38h-.38l-152.05.1h-.48V214h0c0-35.81,0-69.88,0-100.63v-.44h.44l109.74.22,31.23.12,8.26,0,2.12,0Z"/><path class="cls-1" d="M572.14,96.37a16.24,16.24,0,0,1,3.34,2.16c2,1.44,4.69,3.47,7.61,5.81s5.49,4.54,7.3,6.2a17,17,0,0,1,2.78,2.84c-.18.21-4.85-3.64-10.68-8.3S572,96.59,572.14,96.37Z"/><path class="cls-1" d="M766.24,96.75c.16.21-4.41,4.1-10.22,8.69s-10.64,8.15-10.8,7.94,4.4-4.1,10.21-8.69S766.07,96.54,766.24,96.75Z"/><path class="cls-3" d="M766.08,230.67l-21.64-17.54"/><path class="cls-1" d="M744.44,213.13c.17-.2,5.15,3.56,11.12,8.4s10.69,8.94,10.52,9.14-5.14-3.55-11.12-8.39S744.28,213.34,744.44,213.13Z"/><path class="cls-1" d="M572.14,230.65c-.16-.2,4.37-4.06,10.11-8.6S592.79,214,593,214.2s-4.36,4.06-10.11,8.6S572.31,230.86,572.14,230.65Z"/><rect class="cls-1" x="655.03" y="113.75" width="33.7" height="95.67" transform="translate(510.29 833.46) rotate(-90)"/><path class="cls-7" d="M768.73,773.86c0,.25-172.1.46-384.34.46S0,774.11,0,773.86s172.06-.47,384.39-.47S768.73,773.6,768.73,773.86Z"/><text class="cls-8" transform="translate(44.91 750.5)">ЗАКОН</text><text class="cls-9" transform="translate(55.26 688.68)">конституция</text><path class="cls-10" d="M184.35,624.84c7.92-4.09,17.25-4.62,26-3.16,4.73.78,9.65,2.19,12.87,5.74s3.82,9.79.13,12.84c-2.2,1.82-5.26,2.09-8.11,2.06-6.89-.08-14.52-1.29-20,2.85-3.14,2.36-5.23,6.29-9,7.45s-7.81-1-9.76-4.34-2-7.45-1.1-11.18A17.07,17.07,0,0,1,184.35,624.84Z"/><path class="cls-10" d="M166.2,589.81c4.85,6.92,14.26,4.63,18.62.4S191,579.87,192.71,574c3.84-13.34,7.71-27.33,4.86-40.9-.86-4.06-2.37-8.11-5.23-11.12s-7.24-4.81-11.25-3.75c-4.74,1.26-7.69,5.9-9.83,10.33a97.62,97.62,0,0,0-9.63,41.84c0,6.74.77,13.81,4.57,19.37"/><path class="cls-10" d="M152.9,599.73c5.26-6.24,6.26-15.34,3.92-23.16s-7.63-14.47-13.72-19.9a73.67,73.67,0,0,0-24.57-14.49c-3.55-1.25-7.3-2.24-11-1.88s-7.52,2.27-9.27,5.61c-2.58,4.93-.11,10.91,2.58,15.79a186.68,186.68,0,0,0,16.13,24.57c4.84,6.24,10.38,12.39,17.75,15.21s15,2.48,18.93-2.63"/><path class="cls-7" d="M165.87,694.16a14,14,0,0,0,.44-3.14c.23-2.29.51-5.16.84-8.58a121.63,121.63,0,0,1,1.93-12.58A96.64,96.64,0,0,1,173.65,655a54.77,54.77,0,0,1,7.58-13.44,28.24,28.24,0,0,1,9.59-8,26.86,26.86,0,0,1,8.08-2.52,14.77,14.77,0,0,0,3.13-.45,15.14,15.14,0,0,0-3.19,0,24.49,24.49,0,0,0-8.42,2.19,28.34,28.34,0,0,0-10.11,8,53.3,53.3,0,0,0-7.86,13.71,90,90,0,0,0-4.54,15.09,106,106,0,0,0-1.68,12.75c-.27,3.64-.37,6.59-.42,8.63A15.31,15.31,0,0,0,165.87,694.16Z"/><path class="cls-7" d="M166.47,687.56a6.58,6.58,0,0,0,.08-1.46c0-1.09,0-2.48,0-4.17,0-3.62,0-8.86.18-15.33.33-12.93,1.44-26.86,3.59-46.48,2-18.46,4.77-39.94,7.66-53.91.62-3.17,1.24-6,1.83-8.53s1-4.68,1.49-6.43.72-3,1-4a5.52,5.52,0,0,0,.25-1.44,6.72,6.72,0,0,0-.5,1.37l-1.21,4c-.54,1.74-1.09,3.89-1.72,6.39s-1.34,5.34-2,8.51a474.31,474.31,0,0,0-8,50c-2.16,19.67-3.13,37.58-3.21,50.55-.08,6.48.06,11.73.22,15.35.11,1.7.19,3.08.26,4.17A5.63,5.63,0,0,0,166.47,687.56Z"/><path class="cls-7" d="M166.55,653a27,27,0,0,0,0-4.36c-.16-2.8-.54-6.85-1.33-11.8a157.53,157.53,0,0,0-3.84-17.2,142.15,142.15,0,0,0-7.19-20.35c-6-14.15-14.07-25.72-21.12-32.89a56,56,0,0,0-5-4.62c-.76-.64-1.44-1.29-2.12-1.8L124,558.68a26.65,26.65,0,0,0-3.67-2.35c-.21.28,5.2,3.46,12,10.72s14.68,18.74,20.6,32.77A160,160,0,0,1,160.2,620a174.41,174.41,0,0,1,4.08,17c.9,4.91,1.42,8.92,1.74,11.69A28.71,28.71,0,0,0,166.55,653Z"/><polygon class="cls-11" points="133.16 713.95 136.63 761.37 197.55 761.37 201.01 713.95 133.16 713.95"/><rect class="cls-11" x="127.28" y="695.26" width="81" height="18.69"/><polygon class="cls-12" points="127.28 759.56 127.28 764.74 131.09 764.74 206.94 764.74 206.94 759.56 127.28 759.56"/><polygon class="cls-12" points="134.82 773.86 131.09 764.74 204.04 764.74 199.68 773.86 134.82 773.86"/><path class="cls-1" d="M199.88,729.45a2.41,2.41,0,0,1-.29.43c-.24.33-.54.72-.91,1.21-.86,1.11-2.05,2.63-3.55,4.54l-.15.21-.16-.22-8.72-12h.51L178,735.72l-.27.38-.3-.36-10.18-12.11h.59l-.56.71-9.11,11.41-.3.38-.28-.4L149,723.57l.5,0-10.57,12-.19.21-.15-.24c-1.39-2.34-2.5-4.21-3.31-5.56-.34-.61-.62-1.1-.85-1.49a3.24,3.24,0,0,1-.26-.52,2.14,2.14,0,0,1,.36.47l.94,1.42L139,735.4l-.33,0L149,723.18l.26-.31.24.33,8.67,12.1-.59,0c2.89-3.62,5.93-7.46,9.08-11.42l.56-.71.29-.36.3.35L178,735.28l-.57,0,8.67-12.09.26-.36.25.36,8.53,12.19h-.31l3.69-4.43,1-1.14C199.74,729.56,199.86,729.44,199.88,729.45Z"/><path class="cls-12" d="M201.86,713.64c0,.21-15.27.38-34.09.38s-34.1-.17-34.1-.38,15.26-.38,34.1-.38S201.86,713.43,201.86,713.64Z"/><path class="cls-7" d="M204.93,765.25c0,.21-16.59.38-37.05.38s-37-.17-37-.38,16.59-.38,37-.38S204.93,765,204.93,765.25Z"/><path class="cls-7" d="M302.71,773.86c-1-4,27.93-149.78,27.93-149.78l154.79-22.14s62.82,38.26,64.8,69.94,16.58,102,16.58,102H417l-4.73-6.17-3,5.64Z"/><path class="cls-12" d="M424.41,744.84a.7.7,0,0,1,0,.27,3.86,3.86,0,0,1-.19.75,6.15,6.15,0,0,1-1.59,2.52,8.71,8.71,0,0,1-4.12,2.31,9.16,9.16,0,0,1-6.21-.64,14,14,0,0,1-5.68-5,23.44,23.44,0,0,1-3.18-8.08c-.65-3-1-6.15-1.49-9.41s-.92-6.63-1.41-10.09c-1.86-13.78-3.54-26.25-4.77-35.44-.56-4.44-1-8.08-1.35-10.75-.12-1.19-.23-2.16-.31-2.93a4,4,0,0,1,0-1,4.28,4.28,0,0,1,.23,1c.13.77.3,1.73.49,2.91.41,2.66,1,6.28,1.64,10.71,1.31,9.18,3.08,21.63,5.05,35.4.47,3.46.94,6.84,1.39,10.1s.81,6.42,1.42,9.35a23,23,0,0,0,3,7.84,13.41,13.41,0,0,0,5.31,4.85,8.74,8.74,0,0,0,9.8-1.33A8,8,0,0,0,424.41,744.84Z"/><path class="cls-12" d="M411.46,657.16a2.74,2.74,0,0,1,1.69-.25,5.9,5.9,0,0,1,4.09,2.2,6.77,6.77,0,0,1,.77,6.81,7.82,7.82,0,0,1-6.87,4.75,6.86,6.86,0,0,1-4.35-1.23,7.3,7.3,0,0,1-2.57-3.32,6.51,6.51,0,0,1-.33-3.8,6.11,6.11,0,0,1,1.59-2.9,6.7,6.7,0,0,1,4.19-2,3.16,3.16,0,0,1,1.69.21c0,.09-.61,0-1.65.15a6.76,6.76,0,0,0-3.75,2.12,5.58,5.58,0,0,0-.94,5.94,6.19,6.19,0,0,0,6.07,3.94,7,7,0,0,0,6.13-4.15,6.16,6.16,0,0,0-.5-6.07,5.79,5.79,0,0,0-3.62-2.25C412.07,657.09,411.47,657.25,411.46,657.16Z"/><path class="cls-2" d="M511.8,246.81H430.06l-9.08,24-51.82,71.06-40.72,293.3,51.83,9.59A97.54,97.54,0,0,0,407.56,646l77.87-7.7,2.33-261.62,37.93-105.24Z"/><path class="cls-7" d="M449.69,298.32s-.06.3-.22.88-.42,1.47-.73,2.58l-2.92,9.86c-1.29,4.27-2.84,9.51-4.55,15.62s-3.77,13-5.81,20.74-4.39,16.14-6.67,25.25-4.69,18.84-7.16,29.1c-4.8,20.55-9.72,43.23-14.29,67.16s-8.24,46.85-11.3,67.74c-1.45,10.45-2.88,20.38-4,29.7s-2.17,18-3,25.94-1.56,15.12-2.19,21.43-1.11,11.75-1.48,16.2-.69,7.86-.9,10.24c-.11,1.14-.2,2-.26,2.67s-.12.9-.12.9,0-.31,0-.91.09-1.53.16-2.67c.17-2.39.42-5.84.73-10.26s.72-9.9,1.32-16.22,1.17-13.52,2.06-21.45,1.74-16.64,2.93-26,2.47-19.27,3.9-29.73c3-20.91,6.72-43.84,11.23-67.8s9.52-46.63,14.37-67.18c2.5-10.26,4.83-20,7.25-29.09s4.64-17.54,6.78-25.23,4.18-14.63,5.95-20.72,3.36-11.32,4.71-15.58,2.36-7.53,3.08-9.81l.82-2.54C449.57,298.6,449.69,298.32,449.69,298.32Z"/><path class="cls-7" d="M352,612c.32,0-.45,6.93,1.71,15.08s6.12,13.85,5.84,14a15.26,15.26,0,0,1-2.62-3.67,40.72,40.72,0,0,1-5.43-20.92A15.34,15.34,0,0,1,352,612Z"/><path class="cls-7" d="M356.59,642.22a8.71,8.71,0,0,1-3-1.43,27.77,27.77,0,0,1-10.39-11.91,8.69,8.69,0,0,1-1-3.14c.27-.13,2,4.65,6.05,9.24S356.75,642,356.59,642.22Z"/><path class="cls-7" d="M419.66,614.61a16.78,16.78,0,0,1,.31,4.58,50,50,0,0,1-5.27,21.4,16.36,16.36,0,0,1-2.41,3.91,36.48,36.48,0,0,1,1.81-4.19A64.47,64.47,0,0,0,417.62,630a65.68,65.68,0,0,0,1.69-10.8A33.7,33.7,0,0,1,419.66,614.61Z"/><path class="cls-7" d="M423.11,265.2s-49.9,21.09-57.08,22.47-32.35,7.68-32.35,7.68-19.31,34.59-17.52,54.35,15.28,161.73,15.28,161.73-22,122.64-22.47,131.62-19.31,94.79-15.72,94.34,20.22-18.86,20.22-18.86l54.8-301.44s14.38-69.18,25.16-91.64,29.68-51.67,29.68-51.67Z"/><path class="cls-12" d="M349.93,518a4.9,4.9,0,0,1-.07-.71c0-.51-.07-1.2-.12-2.08-.08-1.88-.2-4.56-.35-8-.26-7-.63-17-1.08-29.38s-.87-27.19-1.24-43.6c-.18-8.21-.36-16.82-.38-25.76.17-9,2.18-18.16,4.54-27.33,3.92-15.17,8.85-29.4,13.59-42.56s9.55-25.18,14-35.75l0-.09.07-.05,13.85-11.6.32.54-10.2,4L382,296l.62-.78,11.52-14.55,3.09-3.84.81-1a2.2,2.2,0,0,1,.29-.32,1.88,1.88,0,0,1-.23.36c-.2.26-.44.6-.75,1l-3,3.93L383,295.51l-.31-.41L392.85,291l1.8-.72-1.48,1.26-13.79,11.67.11-.13c-4.37,10.57-9.1,22.62-13.84,35.76s-9.61,27.37-13.52,42.49c-2.35,9.14-4.35,18.23-4.53,27.1,0,8.92.17,17.54.33,25.74.39,16.4.74,31.17,1,43.6s.59,22.4.78,29.39c.08,3.43.14,6.12.18,8,0,.87,0,1.56,0,2.08A3.36,3.36,0,0,1,349.93,518Z"/><path class="cls-7" d="M333.68,295.35s-16.45,12.58-19.26,26.7-7,74.07-7,74.07-7,8-7,9.36-3.38,39-3.38,39l-52.81-66.34-47.94,45.29s62.2,108.74,86.82,118.4c37.48,14.7,48.69-6.63,48.69-6.63l5.62-87.58Z"/><path class="cls-12" d="M321.5,355a2.7,2.7,0,0,1,.11.48c.06.37.14.84.23,1.42.2,1.32.47,3.15.81,5.47.68,4.75,1.63,11.63,2.73,20.15,2.19,17,5.06,40.58,6.58,66.75.72,13.09,1,25.59.81,36.94-.16,5.68-.24,11.08-.59,16.12-.15,2.52-.25,5-.44,7.3s-.4,4.57-.59,6.71c-.31,4.29-.87,8.14-1.27,11.52-.22,1.69-.42,3.26-.6,4.72s-.45,2.75-.64,3.94q-.58,3.48-.92,5.46l-.27,1.41a1.62,1.62,0,0,1-.12.48,3.1,3.1,0,0,1,0-.5c0-.37.1-.84.17-1.42q.27-2,.75-5.48c.17-1.19.35-2.51.56-4s.33-3,.52-4.72c.35-3.39.86-7.23,1.14-11.52.17-2.13.34-4.37.53-6.7s.24-4.77.38-7.29c.31-5,.37-10.42.5-16.09.09-11.34-.16-23.8-.88-36.87-1.52-26.13-4.28-49.69-6.31-66.73-1-8.47-1.85-15.34-2.43-20.18-.27-2.33-.48-4.17-.63-5.49-.06-.59-.11-1.06-.15-1.44A1.83,1.83,0,0,1,321.5,355Z"/><path class="cls-12" d="M311.83,496.5a10.1,10.1,0,0,1-.23-2.13c-.08-1.37-.24-3.35-.49-5.79a111,111,0,0,0-10.25-36.65c-1.05-2.21-1.94-4-2.59-5.2a9.55,9.55,0,0,1-.9-1.94,9.32,9.32,0,0,1,1.22,1.76c.74,1.17,1.73,2.9,2.86,5.09a96.48,96.48,0,0,1,10.32,36.89c.16,2.46.22,4.45.19,5.83A8.86,8.86,0,0,1,311.83,496.5Z"/><path class="cls-12" d="M317.79,483.3c-.17,0-.27-2.56-1-6.62a58,58,0,0,0-14-28.51c-2.76-3.06-4.74-4.71-4.63-4.84a6.84,6.84,0,0,1,1.48,1.05,38.2,38.2,0,0,1,3.63,3.34,52.71,52.71,0,0,1,14.19,28.85,38,38,0,0,1,.43,4.92A7.32,7.32,0,0,1,317.79,483.3Z"/><path class="cls-12" d="M349.93,518a2,2,0,0,1-.05.54c-.06.41-.14.93-.24,1.59q-.36,2.19-1,6.09c-.93,5.34-2.26,13-3.89,22.35-3.38,18.92-8,44.94-13.18,73.69l-13.45,73.65c-1.76,9.37-3.18,17-4.18,22.31-.5,2.58-.9,4.6-1.18,6-.14.65-.25,1.17-.33,1.57a2.08,2.08,0,0,1-.15.53,2,2,0,0,1,.05-.54q.09-.62.24-1.59.36-2.19,1-6.09c.93-5.34,2.26-13,3.89-22.35,3.38-18.92,8-44.95,13.18-73.71s10-54.74,13.45-73.64c1.76-9.37,3.18-17,4.18-22.3.51-2.58.9-4.61,1.19-6.06.13-.64.24-1.16.33-1.57A2.76,2.76,0,0,1,349.93,518Z"/><path class="cls-7" d="M516.26,255l-45.15,98.78s-23.4,64-25.17,72-25.16,109.06-25.16,109.06l15.45,149.67s2,52.1,16.88,56.52,127.5-14.57,127.5-14.57l-18.55-125S555,505.62,555,504.29s20.31-143,20.31-143l13.44-54.72L550.58,291Z"/><path class="cls-12" d="M428.47,510.61s.08-.23.26-.69.51-1.18.87-2.05l3.55-7.72c3.16-6.71,7.7-16.35,13.31-28.24L490.91,379c13.35-27.69,25.74-53.37,35.83-74.29l.35.55-15.14,0h-1.2l1-.64,15.17-9.46-.13.25c-.39-9.5-.69-17-.91-22.23-.08-2.54-.15-4.52-.2-5.9l0-1.52a2,2,0,0,1,0-.51,3.34,3.34,0,0,1,.06.51c0,.38.06.88.11,1.51q.12,2.08.35,5.89c.27,5.2.66,12.72,1.16,22.22v.17l-.14.09-15.1,9.57-.19-.64,15.14,0h.61l-.26.55c-10.06,20.94-22.39,46.65-35.69,74.37C457,451.4,430.7,506,428.47,510.61Z"/><path class="cls-12" d="M539.45,398.5a9.63,9.63,0,0,1-2.1-.05c-1.35-.1-3.3-.22-5.71-.32a151.9,151.9,0,0,0-18.83.29,154.42,154.42,0,0,0-18.63,2.68c-2.37.49-4.27.92-5.59,1.23a9.57,9.57,0,0,1-2.07.38,8.32,8.32,0,0,1,2-.73c1.29-.42,3.18-1,5.53-1.52a121.26,121.26,0,0,1,37.65-3c2.41.19,4.36.41,5.7.62A8.52,8.52,0,0,1,539.45,398.5Z"/><path class="cls-1" d="M537,398c6.23.23-1.07-18.9-3.92-28.14-.54-1.74-1.47-3.77-3.28-3.94a4.74,4.74,0,0,0-3.09,1.27c-12.15,9-22.3,21.21-31.39,33.3C495.29,400.51,524,397.53,537,398Z"/><path class="cls-12" d="M443.09,541.84c.08.23-3.75,1.62-8.7,2.26s-9,.3-9,0,4-.33,8.87-1S443,541.58,443.09,541.84Z"/><path class="cls-12" d="M559.71,601.94c0,.25-14,2.54-31.44,5.11s-31.55,4.45-31.59,4.2,14-2.55,31.45-5.12S559.67,601.68,559.71,601.94Z"/><path class="cls-12" d="M492.44,720.8a1.91,1.91,0,0,1-.26-.53l-.66-1.59c-.59-1.46-1.41-3.52-2.46-6.14s-2.35-5.94-3.73-9.78-3.05-8.19-4.65-13.07-3.46-10.19-5.21-16-3.59-12-5.47-18.5c-3.58-13.1-7.15-27.62-10.27-43s-5.38-30.16-7.14-43.63c-.8-6.75-1.61-13.16-2.11-19.18s-1-11.63-1.37-16.76-.56-9.76-.76-13.84-.3-7.59-.34-10.46-.08-5.05-.11-6.62V500a2.23,2.23,0,0,1,0-.59,2.27,2.27,0,0,1,.06.59c0,.44.06,1,.1,1.72.07,1.57.16,3.78.28,6.6s.24,6.38.5,10.45.45,8.71.9,13.83.82,10.72,1.48,16.72,1.37,12.41,2.19,19.15c1.8,13.45,4.15,28.19,7.2,43.56s6.66,29.84,10.19,42.94c1.85,6.53,3.55,12.75,5.38,18.51s3.48,11.12,5.1,16,3.17,9.25,4.51,13.1,2.56,7.15,3.58,9.83l2.29,6.2.58,1.63A3.88,3.88,0,0,1,492.44,720.8Z"/><path class="cls-12" d="M580.61,726.38l-.8.15-2.33.36-9,1.29-33.14,4.58-49.18,6.68-14.21,1.91-7.34,1a26.55,26.55,0,0,1-7.64.4,16.24,16.24,0,0,1-12.31-9.11,19.87,19.87,0,0,1-1.26-3.82l-1-3.87c-.64-2.58-1.33-5.18-1.84-7.83-4.6-21.11-6.6-41.63-8.15-60.24s-2.48-35.42-3.69-49.49-2.5-25.42-3.55-33.25c-.52-3.91-1-6.93-1.31-9l-.33-2.35c-.07-.53-.08-.8-.08-.8s.08.26.18.79.24,1.33.41,2.33c.35,2,.91,5.06,1.49,9,1.16,7.82,2.6,19.17,3.85,33.25s2.37,30.86,3.89,49.47,3.62,39.07,8.2,60.11c.51,2.65,1.2,5.23,1.83,7.81s1.12,5.23,2.17,7.52a15.29,15.29,0,0,0,11.59,8.6c2.45.39,4.9-.08,7.39-.4l7.34-1L486,738.58l49.2-6.47,33.18-4.29,9-1.12,2.35-.26A8.06,8.06,0,0,1,580.61,726.38Z"/><polygon class="cls-13" points="431.69 291.24 433.64 313.94 453.42 322.05 476.45 299.67 461.2 291.24 449.85 291.24 439.8 287.67 431.69 291.24"/><path class="cls-13" d="M433.64,313.94S372.71,472.43,364.19,547h0L389,601.94l26.47-39,38.6-244.29Z"/><path class="cls-7" d="M453.38,322.72c-.18.24-3.82-3.1-9.39-5.16s-10.48-2-10.46-2.32,5-.76,10.79,1.44S453.57,322.6,453.38,322.72Z"/><path class="cls-7" d="M462.21,291.31a22.13,22.13,0,0,1-3.36,3.78,75.89,75.89,0,0,1-19.91,14,20.47,20.47,0,0,1-4.7,1.89,38.34,38.34,0,0,1,4.4-2.47,110.55,110.55,0,0,0,10.29-6.39,109.26,109.26,0,0,0,9.47-7.54A37.29,37.29,0,0,1,462.21,291.31Z"/><path class="cls-7" d="M451.49,320.84a4,4,0,0,1-.1.73c-.11.53-.24,1.24-.42,2.14l-1.66,8.21c-1.44,7.14-3.55,17.45-6,30.23-4.93,25.54-11.23,60.93-16.9,100.22-2.86,19.64-5.25,38.4-7.29,55.48-1,8.55-2.06,16.67-3.45,24.21a147.09,147.09,0,0,1-5.22,20.66A86.72,86.72,0,0,1,396,589.85a51.06,51.06,0,0,1-7.91,8.07,4.89,4.89,0,0,1,.51-.54l1.57-1.51a75.47,75.47,0,0,0,5.55-6.25,88.73,88.73,0,0,0,14.12-27.11,149.06,149.06,0,0,0,5.08-20.59c1.36-7.52,2.36-15.63,3.36-24.17,2-17.09,4.36-35.86,7.22-55.52,5.67-39.3,12.07-74.69,17.17-100.21,2.53-12.76,4.74-23.06,6.29-30.17l1.84-8.18c.21-.89.38-1.6.5-2.12A5.61,5.61,0,0,1,451.49,320.84Z"/><path class="cls-6" d="M433.56,411.59a47.05,47.05,0,0,1-3.12-5.27c-1.86-3.28-4.45-7.8-7.46-12.71s-5.86-9.27-8-12.42a45.74,45.74,0,0,1-3.27-5.17c.05,0,.44.4,1.11,1.22s1.59,2.05,2.71,3.58c2.22,3.05,5.17,7.38,8.19,12.3s5.54,9.52,7.25,12.89c.86,1.69,1.52,3.07,2,4A5.49,5.49,0,0,1,433.56,411.59Z"/><path class="cls-6" d="M422.22,480.75a11.56,11.56,0,0,1-1.14-2.09c-.74-1.54-1.69-3.5-2.82-5.83-2.36-4.93-5.66-11.72-9.42-19.16s-7.3-14.11-9.87-18.94c-1.22-2.28-2.23-4.2-3-5.72a11.48,11.48,0,0,1-1-2.15,12.68,12.68,0,0,1,1.33,2c.8,1.31,1.93,3.21,3.29,5.59,2.73,4.74,6.35,11.38,10.13,18.83s7,14.3,9.19,19.3c1.11,2.51,2,4.54,2.55,6A11.57,11.57,0,0,1,422.22,480.75Z"/><path class="cls-6" d="M414.7,542c-.22.14-8.42-12.8-18.31-28.88s-17.74-29.24-17.52-29.37,8.42,12.79,18.31,28.88S414.92,541.85,414.7,542Z"/><path class="cls-6" d="M400.2,584.22c-.21.14-7.86-10.66-17.08-24.12s-16.54-24.51-16.32-24.65,7.86,10.65,17.09,24.12S400.42,584.07,400.2,584.22Z"/><path class="cls-6" d="M441.33,368.56a21.65,21.65,0,0,1-2.93-3.27c-2-2.33-4.26-5.06-6.8-8.08l-6.94-7.95a22.92,22.92,0,0,1-2.79-3.4,18.79,18.79,0,0,1,3.27,2.94c1.91,1.92,4.47,4.66,7.17,7.8s5,6.1,6.6,8.29A19.14,19.14,0,0,1,441.33,368.56Z"/><path class="cls-6" d="M436.69,325.76c-.24.11-.94-1-2.13-2.05s-2.37-1.6-2.3-1.86,1.56,0,2.92,1.16S436.93,325.68,436.69,325.76Z"/><path class="cls-6" d="M439.19,331.59c-.18.18-1-.36-1.85-1.2s-1.38-1.67-1.2-1.86,1,.36,1.86,1.2S439.38,331.4,439.19,331.59Z"/><path class="cls-6" d="M448.38,338.77c-.18.18-2.07-1.48-4.22-3.7s-3.73-4.17-3.54-4.35,2.07,1.48,4.22,3.7S448.57,338.59,448.38,338.77Z"/><path class="cls-6" d="M449.14,301.62c-.18.22-3.39-2.54-7.89-5.07s-8.5-3.89-8.42-4.16,4.27.73,8.88,3.35S449.32,301.46,449.14,301.62Z"/><path class="cls-6" d="M466.09,309.12c-.24.15-2.11-2.63-4.93-5.6s-5.46-5-5.3-5.25,3.1,1.53,6,4.61S466.3,309,466.09,309.12Z"/><path class="cls-7" d="M433.66,337.15c-.24-.09,1.29-4.85,3.43-10.62s4.07-10.37,4.31-10.28-1.3,4.84-3.43,10.61S433.9,337.24,433.66,337.15Z"/><path class="cls-7" d="M436,350.9a24.89,24.89,0,0,1,.73-4.85c.58-3,1.49-7,2.65-11.5s2.34-8.47,3.28-11.35a23.8,23.8,0,0,1,1.72-4.58,28.1,28.1,0,0,1-1.09,4.77c-.85,3.22-1.87,7.1-3,11.39s-2.08,8.19-2.91,11.42A26.32,26.32,0,0,1,436,350.9Z"/><g class="cls-14"><path d="M435.48,315.62l-.07.23c1.12.29,1.77.63,1.86,1.79a8.35,8.35,0,0,1-.72,3.38q-1.79,5-3.59,10c-.3.84-.48,2,.34,2.42s1.53-.39,2-1.06l4.17-5.57c-.66,3.19-1.33,6.39-2,9.58-.19,1-.31,2.14.47,2.73a1.77,1.77,0,0,0,2.17-.28,5.16,5.16,0,0,0,1.19-2l2.88-7.27a21.29,21.29,0,0,1,2.46-4.91,7.15,7.15,0,0,1,4.48-3C446.62,317.57,441.51,316.44,435.48,315.62Z"/></g><path class="cls-7" d="M423.11,271.05a2.66,2.66,0,0,1,.12.63c.06.49.13,1.1.22,1.85.18,1.71.42,4.08.73,7.06.58,6.19,1.41,14.89,2.4,25.38l-.76-.1c1.66-4.51,3.51-9.5,5.46-14.78l.06-.18.17-.07,8.11-3.58.16-.08.17.06L450,290.8l-.16,0h11.47l.11.05,21.7,11.95-.54.11c8.09-10.25,15-18.95,19.84-25.17l5.71-7.12,1.54-1.86a3.79,3.79,0,0,1,.57-.62,4,4,0,0,1-.46.7l-1.44,1.95L502.84,278c-4.84,6.26-11.6,15-19.58,25.37l-.22.29-.32-.18L461,291.65l.23.06H449.77l-.07,0-10.05-3.58H440l-8.11,3.55.23-.24-5.55,14.75-.62,1.64-.14-1.75c-.85-10.5-1.56-19.22-2.06-25.41-.22-3-.39-5.36-.52-7.08,0-.76-.07-1.37-.1-1.86A2.6,2.6,0,0,1,423.11,271.05Z"/><path class="cls-11" d="M302.71,773.86c-1-4,27.93-149.78,27.93-149.78l154.79-22.14s62.82,38.26,64.8,69.94,16.58,102,16.58,102H417l-4.73-6.17-3,5.64Z"/><path class="cls-12" d="M424.41,744.84a.7.7,0,0,1,0,.27,3.86,3.86,0,0,1-.19.75,6.15,6.15,0,0,1-1.59,2.52,8.71,8.71,0,0,1-4.12,2.31,9.16,9.16,0,0,1-6.21-.64,14,14,0,0,1-5.68-5,23.44,23.44,0,0,1-3.18-8.08c-.65-3-1-6.15-1.49-9.41s-.92-6.63-1.41-10.09c-1.86-13.78-3.54-26.25-4.77-35.44-.56-4.44-1-8.08-1.35-10.75-.12-1.19-.23-2.16-.31-2.93a4,4,0,0,1,0-1,4.28,4.28,0,0,1,.23,1c.13.77.3,1.73.49,2.91.41,2.66,1,6.28,1.64,10.71,1.31,9.18,3.08,21.63,5.05,35.4.47,3.46.94,6.84,1.39,10.1s.81,6.42,1.42,9.35a23,23,0,0,0,3,7.84,13.41,13.41,0,0,0,5.31,4.85,8.74,8.74,0,0,0,9.8-1.33A8,8,0,0,0,424.41,744.84Z"/><path class="cls-12" d="M411.46,657.16a2.74,2.74,0,0,1,1.69-.25,5.9,5.9,0,0,1,4.09,2.2,6.77,6.77,0,0,1,.77,6.81,7.82,7.82,0,0,1-6.87,4.75,6.86,6.86,0,0,1-4.35-1.23,7.3,7.3,0,0,1-2.57-3.32,6.51,6.51,0,0,1-.33-3.8,6.11,6.11,0,0,1,1.59-2.9,6.7,6.7,0,0,1,4.19-2,3.16,3.16,0,0,1,1.69.21c0,.09-.61,0-1.65.15a6.76,6.76,0,0,0-3.75,2.12,5.58,5.58,0,0,0-.94,5.94,6.19,6.19,0,0,0,6.07,3.94,7,7,0,0,0,6.13-4.15,6.16,6.16,0,0,0-.5-6.07,5.79,5.79,0,0,0-3.62-2.25C412.07,657.09,411.47,657.25,411.46,657.16Z"/><path class="cls-15" d="M511.8,246.81H430.06l-9.08,24-51.82,71.06-40.72,293.3,51.83,9.59A97.54,97.54,0,0,0,407.56,646l77.87-7.7,2.33-261.62,37.93-105.24Z"/><path class="cls-7" d="M449.69,298.32s-.06.3-.22.88-.42,1.47-.73,2.58l-2.92,9.86c-1.29,4.27-2.84,9.51-4.55,15.62s-3.77,13-5.81,20.74-4.39,16.14-6.67,25.25-4.69,18.84-7.16,29.1c-4.8,20.55-9.72,43.23-14.29,67.16s-8.24,46.85-11.3,67.74c-1.45,10.45-2.88,20.38-4,29.7s-2.17,18-3,25.94-1.56,15.12-2.19,21.43-1.11,11.75-1.48,16.2-.69,7.86-.9,10.24c-.11,1.14-.2,2-.26,2.67s-.12.9-.12.9,0-.31,0-.91.09-1.53.16-2.67c.17-2.39.42-5.84.73-10.26s.72-9.9,1.32-16.22,1.17-13.52,2.06-21.45,1.74-16.64,2.93-26,2.47-19.27,3.9-29.73c3-20.91,6.72-43.84,11.23-67.8s9.52-46.63,14.37-67.18c2.5-10.26,4.83-20,7.25-29.09s4.64-17.54,6.78-25.23,4.18-14.63,5.95-20.72,3.36-11.32,4.71-15.58,2.36-7.53,3.08-9.81l.82-2.54C449.57,298.6,449.69,298.32,449.69,298.32Z"/><path class="cls-7" d="M352,612c.32,0-.45,6.93,1.71,15.08s6.12,13.85,5.84,14a15.26,15.26,0,0,1-2.62-3.67,40.72,40.72,0,0,1-5.43-20.92A15.34,15.34,0,0,1,352,612Z"/><path class="cls-7" d="M356.59,642.22a8.71,8.71,0,0,1-3-1.43,27.77,27.77,0,0,1-10.39-11.91,8.69,8.69,0,0,1-1-3.14c.27-.13,2,4.65,6.05,9.24S356.75,642,356.59,642.22Z"/><path class="cls-7" d="M419.66,614.61a16.78,16.78,0,0,1,.31,4.58,50,50,0,0,1-5.27,21.4,16.36,16.36,0,0,1-2.41,3.91,36.48,36.48,0,0,1,1.81-4.19A64.47,64.47,0,0,0,417.62,630a65.68,65.68,0,0,0,1.69-10.8A33.7,33.7,0,0,1,419.66,614.61Z"/><path class="cls-11" d="M423.11,265.2s-49.9,21.09-57.08,22.47-32.35,7.68-32.35,7.68-19.31,34.59-17.52,54.35,15.28,161.73,15.28,161.73-22,122.64-22.47,131.62-19.31,94.79-15.72,94.34,20.22-18.86,20.22-18.86l54.8-301.44s14.38-69.18,25.16-91.64,29.68-51.67,29.68-51.67Z"/><path class="cls-12" d="M349.93,518a4.9,4.9,0,0,1-.07-.71c0-.51-.07-1.2-.12-2.08-.08-1.88-.2-4.56-.35-8-.26-7-.63-17-1.08-29.38s-.87-27.19-1.24-43.6c-.18-8.21-.36-16.82-.38-25.76.17-9,2.18-18.16,4.54-27.33,3.92-15.17,8.85-29.4,13.59-42.56s9.55-25.18,14-35.75l0-.09.07-.05,13.85-11.6.32.54-10.2,4L382,296l.62-.78,11.52-14.55,3.09-3.84.81-1a2.2,2.2,0,0,1,.29-.32,1.88,1.88,0,0,1-.23.36c-.2.26-.44.6-.75,1l-3,3.93L383,295.51l-.31-.41L392.85,291l1.8-.72-1.48,1.26-13.79,11.67.11-.13c-4.37,10.57-9.1,22.62-13.84,35.76s-9.61,27.37-13.52,42.49c-2.35,9.14-4.35,18.23-4.53,27.1,0,8.92.17,17.54.33,25.74.39,16.4.74,31.17,1,43.6s.59,22.4.78,29.39c.08,3.43.14,6.12.18,8,0,.87,0,1.56,0,2.08A3.36,3.36,0,0,1,349.93,518Z"/><path class="cls-11" d="M333.68,295.35s-16.45,12.58-19.26,26.7-7,74.07-7,74.07-7,8-7,9.36-3.38,39-3.38,39l-52.81-66.34-47.94,45.29s62.2,108.74,86.82,118.4c37.48,14.7,48.69-6.63,48.69-6.63l5.62-87.58Z"/><path class="cls-12" d="M321.5,355a2.7,2.7,0,0,1,.11.48c.06.37.14.84.23,1.42.2,1.32.47,3.15.81,5.47.68,4.75,1.63,11.63,2.73,20.15,2.19,17,5.06,40.58,6.58,66.75.72,13.09,1,25.59.81,36.94-.16,5.68-.24,11.08-.59,16.12-.15,2.52-.25,5-.44,7.3s-.4,4.57-.59,6.71c-.31,4.29-.87,8.14-1.27,11.52-.22,1.69-.42,3.26-.6,4.72s-.45,2.75-.64,3.94q-.58,3.48-.92,5.46l-.27,1.41a1.62,1.62,0,0,1-.12.48,3.1,3.1,0,0,1,0-.5c0-.37.1-.84.17-1.42q.27-2,.75-5.48c.17-1.19.35-2.51.56-4s.33-3,.52-4.72c.35-3.39.86-7.23,1.14-11.52.17-2.13.34-4.37.53-6.7s.24-4.77.38-7.29c.31-5,.37-10.42.5-16.09.09-11.34-.16-23.8-.88-36.87-1.52-26.13-4.28-49.69-6.31-66.73-1-8.47-1.85-15.34-2.43-20.18-.27-2.33-.48-4.17-.63-5.49-.06-.59-.11-1.06-.15-1.44A1.83,1.83,0,0,1,321.5,355Z"/><path class="cls-12" d="M311.83,496.5a10.1,10.1,0,0,1-.23-2.13c-.08-1.37-.24-3.35-.49-5.79a111,111,0,0,0-10.25-36.65c-1.05-2.21-1.94-4-2.59-5.2a9.55,9.55,0,0,1-.9-1.94,9.32,9.32,0,0,1,1.22,1.76c.74,1.17,1.73,2.9,2.86,5.09a96.48,96.48,0,0,1,10.32,36.89c.16,2.46.22,4.45.19,5.83A8.86,8.86,0,0,1,311.83,496.5Z"/><path class="cls-12" d="M317.79,483.3c-.17,0-.27-2.56-1-6.62a58,58,0,0,0-14-28.51c-2.76-3.06-4.74-4.71-4.63-4.84a6.84,6.84,0,0,1,1.48,1.05,38.2,38.2,0,0,1,3.63,3.34,52.71,52.71,0,0,1,14.19,28.85,38,38,0,0,1,.43,4.92A7.32,7.32,0,0,1,317.79,483.3Z"/><path class="cls-12" d="M349.93,518a2,2,0,0,1-.05.54c-.06.41-.14.93-.24,1.59q-.36,2.19-1,6.09c-.93,5.34-2.26,13-3.89,22.35-3.38,18.92-8,44.94-13.18,73.69l-13.45,73.65c-1.76,9.37-3.18,17-4.18,22.31-.5,2.58-.9,4.6-1.18,6-.14.65-.25,1.17-.33,1.57a2.08,2.08,0,0,1-.15.53,2,2,0,0,1,.05-.54q.09-.62.24-1.59.36-2.19,1-6.09c.93-5.34,2.26-13,3.89-22.35,3.38-18.92,8-44.95,13.18-73.71s10-54.74,13.45-73.64c1.76-9.37,3.18-17,4.18-22.3.51-2.58.9-4.61,1.19-6.06.13-.64.24-1.16.33-1.57A2.76,2.76,0,0,1,349.93,518Z"/><path class="cls-11" d="M516.26,255l-45.15,98.78s-23.4,64-25.17,72-25.16,109.06-25.16,109.06l15.45,149.67s2,52.1,16.88,56.52,127.5-14.57,127.5-14.57l-18.55-125S555,505.62,555,504.29s20.31-143,20.31-143l13.44-54.72L550.58,291Z"/><path class="cls-12" d="M428.47,510.61s.08-.23.26-.69.51-1.18.87-2.05l3.55-7.72c3.16-6.71,7.7-16.35,13.31-28.24L490.91,379c13.35-27.69,25.74-53.37,35.83-74.29l.35.55-15.14,0h-1.2l1-.64,15.17-9.46-.13.25c-.39-9.5-.69-17-.91-22.23-.08-2.54-.15-4.52-.2-5.9l0-1.52a2,2,0,0,1,0-.51,3.34,3.34,0,0,1,.06.51c0,.38.06.88.11,1.51q.12,2.08.35,5.89c.27,5.2.66,12.72,1.16,22.22v.17l-.14.09-15.1,9.57-.19-.64,15.14,0h.61l-.26.55c-10.06,20.94-22.39,46.65-35.69,74.37C457,451.4,430.7,506,428.47,510.61Z"/><path class="cls-12" d="M539.45,398.5a9.63,9.63,0,0,1-2.1-.05c-1.35-.1-3.3-.22-5.71-.32a151.9,151.9,0,0,0-18.83.29,154.42,154.42,0,0,0-18.63,2.68c-2.37.49-4.27.92-5.59,1.23a9.57,9.57,0,0,1-2.07.38,8.32,8.32,0,0,1,2-.73c1.29-.42,3.18-1,5.53-1.52a121.26,121.26,0,0,1,37.65-3c2.41.19,4.36.41,5.7.62A8.52,8.52,0,0,1,539.45,398.5Z"/><path class="cls-16" d="M537,398c6.23.23-1.07-18.9-3.92-28.14-.54-1.74-1.47-3.77-3.28-3.94a4.74,4.74,0,0,0-3.09,1.27c-12.15,9-22.3,21.21-31.39,33.3C495.29,400.51,524,397.53,537,398Z"/><path class="cls-12" d="M443.09,541.84c.08.23-3.75,1.62-8.7,2.26s-9,.3-9,0,4-.33,8.87-1S443,541.58,443.09,541.84Z"/><path class="cls-12" d="M559.71,601.94c0,.25-14,2.54-31.44,5.11s-31.55,4.45-31.59,4.2,14-2.55,31.45-5.12S559.67,601.68,559.71,601.94Z"/><path class="cls-12" d="M492.44,720.8a1.91,1.91,0,0,1-.26-.53l-.66-1.59c-.59-1.46-1.41-3.52-2.46-6.14s-2.35-5.94-3.73-9.78-3.05-8.19-4.65-13.07-3.46-10.19-5.21-16-3.59-12-5.47-18.5c-3.58-13.1-7.15-27.62-10.27-43s-5.38-30.16-7.14-43.63c-.8-6.75-1.61-13.16-2.11-19.18s-1-11.63-1.37-16.76-.56-9.76-.76-13.84-.3-7.59-.34-10.46-.08-5.05-.11-6.62V500a2.23,2.23,0,0,1,0-.59,2.27,2.27,0,0,1,.06.59c0,.44.06,1,.1,1.72.07,1.57.16,3.78.28,6.6s.24,6.38.5,10.45.45,8.71.9,13.83.82,10.72,1.48,16.72,1.37,12.41,2.19,19.15c1.8,13.45,4.15,28.19,7.2,43.56s6.66,29.84,10.19,42.94c1.85,6.53,3.55,12.75,5.38,18.51s3.48,11.12,5.1,16,3.17,9.25,4.51,13.1,2.56,7.15,3.58,9.83l2.29,6.2.58,1.63A3.88,3.88,0,0,1,492.44,720.8Z"/><path class="cls-12" d="M580.61,726.38l-.8.15-2.33.36-9,1.29-33.14,4.58-49.18,6.68-14.21,1.91-7.34,1a26.55,26.55,0,0,1-7.64.4,16.24,16.24,0,0,1-12.31-9.11,19.87,19.87,0,0,1-1.26-3.82l-1-3.87c-.64-2.58-1.33-5.18-1.84-7.83-4.6-21.11-6.6-41.63-8.15-60.24s-2.48-35.42-3.69-49.49-2.5-25.42-3.55-33.25c-.52-3.91-1-6.93-1.31-9l-.33-2.35c-.07-.53-.08-.8-.08-.8s.08.26.18.79.24,1.33.41,2.33c.35,2,.91,5.06,1.49,9,1.16,7.82,2.6,19.17,3.85,33.25s2.37,30.86,3.89,49.47,3.62,39.07,8.2,60.11c.51,2.65,1.2,5.23,1.83,7.81s1.12,5.23,2.17,7.52a15.29,15.29,0,0,0,11.59,8.6c2.45.39,4.9-.08,7.39-.4l7.34-1L486,738.58l49.2-6.47,33.18-4.29,9-1.12,2.35-.26A8.06,8.06,0,0,1,580.61,726.38Z"/><polygon class="cls-10" points="431.69 291.24 433.64 313.94 453.42 322.05 476.45 299.67 461.2 291.24 449.85 291.24 439.8 287.67 431.69 291.24"/><path class="cls-10" d="M433.64,313.94S372.71,472.43,364.19,547h0L389,601.94l26.47-39,38.6-244.29Z"/><path class="cls-7" d="M453.38,322.72c-.18.24-3.82-3.1-9.39-5.16s-10.48-2-10.46-2.32,5-.76,10.79,1.44S453.57,322.6,453.38,322.72Z"/><path class="cls-7" d="M462.21,291.31a22.13,22.13,0,0,1-3.36,3.78,75.89,75.89,0,0,1-19.91,14,20.47,20.47,0,0,1-4.7,1.89,38.34,38.34,0,0,1,4.4-2.47,110.55,110.55,0,0,0,10.29-6.39,109.26,109.26,0,0,0,9.47-7.54A37.29,37.29,0,0,1,462.21,291.31Z"/><path class="cls-7" d="M451.49,320.84a4,4,0,0,1-.1.73c-.11.53-.24,1.24-.42,2.14l-1.66,8.21c-1.44,7.14-3.55,17.45-6,30.23-4.93,25.54-11.23,60.93-16.9,100.22-2.86,19.64-5.25,38.4-7.29,55.48-1,8.55-2.06,16.67-3.45,24.21a147.09,147.09,0,0,1-5.22,20.66A86.72,86.72,0,0,1,396,589.85a51.06,51.06,0,0,1-7.91,8.07,4.89,4.89,0,0,1,.51-.54l1.57-1.51a75.47,75.47,0,0,0,5.55-6.25,88.73,88.73,0,0,0,14.12-27.11,149.06,149.06,0,0,0,5.08-20.59c1.36-7.52,2.36-15.63,3.36-24.17,2-17.09,4.36-35.86,7.22-55.52,5.67-39.3,12.07-74.69,17.17-100.21,2.53-12.76,4.74-23.06,6.29-30.17l1.84-8.18c.21-.89.38-1.6.5-2.12A5.61,5.61,0,0,1,451.49,320.84Z"/><path class="cls-6" d="M433.56,411.59a47.05,47.05,0,0,1-3.12-5.27c-1.86-3.28-4.45-7.8-7.46-12.71s-5.86-9.27-8-12.42a45.74,45.74,0,0,1-3.27-5.17c.05,0,.44.4,1.11,1.22s1.59,2.05,2.71,3.58c2.22,3.05,5.17,7.38,8.19,12.3s5.54,9.52,7.25,12.89c.86,1.69,1.52,3.07,2,4A5.49,5.49,0,0,1,433.56,411.59Z"/><path class="cls-6" d="M422.22,480.75a11.56,11.56,0,0,1-1.14-2.09c-.74-1.54-1.69-3.5-2.82-5.83-2.36-4.93-5.66-11.72-9.42-19.16s-7.3-14.11-9.87-18.94c-1.22-2.28-2.23-4.2-3-5.72a11.48,11.48,0,0,1-1-2.15,12.68,12.68,0,0,1,1.33,2c.8,1.31,1.93,3.21,3.29,5.59,2.73,4.74,6.35,11.38,10.13,18.83s7,14.3,9.19,19.3c1.11,2.51,2,4.54,2.55,6A11.57,11.57,0,0,1,422.22,480.75Z"/><path class="cls-6" d="M414.7,542c-.22.14-8.42-12.8-18.31-28.88s-17.74-29.24-17.52-29.37,8.42,12.79,18.31,28.88S414.92,541.85,414.7,542Z"/><path class="cls-6" d="M400.2,584.22c-.21.14-7.86-10.66-17.08-24.12s-16.54-24.51-16.32-24.65,7.86,10.65,17.09,24.12S400.42,584.07,400.2,584.22Z"/><path class="cls-6" d="M441.33,368.56a21.65,21.65,0,0,1-2.93-3.27c-2-2.33-4.26-5.06-6.8-8.08l-6.94-7.95a22.92,22.92,0,0,1-2.79-3.4,18.79,18.79,0,0,1,3.27,2.94c1.91,1.92,4.47,4.66,7.17,7.8s5,6.1,6.6,8.29A19.14,19.14,0,0,1,441.33,368.56Z"/><path class="cls-6" d="M436.69,325.76c-.24.11-.94-1-2.13-2.05s-2.37-1.6-2.3-1.86,1.56,0,2.92,1.16S436.93,325.68,436.69,325.76Z"/><path class="cls-6" d="M439.19,331.59c-.18.18-1-.36-1.85-1.2s-1.38-1.67-1.2-1.86,1,.36,1.86,1.2S439.38,331.4,439.19,331.59Z"/><path class="cls-6" d="M448.38,338.77c-.18.18-2.07-1.48-4.22-3.7s-3.73-4.17-3.54-4.35,2.07,1.48,4.22,3.7S448.57,338.59,448.38,338.77Z"/><path class="cls-6" d="M449.14,301.62c-.18.22-3.39-2.54-7.89-5.07s-8.5-3.89-8.42-4.16,4.27.73,8.88,3.35S449.32,301.46,449.14,301.62Z"/><path class="cls-6" d="M466.09,309.12c-.24.15-2.11-2.63-4.93-5.6s-5.46-5-5.3-5.25,3.1,1.53,6,4.61S466.3,309,466.09,309.12Z"/><path class="cls-7" d="M433.66,337.15c-.24-.09,1.29-4.85,3.43-10.62s4.07-10.37,4.31-10.28-1.3,4.84-3.43,10.61S433.9,337.24,433.66,337.15Z"/><path class="cls-7" d="M436,350.9a24.89,24.89,0,0,1,.73-4.85c.58-3,1.49-7,2.65-11.5s2.34-8.47,3.28-11.35a23.8,23.8,0,0,1,1.72-4.58,28.1,28.1,0,0,1-1.09,4.77c-.85,3.22-1.87,7.1-3,11.39s-2.08,8.19-2.91,11.42A26.32,26.32,0,0,1,436,350.9Z"/><path class="cls-7" d="M423.11,271.05a2.66,2.66,0,0,1,.12.63c.06.49.13,1.1.22,1.85.18,1.71.42,4.08.73,7.06.58,6.19,1.41,14.89,2.4,25.38l-.76-.1c1.66-4.51,3.51-9.5,5.46-14.78l.06-.18.17-.07,8.11-3.58.16-.08.17.06L450,290.8l-.16,0h11.47l.11.05,21.7,11.95-.54.11c8.09-10.25,15-18.95,19.84-25.17l5.71-7.12,1.54-1.86a3.79,3.79,0,0,1,.57-.62,4,4,0,0,1-.46.7l-1.44,1.95L502.84,278c-4.84,6.26-11.6,15-19.58,25.37l-.22.29-.32-.18L461,291.65l.23.06H449.77l-.07,0-10.05-3.58H440l-8.11,3.55.23-.24-5.55,14.75-.62,1.64-.14-1.75c-.85-10.5-1.56-19.22-2.06-25.41-.22-3-.39-5.36-.52-7.08,0-.76-.07-1.37-.1-1.86A2.6,2.6,0,0,1,423.11,271.05Z"/><path class="cls-1" d="M394.23,134.79a15.42,15.42,0,0,1-7.66-24.32c1.72-2.18,4.06-3.94,5.16-6.48,2.37-5.47-1.89-11.75-.83-17.62,1-5.44,6.22-9,11.38-11s10.82-3,15.28-6.27c4.1-3,6.77-7.57,10.64-10.85a22.19,22.19,0,0,1,20-4.33c7,2,12.9,7.45,20.15,8.27,5.28.59,10.5-1.38,15.8-1.7,12-.74,23.82,8.1,26.53,19.78,1.2,5.15,2.38,9.63,5.7,13.75,4.32,5.37,11.78,7.14,15.18,13.13,2,3.57,1.37,8,.17,12s-2.9,7.8-2.84,11.9a14.55,14.55,0,0,0,11.32,13.63,14.55,14.55,0,0,1-7.52,8.94,16.79,16.79,0,0,0,8.88,2.09,29.35,29.35,0,0,1-39,17.48"/><path class="cls-17" d="M510.57,160.82c.58-.27,23.4-7.37,23.07,16.05s-23.79,18.25-23.82,17.58S510.57,160.82,510.57,160.82Z"/><path class="cls-18" d="M517.1,185.68c.11-.08.41.29,1.09.61a4.07,4.07,0,0,0,3,.11c2.49-.87,4.63-4.77,4.8-9a13.5,13.5,0,0,0-1-5.86c-.69-1.72-1.79-2.93-3-3.17a2.06,2.06,0,0,0-2.42,1.08c-.33.65-.18,1.12-.31,1.16s-.5-.4-.29-1.37a2.56,2.56,0,0,1,.94-1.45,3.07,3.07,0,0,1,2.27-.56c1.8.15,3.4,1.83,4.2,3.69a13.78,13.78,0,0,1,1.33,6.55c-.22,4.72-2.7,9.1-6.1,10a4.38,4.38,0,0,1-3.73-.68C517.14,186.24,517,185.72,517.1,185.68Z"/><path class="cls-17" d="M391.93,208.62c-.49-16.53,1.26-50.65,3.21-81.52a63.83,63.83,0,0,1,62.58-59.8l3.3,0c35.66,1.45,54.35,32.56,51.9,68.16L509.82,253l-61.06,37.86L427.26,274l0-26.44S393,242.85,391.93,208.62Z"/><path class="cls-18" d="M427.26,247.56s21.67,1.38,44.41-13.47c0,0-9.87,25.2-44.09,22.72Z"/><path class="cls-7" d="M407.24,150.68a4.89,4.89,0,0,0,4.8,4.85,4.67,4.67,0,0,0,5-4.5,4.89,4.89,0,0,0-4.79-4.85A4.68,4.68,0,0,0,407.24,150.68Z"/><path class="cls-7" d="M460.67,150.06a4.89,4.89,0,0,0,4.8,4.85,4.68,4.68,0,0,0,5-4.5,4.9,4.9,0,0,0-4.79-4.86A4.69,4.69,0,0,0,460.67,150.06Z"/><path class="cls-7" d="M402.5,145.21c.62.62,4.27-2.18,9.54-2.26s9.16,2.49,9.72,1.83c.27-.29-.36-1.43-2.07-2.62a13.4,13.4,0,0,0-7.79-2.26,12.93,12.93,0,0,0-7.58,2.59C402.72,143.76,402.2,144.93,402.5,145.21Z"/><path class="cls-7" d="M455.39,143.07c.66.59,4.14-2.44,9.38-2.85s9.3,1.9,9.82,1.21c.26-.31-.45-1.41-2.23-2.49a13.42,13.42,0,0,0-7.92-1.76,12.86,12.86,0,0,0-7.4,3.07C455.53,141.62,455.07,142.81,455.39,143.07Z"/><path class="cls-7" d="M436.12,183.15c0-.3-3.26-.81-8.57-1.4-1.35-.11-2.62-.36-2.87-1.27s.21-2.42.83-4q1.82-4.9,3.79-10.3c5.27-14.66,9.05-26.71,8.46-26.92s-5.34,11.51-10.6,26.18q-1.91,5.42-3.63,10.36c-.48,1.53-1.32,3.28-.6,5.28a3.39,3.39,0,0,0,2.24,1.93,9.13,9.13,0,0,0,2.29.28C432.8,183.48,436.11,183.45,436.12,183.15Z"/><path class="cls-7" d="M451.67,186.52c-.86,0-.77,5.67-5.58,9.81s-10.91,3.62-10.94,4.42c-.08.36,1.37,1.08,3.94,1.11a14.26,14.26,0,0,0,9.14-3.36,12.42,12.42,0,0,0,4.32-8.23C452.72,187.88,452.06,186.47,451.67,186.52Z"/><path class="cls-15" d="M453.05,120.78c.66,1.37,5.82.16,12,.28s11.36,1.29,12-.07c.3-.64-.7-1.9-2.84-3.07a20.94,20.94,0,0,0-18.34-.17C453.78,118.89,452.76,120.12,453.05,120.78Z"/><path class="cls-15" d="M403.24,131.08c.95,1.18,4.55-.13,8.91-.26,4.35-.29,8.06.66,8.89-.61.36-.61-.24-1.8-1.87-2.9a12.9,12.9,0,0,0-14.34.7C403.31,129.26,402.82,130.5,403.24,131.08Z"/><path class="cls-1" d="M432.55,64.56c11.93-5.2,24.27-3.13,37.21-1.7C480,64,489,66.94,497.52,72.76,510.87,81.9,517.87,97,519.14,113.1a150.75,150.75,0,0,1-3.4,46.29l-1.28-.24c.93,3.91,1.85,8.07.61,11.9s-5.51,7-9.26,5.49c-4.37-1.73-4.72-7.67-4.5-12.36a336.54,336.54,0,0,0-1.52-47.51c-1.1-11.8-8.36-26-17.79-31.31-21.18-11.73-36.82.07-43.94,2.89-11.72-9.35-24.24-3.32-30.89,5.39C409.26,80.8,420.62,69.75,432.55,64.56Z"/><path class="cls-3" d="M526.4,102.22c.05.73-1.35,1.63-4.16,2.07A27.36,27.36,0,0,1,510.51,103a62.41,62.41,0,0,1-15.22-7.57c-5.2-3.37-10.4-7.28-15.92-10.43s-10.84-5-15.84-5.15A33.12,33.12,0,0,0,450,82.12c-7.62,2.95-11.5,7.15-12.87,6.17-.31-.22-.41-.71-.27-1.49a9.34,9.34,0,0,1,1.17-3,25.74,25.74,0,0,1,8.25-8.57,33.74,33.74,0,0,1,17.18-5.62,34.84,34.84,0,0,1,10.94,1.26,47,47,0,0,1,10.45,4.45c6.58,3.77,11.8,8.16,16.41,11.78a104,104,0,0,0,12.34,8.67,61.4,61.4,0,0,0,9.06,4.25C524.93,100.83,526.36,101.42,526.4,102.22Z"/><path class="cls-3" d="M527.24,121.31c0,.12-1.64.7-4.46,1a28.6,28.6,0,0,1-20.52-6.66c-2.14-1.86-3.14-3.31-3.05-3.38s1.34,1.11,3.54,2.76a32.45,32.45,0,0,0,20,6.49C525.5,121.43,527.2,121.13,527.24,121.31Z"/><path class="cls-3" d="M537.54,144.76a6,6,0,0,1-1.78-.42,49.5,49.5,0,0,1-4.69-1.69,73.95,73.95,0,0,1-26.65-18.88,48.94,48.94,0,0,1-3.15-3.86,5.72,5.72,0,0,1-1-1.55c.14-.11,1.79,1.89,4.7,4.87a88.87,88.87,0,0,0,26.4,18.7C535.17,143.69,537.6,144.59,537.54,144.76Z"/><path class="cls-3" d="M455.93,59.83c.05.17-2,.87-5.09,2.32a31.21,31.21,0,0,0-10.67,7.73A18.9,18.9,0,0,0,435.64,82c0,3.39,1.1,5.35.89,5.42-.06,0-.37-.42-.76-1.32a12.58,12.58,0,0,1-.92-4.07,18.51,18.51,0,0,1,4.47-12.81,28.53,28.53,0,0,1,11.2-7.74C453.77,60.14,455.89,59.71,455.93,59.83Z"/><path class="cls-3" d="M443.25,52.4c.11.16-1.79,1.27-4.18,3.77a24.3,24.3,0,0,0-5.56,24.93c1.1,3.29,2.35,5.1,2.18,5.2s-.43-.37-1-1.19a19.58,19.58,0,0,1-1.93-3.74,23.42,23.42,0,0,1,5.74-25.75,20.61,20.61,0,0,1,3.34-2.57C442.71,52.55,443.22,52.34,443.25,52.4Z"/><path class="cls-3" d="M514.52,164.19c0,.28-3.87,0-7.76-2.56s-5.71-6-5.46-6.09,2.39,2.78,6.07,5.16S514.6,163.86,514.52,164.19Z"/><path class="cls-3" d="M515.93,168.66c.06.27-4.21.55-8.71-1.85s-6.71-6-6.45-6.13,2.71,2.95,7,5.15S516,168.32,515.93,168.66Z"/><path class="cls-3" d="M404.5,98.83c0,.11-1.3-.08-3.1-1.08a15.61,15.61,0,0,1-7.7-13.26c0-2,.49-3.25.6-3.22s0,1.25.19,3.19a17.4,17.4,0,0,0,7.33,12.62C403.41,98.19,404.56,98.65,404.5,98.83Z"/><path class="cls-3" d="M408,92c-.22.19-3-2.61-5.4-6.83s-3.42-8-3.14-8.11,1.75,3.47,4.11,7.56S408.23,91.82,408,92Z"/><path class="cls-18" d="M487,144.12c.13.21-1.43,1.45-3.69,2.32s-4.25,1-4.29.79,1.78-.81,3.95-1.66S486.88,143.9,487,144.12Z"/><path class="cls-18" d="M490.71,149.29c0,.26-2.3.32-5.11.14s-5.07-.53-5.05-.78,2.3-.32,5.11-.15S490.73,149,490.71,149.29Z"/><path class="cls-18" d="M401.63,152.88c0,.26-1.26.48-2.81.49s-2.82-.18-2.82-.44,1.26-.48,2.81-.49S401.62,152.62,401.63,152.88Z"/><path class="cls-18" d="M400.31,150.23c-.13.22-1.21-.18-2.4-.9s-2.05-1.48-1.92-1.7,1.21.18,2.4.9S400.44,150,400.31,150.23Z"/><path class="cls-18" d="M454.38,103.6c0,.14-1.65.51-4.2,1.53s-6,2.73-9.88,4.42a27.16,27.16,0,0,1-10.63,2.51,13.59,13.59,0,0,1-3.31-.41,2.85,2.85,0,0,1-1.14-.44c0-.17,1.71.33,4.44.19a30.52,30.52,0,0,0,10.28-2.71c3.85-1.67,7.33-3.35,10-4.18S454.37,103.49,454.38,103.6Z"/><path class="cls-18" d="M447.45,102.81c.12.19-4.32,2.64-10.42,3.5s-11-.16-11-.37,4.92.34,10.85-.55S447.33,102.54,447.45,102.81Z"/><path class="cls-18" d="M458.27,187.83c-.24.12-1-1.9-3.27-2.78s-4.19,0-4.28-.23c-.06-.1.35-.49,1.19-.77a5.16,5.16,0,0,1,6,2.4C458.35,187.24,458.38,187.8,458.27,187.83Z"/><path class="cls-18" d="M462.71,186.77c-.25.07-.77-2.17-3-3.56s-4.44-1-4.48-1.29c0-.11.49-.41,1.45-.48a6.15,6.15,0,0,1,5.87,3.81C462.88,186.15,462.82,186.75,462.71,186.77Z"/><path class="cls-12" d="M409.19,167c0-.07.85-.08,2.4-.31a17.51,17.51,0,0,0,6.3-2.24,19.33,19.33,0,0,0,3.74-2.89,18.8,18.8,0,0,0,3.21-4.48,16.94,16.94,0,0,0,1.79-5.95c.21-2.15.08-4.54.1-7l.43.43-22.3,0-18,0,.44-.45a56.32,56.32,0,0,0,.23,7.79,17.29,17.29,0,0,0,2.47,6.52,17.67,17.67,0,0,0,8.85,7.2,20.22,20.22,0,0,0,7.53,1.19l2.07.07a2.8,2.8,0,0,1,.71.07,2.47,2.47,0,0,1-.71.08l-2.07.07a19.37,19.37,0,0,1-7.71-1A18.15,18.15,0,0,1,386.75,152a53.16,53.16,0,0,1-.3-7.93v-.44h.45l18,0,22.3,0h.43v.42c0,2.45.07,4.77-.18,7.07a17.58,17.58,0,0,1-1.93,6.17,17.92,17.92,0,0,1-7.34,7.5,16.66,16.66,0,0,1-6.51,2.06,11.59,11.59,0,0,1-1.82.08C409.4,167,409.19,167,409.19,167Z"/><path class="cls-12" d="M465.94,167c0-.07.85-.08,2.4-.31a17.51,17.51,0,0,0,6.3-2.24,19.33,19.33,0,0,0,3.74-2.89,18.8,18.8,0,0,0,3.21-4.48,16.94,16.94,0,0,0,1.79-5.95c.21-2.15.08-4.54.1-7l.43.43-22.3,0-18,0,.44-.45a54.8,54.8,0,0,0,.23,7.79,17.29,17.29,0,0,0,2.47,6.52,17.67,17.67,0,0,0,8.85,7.2,20.22,20.22,0,0,0,7.53,1.19l2.07.07a2.9,2.9,0,0,1,.71.07,2.56,2.56,0,0,1-.71.08l-2.07.07a19.37,19.37,0,0,1-7.71-1A18.15,18.15,0,0,1,443.5,152a53.16,53.16,0,0,1-.3-7.93v-.44h.45l18,0,22.3,0h.43v.42c0,2.45.07,4.77-.18,7.07a17.58,17.58,0,0,1-1.93,6.17,17.92,17.92,0,0,1-7.34,7.5,16.66,16.66,0,0,1-6.51,2.06,11.59,11.59,0,0,1-1.82.08C466.15,167,465.94,167,465.94,167Z"/><path class="cls-12" d="M443.34,149.48c-.13.09-.71-.81-2-1.84a9.61,9.61,0,0,0-11.84-.26c-1.35,1-2,1.84-2.09,1.75s.34-1.08,1.68-2.26a9.35,9.35,0,0,1,12.68.28C443,148.38,443.43,149.44,443.34,149.48Z"/><path class="cls-12" d="M518.57,158.11a32.74,32.74,0,0,1-5.12-1c-3.15-.7-7.49-1.64-12.31-2.54s-9.22-1.58-12.4-2.06-5.16-.78-5.15-.92a26.68,26.68,0,0,1,5.23.26c3.21.32,7.64.91,12.49,1.81s9.18,2,12.3,2.81A25.9,25.9,0,0,1,518.57,158.11Z"/><path class="cls-3" d="M407.79,164.75c0,.1-1.71.24-4.4-.35a20.53,20.53,0,0,1-9.44-4.91,17.86,17.86,0,0,1-5.31-9.21c-.55-2.71-.24-4.42-.15-4.41s.1,1.69.8,4.25a18.82,18.82,0,0,0,5.3,8.69,22.24,22.24,0,0,0,9,4.95C406.12,164.5,407.8,164.6,407.79,164.75Z"/><path class="cls-3" d="M465.32,163.69a14.82,14.82,0,0,1-4.23-.47,23.45,23.45,0,0,1-9.5-4,13.66,13.66,0,0,1-5.38-8.73,8.9,8.9,0,0,1,.1-3.16c.17-.73.35-1.1.4-1.09s-.35,1.63.15,4.14a14,14,0,0,0,5.29,8.1,26.37,26.37,0,0,0,9.09,4A28.1,28.1,0,0,1,465.32,163.69Z"/><path class="cls-17" d="M240.28,384.11c-.73-.49-28.31-34-28.31-34s-.24-7.81-9.52-16.36-33.7-34.68-33.7-34.68l-27.6-2.93s-3.42,4.64,0,8.8l.52.62c-2.16-.27-8.66-.5-9.07,6.21-.48,8.06,2,10.5,2,10.5s-2.93,6.11-3.18,11.48a32.24,32.24,0,0,0,1,9.53s-.73,2.19,0,9.28,5.13,10,5.13,10a13.7,13.7,0,0,0-1.22,10.26c1.71,5.37,8.54,9,8.54,9s13.44,6.11,16.86,6.6,24.66,4.15,24.66,4.15l16.47,24.33Z"/><polygon class="cls-19" points="159.97 372.06 161.12 426.11 148.71 426.11 148.71 377.77 151.69 373.59 159.97 372.06"/><path class="cls-18" d="M140.36,303.26a64.65,64.65,0,0,0,6,4.41,32.8,32.8,0,0,0,16.94,4.74l1.27,0h.59l-.11.56A21.58,21.58,0,0,0,168.51,329c2.47,3.57,4.85,5,4.72,5.14a6.24,6.24,0,0,1-1.61-1,19.12,19.12,0,0,1-3.63-3.74,21.46,21.46,0,0,1-3.42-7,20.9,20.9,0,0,1-.44-9.61l.48.56-1.31,0a31.72,31.72,0,0,1-17.3-5.12,28.3,28.3,0,0,1-4.31-3.44A7.22,7.22,0,0,1,140.36,303.26Z"/><path class="cls-18" d="M134.63,322.07a3.05,3.05,0,0,1,1.21-.54,14,14,0,0,1,3.53-.61c3-.22,7.26.61,11.54,2.22s8.13,3.14,11,3.67a5,5,0,0,0,3.29-.36c.69-.38,1-.75,1.06-.7s-.16.48-.87,1a5,5,0,0,1-3.56.7c-3.07-.39-7-1.88-11.22-3.44a33,33,0,0,0-11.21-2.44A41,41,0,0,0,134.63,322.07Z"/><path class="cls-18" d="M132.79,342.88a4.86,4.86,0,0,1,1.57-.9,11.6,11.6,0,0,1,4.88-.78c2.09.05,4.52.55,7.19.82s5.69.74,8.79,1.08c1.55.16,3.06.27,4.52.29.74,0,1.45,0,2.15-.05a6.48,6.48,0,0,0,1.9-.43,12.55,12.55,0,0,0,3.23-1.85A5.3,5.3,0,0,0,168.2,340a4.41,4.41,0,0,0,.58-1.38,10.41,10.41,0,0,0,.09-4.7,6.36,6.36,0,0,0-.64-1.62c0-.05.63.38,1,1.52a9.87,9.87,0,0,1,.2,5,5.25,5.25,0,0,1-.61,1.61,6.32,6.32,0,0,1-1.3,1.33,13.13,13.13,0,0,1-3.41,2,7.44,7.44,0,0,1-2.15.52c-.72,0-1.46.08-2.21.07a45.89,45.89,0,0,1-4.62-.27c-3.14-.35-6.09-.85-8.78-1.15s-5.12-.89-7.14-1C135.11,341.52,132.85,343.09,132.79,342.88Z"/><path class="cls-18" d="M138,362.51a4.47,4.47,0,0,1,1.12-1.43,6.33,6.33,0,0,1,1.78-1.21,9.88,9.88,0,0,1,2.76-.68l3.35-.32a38.55,38.55,0,0,1,3.88-.25c2.73-.06,5.72.12,8.82,0a15.36,15.36,0,0,0,4.38-.6,5.93,5.93,0,0,0,3.12-2.32,7.88,7.88,0,0,0,.87-6.59,13.53,13.53,0,0,0-2.19-4.2,9.93,9.93,0,0,1-1.06-1.43,4.91,4.91,0,0,1,1.34,1.2,12.06,12.06,0,0,1,2.54,4.23,8.43,8.43,0,0,1-.78,7.26,6.66,6.66,0,0,1-3.55,2.71,15.41,15.41,0,0,1-4.64.67c-3.17.09-6.15-.12-8.84-.11-1.35,0-2.62.06-3.82.16l-3.35.21a7.29,7.29,0,0,0-4.38,1.51C138.46,362.06,138,362.56,138,362.51Z"/><path class="cls-18" d="M145.38,373.48c0-.16,1.83.21,4.74.07a23.22,23.22,0,0,0,10.72-3.24,11.69,11.69,0,0,0,4.29-4.23,6.15,6.15,0,0,0,.55-4.72,5.29,5.29,0,0,0-1.77-2.75c-.63-.48-1.07-.63-1-.71s.49,0,1.24.41a5.25,5.25,0,0,1,2.2,2.85,6.76,6.76,0,0,1-.41,5.32,12,12,0,0,1-4.58,4.63,21.77,21.77,0,0,1-11.18,3.1,18.24,18.24,0,0,1-3.52-.34A3.15,3.15,0,0,1,145.38,373.48Z"/><path class="cls-18" d="M171.14,332.47c.2.06-1.11,2.71-1.39,7.3a27.55,27.55,0,0,0,4.76,16.88,30.41,30.41,0,0,0,13.92,10.81c4.3,1.65,7.22,1.79,7.19,2a7,7,0,0,1-2-.09,25.61,25.61,0,0,1-5.39-1.27,29.49,29.49,0,0,1-14.45-10.9,26.86,26.86,0,0,1-4.65-17.46,22.28,22.28,0,0,1,1.18-5.41A6.9,6.9,0,0,1,171.14,332.47Z"/><rect class="cls-19" x="100.32" y="420.97" width="109.31" height="34.01"/><path class="cls-7" d="M118.23,421.31s-.25,0-.72-.09a8.63,8.63,0,0,0-2,0,13.9,13.9,0,0,0-2.83.67,33.19,33.19,0,0,0-3.28,1.4,28.28,28.28,0,0,1-3.32,1.35,12.17,12.17,0,0,1-2.87.55,7.93,7.93,0,0,1-2-.11,4.87,4.87,0,0,1-.7-.18s.25.06.71.13a8.15,8.15,0,0,0,2,.07,13.35,13.35,0,0,0,2.85-.58,27.77,27.77,0,0,0,3.29-1.36c1.15-.53,2.26-1,3.3-1.39a14,14,0,0,1,2.86-.65,8.85,8.85,0,0,1,2,0A4.47,4.47,0,0,1,118.23,421.31Z"/><path class="cls-7" d="M106.87,429.84s-.39.07-1,.19a18.54,18.54,0,0,0-2.37.66,16.61,16.61,0,0,0-2.25,1c-.56.31-.89.52-.9.5a1,1,0,0,1,.22-.17,6.38,6.38,0,0,1,.63-.41,13.34,13.34,0,0,1,2.25-1.06,13.75,13.75,0,0,1,2.41-.63l.74-.1Z"/><path class="cls-7" d="M128.08,421s-.19,0-.52.06a6.08,6.08,0,0,0-1.37.35,9.32,9.32,0,0,0-1.85,1c-.66.43-1.35,1-2.07,1.54a16.36,16.36,0,0,1-2.15,1.46,7.06,7.06,0,0,1-2,.76,4.77,4.77,0,0,1-1.43.1,2.3,2.3,0,0,1-.51-.09l.52,0a5.22,5.22,0,0,0,1.4-.14,7.57,7.57,0,0,0,1.94-.77,18,18,0,0,0,2.12-1.46c.73-.57,1.42-1.11,2.09-1.54a9.45,9.45,0,0,1,1.89-1,5.36,5.36,0,0,1,1.4-.31A3,3,0,0,1,128.08,421Z"/><path class="cls-7" d="M141.72,426.52s0-.26,0-.73a4,4,0,0,0-.55-1.88,3.75,3.75,0,0,0-2.24-1.76,6.76,6.76,0,0,0-3.54.2,29.4,29.4,0,0,0-6.1,2.43c-.74.4-1.33.75-1.73,1l-.46.29-.16.09.15-.11.44-.31c.4-.26,1-.63,1.71-1a28.25,28.25,0,0,1,6.11-2.48A6.9,6.9,0,0,1,139,422a3.87,3.87,0,0,1,2.29,1.83,4,4,0,0,1,.52,1.93A2.73,2.73,0,0,1,141.72,426.52Z"/><path class="cls-7" d="M137.4,426.39a4.58,4.58,0,0,0-.6-.41,3.41,3.41,0,0,0-1.69-.34,7.4,7.4,0,0,0-1.72.35,4.49,4.49,0,0,1-.71.19,3,3,0,0,1,.68-.28,6.34,6.34,0,0,1,1.74-.39,3.18,3.18,0,0,1,1.75.39,1.88,1.88,0,0,1,.43.34C137.37,426.33,137.41,426.39,137.4,426.39Z"/><path class="cls-7" d="M107.15,433.85s-.4,0-1,.17a9.24,9.24,0,0,0-2.4.84,8.79,8.79,0,0,0-2.07,1.46c-.48.45-.73.77-.75.76s0-.09.16-.24a5.53,5.53,0,0,1,.52-.58,8,8,0,0,1,2.08-1.52,8.34,8.34,0,0,1,2.44-.81,5.68,5.68,0,0,1,.78-.08A1,1,0,0,1,107.15,433.85Z"/><path class="cls-7" d="M110.69,455l.26-.09.74-.27a9.19,9.19,0,0,0,2.53-1.42,4.12,4.12,0,0,0,1.16-1.6,5,5,0,0,0,.09-2.26,7.87,7.87,0,0,0-2.55-4.49,10.57,10.57,0,0,0-4.7-2.29,15.64,15.64,0,0,0-4.29-.29,26,26,0,0,0-2.9.36l-.78.15-.27,0,.27-.07.77-.17a22.5,22.5,0,0,1,2.9-.4,15.07,15.07,0,0,1,4.33.26,10.62,10.62,0,0,1,4.75,2.31,7.88,7.88,0,0,1,2.59,4.57,5,5,0,0,1-.11,2.32,4.16,4.16,0,0,1-1.2,1.63,8.91,8.91,0,0,1-2.57,1.4A9.35,9.35,0,0,1,110.69,455Z"/><path class="cls-7" d="M105.09,451.27a2.92,2.92,0,0,0-.91-.53,2.25,2.25,0,0,0-1.22,0,1.68,1.68,0,0,0-1.15,1.05,1.56,1.56,0,0,0,.4,1.78,2.73,2.73,0,0,0,2.16.41,6.54,6.54,0,0,0,4.26-2.79,3.54,3.54,0,0,0,.62-2.55,2.53,2.53,0,0,0-1.4-1.94,4.61,4.61,0,0,0-2.24-.29,12.22,12.22,0,0,0-4.69,1.35c-.3.15-.53.29-.69.38l-.24.13a7.53,7.53,0,0,1,.91-.56,11.84,11.84,0,0,1,2.71-1.07,13.71,13.71,0,0,1,2-.34,4.76,4.76,0,0,1,2.3.28,2.66,2.66,0,0,1,1.48,2,3.75,3.75,0,0,1-.63,2.66,6.77,6.77,0,0,1-4.36,2.84,2.86,2.86,0,0,1-2.25-.46,1.65,1.65,0,0,1-.42-1.89,1.81,1.81,0,0,1,1.22-1.1,2.31,2.31,0,0,1,1.25.06,2.51,2.51,0,0,1,.7.39A2,2,0,0,1,105.09,451.27Z"/><path class="cls-7" d="M149.64,448.07a11,11,0,0,1-1.3.47,18.8,18.8,0,0,1-3.71.67,37.33,37.33,0,0,1-5.6,0c-2.11-.12-4.41-.35-6.84-.35a23.4,23.4,0,0,0-6.74.95,23.81,23.81,0,0,0-5.13,2.18,23,23,0,0,0-3.1,2.13c-.35.27-.61.51-.78.66l-.28.23a12.52,12.52,0,0,1,1-.93,22.66,22.66,0,0,1,3.09-2.17,23.3,23.3,0,0,1,11.91-3.18c2.44,0,4.75.23,6.85.36a38.83,38.83,0,0,0,5.58,0,19.16,19.16,0,0,0,3.7-.63c.43-.12.76-.23,1-.31Z"/><path class="cls-7" d="M156.6,452l-.56,0-1.61.08-2.55.12a3.14,3.14,0,0,1-1.59-.14.59.59,0,0,1-.29-.79,1.29,1.29,0,0,1,.78-.52,37.6,37.6,0,0,1,8.75-.89,2.2,2.2,0,0,1,1.23.34.91.91,0,0,1,.2,1.23,2.57,2.57,0,0,1-1,.89l-.6.3-.62.28a15.43,15.43,0,0,1-5.47,1.06c-3.85.09-7.42-.86-10.66-1.5a29,29,0,0,0-8.72-.77,14.09,14.09,0,0,0-5.63,1.68,12.49,12.49,0,0,0-1.33.91l-.43.36s.14-.14.42-.38a10.88,10.88,0,0,1,1.32-.93,13.8,13.8,0,0,1,5.64-1.73,28.75,28.75,0,0,1,8.75.74c3.25.63,6.81,1.57,10.64,1.48a15.19,15.19,0,0,0,5.42-1l.62-.27.59-.31a2.44,2.44,0,0,0,.94-.83.78.78,0,0,0-.17-1.07,2,2,0,0,0-1.15-.32,38.09,38.09,0,0,0-8.73.86,1.21,1.21,0,0,0-.72.47.51.51,0,0,0,.25.68,3.3,3.3,0,0,0,1.55.14l2.55-.1L156,452Z"/><path class="cls-7" d="M176.34,448.42l-.16.07-.47.16c-.41.14-1,.37-1.7.68-1.43.61-3.31,1.64-5.39,2.77-1.05.55-2.07,1-3,1.46a18.56,18.56,0,0,1-2.58.89,11.38,11.38,0,0,1-2.49.38l.17,0,.5-.07a6,6,0,0,0,.78-.13c.3-.07.64-.13,1-.24a21.25,21.25,0,0,0,2.56-.91c.94-.41,1.95-.91,3-1.47,2.09-1.12,4-2.15,5.42-2.74A16.59,16.59,0,0,1,176.34,448.42Z"/><path class="cls-7" d="M193.6,449.43l-.24,0-.68-.1a10.5,10.5,0,0,0-1.07-.14c-.42,0-.9-.11-1.44-.12a26.5,26.5,0,0,0-3.74,0,27.14,27.14,0,0,0-8.84,2.23,26.52,26.52,0,0,0-3.32,1.73c-.46.26-.85.55-1.2.78s-.65.45-.89.63l-.55.41a1.51,1.51,0,0,1-.19.14,20.54,20.54,0,0,1,2.78-2,26.92,26.92,0,0,1,3.32-1.77,29.87,29.87,0,0,1,4.35-1.5,29.5,29.5,0,0,1,4.54-.74,27.63,27.63,0,0,1,3.75,0A21,21,0,0,1,193.6,449.43Z"/><path class="cls-7" d="M208.46,433.75l-.31.19-.9.56a16.26,16.26,0,0,0-3.07,2.38,8,8,0,0,0-1.5,2.2,5.53,5.53,0,0,0-.48,3c.13,1.08.55,2.15.77,3.32a4.64,4.64,0,0,1,0,1.82,3.06,3.06,0,0,1-.95,1.61,10.42,10.42,0,0,1-3.27,1.66l-3.19,1.22a11.93,11.93,0,0,0-1.45.62,2,2,0,0,0-1,1.06,1.21,1.21,0,0,0,.2,1.26,1.78,1.78,0,0,0,1.16.42,27.15,27.15,0,0,0,3.87-.28l1-.17.36-.06s-.49.13-1.4.28a24.8,24.8,0,0,1-3.89.32,1.8,1.8,0,0,1-1.22-.44,1.29,1.29,0,0,1-.23-1.36,2.12,2.12,0,0,1,1-1.13,11.3,11.3,0,0,1,1.46-.64l3.18-1.22A10.17,10.17,0,0,0,202,448.7a2.88,2.88,0,0,0,.91-1.54,4.58,4.58,0,0,0,0-1.77c-.22-1.15-.65-2.23-.78-3.32a5.67,5.67,0,0,1,.51-3,8,8,0,0,1,1.54-2.22,15.13,15.13,0,0,1,3.1-2.35l.91-.54A3.33,3.33,0,0,1,208.46,433.75Z"/><path class="cls-7" d="M208.64,455.2a.79.79,0,0,1-.1-.14l-.25-.43c-.21-.37-.5-.92-.82-1.62a14.93,14.93,0,0,1-1.47-5.78,9.45,9.45,0,0,1,1.69-5.68,6.76,6.76,0,0,1,1.26-1.32,3.62,3.62,0,0,1,.54-.38s-.19.14-.51.42a6.89,6.89,0,0,0-1.21,1.33,9.5,9.5,0,0,0-1.63,5.62,15.41,15.41,0,0,0,1.41,5.76c.31.69.59,1.25.79,1.63l.23.44Z"/><path class="cls-7" d="M149.21,430.21a3.79,3.79,0,0,0,1-1.51,4.55,4.55,0,0,0,.18-1.93,5.18,5.18,0,0,0-.87-2.2,9.1,9.1,0,0,0-3.33-2.77c-.49-.26-.9-.45-1.19-.59l-.44-.21.12,0,.34.14a12.62,12.62,0,0,1,1.22.55,8.68,8.68,0,0,1,3.39,2.78,5.25,5.25,0,0,1,.88,2.26,4.39,4.39,0,0,1-.21,2,3.65,3.65,0,0,1-.68,1.15A1.92,1.92,0,0,1,149.21,430.21Z"/><path class="cls-7" d="M209.63,431.59s-.18-.12-.5-.37a11.76,11.76,0,0,0-1.52-1,16.17,16.17,0,0,0-6.33-1.7,34.46,34.46,0,0,0-9.71,1c-1.8.37-3.69.81-5.67,1.16s-4.05.62-6.18.78a61.45,61.45,0,0,1-12-.26,25.55,25.55,0,0,1-5.13-1.1,12.7,12.7,0,0,1-4-2.17,14.4,14.4,0,0,1-2.49-2.83,21.29,21.29,0,0,0-1.75-2.23,7.49,7.49,0,0,0-1.36-1.15c-.17-.12-.32-.19-.4-.24l-.14-.09a6,6,0,0,1,.55.3,6.8,6.8,0,0,1,1.39,1.15,21.19,21.19,0,0,1,1.77,2.22,14,14,0,0,0,2.49,2.8,12.73,12.73,0,0,0,4,2.13,25.21,25.21,0,0,0,5.11,1.09,62,62,0,0,0,18.13-.53c2-.35,3.87-.78,5.68-1.15a34.11,34.11,0,0,1,9.74-1,15.72,15.72,0,0,1,6.34,1.74,11.42,11.42,0,0,1,1.51,1C209.47,431.45,209.63,431.59,209.63,431.59Z"/><path class="cls-7" d="M184.87,424.56s-1.35.13-3.72.23a40.23,40.23,0,0,1-4.3-.07,20.75,20.75,0,0,1-5.48-1.11l-.19-.07.2,0a43.4,43.4,0,0,1,17,0,2.22,2.22,0,0,1,1.45.66,1,1,0,0,1,.14.8,1.47,1.47,0,0,1-.43.68,2.9,2.9,0,0,1-1.45.57l-1.49.23c-2,.3-3.89.56-5.73.69a25.94,25.94,0,0,1-9.69-.82,15.85,15.85,0,0,1-5.77-3.09,12.67,12.67,0,0,1-1.25-1.28l-.39-.49s.15.16.41.47a12.5,12.5,0,0,0,1.27,1.26,15.9,15.9,0,0,0,5.76,3,26,26,0,0,0,9.65.79c1.83-.14,3.74-.4,5.72-.7l1.49-.23a2.7,2.7,0,0,0,1.38-.54,1,1,0,0,0,.28-1.31,2.16,2.16,0,0,0-1.37-.6,43.42,43.42,0,0,0-16.95,0v-.11a20.57,20.57,0,0,0,5.44,1.13,38.14,38.14,0,0,0,4.29.09c1.19,0,2.12-.08,2.76-.11Z"/><path class="cls-7" d="M209.39,425.46a19.93,19.93,0,0,1-2.67.12,26.57,26.57,0,0,1-12.37-3.21,21,21,0,0,1-2.27-1.4l.17.09.45.27c.39.25,1,.58,1.7,1a28.67,28.67,0,0,0,6,2.31,29.2,29.2,0,0,0,6.34.89c.83,0,1.49,0,1.95,0l.53,0Z"/><path class="cls-7" d="M209.38,422.53a.93.93,0,0,1-.3.05c-.2,0-.48.06-.84.08a18.78,18.78,0,0,1-2.78,0,19.6,19.6,0,0,1-2.75-.44c-.34-.08-.62-.16-.81-.22a.87.87,0,0,1-.29-.1l.3.05.82.18a24.55,24.55,0,0,0,2.74.39,25.54,25.54,0,0,0,2.77.08l.83,0Z"/><rect class="cls-2" x="109.68" y="427.33" width="90.25" height="21.73"/><path class="cls-1" d="M199.93,430.94s0,.1-.13.28l-.4.79a13.52,13.52,0,0,1-.67,1.22c-.29.47-.58,1-1,1.57a22,22,0,0,1-1.31,1.82c-.48.65-1.05,1.3-1.65,2a33.83,33.83,0,0,1-4.33,4,35,35,0,0,1-5,3.16c-.82.39-1.59.79-2.34,1.08-.38.15-.73.31-1.09.43l-1,.35c-.65.24-1.25.39-1.78.53a11.91,11.91,0,0,1-1.36.33l-.86.17-.31.05.3-.08.86-.19c.38-.08.83-.19,1.35-.35s1.13-.3,1.77-.54l1-.36c.35-.13.7-.29,1.08-.44.75-.29,1.51-.69,2.32-1.08a35.82,35.82,0,0,0,5-3.16,35,35,0,0,0,4.32-4c.6-.67,1.17-1.31,1.65-2s.93-1.24,1.32-1.81.7-1.09,1-1.55.51-.88.69-1.22l.42-.77A2.77,2.77,0,0,1,199.93,430.94Z"/><path class="cls-1" d="M199.54,444.19l-.13,0-.39.06c-.34,0-.83.11-1.43.22a26,26,0,0,0-4.56,1.29,26.72,26.72,0,0,0-4.24,2.13c-.52.33-.93.6-1.2.8l-.33.22-.11.07.1-.09.31-.24c.27-.21.67-.5,1.18-.83a22.88,22.88,0,0,1,4.24-2.17,22.63,22.63,0,0,1,4.6-1.26c.6-.1,1.09-.16,1.43-.19l.39,0Z"/><path class="cls-1" d="M186.29,437.63l-.56.3a3.68,3.68,0,0,1-1.76.48,2,2,0,0,1-1.23-.47,1.35,1.35,0,0,1-.4-1.46,3.83,3.83,0,0,1,1-1.48,14.54,14.54,0,0,1,1.54-1.32,14.17,14.17,0,0,1,4.12-2.13,12.88,12.88,0,0,1,2.54-.57,4.78,4.78,0,0,1,1.36.06,2.46,2.46,0,0,1,1.27.6,1.74,1.74,0,0,1,.52,1.33,3.19,3.19,0,0,1-.47,1.4,16.56,16.56,0,0,1-1.83,2.4,24.26,24.26,0,0,1-2.24,2.17,24.79,24.79,0,0,1-2.62,1.87,22,22,0,0,1-5.82,2.47,20.86,20.86,0,0,1-3,.54,5.21,5.21,0,0,1-2.85-.42,2.89,2.89,0,0,1-1.64-2.13,4.91,4.91,0,0,1,.53-2.53,22.58,22.58,0,0,1,2.32-4,23.1,23.1,0,0,1,4.68-4.81,19.75,19.75,0,0,1,2.05-1.37l-.53.35c-.35.23-.86.58-1.49,1.06a23.46,23.46,0,0,0-4.64,4.82,22.8,22.8,0,0,0-2.3,4,4.84,4.84,0,0,0-.51,2.47A2.79,2.79,0,0,0,176,443.3a5.14,5.14,0,0,0,2.79.4,20.85,20.85,0,0,0,3-.54,22.06,22.06,0,0,0,5.78-2.46,24.57,24.57,0,0,0,2.61-1.86,22.73,22.73,0,0,0,2.23-2.15,17.67,17.67,0,0,0,1.82-2.38,3,3,0,0,0,.45-1.34,1.64,1.64,0,0,0-.48-1.25,3.34,3.34,0,0,0-2.54-.63,13.3,13.3,0,0,0-2.51.55,14.33,14.33,0,0,0-4.11,2.11,13.42,13.42,0,0,0-1.53,1.31,3.67,3.67,0,0,0-1,1.44,1.31,1.31,0,0,0,.38,1.4,2.06,2.06,0,0,0,1.19.47,3.85,3.85,0,0,0,1.75-.46Z"/><path class="cls-1" d="M176.71,428.33a7.5,7.5,0,0,1-.08,1.06,10.21,10.21,0,0,1-.86,2.77,14.46,14.46,0,0,1-2.4,3.56,29.5,29.5,0,0,1-3.91,3.52c-1.47,1.15-2.91,2.2-4.15,3.24a24.08,24.08,0,0,0-3,3,14.8,14.8,0,0,0-1.62,2.39c-.16.31-.27.54-.35.71a2,2,0,0,1-.12.24,8,8,0,0,1,.43-1,13.33,13.33,0,0,1,1.59-2.42,22.89,22.89,0,0,1,3-3.05c1.23-1.05,2.67-2.1,4.14-3.25a30.13,30.13,0,0,0,3.91-3.5,14.69,14.69,0,0,0,2.4-3.52,10.6,10.6,0,0,0,.89-2.74c0-.34.09-.6.1-.78A1.87,1.87,0,0,1,176.71,428.33Z"/><path class="cls-1" d="M136.28,448.75a36.62,36.62,0,0,1,6.15-1.57c1.93-.38,4.25-.71,6.79-1.22,1.27-.25,2.6-.55,3.95-.95a29.49,29.49,0,0,0,4.08-1.54,32.22,32.22,0,0,0,3.8-2.13,31,31,0,0,0,3.22-2.48,30.26,30.26,0,0,0,4.62-5.08,31.75,31.75,0,0,0,2.4-4c.25-.49.42-.88.54-1.14l.2-.4s-.23.56-.69,1.56a31.12,31.12,0,0,1-2.38,4,29.49,29.49,0,0,1-4.61,5.12,32.36,32.36,0,0,1-3.23,2.49,31.17,31.17,0,0,1-3.82,2.14,29.68,29.68,0,0,1-4.09,1.55c-1.36.4-2.69.7-4,.95-2.55.5-4.86.82-6.79,1.18s-3.48.71-4.54,1c-.53.14-.93.27-1.21.36Z"/><path class="cls-1" d="M126.34,443.14s0-.08,0-.22a2,2,0,0,1,.12-.63,4.22,4.22,0,0,1,1.4-2,10.91,10.91,0,0,1,3.42-1.86,15.78,15.78,0,0,1,8.09-.66,7.29,7.29,0,0,1,1.54.45,3.13,3.13,0,0,1,1.31,1,2.13,2.13,0,0,1,.41,1.66,2.68,2.68,0,0,1-1,1.49,7.14,7.14,0,0,1-1.57.95c-.56.26-1.13.52-1.72.76a40.63,40.63,0,0,1-7.6,2.34c-1.35.27-2.75.48-4.17.62-.71.07-1.42.12-2.15.15a6.41,6.41,0,0,1-2.17-.24,3.15,3.15,0,0,1-1.74-1.32,4.13,4.13,0,0,1-.62-2.07,5.68,5.68,0,0,1,1.51-3.86,15.14,15.14,0,0,1,3.08-2.66,20.86,20.86,0,0,1,3.4-1.91,30.69,30.69,0,0,1,6.87-2.12,52.94,52.94,0,0,1,6.22-.81c1.92-.16,3.66-.15,5.16-.35a8.17,8.17,0,0,0,3.65-1.26,5.22,5.22,0,0,0,1.65-1.79,3.35,3.35,0,0,0,.25-.59c.05-.14.07-.21.07-.21a3.31,3.31,0,0,1-.3.81,5.06,5.06,0,0,1-1.65,1.82,8.13,8.13,0,0,1-3.66,1.29c-1.51.21-3.25.21-5.16.37a52.65,52.65,0,0,0-6.21.82,30.51,30.51,0,0,0-6.84,2.13,21.07,21.07,0,0,0-3.39,1.89,15.23,15.23,0,0,0-3,2.65,5.6,5.6,0,0,0-1.49,3.78,3.94,3.94,0,0,0,.61,2,3.05,3.05,0,0,0,1.66,1.27,6.43,6.43,0,0,0,2.14.23c.72,0,1.43-.08,2.14-.15a39.66,39.66,0,0,0,4.16-.61,41.39,41.39,0,0,0,7.58-2.32,14.38,14.38,0,0,0,3.26-1.7,2.56,2.56,0,0,0,.94-1.42,2,2,0,0,0-.38-1.58,4.23,4.23,0,0,0-2.79-1.44,15.65,15.65,0,0,0-8.05.63,10.84,10.84,0,0,0-3.41,1.83,4.39,4.39,0,0,0-1.41,2,2.58,2.58,0,0,0-.13.63Z"/><path class="cls-1" d="M136.85,427.86s-.41.26-1.18.67-1.9,1-3.33,1.59-3.16,1.3-5.06,2.08a50.1,50.1,0,0,0-6,2.87,21.61,21.61,0,0,0-5.24,4.11,14.93,14.93,0,0,0-2.87,4.6,11.43,11.43,0,0,0-.77,3.57,8.11,8.11,0,0,0,0,1,3.09,3.09,0,0,1,0,.35l0-.34a9.73,9.73,0,0,1,0-1,11.48,11.48,0,0,1,.74-3.61,15,15,0,0,1,2.86-4.64,21.58,21.58,0,0,1,5.26-4.14,49.61,49.61,0,0,1,6.06-2.87c1.9-.77,3.63-1.44,5.06-2s2.57-1.15,3.35-1.55l.88-.47Z"/><path class="cls-1" d="M110.74,433.86l.15,0,.43-.08c.37-.06.91-.17,1.57-.33a24.52,24.52,0,0,0,9.45-4.61c.53-.42,1-.77,1.23-1l.33-.29q.1-.11.12-.09l-.11.11-.31.31c-.27.26-.68.63-1.21,1.06a23.18,23.18,0,0,1-9.48,4.63c-.66.15-1.2.24-1.58.29l-.44.06Z"/><polygon class="cls-19" points="146.6 273.49 149.75 236.69 157.61 236.69 160.79 273.49 146.6 273.49"/><path class="cls-19" d="M219.69,282.75c3.57,1.05,7-2.56,5.4-5.94-.73-1.57-2.4-2.83-5.79-3.05-9.1-.61-112.84-1.76-131.68-2-2.42,0-5.23,1.22-6,3.52a3.74,3.74,0,0,0,.73,3.37c2.33,1.84,4.37,1,7.57-1.32,4.07-3,52.12,1.26,57.48,3.08h11.09s8.93-3,41.08-3.09c18.72-.06,15.18,2.6,18.44,4.91Z"/><polygon class="cls-19" points="158.45 279.35 159.81 289.16 158.12 290.28 159.81 298.11 145.14 296.55 148.71 290.28 147.34 288.41 147.96 279.49 158.45 279.35"/><circle class="cls-19" cx="153.7" cy="228.22" r="11.49"/><path class="cls-7" d="M102.8,277.35c.65,2.34,3.42,12.25,8.65,31l21.69,78.19.18.65H105.55l-28.19,0h-.65l.15-.62L95.4,308.29c4.47-18.7,6.84-28.59,7.4-30.94-.55,2.39-2.84,12.49-7.16,31.56C91.18,328.44,85,355.68,77.86,386.75l-.5-.63h55.29l-.5.65L111.24,309C106.14,289.85,103.43,279.73,102.8,277.35Z"/><path class="cls-19" d="M70.78,384.32h71.11s-3.49,26.33-35.79,26.2C74.12,410.39,70.78,384.32,70.78,384.32Z"/><path class="cls-3" d="M113.94,406.59a5,5,0,0,1-1.57.43,26,26,0,0,1-4.41.46,34.49,34.49,0,0,1-6.58-.45,39.86,39.86,0,0,1-7.77-2.17A39.44,39.44,0,0,1,86.49,401a34.86,34.86,0,0,1-5-4.23,25.91,25.91,0,0,1-2.86-3.39c-.6-.86-.9-1.35-.84-1.4s1.52,1.75,4.21,4.26a40.28,40.28,0,0,0,5.07,4,39.55,39.55,0,0,0,14.53,5.86,40.28,40.28,0,0,0,6.41.65C111.63,406.8,113.91,406.4,113.94,406.59Z"/><path class="cls-7" d="M209.76,277.35c.65,2.34,3.42,12.25,8.65,31L240.1,386.5l.18.65H212.51l-28.19,0h-.65l.15-.62c7.4-31.23,13.89-58.6,18.55-78.23,4.46-18.7,6.83-28.59,7.39-30.94-.55,2.39-2.84,12.49-7.16,31.56-4.46,19.53-10.68,46.77-17.78,77.84l-.5-.63h55.29l-.5.65L218.2,309C213.1,289.85,210.39,279.73,209.76,277.35Z"/><path class="cls-19" d="M177.74,384.32h71.11s-3.49,26.33-35.79,26.2C181.08,410.39,177.74,384.32,177.74,384.32Z"/><path class="cls-3" d="M220.9,406.59a4.91,4.91,0,0,1-1.57.43,26,26,0,0,1-4.41.46,34.34,34.34,0,0,1-6.57-.45,36.55,36.55,0,0,1-14.9-6,34.86,34.86,0,0,1-5-4.23,25.91,25.91,0,0,1-2.86-3.39,5,5,0,0,1-.84-1.4c.16-.11,1.52,1.75,4.21,4.26a40.28,40.28,0,0,0,5.07,4,39.55,39.55,0,0,0,14.53,5.86,40.28,40.28,0,0,0,6.41.65C218.6,406.8,220.87,406.4,220.9,406.59Z"/><path class="cls-11" d="M558.41,447.65s-3.16,36.34-2,46.09,10.68,64.62,21,72.3,21.85,18.31,36.92,16.83,22.44-3.84,24.81-11.22,13.88-36,11.22-48.74S638,490.42,638,490.42s-7.68-59.36-11.52-62.61l-3.84-3.25s6.49-23.33,5.9-30.42-8.55-68.57-21.4-77.79A80,80,0,0,0,587.48,306L573.9,362.24Z"/><path class="cls-12" d="M636.38,503.88a11.93,11.93,0,0,1-1.66-2.1,65,65,0,0,1-3.88-6.18,76.58,76.58,0,0,1-4.57-9.82c-1.49-3.78-2.85-8.06-5.34-11.95a38.63,38.63,0,0,0-9.12-9.26c-3.22-2.4-6.13-4.58-8.63-6.46l-5.8-4.4a16.29,16.29,0,0,1-2-1.72,14.86,14.86,0,0,1,2.27,1.42l6,4.17c2.51,1.79,5.5,3.87,8.77,6.31a38.19,38.19,0,0,1,9.38,9.43c2.58,4,3.93,8.38,5.36,12.16a86.36,86.36,0,0,0,4.35,9.81c1.42,2.71,2.7,4.83,3.6,6.29A19.34,19.34,0,0,1,636.38,503.88Z"/><path class="cls-12" d="M614,498.29a8.46,8.46,0,0,1-1.08,1.8,39.61,39.61,0,0,1-3.59,4.44,32.62,32.62,0,0,1-16,9.75A23.22,23.22,0,0,1,575,510.93a16.71,16.71,0,0,1-4.09-4,7.15,7.15,0,0,1-1-1.82c.18-.16,1.53,2.67,5.5,5.3a23.31,23.31,0,0,0,17.68,3,33.62,33.62,0,0,0,15.73-9.3C612.18,500.68,613.83,498.18,614,498.29Z"/><path class="cls-12" d="M615.76,423.44c0,.14-2.28-.38-5.94-1a102.69,102.69,0,0,0-14.38-1.4,103.87,103.87,0,0,0-14.44.7c-3.68.44-5.94.86-6,.71a5.87,5.87,0,0,1,1.56-.49c1-.26,2.49-.56,4.33-.87a80,80,0,0,1,29,.7c1.82.39,3.29.76,4.28,1.08A5.48,5.48,0,0,1,615.76,423.44Z"/><path class="cls-12" d="M608.12,405.36a54.41,54.41,0,0,1-5.67,1.58,120,120,0,0,0-13.39,4.54,118.27,118.27,0,0,0-12.73,6.18,56.13,56.13,0,0,1-5.15,2.85c0-.06.4-.41,1.22-1s2-1.43,3.59-2.4a87.55,87.55,0,0,1,26.3-10.79c1.79-.4,3.24-.67,4.25-.81A4.74,4.74,0,0,1,608.12,405.36Z"/><path class="cls-12" d="M595,324.91a3.89,3.89,0,0,1-.35.94l-1.16,2.63c-1.05,2.26-2.49,5.57-4.17,9.69s-3.56,9.09-5.44,14.67-3.67,11.8-5.29,18.39-2.81,13-3.74,18.78-1.53,11.09-1.91,15.53-.63,8-.74,10.52c-.07,1.16-.12,2.11-.17,2.87a4.39,4.39,0,0,1-.12,1,4.36,4.36,0,0,1-.06-1c0-.76,0-1.72,0-2.88,0-2.5.14-6.11.45-10.57s.86-9.75,1.71-15.6,2.08-12.23,3.68-18.87,3.5-12.85,5.39-18.45,3.85-10.55,5.64-14.64,3.3-7.38,4.45-9.6c.54-1,1-1.88,1.32-2.55A4.1,4.1,0,0,1,595,324.91Z"/><path class="cls-17" d="M607.44,478.43c-.16-.72-3.48-16.14-13.66-25.58s-24-34.73-24-34.73-6.3-11.19-5.8-21.39,9.18-24.1,4-26.34-16.89.25-20.86,22.36-2.74,31.33-2.74,31.33-25.33,1.45-25.08,11.14,6.42,12.67,6.42,12.67-6.42,7.2-3.19,11.17,9.44,4,9.44,4-4,1.24.24,7.94a15.9,15.9,0,0,0,10.68,7.45,11.51,11.51,0,0,0,1.49,9.19c3,5,5,5.22,7.21,5s14.4-2.48,14.4-2.48,1.49,5.52,9.19,8.47l-.49,4.94s-.5,14.9,17.38,10.18S610.92,493.83,607.44,478.43Z"/><path class="cls-18" d="M566.59,415.67c0,.08-.8-.22-2.25-.38a14.48,14.48,0,0,0-6,.89,38.34,38.34,0,0,0-8,4.41,48.61,48.61,0,0,1-4.76,2.82,26,26,0,0,1-5.64,2c-4,.89-7.76,1.54-11.17,2.23a18.33,18.33,0,0,0-4.59,1.53A8.11,8.11,0,0,0,521,431.9a9.23,9.23,0,0,0-1.41,5.81c.12,1.45.43,2.23.34,2.25s-.12-.17-.27-.54a8.3,8.3,0,0,1-.43-1.67,9.25,9.25,0,0,1,1.21-6.2,8.76,8.76,0,0,1,3.26-3.05,18.56,18.56,0,0,1,4.77-1.69c3.44-.74,7.23-1.42,11.14-2.3a30.75,30.75,0,0,0,10.16-4.64,36,36,0,0,1,8.3-4.32,13.71,13.71,0,0,1,6.3-.62,8.7,8.7,0,0,1,1.66.46C566.42,415.54,566.6,415.64,566.59,415.67Z"/><path class="cls-18" d="M565.89,431a43.74,43.74,0,0,1-5.83,2.63l-14.29,5.79c-5.58,2.25-10.63,4.3-14.24,5.86-1.82.77-3.26,1.44-4.26,1.9a7.14,7.14,0,0,1-1.58.68c-.08-.11,2-1.49,5.56-3.18s8.58-3.87,14.17-6.12,10.69-4.19,14.4-5.55A43.84,43.84,0,0,1,565.89,431Z"/><path class="cls-18" d="M589.05,466.07a5.08,5.08,0,0,1-1,1.7,13.66,13.66,0,0,1-4.1,3.45,21.55,21.55,0,0,1-7.56,2.45,72.32,72.32,0,0,1-9.66.49,63.06,63.06,0,0,0-17.13,2.42c-4.28,1.23-6.82,2.36-6.88,2.22a6.75,6.75,0,0,1,1.72-.93,45.7,45.7,0,0,1,5-1.92,56.7,56.7,0,0,1,17.32-2.72,84.07,84.07,0,0,0,9.55-.41,22.36,22.36,0,0,0,7.36-2.18A16.46,16.46,0,0,0,589.05,466.07Z"/><path class="cls-18" d="M593.62,479.78s.21.44.15,1.28a6.18,6.18,0,0,1-1.39,3.24,9.39,9.39,0,0,1-4.34,2.9,35.15,35.15,0,0,1-6.15,1.31c-4.37.7-8.33,1.25-11.22,1.53s-4.71.21-4.71.07,1.77-.27,4.63-.73l11.15-1.79a41.06,41.06,0,0,0,6-1.2,9,9,0,0,0,4.11-2.52A7.05,7.05,0,0,0,593.62,479.78Z"/><path class="cls-18" d="M597.69,486.62c.09.05-.6,1.39-2.35,3a16.4,16.4,0,0,1-17.53,3c-2.21-1-3.31-2-3.25-2.06s1.31.68,3.49,1.44a17.28,17.28,0,0,0,16.86-2.93C596.7,487.71,597.57,486.53,597.69,486.62Z"/><path class="cls-18" d="M597.33,472.43c-.3.09-1.33-6-5.36-12.31s-9-9.89-8.83-10.13a12.56,12.56,0,0,1,3.3,2.29,33,33,0,0,1,10.24,16.2A12.35,12.35,0,0,1,597.33,472.43Z"/><path class="cls-18" d="M602.28,469.53c-.23.12-1.55-2-3.26-4.5s-3.17-4.54-3-4.72,2,1.61,3.74,4.19S602.51,469.42,602.28,469.53Z"/><path class="cls-18" d="M572.22,452c0,.16-2.34.17-6.07.78a89.61,89.61,0,0,0-14.27,3.63l-14,4.77a40.42,40.42,0,0,1-5.89,1.76,39.67,39.67,0,0,1,5.67-2.38c3.55-1.33,8.43-3.22,13.94-5a72.32,72.32,0,0,1,14.47-3.4,38.84,38.84,0,0,1,4.51-.26A5.43,5.43,0,0,1,572.22,452Z"/><path class="cls-18" d="M590.06,453c-.22.16-2.57-3-6.36-5.83a6.47,6.47,0,0,1-2.33-2.69c-.43-1-.62-1.93-.88-2.64a5.63,5.63,0,0,0-1.29-2s.29,0,.69.23a3.85,3.85,0,0,1,1.21,1.55c.36.74.63,1.66,1,2.54a6.23,6.23,0,0,0,2.12,2.32C588.19,449.38,590.27,452.87,590.06,453Z"/><text class="cls-20" transform="translate(114.55 441.07)">справедливость</text><text class="cls-21" transform="translate(92.23 78.54)">СЕРТИФИКАТ</text><path class="cls-4" d="M178.88,141.05a14.49,14.49,0,0,1-12.46,14.49,15.11,15.11,0,0,1-1.51.1v-3.57h1.51V154a12.94,12.94,0,0,0,11-12.9,12.59,12.59,0,0,0-10.87-12.73v1.91H165v-3.57a12.62,12.62,0,0,1,1.51.07A14.1,14.1,0,0,1,178.88,141.05Z"/><path class="cls-1" d="M152.12,163.05v-3h.93a1.4,1.4,0,0,1,1,.42,1.43,1.43,0,0,1,.42,1.06,1.47,1.47,0,0,1-1.46,1.5Zm.3-.29h.63a1.12,1.12,0,0,0,.84-.35,1.29,1.29,0,0,0,0-1.72,1.14,1.14,0,0,0-.84-.33h-.62Z"/><path class="cls-1" d="M155.47,160.46a1.39,1.39,0,0,1,1-.46,1.31,1.31,0,0,1,1,.44,1.49,1.49,0,0,1,.42,1.07h0a1.5,1.5,0,0,1-.42,1.07,1.4,1.4,0,0,1-2,0,1.5,1.5,0,0,1-.41-1.08A1.52,1.52,0,0,1,155.47,160.46Zm-.13,1.07a1.24,1.24,0,0,0,.33.87,1,1,0,0,0,.81.35,1.06,1.06,0,0,0,.81-.36,1.25,1.25,0,0,0,.33-.88,1.23,1.23,0,0,0-.32-.87,1.1,1.1,0,0,0-1.63,0A1.24,1.24,0,0,0,155.34,161.53Z"/><path class="cls-1" d="M158.49,163v-3h.29v2.69l1.5,0V163Z"/><path class="cls-1" d="M161,160.41a1.34,1.34,0,0,1,1-.45,1.22,1.22,0,0,1,.79.25,1.45,1.45,0,0,1,.5.68L163,161a1.17,1.17,0,0,0-.39-.51,1,1,0,0,0-.61-.19,1.11,1.11,0,0,0-.81.36,1.25,1.25,0,0,0-.33.88,1.17,1.17,0,0,0,.32.86,1,1,0,0,0,.81.35,1,1,0,0,0,.72-.29,1.31,1.31,0,0,0,.35-.75H162v-.27h1.36v.1a1.57,1.57,0,0,1-.38,1.07,1.28,1.28,0,0,1-1,.43,1.32,1.32,0,0,1-1-.43,1.6,1.6,0,0,1,0-2.15Z"/><path class="cls-1" d="M164.35,160.38a1.34,1.34,0,0,1,1-.45,1.32,1.32,0,0,1,1,.43,1.51,1.51,0,0,1,.42,1.08h0a1.57,1.57,0,0,1-.42,1.06,1.34,1.34,0,0,1-1,.45,1.3,1.3,0,0,1-1-.43,1.48,1.48,0,0,1-.41-1.07A1.53,1.53,0,0,1,164.35,160.38Zm-.13,1.08a1.24,1.24,0,0,0,.32.86,1.06,1.06,0,0,0,.82.36,1.1,1.1,0,0,0,.81-.37,1.24,1.24,0,0,0,.33-.87,1.28,1.28,0,0,0-.32-.87,1,1,0,0,0-.81-.35,1.06,1.06,0,0,0-.82.36A1.27,1.27,0,0,0,164.22,161.46Z"/><path class="cls-1" d="M167,160h.33l1,2.85,1-2.86h.32l-1.06,3h-.52Z"/><path class="cls-1" d="M165,132.58l0,13-6.12-11.26-1.55-2.85-.75-1.39c-.2.17-.39.34-.59.53s-.38.37-.55.56a14.92,14.92,0,0,0-4,10.16,14.54,14.54,0,0,0,4.85,11l.77-1.41a13,13,0,0,1-4.11-9.58,13.32,13.32,0,0,1,3.27-8.72L165,149a.71.71,0,0,0,.65.4.69.69,0,0,0,.2,0,.79.79,0,0,0,.56-.76l.05-16Z"/><path class="cls-4" d="M170.74,159.92l1.49,2.82V159.9h.29v3H172l-1.5-2.85v2.86h-.28v-3Z"/><path class="cls-4" d="M175.21,159.88v.28l-1.69,0v1.06H175v.27l-1.54,0v1.06h1.7v.28l-2,0v-3Z"/><path class="cls-4" d="M175.73,159.87H178v.28h-1v2.69h-.3v-2.69h-1Z"/></g></g></svg>