<svg xmlns="http://www.w3.org/2000/svg" viewBox="0 0 420.23 369.25"><defs><style>.cls-1{fill:#f5f5f5;}.cls-2{fill:#e0e0e0;}</style></defs><g id="Слой_2" data-name="Слой 2"><g id="Слой_1-2" data-name="Слой 1"><polygon class="cls-1" points="17.8 184.57 17.8 288.45 0.46 288.45 0.46 299.73 17.8 299.73 17.8 369.25 342.02 369.25 342.02 305.99 318 305.99 318 292.21 342.02 292.21 342.02 271.54 352.69 271.54 352.69 262.14 340.02 262.14 340.02 184.57 17.8 184.57"/><polygon class="cls-2" points="255.92 184.87 255.92 368.1 342.02 368.1 342.02 304.83 318 304.83 318 292.21 342.02 292.64 342.02 271.97 352.9 271.98 352.69 261.3 340.02 260.99 340.02 184.57 255.92 184.87"/><path class="cls-2" d="M262.06,298.24c0,.63-58.67,1.15-131,1.15S0,298.87,0,298.24s58.65-1.16,131-1.16,131,.52,131,1.16"/><path class="cls-2" d="M262.06,287.68c0,.64-58.67,1.16-131,1.16S0,288.32,0,287.68s58.65-1.15,131-1.15,131,.52,131,1.15"/><path class="cls-2" d="M278.89,259.28c0,.64-58.67,1.16-131,1.16s-131-.52-131-1.16,58.65-1.15,131-1.15,131,.52,131,1.15"/><path class="cls-2" d="M278.89,215c0,.63-58.67,1.15-131,1.15s-131-.52-131-1.15,58.65-1.15,131-1.15,131,.51,131,1.15"/><path class="cls-2" d="M280.51,336.67c0,.64-58.67,1.16-131,1.16s-131-.52-131-1.16,58.65-1.15,131-1.15,131,.52,131,1.15"/><polygon class="cls-1" points="85.14 0 85.14 103.89 67.79 103.89 67.79 115.16 85.14 115.16 85.14 184.69 409.35 184.69 409.35 121.42 385.34 121.42 385.34 107.64 409.35 107.64 409.35 86.97 420.03 86.97 420.03 77.58 407.35 77.58 407.35 0 85.14 0"/><polygon class="cls-2" points="323.25 0.3 323.25 183.53 409.35 183.53 409.35 120.27 385.34 120.27 385.34 107.64 409.35 108.07 409.35 87.4 420.23 87.42 420.03 76.73 407.35 76.42 407.35 0 323.25 0.3"/><path class="cls-2" d="M329.39,113.67c0,.63-58.67,1.15-131,1.15s-131-.52-131-1.15,58.66-1.15,131-1.15,131,.51,131,1.15"/><path class="cls-2" d="M329.39,103.12c0,.63-58.67,1.15-131,1.15s-131-.52-131-1.15S126,102,198.37,102s131,.52,131,1.16"/><path class="cls-2" d="M346.22,74.71c0,.64-58.67,1.16-131,1.16s-131-.52-131-1.16,58.66-1.15,131-1.15,131,.52,131,1.15"/><path class="cls-2" d="M346.22,30.46c0,.64-58.67,1.15-131,1.15s-131-.51-131-1.15,58.66-1.15,131-1.15,131,.52,131,1.15"/><path class="cls-2" d="M347.84,152.11c0,.63-58.67,1.15-131,1.15s-131-.52-131-1.15,58.66-1.16,131-1.16,131,.52,131,1.16"/></g></g></svg>