<svg xmlns="http://www.w3.org/2000/svg" viewBox="0 0 1243.1 741.78"><defs><style>.cls-1{fill:#e6eefa;}.cls-2{fill:#3a7c76;}.cls-3{fill:#35484f;}.cls-4{fill:#448e85;}.cls-5{fill:#fff;}.cls-6{fill:#5dbdaf;}.cls-7{fill:#4ba79d;}.cls-8{fill:#f4a5a8;}.cls-9{fill:#21234b;}.cls-10{fill:#f28f8f;}</style></defs><g id="Слой_2" data-name="Слой 2"><g id="Слой_1-2" data-name="Слой 1"><path class="cls-1" d="M385.32,554.05l-9.5-5.38a53.4,53.4,0,0,1-8.93,10.76,6.65,6.65,0,0,1-9.1-.13l-.3-.29a6.64,6.64,0,0,1,.17-9.74,38.53,38.53,0,0,0,8-9.79c3.23-5.7,3.24-10.85-.76-13.12-3.8-2.16-8-.32-14.72,5.67-9.67,8.66-18.81,13.13-28.52,7.62-8.8-5-12.19-15.1-8.22-27l-9.5-5.39,5.56-9.8,8.8,5a48.74,48.74,0,0,1,6.5-8.38,6.65,6.65,0,1,1,9.35,9.45A35.22,35.22,0,0,0,328,511.6c-3.69,6.51-2.08,10.2.72,11.79,3.3,1.86,7.39-.45,15.41-7.14,11-9.52,19.18-11.2,28.19-6.09s12.93,15.66,8.41,28.3l10.2,5.79-5.56,9.8Z"/><path class="cls-2" d="M842.48,706.61c24-32.25,43.21-32.53,43.21-32.53s8.74-56.67,1.77-80.78-38.49-3-38.49-3,41.79-81.91,24.65-91.11C841.7,482.09,791.41,569,791.41,569s11.78-38.24-10.8-38.1c-34,.22-37,87.9-37,87.9s-6.71-17.28-27.71-7.38c-22.63,10.66-28.76,74.86-30,124.46H805.13c17.06-10.45,31-20.7,37.35-29.24Z"/><path class="cls-3" d="M795.58,562s1.4-43.58-21.17-43.44c-34,.22-30.79,100.22-30.79,100.22s-14.22-28.29-35.22-18.4c-23,10.86-25.79,81.81-24.89,135.48h39.62L873.62,499.23c-31.92-17.14-78,62.76-78,62.76Z"/><path class="cls-2" d="M981,733s108.68,12.51,135,3.29,8.89-24,8.89-24,55.68-7.1,61.05-23.67-21-16.68-21-16.68,55.89-30.84,49.62-42.79c-11.69-22.27-74.4,8.11-74.4,8.11s21.65-17.4,8.62-26.1c-19.66-13.12-55.46,36.14-55.46,36.14s2.86-12.54-13.06-15C1051.67,627.88,981,733,981,733Z"/><path class="cls-3" d="M1080.22,623.07c15.92,2.49,13.09,24.28,13.09,24.28s37-58.76,56.68-45.64c13,8.7-4.72,33.21-4.72,33.21s57.59-28,69.28-5.72L991.37,726.05c8.19-12.32,62.16-107.14,88.85-103Z"/><path class="cls-2" d="M980.29,734.6s98.89-68.81,113.12-99.06-13-27.73-13-27.73,40.69-53.57,31-72.08-31.87,3.92-31.87,3.92,20.57-73.67,5.08-78.35c-28.85-8.72-57.08,84.58-57.08,84.58s-10.77-51.62-29.16-47.78c-27.73,5.78-.06,82.09-.06,82.09s-8.18-24.85-23.68-13.32c-27.8,20.69,5.64,167.73,5.64,167.73Z"/><path class="cls-3" d="M947.6,568.06c17.46-8.26,21-25.64,21-25.64s.12-43.15,27.84-48.93c18.39-3.84,31.26,30.82,31.26,30.82s28.11-71.73,57-63L980,733.45c-3.65-17.36-53.19-155.55-32.39-165.39Z"/><path class="cls-4" d="M949.8,734.81H750.37a11.52,11.52,0,1,1,0-23H949.8a11.52,11.52,0,0,1,0,23Z"/><path class="cls-3" d="M984.68,712.47H785.25a11.52,11.52,0,0,1,0-23H984.68a11.52,11.52,0,0,1,0,23Z"/><path class="cls-4" d="M956.77,691.29H757.34a11.51,11.51,0,1,1,0-23H956.77a11.51,11.51,0,1,1,0,23Z"/><path class="cls-3" d="M933.52,668.36H734.09a11.51,11.51,0,0,1,0-23H933.52a11.51,11.51,0,0,1,0,23Z"/><path class="cls-1" d="M1074.78,641.8a99.71,99.71,0,1,1-99.7-99.71,99.71,99.71,0,0,1,99.7,99.71Z"/><path class="cls-4" d="M1058.74,641.8a83.67,83.67,0,1,1-83.66-83.67,83.67,83.67,0,0,1,83.66,83.67Z"/><path class="cls-5" d="M949.17,695.52l4.76-13.13a68,68,0,0,1-15.48-8.95A8.5,8.5,0,0,1,936.67,662l.3-.44a8.49,8.49,0,0,1,12.31-1.87,49.57,49.57,0,0,0,14.06,8c7.88,2.86,14.37,1.77,16.38-3.76,1.9-5.25-1.32-10.17-10.3-17.33-13-10.34-20.57-20.92-15.71-34.32,4.41-12.17,16.44-18.6,32.29-16.14L990.75,583l13.55,4.91-4.41,12.17a61.79,61.79,0,0,1,12,6.39,8.5,8.5,0,1,1-9.91,13.81,44.9,44.9,0,0,0-11.52-6.12c-9-3.26-13.29-.44-14.7,3.43-1.65,4.56,2.13,9.22,12.28,17.9,14.34,11.77,18.23,21.78,13.71,34.22s-17,19.64-33.87,16.64l-5.11,14.1-13.55-4.91Z"/><path class="cls-3" d="M615.47,730.76s-154.94-76.4-181.59-116.25,12.52-42.1,12.52-42.1S377.26,505.16,387,476.85s46-1.26,46-1.26-44.95-100.06-24-110c39-18.53,93.82,88,93.82,88S491.09,407.28,518,408.79c40.55,2.26,38.87,106.91,38.87,106.91s4.58-40.13,29-27.09c43.85,23.38,29.6,242.15,29.6,242.15Z"/><path class="cls-2" d="M594.7,472.42c-19.09-10.59-38.1,20.36-38.1,20.36s1.93-81.73-38.62-84c-26.89-1.51-15.12,44.75-15.12,44.75s-54.78-106.49-93.82-88L615.65,729.06c1.46-25.38,16.85-235.66-20.95-256.64Z"/><path class="cls-3" d="M547.35,729s-126.73,15.73-159.54,1.71-9.3-31.35-9.3-31.35-70.45-13.85-75.89-35.46,28.2-19.49,28.2-19.49-68.69-44.15-59.66-58.87c16.83-27.43,94.26,16.73,94.26,16.73s-26.14-24.07-8.76-34.06c26.22-15.06,67.69,50.89,67.69,50.89s-2.57-16.25,18-18.06c36.85-3.23,105,128,105,128Z"/><path class="cls-2" d="M443.15,589.27c-20.54,1.8-18.8,29.87-18.8,29.87S382.13,541,355.91,556c-17.38,10,3.19,42.79,3.19,42.79S288,558.15,271.16,585.58L547.73,728.34c-9.4-16.43-70.16-142.09-104.58-139.07Z"/><path class="cls-3" d="M84.87,738.22h0a3.56,3.56,0,0,0,3.57,3.56H1239.53a3.56,3.56,0,1,0,0-7.12H88.44a3.56,3.56,0,0,0-3.57,3.56Z"/><polygon class="cls-6" points="969.45 118.59 964.94 129.85 946.01 124.58 937.38 140.23 922.57 138.61 921.75 146.1 941.55 148.28 949.74 133.44 969.42 138.93 976.22 121.98 969.45 118.59 969.45 118.59"/><path class="cls-1" d="M1036.76,420.27l4.65-11.54a60.5,60.5,0,0,1-13.5-8.46,7.56,7.56,0,0,1-1.23-10.28l.28-.39a7.56,7.56,0,0,1,11-1.28,44.23,44.23,0,0,0,12.27,7.59c6.93,2.79,12.74,2,14.7-2.84,1.86-4.61-.86-9.09-8.62-15.75-11.24-9.62-17.66-19.27-12.91-31.05,4.31-10.69,15.22-16,29.25-13.36l4.65-11.54,11.91,4.8-4.31,10.69a56.44,56.44,0,0,1,10.44,6.07,7.57,7.57,0,1,1-9.27,12A40.21,40.21,0,0,0,1076,349.1c-7.9-3.19-11.82-.81-13.19,2.59-1.61,4,1.61,8.28,10.37,16.33,12.4,10.93,15.54,20,11.13,30.89s-15.73,17-30.68,13.76l-5,12.4-11.9-4.8Z"/><path class="cls-7" d="M781.19,734.68H547a16.9,16.9,0,1,1,0-33.79H781.19a16.9,16.9,0,1,1,0,33.79Z"/><path class="cls-2" d="M816.4,701.23H595.89a16.9,16.9,0,1,1,0-33.79H816.4a16.9,16.9,0,1,1,0,33.79Z"/><path class="cls-7" d="M785,667.42H574.05a16.52,16.52,0,0,1-16.52-16.51v-.78a16.52,16.52,0,0,1,16.52-16.51H785a16.51,16.51,0,0,1,16.51,16.51v.78A16.51,16.51,0,0,1,785,667.42Z"/><path class="cls-2" d="M784.78,633.71H572.85a16.23,16.23,0,0,1-16.23-16.23v-1.34a16.23,16.23,0,0,1,16.23-16.22H784.78A16.23,16.23,0,0,1,801,616.14v1.34a16.23,16.23,0,0,1-16.23,16.23Z"/><path class="cls-7" d="M791.76,601.9H577.89a16.9,16.9,0,1,1,0-33.79H791.76a16.9,16.9,0,0,1,0,33.79Z"/><path class="cls-2" d="M782.53,568.53H568.66a16.9,16.9,0,1,1,0-33.79H782.53a16.9,16.9,0,0,1,0,33.79Z"/><path class="cls-2" d="M793.24,503.25H588.38a16.57,16.57,0,0,1-16.56-16.57V486a16.57,16.57,0,0,1,16.56-16.56H793.24A16.57,16.57,0,0,1,809.81,486v.67a16.57,16.57,0,0,1-16.57,16.57Z"/><path class="cls-7" d="M811.59,535.74H614.79a16.26,16.26,0,0,1-16.26-16.26V518.2A16.25,16.25,0,0,1,614.79,502h196.8a16.25,16.25,0,0,1,16.26,16.25v1.28a16.25,16.25,0,0,1-16.26,16.26Z"/><path class="cls-1" d="M583.86,567.38a99.22,99.22,0,1,1-140.2,5.67,99.22,99.22,0,0,1,140.2-5.67Z"/><path class="cls-4" d="M573,579.12a83.26,83.26,0,1,1-117.64,4.75A83.25,83.25,0,0,1,573,579.12Z"/><path class="cls-5" d="M571.2,666.32a6.61,6.61,0,0,1-.32,8.39,64.83,64.83,0,0,1-19.33,14.39c-12.39,6.08-26.61,7.94-40,3.36a48.19,48.19,0,0,1-22.41-16.72l-7.32,3.6a5,5,0,0,1-6.71-2.29l-.1-.19a5,5,0,0,1,2.3-6.71l6-2.95c-1.2-2-2-3.2-2.59-4.32A49.2,49.2,0,0,1,478,656l-6.19,3a5,5,0,0,1-4.42-9l7.5-3.68a51.51,51.51,0,0,1,1-27.76c4.87-14.27,15.61-25.13,28.55-31.49a57,57,0,0,1,19.12-5.77,6.78,6.78,0,0,1,7.43,5.76v.11a6.77,6.77,0,0,1-5.82,7.68,48.77,48.77,0,0,0-14.84,4.7c-8.26,4-15.23,10.73-18.66,20.34a30.09,30.09,0,0,0-.51,18.41l42.23-20.72a5,5,0,0,1,4.42,9l-44.1,21.65c.82,2.16,1.65,4.32,2.29,5.63.83,1.69,1.66,3.38,2.95,5.54l44.2-21.7a5.12,5.12,0,0,1,4.51,9.19l-42.31,20.78a31.8,31.8,0,0,0,13.95,9.92c10,3.25,18.77,2.19,28.16-2.41a55.16,55.16,0,0,0,13.82-9.68,6.61,6.61,0,0,1,9.84.76Z"/><path class="cls-1" d="M571.19,374.07a5.25,5.25,0,0,1-.9,6.61,51.77,51.77,0,0,1-16.37,9.87c-10.25,3.84-21.62,4.21-31.87-.44a38.2,38.2,0,0,1-16.41-14.92l-6.05,2.27a4,4,0,0,1-5.12-2.33l-.06-.15a4,4,0,0,1,2.33-5.13l5-1.86c-.79-1.65-1.36-2.68-1.71-3.61a39.67,39.67,0,0,1-1.57-5.61l-5.12,1.92a4,4,0,1,1-2.8-7.45l6.21-2.33a40.91,40.91,0,0,1,3-21.84c4.95-10.88,14.26-18.63,25-22.65a44.67,44.67,0,0,1,15.53-3.08,5.36,5.36,0,0,1,5.42,5.11v.09a5.39,5.39,0,0,1-5.19,5.62,38.25,38.25,0,0,0-12.08,2.56A28.63,28.63,0,0,0,512,331.34a23.89,23.89,0,0,0-1.82,14.5l34.93-13.11a4,4,0,0,1,2.8,7.45l-36.49,13.7c.49,1.76,1,3.53,1.38,4.61.53,1.4,1,2.8,1.9,4.61l36.57-13.73a4.06,4.06,0,0,1,2.85,7.61l-35,13.14A25.3,25.3,0,0,0,529.4,379c7.63,3.34,14.66,3.18,22.42.27a44,44,0,0,0,11.66-6.57,5.24,5.24,0,0,1,7.71,1.35Z"/><path class="cls-1" d="M895.41,257.32l11.14-5.65,11,6a1.72,1.72,0,0,0,2.52-1.77l-1.92-12.35L927.2,235a1.71,1.71,0,0,0-.91-2.94L914,230l-5.36-11.29a1.71,1.71,0,0,0-3.07,0l-5.71,11.11-12.39,1.61a1.71,1.71,0,0,0-1,2.91l8.8,8.86L893,255.47a1.72,1.72,0,0,0,2.46,1.85Z"/><polygon class="cls-6" points="671.69 30.76 660.17 31.93 656.24 13.6 639.19 13.23 634.01 0 627.31 2.62 634.24 20.32 650.4 20.67 654.49 39.74 671.82 37.98 671.69 30.76 671.69 30.76"/><path class="cls-8" d="M908.39,305.4l12.33,4.07s19.54-6.34,21.46-10.32,2.47-13.64,5.25-13.91a8.41,8.41,0,0,1,9.43,7.26c.93,4.8-6.1,18.67-5,20.15.69.92,7.71,3.47,12.86,5.23a9.62,9.62,0,0,1,6.36,7.75h0a5.29,5.29,0,0,1-3.3,5.68l-3.55,1.37,1.13,3.66a5.3,5.3,0,0,1-3.34,6.57l-2.74.91.87,2.23a5.29,5.29,0,0,1-3.41,7l-2.4.7.1.64a5.26,5.26,0,0,1-3.84,5.9l-2.38.63-32.83-10.83a23.48,23.48,0,0,1-8.32-4.84l-10.9-5.75a2.72,2.72,0,0,1-1.26-3.29l10.1-29.1a2.69,2.69,0,0,1,3.38-1.71Z"/><path class="cls-1" d="M515.13,284c-.1-.27-2.42-4.24-5.41-8.55-13.93-20.06-34.58-39.4-58.8-38.68l0-.14c11-1.2,21.68,1.71,31.1,6.91,15.53,8.38,30.67,24.34,39,36.6L515.13,284Z"/><path class="cls-8" d="M778.31,224s1.18-2.39,1.11-7.91a138.55,138.55,0,0,0-1.73-18c-.49-1.65,21.59-8.57,21.59-8.57s35.42-1.81,40.69-5.77,9.71-5.58,7.25-1.48c-4.45,7.42-14.83,18.29-17.13,19.77s-29.83,8.41-30.32,8.41-.33,17.3-.33,17.3L778.31,224Z"/><path class="cls-3" d="M801.3,216.65s-22.95-3.9-23.36-1.61c-9.27,50.75-10.84,67.52-11.86,68-3.5,1.79-53.42-42-61.67-44.89-3.94-1.37-8.24-1.14-12.35-1-9.82.29-6.51,0-11.68.31h0l-.43,0,0,9.23c11.06,9.95,36.37,160.63,38.5,160.53,2.38-.11,52.41,12.48,51.53,8.26-.14-.68-33.92-28.32-43.5-68.21-3.21-13.39-4.8-27.81-6.55-40.43,11.12,5.58,54.54,26.94,61.42,24.12,21.4-8.78,19.9-114.38,19.9-114.38Z"/><path class="cls-8" d="M887.45,484.19s46.55,36.46,48.1,42.93c2.24,9.31,44.86-2.93,34.58-4.83-2.36-.44-9.93-2.36-10.55-2.69-3.33-1.78-44.75-51.69-44.75-51.69l-27.38,16.28Z"/><path class="cls-9" d="M990.12,522.29l-29.72-2.42s-8.49,7-24.82,7.36a38.05,38.05,0,0,0-1.37,16.17c.22,1.51.47,6.05,2,6,5.48-.37,20.11-4,36.78-7.35,0,0,22.4-4.74,35.34-12.48s-18.2-7.23-18.2-7.23Z"/><path class="cls-2" d="M678.89,392.73s34.08,5.73,71.78-3.1c43.62-10.2,91.86-19.63,106-11.41,11.38,6.6,82.41,114,82.41,114l-27.43,20L833.42,424.6s-99.79,36.82-122.2,32.74c-51.05-9.3-51.77-50.06-32.33-64.61Z"/><polygon class="cls-2" points="716.15 371.07 750.26 411.6 686.99 430.88 678.89 392.73 716.15 371.07 716.15 371.07"/><path class="cls-8" d="M785.46,556.2s-2.07,56.3-3.36,65.83,23.89,38.09,20.68,28.14c-.74-2.28-2.65-9.85-2.65-10.56,0-3.77,9.33-68,9.33-68l-24-15.41Z"/><path class="cls-9" d="M812.27,667.76l-12-27.3s-10.23-4.14-18.28-18.34a38,38,0,0,0-14.88,6.48c-1.22.9-9.54,7-9,8.39,2.13,5.17,13.46,16.25,25.86,28.34,0,0,17.57,14.17,30.53,21.88s-2.29-19.45-2.29-19.45Z"/><path class="cls-6" d="M840.71,445.21c-11.92-15.89-108.12-31-108.12-31l-26.82-51.55-59.31,36.57s5.93,47.2,10.38,59.81c5.93,16.8,45.79,17.66,70.14,17.41,22.4-.23,63.31,4.34,63.31,4.34L776.46,602.89s27.2,6.19,34.84,5.19c.87-.12,44.24-143.1,29.41-162.87Z"/><path class="cls-1" d="M680.27,237.61l-33.46,1.84s-.77.27-1,.31c-2.73.5-.25,98,2.18,134.45s7.36,51.72,7.36,51.72,45.39-8.06,59.32-13.46c5.78-2.24,19.77-19.74,19.77-19.74S720.15,373.52,713,342.31c-5.56-24.08-12.4-66.75-16.32-75.66-9-20.46-16.36-29-16.36-29Z"/><path class="cls-10" d="M647.76,209.93l-1,29.55s21.67,37.33,32.79,32.12c9.33-4.36,1-32.75,1-32.75s-1.62-6.51-3.86-14c-1.57-5.23-2.87-10.89-2.77-15,.23-10.1-26.26.11-26.26.11Z"/><path class="cls-9" d="M673.64,142.54s11,16.64,11.87,30.65-2.15,23.56-2.15,23.56l-35.42-42.34,25.7-11.87Z"/><path class="cls-10" d="M689.17,170.32c.5,4.91-1.4,9.12-4.25,9.41s-5.57-3.45-6.07-8.35,1.41-9.12,4.26-9.41,5.56,3.45,6.06,8.35Z"/><path class="cls-8" d="M636.48,161.19c-.81-.17-.73,40.59,11.08,50.19s32.38,10.43,38.39.77c6.64-10.69.32-53.64-17.25-62.77s-32.22,11.81-32.22,11.81Z"/><path class="cls-9" d="M633.48,135.91c-9,7.91-13.39,13.69-19.49,27.75-7.5,17.29,7.39,35.2,19.87,42.32s13.55,15.86,13.55,15.86l.49-5.44c.53-4.22-.74-6.63-1.94-9.19-1.06-2.27-4.47-10.05-5.8-12.11-3.52-5.42-4.21-6.59-2.48-11.74,1.34-4-.21-12.7,1.86-19.23l16.8-3.63s10.52-2.53,15.83-8.65c15.25-17.59-14.9-37.21-38.69-15.94Z"/><path class="cls-8" d="M641.68,187.82c2.07,4.48,1.64,9.08-1,10.28s-6.38-1.44-8.45-5.92-1.64-9.07,1-10.28,6.38,1.45,8.45,5.92Z"/><path class="cls-1" d="M456.29,246l-1.64-11.28L463,227a1.56,1.56,0,0,0-.8-2.69L451,222.38,446.2,212a1.57,1.57,0,0,0-2.81-.08l-5.31,10.1-11.32,1.35a1.57,1.57,0,0,0-.94,2.65l8,8.16-2.21,11.19a1.57,1.57,0,0,0,2.23,1.71L444,242.06l10,5.56a1.56,1.56,0,0,0,2.31-1.59Z"/><path class="cls-1" d="M101.43,428.24a98.41,98.41,0,0,0-10.09-.71c-24.41-.69-52.23,4.48-66,24.41l-.13-.07c5.52-9.53,14.23-16.44,24-20.95,16-7.54,37.79-10.27,52.58-9.66l-.36,7Z"/><path class="cls-1" d="M35.94,453.08l-10-5.37-1.28-11.33a1.57,1.57,0,0,0-2.64-1l-8.22,7.91L2.58,441a1.57,1.57,0,0,0-1.73,2.22l5,10.26L.21,463.44a1.56,1.56,0,0,0,1.58,2.32l11.29-1.56,7.69,8.41a1.57,1.57,0,0,0,2.7-.78l2-11.23,10.38-4.71a1.56,1.56,0,0,0,.09-2.81Z"/><path class="cls-8" d="M527.17,75.37c1.91,7.85,5.35,20.25,5.35,20.25-.27,3.41-1.28,17.6-2.48,35l25.57-10.23s-.31-28.34.83-30.07c1-1.47,2.58.36,10.42-10.85,2.26-3.24,2.68-9,2.68-9s.47-7.12-1.13-7.78a3.32,3.32,0,0,0-4,1.63c-.58,1.23-.43,4.1-1,5.33s-4.27,2.71-5.83,2.63.2-21,.2-21,.86-6,1.31-7.9c.37-1.66,1.88-6.52,1.88-6.52s1.77-7.06-.42-7.6c-1.29-.32-4.58,5.42-6.84,11.5-2.43,6.56-3.81,13.51-4.5,13.42-1.64-.22-.77-11.72-.77-11.72s1.63-5.27,1.58-7.76c1.54-3,2.56-8.69-.14-9.16-.5-.09-4.07,7.09-4.07,7.09s-1.4,5.06-2.22,7.42c-1.43,4.16-1.65,10.74-2.4,13.64C540.54,56,540,55,539.72,55.14s.15-3.25.55-7.83c.2-2.3-.07-5,.58-7.59a55.46,55.46,0,0,0,1.09-8c.44-5.94-3.31-5.34-4.6.1-.49,2.08-1,4.34-1.53,6.63-2,8.92-1.95,17.51-2.92,17.58-1.24.09-.42-15.55-.42-15.55s-1.92-8.66-3.82-.62a69.94,69.94,0,0,0-1.95,17.26c.2,2.28-1.44,10.41.47,18.26Z"/><path class="cls-3" d="M646.77,239.5s-33.14-1.56-41.69-5.44c-5.19-2.34-47.82-36.7-47.82-36.7l.47-92-30-2.28S512.21,204.77,517.59,215.9c5.56,11.49,68,58.8,80.44,79.33,7.19,11.82,22.18,172.67,24.45,174.12,16.15,8.4,66,16.79,64.84,11.7C654.86,340.18,646.77,239.5,646.77,239.5Z"/><path class="cls-1" d="M894.62,99.82A99.71,99.71,0,1,1,794.91.11a99.71,99.71,0,0,1,99.71,99.71Z"/><path class="cls-4" d="M878.58,99.82a83.67,83.67,0,1,1-83.67-83.67,83.67,83.67,0,0,1,83.67,83.67Z"/><path class="cls-5" d="M769,153.54l4.75-13.13a68,68,0,0,1-15.48-8.95A8.52,8.52,0,0,1,756.5,120l.31-.45a8.48,8.48,0,0,1,12.31-1.86,49.57,49.57,0,0,0,14.06,8c7.87,2.85,14.37,1.77,16.37-3.76,1.91-5.25-1.31-10.18-10.29-17.34-13-10.34-20.57-20.91-15.71-34.32C778,58.1,790,51.67,805.83,54.13L810.59,41l13.55,4.91-4.41,12.16a62.63,62.63,0,0,1,11.95,6.4,8.5,8.5,0,1,1-9.91,13.81,45.29,45.29,0,0,0-11.53-6.13c-9-3.26-13.28-.44-14.69,3.43-1.65,4.56,2.13,9.22,12.28,17.9,14.34,11.77,18.22,21.78,13.71,34.22s-17,19.65-33.87,16.65l-5.12,14.1L769,153.54Z"/><path class="cls-8" d="M792.35,200.05s9.23-4,11.7-4.78S814.43,193,814.43,193s12.28-12.6,15.41-12.93-7.17,13.75-7.17,13.75l-4.28,4.12s6.91-5.93,8.24-6.75,11.69-15.82,14.33-14.83-4.45,11.53-7.91,17.14-19.27,9.06-19.27,9.06l-21.43-2.47Z"/><path class="cls-1" d="M902.62,240.75c0,2.47-56,3.15-67.66,52.84l-7.47-2.46c16.64-50.5,72.12-48.47,74.84-50.33l0-.05Z"/><path class="cls-1" d="M1138.39,560.39l1.93-6.62c10.19-1.93,19-8.86,21.85-18.8a59.52,59.52,0,0,0,2-9.47l-13.65-4,2.43-8.34,12.33,3.58A91.77,91.77,0,0,1,1168,502c4.55-15.63,18.25-22.72,33-18.44a35.23,35.23,0,0,1,9.85,4.42,4.86,4.86,0,0,1-5.33,8.12,29.17,29.17,0,0,0-7.25-3.14c-10.33-3-16.65,2.92-19.39,12.33A74.66,74.66,0,0,0,1176.3,520l19.08,5.55-2.43,8.34-18-5.23c-1.07,5.15-2.27,10.26-4.85,14.68a28.71,28.71,0,0,1-13.3,11.66l-.08.26,34.83,10.13a4.85,4.85,0,0,1,3.3,6l-.1.35a4.85,4.85,0,0,1-6,3.31l-50.33-14.63Z"/><path class="cls-1" d="M253.68,618.57A112.15,112.15,0,1,1,151.31,497.42,112.16,112.16,0,0,1,253.68,618.57Z"/><path class="cls-4" d="M235.7,617.06A94.11,94.11,0,1,1,149.8,515.4a94.11,94.11,0,0,1,85.9,101.66Z"/><path class="cls-5" d="M80.48,640.41a1.36,1.36,0,0,1-.56-1.83c.48-.9,1-1.78,1.45-2.66.07-.13.38-.18.58-.17a32,32,0,0,1,8.28,1.43c1.38.4,2.76.77,4.13,1.18.29.08.47.09.64-.22q3.73-7,7.48-14.07h0a.23.23,0,0,0-.09-.31l-10.62-5.65A1.93,1.93,0,0,1,91,615.5l2.1-3.94a1.93,1.93,0,0,1,2.6-.79l10.57,5.63a.23.23,0,0,0,.32-.1l5.05-9.48L101,601.18a2.13,2.13,0,0,1-.88-2.89l1.89-3.56a2.14,2.14,0,0,1,2.89-.88l10.63,5.66.32-.61q8.13-15.25,16.25-30.51c2.25-4.22,4.49-8.46,6.77-12.67.27-.52.29-.78-.22-1.17a56.31,56.31,0,0,1-8.84-8.89c-.1-.13-.27-.26-.15-.48.53-1,1.05-2,1.6-3a1,1,0,0,1,1.33-.41h0c4.33,2.31,8.62,4.7,13,6.88s8.58,4,12.89,6a139.3,139.3,0,0,1,14.07,7.1,63,63,0,0,1,12.1,9.21,32.67,32.67,0,0,1,7.53,11,27.61,27.61,0,0,1,.84,18.67,43.25,43.25,0,0,1-7.59,14.7,28.84,28.84,0,0,1-20.19,11,44.64,44.64,0,0,1-17.7-2,89.63,89.63,0,0,1-17.24-7.48c-1.54-.85-3.09-1.66-4.64-2.48l-.5-.23-5,9.46a.23.23,0,0,0,.1.32l26,13.82a1.94,1.94,0,0,1,.79,2.61l-2.09,3.91a1.93,1.93,0,0,1-2.6.8l-25.94-13.82a.24.24,0,0,0-.32.1l-7.67,14.4c1,.73,2,1.45,2.91,2.18a61.47,61.47,0,0,1,7.95,7.52,1.73,1.73,0,0,1,.24,2c-.32.59-.63,1.19-1,1.8a1.34,1.34,0,0,1-1.82.56Zm48.64-33.75a2.72,2.72,0,0,0,.29.19c3.65,1.9,7.27,3.87,11,5.68a31.66,31.66,0,0,0,9.8,3,21,21,0,0,0,18.95-6.9,37.24,37.24,0,0,0,8.39-15,20.6,20.6,0,0,0,.58-10.22c-1.12-5.3-4.17-9.39-8.22-12.83A46,46,0,0,0,161,564.8a39.51,39.51,0,0,0-7.23-3.11c-.45-.13-.63-.05-.85.36Q142,582.49,131.11,602.92C130.45,604.15,129.8,605.38,129.12,606.66Z"/><path class="cls-1" d="M311.26,723.58a.74.74,0,0,1-.94.47c-.53-.18-1.06-.35-1.58-.54-.08,0-.13-.19-.15-.3a17.94,17.94,0,0,1,0-4.63c.09-.78.17-1.57.26-2.35,0-.16,0-.27-.17-.33l-8.33-2.77h0a.12.12,0,0,0-.16.08l-2.1,6.28a1.07,1.07,0,0,1-1.34.67l-2.33-.78a1.06,1.06,0,0,1-.67-1.35l2.09-6.25a.14.14,0,0,0-.08-.17l-5.62-1.87L288.07,716a1.17,1.17,0,0,1-1.49.74l-2.11-.7a1.19,1.19,0,0,1-.74-1.49l2.1-6.29-.36-.12-18.05-6-7.51-2.51c-.3-.11-.45-.09-.61.22a30.91,30.91,0,0,1-4,5.61c-.05.07-.11.17-.24.13l-1.8-.59a.55.55,0,0,1-.34-.69h0c.86-2.56,1.77-5.11,2.55-7.69s1.39-5,2.06-7.54a77.32,77.32,0,0,1,2.57-8.3,34.5,34.5,0,0,1,3.9-7.41,18.16,18.16,0,0,1,5.27-5.1,15.28,15.28,0,0,1,10.07-2.16,23.89,23.89,0,0,1,8.68,2.78,15.91,15.91,0,0,1,7.82,10,24.35,24.35,0,0,1,.54,9.8,49.08,49.08,0,0,1-2.49,10c-.31.91-.61,1.83-.92,2.74,0,.1-.05.2-.08.3l5.6,1.87a.14.14,0,0,0,.17-.08l5.13-15.36a1.06,1.06,0,0,1,1.35-.67l2.31.78a1,1,0,0,1,.67,1.34L303,704.93a.14.14,0,0,0,.08.17l8.52,2.84.93-1.77a33.14,33.14,0,0,1,3.35-5,.94.94,0,0,1,1.05-.31l1.07.35a.77.77,0,0,1,.47.95Zm-22.78-23.33.08-.18c.7-2.16,1.44-4.3,2.08-6.48a17.28,17.28,0,0,0,.7-5.59,11.56,11.56,0,0,0-5.47-9.67,20.72,20.72,0,0,0-8.94-3.18,11.36,11.36,0,0,0-5.6.62,12.56,12.56,0,0,0-6.22,5.64,24.91,24.91,0,0,0-2.28,5.37,21.75,21.75,0,0,0-1,4.21c0,.26,0,.35.28.43l24.19,8.09Z"/></g></g></svg>