<svg xmlns="http://www.w3.org/2000/svg" viewBox="0 0 1172.31 896.92"><defs><style>.cls-1{fill:#f4a5a8;}.cls-2{fill:#448e85;}.cls-3{fill:#f28f8f;}.cls-4{fill:#edbec3;}.cls-5{fill:#36474f;}.cls-6{fill:#d5e5f7;}.cls-7{fill:#e6eefa;}.cls-8{fill:#efd3d7;}.cls-9{fill:#dde9f8;}.cls-10{fill:#9cbde4;}.cls-11{fill:#e1a160;}.cls-12{fill:#fff;}.cls-13{fill:#edccac;}.cls-14{fill:#54718d;}.cls-15{fill:#6f99d1;}.cls-16{fill:#4ba79d;}.cls-17{fill:#cce0f5;}.cls-18{fill:#f49648;}.cls-19{fill:#3d7b76;}</style></defs><g id="Слой_2" data-name="Слой 2"><g id="Слой_1-2" data-name="Слой 1"><path class="cls-1" d="M537.81,432.5S493.7,520.74,448.9,581.65c-17.83,24.24-35.77,44.15-51.08,52.46-15,8.12-27.67,20.75-38.17,34.74-27.19,36.22-39.74,81.57-39.74,81.57L205.34,577.09S209.25,407.65,223,379.31c20.05-41.3,29.74-124.75,37.44-141.37,5.72-12.32,22-76,23.6-80.66.68-2,6.11-5.11,13.16-5.11,5.66,0,15.26,5.47,17.69,16.71,12.25,56.81-2.5,94.28-2.33,95.95,4.32,43.65-8.67,76.06.44,84.64.34.32,1,.17,1.86-.4C330.65,338.93,428.69,196,440.76,192.93c12.75-3.26,97,239.57,97,239.57Z"/><path class="cls-2" d="M354.38,716.12s-1.56,77-6,180.77h-289C125.41,756,182.84,637.45,182.84,637.45s164.56,5,171.54,78.67Z"/><path class="cls-1" d="M638,133.86l-35.48,52-34.81,51a8,8,0,0,1-7.24,3.2c-8.36-.79-18.69-12.84-26.75-19.51l-.81-.68a25.13,25.13,0,0,1-3.35-35.28l53.22-64.33h0l15.78-19.08a25.14,25.14,0,0,1,35.29-3.33l.82.67A25.14,25.14,0,0,1,638,133.86Z"/><path class="cls-3" d="M602.5,185.87l-34.81,51a8,8,0,0,1-7.24,3.2l22.31-119.8c0,.67,3.84,54.43,19.74,65.56Z"/><path class="cls-3" d="M448.9,581.65c-17.83,24.24-35.77,44.15-51.08,52.46-15,8.12-27.67,20.75-38.17,34.74-12.08-5.63-25.84-12.23-39.3-18.78-16.38-8-17-31.22-1-39.84l.46-.26c15-8.6,30.44-39,30.44-39l98.61,10.66Z"/><path class="cls-4" d="M283.24,159.91,274,197.39s8.11,3.32,13.32.74,9.47-36.2-4-38.22Z"/><path class="cls-5" d="M550.21,599.36H350.59a35.8,35.8,0,0,1-35.7-35.7V124.88a35.8,35.8,0,0,1,35.7-35.7H550.21a35.81,35.81,0,0,1,35.7,35.7V563.66a35.81,35.81,0,0,1-35.7,35.7Z"/><path class="cls-6" d="M572.48,128.26V556.87a26.42,26.42,0,0,1-26.24,26.43H354.56a26.41,26.41,0,0,1-26.24-26.43V128.26a26.41,26.41,0,0,1,26.24-26.43H546.24a26.42,26.42,0,0,1,26.24,26.43Z"/><path class="cls-7" d="M546.24,101.83,356.93,583.3h-2.37a26.41,26.41,0,0,1-26.24-26.43V128.26a26.41,26.41,0,0,1,26.24-26.43Z"/><path class="cls-5" d="M490.46,117.77H410.35a11.9,11.9,0,0,1-11.87-11.87V104a11.9,11.9,0,0,1,11.87-11.87h80.11A11.9,11.9,0,0,1,502.32,104v1.86a11.9,11.9,0,0,1-11.86,11.87Z"/><path class="cls-1" d="M620.32,330.28l-5.29,2-35.58,13.52a21.62,21.62,0,0,1-2.52.8,24.32,24.32,0,0,1-28.74-14.84l-.52-1.37a24.31,24.31,0,0,1,14.05-31.26l33.17-12.61,2.4-.91,5.3-2a24.29,24.29,0,0,1,31.25,14l.53,1.37a24.31,24.31,0,0,1-14,31.26Z"/><path class="cls-8" d="M591.43,331.09c-5.94,2.26-16.69,6.25-22.44,7.07-1.63.24-4.63-.65-7.42-3.71a22,22,0,0,1-4.48-8.07,26.56,26.56,0,0,1-1.21-5.15,21.71,21.71,0,0,1,.2-6.13,6.12,6.12,0,0,1,3.39-4.37h0a140.45,140.45,0,0,1,21.58-8.46c5-1.38,10,.82,11.63,5.19l.75,2.05L597.27,320c1.58,4.35-1,9.32-5.84,11.14Z"/><path class="cls-4" d="M591.43,331.09c-5.94,2.26-16.69,6.25-22.44,7.07-1.63.24-4.63-.65-7.42-3.71-.3-.7-.57-1.43-.83-2.22a25.87,25.87,0,0,1-1.22-5.15,21.63,21.63,0,0,1,.2-6.12,6.08,6.08,0,0,1,3.39-4.37l0,0a139.65,139.65,0,0,1,21.58-8.46,10.22,10.22,0,0,1,8.73,1.39L597.27,320c1.58,4.35-1,9.32-5.84,11.14Z"/><path class="cls-1" d="M604.18,380.3l-27.44,7.47a15.76,15.76,0,0,1-19.29-11l-.84-3.11a15.75,15.75,0,0,1,11-19.28l27.44-7.47a15.75,15.75,0,0,1,19.28,11l.85,3.1a15.76,15.76,0,0,1-11,19.29Z"/><path class="cls-8" d="M589.34,379c-5,1.35-14.15,3.72-18.93,4-1.73.1-5.21-1.37-7.48-5.93a21.08,21.08,0,0,1-2-7.91,15.51,15.51,0,0,1,.62-4.69,4.84,4.84,0,0,1,3.1-3.14h0A122.13,122.13,0,0,1,583,356.14c4.19-.74,8.17,1.28,9.15,4.74l.71,2.47,2.12,7.42c1,3.44-1.5,7.09-5.62,8.18Z"/><path class="cls-4" d="M589.34,379c-5,1.35-14.15,3.72-18.93,4-1.73.1-5.21-1.37-7.48-5.93a17.53,17.53,0,0,1-.56-3.79,15.51,15.51,0,0,1,.62-4.69,4.84,4.84,0,0,1,3.1-3.14h0a122.46,122.46,0,0,1,18.33-5.11c3.47-.61,6.81.67,8.4,3.09l2.12,7.42c1,3.44-1.5,7.09-5.62,8.18Z"/><path class="cls-5" d="M154.71,695.89s56.47,54.09,94.54,75l28.83-20.44v30.16s56.69,10,74.57,0V698.33L193.43,618.51l-38.72,77.38Z"/><path class="cls-9" d="M364.68,774c-21.94,4.5-69.21-12.73-69.21-12.73l7.63-73.64-53.42,61.17c-27.19-10.11-69.71-36.51-95-52.94C142.13,687.71,133.83,682,133.83,682c35.65-57.37,71.51-111,71.51-111,10.52,21.06,35.43,39.34,62.44,54,44.87,24.3,95.53,38.5,95.53,38.5,0,43.77,1.37,110.58,1.37,110.58Z"/><path class="cls-1" d="M619.45,277.69c-.19.08-.39.14-.59.21l-36,9.23c-15.81,4.07-32.17-4.49-36.35-19l-2.13-7.45c-4-13.94,4.6-28.52,19.3-33.25l11.88-3,24.1-6.18c15.81-4.07,32.17,4.49,36.34,19l2.14,7.44c4,13.76-4.38,28.12-18.72,33.05Z"/><path class="cls-8" d="M603,267.65l-17.47,7.88-.11,0a19.42,19.42,0,0,1-2.12.43c-.29.05-.59.08-.88.11H582a2.79,2.79,0,0,1-2.42-3.93,17.35,17.35,0,0,0,1-11.85l-.41-1.52,0-.05-1.35-5a18.68,18.68,0,0,0-6.33-9.66c-.36-.29-.73-.56-1.11-.82a5,5,0,0,1,1.47-8.94l.11,0,19.18-2.9c4.74-1.29,9.31,2.36,10.6,7.1l1.54,5.65,3.28,12.05c1.28,4.75.16,10.12-4.58,11.4Z"/><path class="cls-4" d="M603,267.65l-17.47,7.88-.11,0c-.41.07-1.7.29-3.37.55a2.79,2.79,0,0,1-2.42-3.93,17.35,17.35,0,0,0,1-11.85l-.41-1.52,0-.05-1.35-5a18.68,18.68,0,0,0-6.33-9.66,4.81,4.81,0,0,1,2.75-1.95l.11,0,19.18-2.9c4-1.08,7.85,1.34,9.75,4.95l3.28,12.05c1.28,4.75.16,10.12-4.58,11.4Z"/><path class="cls-3" d="M314.89,464.8S307,396.3,299.8,382.94s-13.37-40.11-2.23-60,15-58.12,15-58.12c4.32,43.65-8.67,76.06.44,84.64.34.32,1,.17,1.86-.4l0,115.73Z"/><path class="cls-10" d="M217.63,353.23H490.16a17.13,17.13,0,0,0,17.13-17.13V227a17.13,17.13,0,0,0-17.13-17.13H217.63A17.13,17.13,0,0,0,200.5,227V336.1a17.13,17.13,0,0,0,17.13,17.13Z"/><path class="cls-10" d="M492.07,191.66H385.4a14.34,14.34,0,0,1-14.33-14.33V157.1a14.33,14.33,0,0,1,14.33-14.33H492.07A14.32,14.32,0,0,1,506.4,157.1v20.23a14.33,14.33,0,0,1-14.33,14.33Z"/><path class="cls-10" d="M487.39,550.11h-123A17.16,17.16,0,0,1,347.26,533V507a17.15,17.15,0,0,1,17.15-17.16h123A17.16,17.16,0,0,1,504.55,507v26a17.16,17.16,0,0,1-17.16,17.16Z"/><path class="cls-11" d="M535.19,464.8H419a20.56,20.56,0,0,1-20.56-20.56V398.78A20.55,20.55,0,0,1,419,378.22H535.19a20.56,20.56,0,0,1,20.56,20.56v45.46a20.57,20.57,0,0,1-20.56,20.56Z"/><path class="cls-1" d="M863.66,896.92H651.71c-10.16-6.82-62.94-42.82-84.78-69.66-4.63-5.69-21.56-54.71-34.57-94.51-8.12-24.85-14.72-46.13-15.83-51a63.28,63.28,0,0,1-.81-9.63v0c-.55-16.28.21-47.67,1-72.6V599c0-1.1.07-2.18.11-3.24v0c0-.11,0-.22,0-.32.14-4.33.28-8.42.41-12.13.33-9.28.6-16.26.72-19l0-1.27h0c.34-.18,10.53-5.62,24.16,4.19,3.29,2.37,6.33,8.11,9.11,15.58,1.77,4.78,3.43,10.26,5,16,6,22.21,10.22,48.78,12.5,55.89,3.68,11.5,47,62,49.72,65.18,0,.06.09.11.13.16V640.25l-32.71-87.53-13.43-35.94-6.75-18.06a325.81,325.81,0,0,1-19-37.44,177.33,177.33,0,0,1-9.44-27.68c-.51-2.18-1-4.33-1.3-6.43h0c-1.28-7.72-1.37-14.88.41-20.71,3.16-10.38,10.3-12.33,15.77-12.12.57,0,1.12.07,1.65.13a11.78,11.78,0,0,1,1.57.31,10.92,10.92,0,0,1,2.73,1.13h0a11.09,11.09,0,0,1,3.56,3.33l10.83,14.15c4.08,5.35,8.85,11.59,13.43,17.61,8.15,10.72,15.72,20.72,17.81,23.65,11.25,15.84,41.56,67.47,41.56,67.47l35.47,1.49a23.5,23.5,0,0,1,15.08,6.31C708.44,541.7,735.64,567.19,739,571c0,1.25,21.13,11.41,37.46,20.46,11.68,4.93,33.86,22.42,33.86,22.42,4.6,4.06,8.1,8.1,9.87,12,7.61,16.55,28.24,160.51,38.1,231.68,3.18,22.88,5.24,38.23,5.4,39.42Z"/><path class="cls-3" d="M645.28,522.12s32.86,53.64,37.21,56.06,21.26,5.8,23.2,0-60.41-56.06-60.41-56.06Z"/><path class="cls-3" d="M810.46,614l-.17-.15s-22.18-17.49-33.86-22.42c-15-8.31-34-17.56-37-20,3.47,4,28,31.68,37.37,33.75,8.27,1.83,27,7,33.7,8.8Z"/><path class="cls-3" d="M618.62,720.07V640.25s19,31.72,20.41,49.12-7.87,45.55-20.41,30.7Z"/><path class="cls-8" d="M549.82,427.15c-2.78-4.76-7.74-13.38-9.45-18.2-.48-1.37-.42-4.09,1.25-7a15.82,15.82,0,0,1,5-5.17,16.62,16.62,0,0,1,3.49-1.88,13.6,13.6,0,0,1,4.47-.82,4.73,4.73,0,0,1,3.82,2.22v0a138.6,138.6,0,0,1,10.29,17.23c2,4.08,1.34,8.79-1.51,10.86l-1.34,1-6.83,5c-2.84,2.06-6.93.65-9.18-3.23Z"/><path class="cls-4" d="M549.82,427.15c-2.78-4.76-7.74-13.38-9.45-18.2-.48-1.37-.42-4.09,1.25-7,.45-.37.93-.73,1.45-1.08a16.17,16.17,0,0,1,3.49-1.88,13.61,13.61,0,0,1,4.47-.83,4.79,4.79,0,0,1,3.82,2.22v0a139.48,139.48,0,0,1,10.29,17.24,10.52,10.52,0,0,1,.68,7.75l-6.83,5c-2.84,2.06-6.93.65-9.18-3.23Z"/><path class="cls-6" d="M734.9,222.54H690.47a21.32,21.32,0,0,1-21.25-21.25v-36.6a21.32,21.32,0,0,1,21.25-21.25H734.9a21.32,21.32,0,0,1,21.25,21.25v36.6a21.31,21.31,0,0,1-21.25,21.25Z"/><path class="cls-12" d="M136.47,317.88H76A29,29,0,0,1,47.07,289V239.15A29,29,0,0,1,76,210.23h60.47a29,29,0,0,1,28.92,28.92V289a29,29,0,0,1-28.92,28.92Z"/><path class="cls-11" d="M689.59,182.34c2.41,6.37,23.11,23.08,23.11,23.08s6.75-5.48,13-11.38c4.68-4.37,9-9,10.09-11.7,2.45-6.32-.16-15.37-9.2-16.9s-13.88,7.9-13.88,7.9-4.87-9.43-13.91-7.9a12.35,12.35,0,0,0-4.15,1.46c-5.63,3.14-7,10.23-5,15.44Z"/><path class="cls-13" d="M20.42,428.55h133.1a19.35,19.35,0,0,1,19.3,19.29v58.39A17.77,17.77,0,0,1,155.1,524h-3.42L158.09,551,117.83,524H19.27A19.32,19.32,0,0,1,0,504.68V449a20.48,20.48,0,0,1,20.42-20.42Z"/><path class="cls-11" d="M16.85,470.93H155.64a3.44,3.44,0,0,0,3.43-3.43h0a3.44,3.44,0,0,0-3.43-3.44H16.85a3.45,3.45,0,0,0-3.44,3.44h0a3.44,3.44,0,0,0,3.44,3.43Z"/><path class="cls-11" d="M16.85,486.32H155.64a3.44,3.44,0,0,0,3.43-3.44h0a3.44,3.44,0,0,0-3.43-3.44H16.85a3.45,3.45,0,0,0-3.44,3.44h0a3.45,3.45,0,0,0,3.44,3.44Z"/><path class="cls-11" d="M16.85,501.7H155.64a3.44,3.44,0,0,0,3.43-3.43h0a3.44,3.44,0,0,0-3.43-3.44H16.85a3.45,3.45,0,0,0-3.44,3.44h0a3.45,3.45,0,0,0,3.44,3.43Z"/><path class="cls-11" d="M92.46,447h58.92a4.1,4.1,0,0,0,4.09-4.09h0a4.11,4.11,0,0,0-4.09-4.1H92.46a4.11,4.11,0,0,0-4.09,4.1h0A4.1,4.1,0,0,0,92.46,447Z"/><path class="cls-11" d="M41.83,447H77.28a3.24,3.24,0,0,0,3.24-3.23v-1.72a3.25,3.25,0,0,0-3.24-3.24H41.83a3.24,3.24,0,0,0-3.23,3.24v1.72A3.23,3.23,0,0,0,41.83,447Z"/><polygon class="cls-14" points="1051.2 59.46 1172.31 99.06 1099.77 28.35 1092.4 45.62 1061.22 45.78 1051.2 59.46 1051.2 59.46"/><polygon class="cls-7" points="1172.31 99.06 1078.32 27.55 977.89 4.62 1172.31 99.06 1172.31 99.06"/><polygon class="cls-7" points="1099.77 28.35 1172.31 99.06 1123.95 0 1099.77 28.35 1099.77 28.35"/><polygon class="cls-14" points="195.56 146.29 117.31 157.45 169.23 122.06 171.87 133.4 190.9 136.85 195.56 146.29 195.56 146.29"/><polygon class="cls-7" points="117.31 157.45 182.42 123.88 246.24 120.67 117.31 157.45 117.31 157.45"/><polygon class="cls-7" points="169.23 122.06 117.31 157.45 157.5 102.14 169.23 122.06 169.23 122.06"/><path class="cls-12" d="M318.41,276.11a44.25,44.25,0,0,1-9.23,27.12,44.91,44.91,0,0,1-6.49,6.8,44.45,44.45,0,1,1,15.72-33.92Z"/><path class="cls-15" d="M291.82,297.12l-.35-.37c-.51-.39-1-.64-3.08-1-1-.18-2.49-.38-4.55-.65l-.68-.07-.52-.05c-.58-.3-.74-2.75-.73-5.33v-.58c0-1,0-1.94.08-2.81,0,0,0-.1,0-.16,1.27.11,2.11.1,2.11.1,2.37-.19,3.85-6.54,4.38-11.67a17.35,17.35,0,0,0,1.17-5.86,7.59,7.59,0,0,0-1.52-4.9,6.39,6.39,0,0,0-1.67-1.49c-.14-.15-.3-.28-.44-.41-2.21-2.45-11.16-11.61-17-6.31-.15-.53-2.06-6.48-11.33-4.54.57-.05,4.68-.44,5.87,1.22-.16-.07-3.75-1.66-6-.27a5.48,5.48,0,0,0-2.07,3.35v0h0s0,0,0,.05c0,.18-.09.37-.13.56a.29.29,0,0,1,0,.09v0h0a9.47,9.47,0,0,0-.11,3.51c.34,1.45,2.9,5.77,4.6,5.77a5.11,5.11,0,0,0,1.93-.47,21.23,21.23,0,0,0-.69,2.52c-1.8,8.47,3.83,14.9,6.75,13.31,1.87-1,3.28,2.25,3.28,2.25h0c-.28,6.19-2,10.24-3.24,11.25-.45.05-1.43.17-2.65.36h0a30.83,30.83,0,0,0-7.57,1.89l-.08,0a7.76,7.76,0,0,0-1.85,1h0a2.48,2.48,0,0,0-.59.63,1.31,1.31,0,0,0-.2.28,51.43,51.43,0,0,0-3.25,8.87,37.7,37.7,0,0,0,46.89-1.46,23.65,23.65,0,0,0-6.67-8.77Z"/><path class="cls-12" d="M399.35,253.72h-50.5a3.2,3.2,0,0,1-3.18-3.19V249a3.2,3.2,0,0,1,3.18-3.19h50.5a3.2,3.2,0,0,1,3.18,3.19v1.51a3.2,3.2,0,0,1-3.18,3.19Z"/><path class="cls-12" d="M400,282.06H348.24a2.58,2.58,0,0,1-2.57-2.57h0a2.58,2.58,0,0,1,2.57-2.57H400a2.58,2.58,0,0,1,2.57,2.57h0a2.58,2.58,0,0,1-2.57,2.57Z"/><path class="cls-12" d="M377.06,294.23H347.63a2,2,0,0,1-2-2v-1.21a2,2,0,0,1,2-2h29.43a2,2,0,0,1,2,2v1.21a2,2,0,0,1-2,2Z"/><path class="cls-12" d="M437,294.23H389.49a2.48,2.48,0,0,1-2.47-2.47v-.2a2.48,2.48,0,0,1,2.47-2.47H437a2.48,2.48,0,0,1,2.47,2.47v.2a2.48,2.48,0,0,1-2.47,2.47Z"/><path class="cls-12" d="M481.46,282.06H413.64a2.58,2.58,0,0,1-2.57-2.57h0a2.58,2.58,0,0,1,2.57-2.57h67.82a2.58,2.58,0,0,1,2.57,2.57h0a2.58,2.58,0,0,1-2.57,2.57Z"/><path class="cls-12" d="M400,306.39H348.24a2.57,2.57,0,0,1-2.57-2.57h0a2.58,2.58,0,0,1,2.57-2.57H400a2.58,2.58,0,0,1,2.57,2.57h0a2.58,2.58,0,0,1-2.57,2.57Z"/><path class="cls-12" d="M481.46,306.39H413.64a2.58,2.58,0,0,1-2.57-2.57h0a2.58,2.58,0,0,1,2.57-2.57h67.82a2.58,2.58,0,0,1,2.57,2.57h0a2.58,2.58,0,0,1-2.57,2.57Z"/><path class="cls-12" d="M448.56,253.72H412.3a2.74,2.74,0,0,1-2.73-2.73v-2.43a2.74,2.74,0,0,1,2.73-2.73h36.26a2.73,2.73,0,0,1,2.73,2.73V251a2.73,2.73,0,0,1-2.73,2.73Z"/><path class="cls-15" d="M402.84,506.93h-35.9a2.27,2.27,0,0,1-2.26-2.27v-1.07a2.27,2.27,0,0,1,2.26-2.27h35.9a2.27,2.27,0,0,1,2.26,2.27v1.07a2.27,2.27,0,0,1-2.26,2.27Z"/><path class="cls-15" d="M403.27,521.28H366.5a1.83,1.83,0,0,1-1.82-1.83h0a1.84,1.84,0,0,1,1.82-1.83h36.77a1.84,1.84,0,0,1,1.83,1.83h0a1.83,1.83,0,0,1-1.83,1.83Z"/><path class="cls-15" d="M387,529.93H366.08a1.4,1.4,0,0,1-1.4-1.4v-.86a1.4,1.4,0,0,1,1.4-1.39H387a1.4,1.4,0,0,1,1.4,1.39v.86a1.4,1.4,0,0,1-1.4,1.4Z"/><path class="cls-15" d="M429.63,529.93h-33.8a1.76,1.76,0,0,1-1.76-1.76V528a1.75,1.75,0,0,1,1.76-1.75h33.8a1.75,1.75,0,0,1,1.76,1.75v.14a1.76,1.76,0,0,1-1.76,1.76Z"/><path class="cls-15" d="M461.22,521.28H413a1.83,1.83,0,0,1-1.82-1.83h0a1.84,1.84,0,0,1,1.82-1.83h48.22a1.84,1.84,0,0,1,1.83,1.83h0a1.84,1.84,0,0,1-1.83,1.83Z"/><path class="cls-15" d="M403.27,538.58H366.5a1.83,1.83,0,0,1-1.82-1.83h0a1.84,1.84,0,0,1,1.82-1.83h36.77a1.84,1.84,0,0,1,1.83,1.83h0a1.83,1.83,0,0,1-1.83,1.83Z"/><path class="cls-15" d="M461.22,538.58H413a1.83,1.83,0,0,1-1.82-1.83h0a1.84,1.84,0,0,1,1.82-1.83h48.22a1.84,1.84,0,0,1,1.83,1.83h0a1.84,1.84,0,0,1-1.83,1.83Z"/><path class="cls-15" d="M437.83,506.93H412.05a1.94,1.94,0,0,1-1.94-1.94v-1.73a2,2,0,0,1,1.94-1.94h25.78a2,2,0,0,1,1.94,1.94V505a1.94,1.94,0,0,1-1.94,1.94Z"/><path class="cls-15" d="M426.65,157.8H390.76a2.27,2.27,0,0,1-2.27-2.26v-1.08a2.27,2.27,0,0,1,2.27-2.26h35.89a2.27,2.27,0,0,1,2.27,2.26v1.08a2.27,2.27,0,0,1-2.27,2.26Z"/><path class="cls-15" d="M427.09,172.15H390.32a1.83,1.83,0,0,1-1.83-1.82h0a1.83,1.83,0,0,1,1.83-1.83h36.77a1.83,1.83,0,0,1,1.83,1.83h0a1.83,1.83,0,0,1-1.83,1.82Z"/><path class="cls-15" d="M410.81,180.8H389.89a1.4,1.4,0,0,1-1.4-1.4v-.85a1.4,1.4,0,0,1,1.4-1.4h20.92a1.4,1.4,0,0,1,1.4,1.4v.85a1.4,1.4,0,0,1-1.4,1.4Z"/><path class="cls-15" d="M453.45,180.8H419.64a1.76,1.76,0,0,1-1.75-1.75v-.15a1.76,1.76,0,0,1,1.75-1.75h33.81a1.76,1.76,0,0,1,1.76,1.75v.15a1.76,1.76,0,0,1-1.76,1.75Z"/><path class="cls-15" d="M485,172.15H436.82a1.84,1.84,0,0,1-1.83-1.82h0a1.84,1.84,0,0,1,1.83-1.83H485a1.83,1.83,0,0,1,1.82,1.83h0a1.83,1.83,0,0,1-1.82,1.82Z"/><path class="cls-15" d="M461.65,157.8H435.86a1.94,1.94,0,0,1-1.93-1.94v-1.72a1.94,1.94,0,0,1,1.93-1.94h25.79a1.94,1.94,0,0,1,1.94,1.94v1.72a1.94,1.94,0,0,1-1.94,1.94Z"/><path class="cls-13" d="M458.39,400.23H419.08a2.48,2.48,0,0,1-2.47-2.48v-1.18a2.48,2.48,0,0,1,2.47-2.48h39.31a2.48,2.48,0,0,1,2.47,2.48v1.18a2.48,2.48,0,0,1-2.47,2.48Z"/><path class="cls-13" d="M458.87,415.94H418.61a2,2,0,0,1-2-2h0a2,2,0,0,1,2-2h40.26a2,2,0,0,1,2,2h0a2,2,0,0,1-2,2Z"/><path class="cls-13" d="M441,425.41h-22.9a1.54,1.54,0,0,1-1.53-1.54v-.93a1.54,1.54,0,0,1,1.53-1.53H441a1.55,1.55,0,0,1,1.54,1.53v.93a1.55,1.55,0,0,1-1.54,1.54Z"/><path class="cls-13" d="M487.72,425.41h-37a1.93,1.93,0,0,1-1.92-1.92v-.16a1.93,1.93,0,0,1,1.92-1.92h37a1.92,1.92,0,0,1,1.92,1.92v.16a1.93,1.93,0,0,1-1.92,1.92Z"/><path class="cls-13" d="M522.3,415.94H469.52a2,2,0,0,1-2-2h0a2,2,0,0,1,2-2H522.3a2,2,0,0,1,2,2h0a2,2,0,0,1-2,2Z"/><path class="cls-13" d="M458.87,434.88H418.61a2,2,0,0,1-2-2h0a2,2,0,0,1,2-2h40.26a2,2,0,0,1,2,2h0a2,2,0,0,1-2,2Z"/><path class="cls-13" d="M522.3,434.88H469.52a2,2,0,0,1-2-2h0a2,2,0,0,1,2-2H522.3a2,2,0,0,1,2,2h0a2,2,0,0,1-2,2Z"/><path class="cls-13" d="M458.87,444.73H418.61a2,2,0,0,1-2-2h0a2,2,0,0,1,2-2h40.26a2,2,0,0,1,2,2h0a2,2,0,0,1-2,2Z"/><path class="cls-13" d="M522.3,444.73H469.52a2,2,0,0,1-2-2h0a2,2,0,0,1,2-2H522.3a2,2,0,0,1,2,2h0a2,2,0,0,1-2,2Z"/><path class="cls-13" d="M496.7,400.23H468.47a2.13,2.13,0,0,1-2.12-2.13v-1.89a2.12,2.12,0,0,1,2.12-2.12H496.7a2.12,2.12,0,0,1,2.12,2.12v1.89a2.13,2.13,0,0,1-2.12,2.13Z"/><path class="cls-12" d="M365.28,128.64l-2.73,2-2.74-1.94a3.36,3.36,0,0,1,5.47,0Z"/><path class="cls-12" d="M362.55,122.46a8.11,8.11,0,0,0-6.64,3.46l1.73,1.21a6,6,0,0,1,9.8,0l1.72-1.23a8.12,8.12,0,0,0-6.61-3.4Z"/><path class="cls-12" d="M362.55,113.38a17.18,17.18,0,0,0-14.06,7.31l1.74,1.21a15.07,15.07,0,0,1,24.59-.09l1.71-1.24a17.15,17.15,0,0,0-14-7.19Z"/><path class="cls-12" d="M362.55,118.35a12.29,12.29,0,0,0-10,5.18l1.73,1.22a10.18,10.18,0,0,1,16.54-.07l1.72-1.23a12.28,12.28,0,0,0-10-5.1Z"/><path class="cls-12" d="M347.22,418a17.43,17.43,0,0,0,6.17,13.32,18,18,0,0,0,3,2.08,17.49,17.49,0,0,0,18.25-1.09l.43-.3a17.74,17.74,0,0,0,3.4-3.36A17.46,17.46,0,1,0,347.22,418Z"/><path class="cls-15" d="M369.4,429.17l-1.61-1.42-.4.07a9.4,9.4,0,0,0-.94-.58c.11-.65.2-1.26.27-1.79a26.88,26.88,0,0,0,.27-3.18c.86,0,1.43-.13,1.43-.13,1.61-.37,1.69-5.88,1.32-8.75a1.92,1.92,0,0,0,.9-.17c1.22-.54,1.29-2.38,1.29-2.38a2.24,2.24,0,0,1-.88.87s2-2.8-.33-4.71-4.76-.67-6.14-.58c-3,.18-5,.36-5.94,2.34s-.59,7.33,1.27,9.3c0,.19.07.37.09.55a3.71,3.71,0,0,0,.74,1.76,12.35,12.35,0,0,1-2.23,5.18,8.68,8.68,0,0,0-1.61,1.73l0,0h0a17.44,17.44,0,0,0-2.26,4.94,0,0,0,0,1,0,0,16.46,16.46,0,0,0,3.19,1.75l.22.09.05,0,.36.14c.3.12.59.23.89.32s.63.2.95.28l.44.11.39.08h.06l.26.05.62.11.14,0,.34,0,.49.06.55,0,.52,0h1.33l.29,0h0l.54,0a17.28,17.28,0,0,0,6.58-2,18.12,18.12,0,0,0-3.47-4.2Z"/><path class="cls-12" d="M518.63,519.45a17.46,17.46,0,0,0,3.65,10.72,17.23,17.23,0,0,0,2.57,2.69,17.58,17.58,0,1,0-6.22-13.41Z"/><path class="cls-11" d="M545.19,529.41l-.08-.13a1.52,1.52,0,0,0-.28-.29h0a3.82,3.82,0,0,0-.86-.48h0a14.25,14.25,0,0,0-3.53-.89l-1.23-.16c-.59-.48-1.39-2.36-1.52-5.25h0s.66-1.53,1.53-1.05c1.36.74,4-2.26,3.14-6.21a9.79,9.79,0,0,0-.32-1.17,2.48,2.48,0,0,0,.91.22c.78,0,2-2,2.14-2.7s0-2.9-1.1-3.56-2.73.1-2.8.13c.54-.76,2.38-.61,2.72-.57-4.3-.89-5.19,1.87-5.27,2.12-2.73-2.48-6.91,1.8-7.94,2.94l-.21.19a3.09,3.09,0,0,0-.77.69,3.54,3.54,0,0,0-.71,2.29,8.12,8.12,0,0,0,.54,2.73c.25,2.39.94,5.35,2,5.44,0,0,.39,0,1,0v.07c0,.4,0,.86,0,1.31v.27c0,1.2-.07,2.34-.34,2.49l-.24,0a3.14,3.14,0,0,0-.32,0c-1,.13-1.64.22-2.12.31-1,.16-1.2.27-1.43.46l-.17.17a11,11,0,0,0-3.11,4.08,17.57,17.57,0,0,0,21.86.69,22.64,22.64,0,0,0-1.52-4.14Z"/><path class="cls-12" d="M518.63,166.16a17.58,17.58,0,1,0,17.58-17.57,17.51,17.51,0,0,0-17.58,17.57Z"/><path class="cls-11" d="M545.19,176.12l-.08-.13a1.52,1.52,0,0,0-.28-.29h0a4.25,4.25,0,0,0-.86-.48h0a14.25,14.25,0,0,0-3.53-.89h0c-.57-.1-1-.15-1.23-.17a1.94,1.94,0,0,1-.45-.58h0a10.89,10.89,0,0,1-1.07-4.66h0s.66-1.53,1.53-1c1.36.74,4-2.26,3.14-6.21a9.79,9.79,0,0,0-.32-1.17,2.48,2.48,0,0,0,.91.22c.78,0,2-2,2.14-2.69s0-2.91-1.1-3.57-2.73.1-2.8.13c.54-.76,2.39-.6,2.72-.57-4.3-.89-5.19,1.87-5.27,2.11-2.73-2.47-6.91,1.81-7.94,2.95l-.21.19a3,3,0,0,0-.77.7,3.5,3.5,0,0,0-.71,2.28,8.12,8.12,0,0,0,.54,2.73c.25,2.39.94,5.35,2,5.44,0,0,.39,0,1,0v.07c0,.4,0,.85,0,1.31V172c0,1.2-.07,2.34-.34,2.49l-.24,0-.32,0c-1,.13-1.64.22-2.12.3-1,.17-1.2.28-1.43.47l-.17.17a10.92,10.92,0,0,0-3.11,4.09l.51.41.09.07.39.29.28.21.29.19a4,4,0,0,0,.43.28l.3.19.36.21.42.23,0,0,0,0h0l.06,0,.33.17h0l.1.05.19.09.18.09.43.19.43.17.2.08.2.07.41.15.42.14.36.11h0l.23.06c.42.11.84.22,1.28.3l.56.1.15,0h0l.37,0h.13l.34,0h.17l.62,0h1a17.46,17.46,0,0,0,10.5-3.48,22.64,22.64,0,0,0-1.52-4.14Z"/><path class="cls-3" d="M757.17,864.14l-63.31,32.78H651.71c-10.16-6.82-62.94-42.82-84.78-69.66-4.63-5.69-21.56-54.71-34.57-94.51h0c1.73,5.28,38,82.61,48.37,91.4s64.62,60,79.61,59.44c14.52-.5,91.83-18.29,96.62-19.39l.21-.05Z"/><path class="cls-16" d="M884.56,896.92H656.31c11.45-4.49,55.25-21.23,100.65-32.73l.21-.05c39-9.86,79.14-15.84,100.94-6.87l.15.23,26.3,39.42Z"/><path class="cls-3" d="M516.83,595.43h0c3.85-1.41,9.25-2.34,11.87,2.05,4.1,6.82-11.1,67.06-13,74.64l1.11-76.68Z"/><path class="cls-4" d="M518,563l-1.3,36.44s7.66,1.25,12-2S530.78,562.61,518,563Z"/><path class="cls-17" d="M364.68,774c-21.94,4.5-69.21-12.73-69.21-12.73l7.63-73.64-53.42,61.17c-27.19-10.11-69.71-36.51-95-52.94C219.45,688.83,267.78,625,267.78,625c44.87,24.3,95.53,38.5,95.53,38.5,0,43.77,1.37,110.58,1.37,110.58Z"/><path class="cls-18" d="M214.16,707.14a8.89,8.89,0,1,1,8.81,9,8.9,8.9,0,0,1-8.81-9Z"/><path class="cls-5" d="M132.86,256.7c-.05,14.46-10.62,26.46-24.15,28.08a25.57,25.57,0,0,1-2.92.19l0-6.92,2.92,0v3.69c11.89-1.6,21.17-12.24,21.21-25s-9.17-23.26-21.05-24.66v3.69l-2.93,0,0-6.92a23.51,23.51,0,0,1,2.92.14C122.4,230.39,132.9,242.23,132.86,256.7Z"/><path class="cls-5" d="M81,299.32l0-5.76,1.79,0a2.73,2.73,0,0,1,2,.81,3,3,0,0,1,0,4.12,2.78,2.78,0,0,1-2,.84Zm.58-.56h1.22a2.19,2.19,0,0,0,1.63-.67,2.35,2.35,0,0,0,.64-1.67,2.28,2.28,0,0,0-.64-1.67,2.13,2.13,0,0,0-1.62-.64H81.61Z"/><path class="cls-5" d="M87.5,294.3a2.64,2.64,0,0,1,2-.88,2.61,2.61,0,0,1,2,.85,2.9,2.9,0,0,1,.8,2.08v0a2.93,2.93,0,0,1-.81,2.07,2.67,2.67,0,0,1-2,.87,2.62,2.62,0,0,1-2-.84,2.94,2.94,0,0,1-.8-2.08A3,3,0,0,1,87.5,294.3Zm-.25,2.09a2.4,2.4,0,0,0,.63,1.68,2,2,0,0,0,1.58.68A2.07,2.07,0,0,0,91,298a2.37,2.37,0,0,0,.64-1.69,2.4,2.4,0,0,0-.63-1.68,2,2,0,0,0-1.57-.69,2.07,2.07,0,0,0-1.57.71A2.47,2.47,0,0,0,87.25,296.39Z"/><path class="cls-5" d="M93.35,299.22l0-5.76h.57l0,5.21,2.91,0v.55Z"/><path class="cls-5" d="M98.22,294.21a2.64,2.64,0,0,1,2-.88,2.48,2.48,0,0,1,1.53.49,2.91,2.91,0,0,1,1,1.32l-.57.13a2.13,2.13,0,0,0-.76-1,2,2,0,0,0-1.18-.36,2.08,2.08,0,0,0-1.58.7A2.46,2.46,0,0,0,98,296.3,2.38,2.38,0,0,0,98.6,298a2,2,0,0,0,1.57.68,1.88,1.88,0,0,0,1.4-.57,2.43,2.43,0,0,0,.67-1.45l-2.07,0v-.52l2.64,0v.19a3,3,0,0,1-.74,2.07,2.48,2.48,0,0,1-1.9.84,2.57,2.57,0,0,1-2-.84,2.94,2.94,0,0,1-.8-2.08A3,3,0,0,1,98.22,294.21Z"/><path class="cls-5" d="M104.7,294.16a2.65,2.65,0,0,1,2-.88,2.55,2.55,0,0,1,2,.84,2.86,2.86,0,0,1,.8,2.08v0a2.89,2.89,0,0,1-.81,2.06,2.71,2.71,0,0,1-3.95,0,2.85,2.85,0,0,1-.79-2.07A3,3,0,0,1,104.7,294.16Zm-.24,2.08a2.39,2.39,0,0,0,.62,1.68,2,2,0,0,0,1.58.68,2.08,2.08,0,0,0,1.58-.7,2.43,2.43,0,0,0,.63-1.69,2.36,2.36,0,0,0-.62-1.69,2,2,0,0,0-1.58-.68,2,2,0,0,0-1.57.71A2.39,2.39,0,0,0,104.46,296.24Z"/><path class="cls-5" d="M109.88,293.32h.63l1.88,5.51,1.94-5.54H115l-2,5.77h-1Z"/><path class="cls-19" d="M105.93,240.3l-.08,25.26L94,243.74l-3-5.53-1.45-2.69c-.4.33-.77.67-1.14,1s-.74.71-1.08,1.09a28.92,28.92,0,0,0-7.76,19.69A28.16,28.16,0,0,0,89,278.6l1.48-2.73a25.1,25.1,0,0,1-8-18.57,25.73,25.73,0,0,1,6.33-16.89L106,272.07a1.43,1.43,0,0,0,1.27.77,1.57,1.57,0,0,0,.37,0,1.54,1.54,0,0,0,1.09-1.48l.1-31Z"/><path class="cls-19" d="M117.09,293.26l2.88,5.47v-5.5h.57l0,5.76h-1.08l-2.9-5.52,0,5.54H116l0-5.76Z"/><path class="cls-19" d="M125.74,293.18v.56l-3.29,0v2.06l3,0v.53l-3,0v2.06l3.28,0V299l-3.86,0,0-5.76Z"/><path class="cls-19" d="M126.76,293.18l4.39,0v.55l-1.88,0,0,5.21h-.57l0-5.21-1.94,0Z"/></g></g></svg>