<svg xmlns="http://www.w3.org/2000/svg" xmlns:xlink="http://www.w3.org/1999/xlink" viewBox="0 0 1251.33 729.16"><defs><style>.cls-1{fill:none;}.cls-2{isolation:isolate;}.cls-3{fill:#fcfcfd;}.cls-4{fill:#a8d2a0;}.cls-5{fill:#bfdcb3;}.cls-6{fill:#f0f0f0;}.cls-7{fill:#9cd2c8;}.cls-8{fill:#4ea69d;}.cls-9{opacity:0.2;}.cls-10{fill:#3a7a75;}.cls-11{fill:#ac493f;}.cls-12{fill:url(#linear-gradient);}.cls-13{fill:#232956;}.cls-14{fill:url(#linear-gradient-2);}.cls-15{fill:#5dbdaf;}.cls-16{fill:url(#linear-gradient-3);}.cls-17{fill:url(#linear-gradient-4);}.cls-18{fill:url(#linear-gradient-5);}.cls-19{fill:url(#linear-gradient-6);}.cls-20{mix-blend-mode:soft-light;}.cls-21{fill:#beceeb;}.cls-22{fill:#3a575c;}.cls-23{fill:url(#linear-gradient-7);}.cls-24{fill:url(#linear-gradient-8);}.cls-25{fill:url(#linear-gradient-9);}.cls-26{fill:url(#linear-gradient-10);}.cls-27{fill:url(#linear-gradient-11);}.cls-28{clip-path:url(#clip-path);}.cls-29{fill:#b5cdec;}.cls-30{fill:url(#Безымянный_градиент_3);}.cls-31{fill:#d8dee8;}.cls-32{clip-path:url(#clip-path-2);}.cls-33{fill:#fff;}.cls-34{fill:url(#linear-gradient-12);}.cls-35{fill:url(#Безымянный_градиент_3-2);}.cls-36{clip-path:url(#clip-path-3);}.cls-37{fill:url(#Безымянный_градиент_3-3);}.cls-38{fill:#98a6b7;}.cls-39{clip-path:url(#clip-path-4);}.cls-40{fill:url(#linear-gradient-13);}.cls-41{fill:url(#linear-gradient-14);}.cls-42{fill:url(#linear-gradient-15);}.cls-43{fill:url(#linear-gradient-16);}.cls-44{fill:url(#linear-gradient-17);}.cls-45{fill:url(#linear-gradient-18);}.cls-46{fill:url(#linear-gradient-19);}.cls-47{fill:url(#linear-gradient-20);}.cls-48{fill:#436ba8;}.cls-49{fill:#e6eefa;}.cls-50{fill:#232855;}.cls-51{fill:url(#linear-gradient-21);}.cls-52{fill:url(#linear-gradient-22);}.cls-53{fill:url(#linear-gradient-23);}.cls-54{fill:url(#linear-gradient-24);}.cls-55{fill:url(#linear-gradient-25);}.cls-56{fill:url(#linear-gradient-26);}.cls-57{fill:url(#linear-gradient-27);}.cls-58{fill:url(#linear-gradient-28);}.cls-59{fill:url(#linear-gradient-29);}.cls-60{fill:#852c28;}.cls-61{fill:url(#linear-gradient-30);}.cls-62{opacity:0.5;}.cls-63{fill:#54718d;}.cls-64{fill:#4e767a;}</style><linearGradient id="linear-gradient" x1="846.85" y1="776.49" x2="828.62" y2="693.93" gradientUnits="userSpaceOnUse"><stop offset="0" stop-color="#f2908f"/><stop offset="1" stop-color="#f6b2b2"/></linearGradient><linearGradient id="linear-gradient-2" x1="878.87" y1="578.7" x2="836.1" y2="682.84" xlink:href="#linear-gradient"/><linearGradient id="linear-gradient-3" x1="847.72" y1="591.48" x2="865.94" y2="636.11" xlink:href="#linear-gradient"/><linearGradient id="linear-gradient-4" x1="2602.85" y1="815.95" x2="2631.49" y2="812.98" gradientTransform="translate(-3933.96)" xlink:href="#linear-gradient"/><linearGradient id="linear-gradient-5" x1="-1331.08" y1="821.19" x2="-1302.44" y2="818.22" xlink:href="#linear-gradient"/><linearGradient id="linear-gradient-6" x1="947.22" y1="677.97" x2="859.45" y2="670.16" xlink:href="#linear-gradient"/><linearGradient id="linear-gradient-7" x1="711.58" y1="684.31" x2="950.59" y2="684.31" gradientUnits="userSpaceOnUse"><stop offset="0" stop-color="#dae1f3"/><stop offset="1" stop-color="#e9effa"/></linearGradient><linearGradient id="linear-gradient-8" x1="725.31" y1="736.7" x2="772.49" y2="736.7" xlink:href="#linear-gradient-7"/><linearGradient id="linear-gradient-9" x1="730.76" y1="736.7" x2="777.94" y2="736.7" xlink:href="#linear-gradient-7"/><linearGradient id="linear-gradient-10" x1="894.92" y1="736.7" x2="942.1" y2="736.7" xlink:href="#linear-gradient-7"/><linearGradient id="linear-gradient-11" x1="900.37" y1="736.7" x2="947.55" y2="736.7" xlink:href="#linear-gradient-7"/><clipPath id="clip-path" transform="translate(0 -60.86)"><polygon class="cls-1" points="316.89 386.38 626.09 573.02 917.64 397.41 925.69 97 277.75 0 316.89 386.38"/></clipPath><linearGradient id="Безымянный_градиент_3" x1="380.72" y1="234.78" x2="626.04" y2="552.65" gradientUnits="userSpaceOnUse"><stop offset="0" stop-color="#a8d2a0"/><stop offset="1" stop-color="#bfdcb3"/></linearGradient><clipPath id="clip-path-2" transform="translate(0 -60.86)"><polygon class="cls-1" points="374.55 633.26 374.55 158.34 545.2 146.87 545.2 645.07 374.55 633.26"/></clipPath><linearGradient id="linear-gradient-12" x1="744.97" y1="91.14" x2="892.06" y2="420.54" gradientUnits="userSpaceOnUse"><stop offset="0" stop-color="#f9b14c"/><stop offset="0.05" stop-color="#fab949"/><stop offset="0.14" stop-color="#fcc146"/><stop offset="0.32" stop-color="#fcc345"/><stop offset="0.49" stop-color="#fab848"/><stop offset="0.78" stop-color="#f59b50"/><stop offset="0.87" stop-color="#f39252"/><stop offset="1" stop-color="#f39252"/></linearGradient><linearGradient id="Безымянный_градиент_3-2" x1="730.18" y1="270.08" x2="944.49" y2="822.08" gradientTransform="translate(1558.4 792.67) rotate(-180)" xlink:href="#Безымянный_градиент_3"/><clipPath id="clip-path-3" transform="translate(0 -60.86)"><rect class="cls-1" x="548.73" y="297.06" width="443.45" height="198.21" transform="translate(1166.62 -374.29) rotate(90)"/></clipPath><linearGradient id="Безымянный_градиент_3-3" x1="537.33" y1="616.5" x2="661.46" y2="98.01" xlink:href="#Безымянный_градиент_3"/><clipPath id="clip-path-4" transform="translate(0 -60.86)"><polygon class="cls-1" points="545.2 645.07 545.2 146.87 671.35 174.44 671.35 617.93 545.2 645.07"/></clipPath><linearGradient id="linear-gradient-13" x1="408.04" y1="410.25" x2="792.85" y2="410.25" gradientUnits="userSpaceOnUse"><stop offset="0" stop-color="#9080ba"/><stop offset="1" stop-color="#5961a9"/></linearGradient><linearGradient id="linear-gradient-14" x1="5742.9" y1="750.89" x2="5738.57" y2="788.67" gradientTransform="matrix(-1, 0, 0, 1, 6851.25, 0)" xlink:href="#linear-gradient"/><linearGradient id="linear-gradient-15" x1="5788.5" y1="755.73" x2="5784.45" y2="791.06" gradientTransform="matrix(-1, 0, 0, 1, 6851.25, 0)" xlink:href="#linear-gradient"/><linearGradient id="linear-gradient-16" x1="1096.36" y1="488.12" x2="1095.25" y2="537.95" xlink:href="#linear-gradient"/><linearGradient id="linear-gradient-17" x1="3938.87" y1="610.46" x2="3904.33" y2="639.97" gradientTransform="matrix(-1, 0, 0, 1, 5039.42, 0)" xlink:href="#linear-gradient"/><linearGradient id="linear-gradient-18" x1="1010.88" y1="504.6" x2="1012.3" y2="527.78" xlink:href="#linear-gradient"/><linearGradient id="linear-gradient-19" x1="1124.97" y1="485.44" x2="1074.76" y2="498.46" xlink:href="#linear-gradient"/><linearGradient id="linear-gradient-20" x1="-893.06" y1="-3336.04" x2="-869.14" y2="-3360.59" gradientTransform="matrix(-0.99, -0.16, -0.16, 0.99, -293.06, 3675.31)" xlink:href="#linear-gradient"/><linearGradient id="linear-gradient-21" x1="1456.14" y1="762.84" x2="1465.58" y2="762.84" gradientTransform="translate(-1198.53)" xlink:href="#linear-gradient"/><linearGradient id="linear-gradient-22" x1="1422.11" y1="762.35" x2="1430.26" y2="762.35" gradientTransform="translate(-1198.53)" xlink:href="#linear-gradient"/><linearGradient id="linear-gradient-23" x1="1495" y1="516.49" x2="1543.24" y2="516.49" gradientTransform="translate(-1198.53)" xlink:href="#linear-gradient"/><linearGradient id="linear-gradient-24" x1="11136.99" y1="511.27" x2="11169.36" y2="584.92" gradientTransform="matrix(-1, 0, 0, 1, 11470.11, 0)" xlink:href="#linear-gradient"/><linearGradient id="linear-gradient-25" x1="302.66" y1="533.43" x2="372.96" y2="453.09" xlink:href="#linear-gradient"/><linearGradient id="linear-gradient-26" x1="249.88" y1="518.15" x2="239.84" y2="594.02" xlink:href="#linear-gradient"/><linearGradient id="linear-gradient-27" x1="-6311.86" y1="-2039.63" x2="-6345.33" y2="-2101.56" gradientTransform="matrix(0.75, -0.67, 0.67, 0.75, 8092.99, -1544.91)" xlink:href="#linear-gradient"/><linearGradient id="linear-gradient-28" x1="-6318.36" y1="-2036.12" x2="-6351.83" y2="-2098.04" gradientTransform="matrix(0.75, -0.67, 0.67, 0.75, 8092.99, -1544.91)" xlink:href="#linear-gradient"/><linearGradient id="linear-gradient-29" x1="1439.26" y1="618.96" x2="1389.57" y2="579.2" gradientTransform="translate(-1198.53)" xlink:href="#linear-gradient"/><linearGradient id="linear-gradient-30" x1="223.3" y1="601.25" x2="214.09" y2="608.12" xlink:href="#linear-gradient"/></defs><g class="cls-2"><g id="Слой_2" data-name="Слой 2"><g id="Слой_1-2" data-name="Слой 1"><path class="cls-3" d="M14,383.69C28.49,409.38,51.56,431,69.33,455c51.37,69.4-2.07,150.61,21.37,225.43,20.42,65.18,105.37,82.66,167.47,85.3,104.64,4.46,209.15-2.22,310-30.6,70-19.69,140.1-45.47,213.89-47,75.43-1.6,146.38,28.68,219.25,43,80,15.72,175.73-1.36,195-90.71,12-55.36-20.22-106.34-23.24-160.84-4-72.16,68-111.75,77.26-179.21,5.87-42.53-16.06-80.53-44.67-111.3-30.18-32.47-70.78-61.15-117.35-63.82-48.68-2.79-92.12,22.77-137.62,35-127.86,34.28-200.43-80.08-318.09-96C579.58,57,514.37,60.4,466.19,85.1c-44.8,23-66.55,74-116.8,89-53.19,15.86-101.86-15.83-152.4-26C144.68,137.64,95.2,156.24,62.46,197,30.72,236.58-3.63,288.68.31,340.9,1.51,356.75,6.65,370.74,14,383.69Z" transform="translate(0 -60.86)"/><path class="cls-4" d="M334.09,750.07c-31.19,6.24-71-27.77-83.86-64.92-13.2-38.23,11-54.24,10.82-107.3-.21-60.26-31.56-69.34-52.29-150.58C204.08,409,177,302.89,210.56,283c31-18.39,118.17,34.37,133.45,101.89,10.89,48.14-22.78,68.35-9.92,124.43,11.28,49.2,40.93,49.91,52.3,97.38C400.22,664.5,375,741.89,334.09,750.07Z" transform="translate(0 -60.86)"/><path class="cls-5" d="M331.82,764.67c8.41-64.93-8-165.1-23.23-237.7-16.5-78.6-35.23-142.72-35.42-143.36l-2.6.76c.19.64,18.89,64.67,35.37,143.17,15.2,72.39,31.56,172.24,23.2,236.79Z" transform="translate(0 -60.86)"/><path class="cls-5" d="M298.17,742.83c40.91-21.32,54.92-94.53,31.66-118.32-15.72-16.08-38.25.83-60-15.83-27.76-21.28-7.34-61.35-29.17-113.32-18.57-44.23-63.12-86.08-89.15-77.49-27.25,9-41.6,75.68-18.33,115.82,15.13,26.1,38.3,27.38,43.33,51.66,5.83,28.17-22.35,41-22.5,68.32C153.74,702.73,244,771,298.17,742.83Z" transform="translate(0 -60.86)"/><path class="cls-4" d="M276.09,761.57a1.66,1.66,0,0,0,1.5-2.39c-54.25-111.77-70.15-241.44-70.31-242.74a1.67,1.67,0,0,0-3.31.4c.16,1.3,16.13,131.52,70.62,243.79A1.66,1.66,0,0,0,276.09,761.57Z" transform="translate(0 -60.86)"/><path class="cls-4" d="M164.8,550a.79.79,0,0,0,.63-1.28c-17.12-22-36.1-55-29.27-87.49,4.07-19.35,15.52-29.44,15.64-29.54a.79.79,0,0,0,.08-1.12.78.78,0,0,0-1.12-.08c-.49.42-12,10.54-16.16,30.41-3.84,18.27-1.82,48.5,29.57,88.8A.8.8,0,0,0,164.8,550Z" transform="translate(0 -60.86)"/><path class="cls-6" d="M301.86,733.06a.79.79,0,0,0,.65-.34c26.31-38.4,35.29-68.08,26.67-88.19-7.66-17.89-27-21.22-27.2-21.25a.79.79,0,0,0-.25,1.57c.18,0,18.69,3.24,26,20.32,8.37,19.59-.56,48.74-26.53,86.65a.79.79,0,0,0,.66,1.24Z" transform="translate(0 -60.86)"/><path class="cls-4" d="M924,750.07c31.19,6.24,71-27.77,83.85-64.92,13.21-38.23-11-54.24-10.82-107.3.21-60.26,31.56-69.34,52.3-150.58C1054,409,1081,302.89,1047.49,283c-31-18.39-118.18,34.37-133.45,101.89C903.15,433,936.81,453.25,924,509.33c-11.29,49.2-40.94,49.91-52.3,97.38C857.83,664.5,883,741.89,924,750.07Z" transform="translate(0 -60.86)"/><path class="cls-5" d="M926.22,764.67c-8.41-64.93,8-165.1,23.24-237.7,16.5-78.6,35.23-142.72,35.41-143.36l2.6.76c-.19.64-18.89,64.67-35.37,143.17-15.2,72.39-31.56,172.24-23.2,236.79Z" transform="translate(0 -60.86)"/><path class="cls-5" d="M959.88,742.83C919,721.51,905,648.3,928.22,624.51c15.71-16.08,38.25.83,60-15.83,27.76-21.28,7.34-61.35,29.16-113.32,18.57-44.23,63.12-86.08,89.15-77.49,27.25,9,41.61,75.68,18.33,115.82-15.13,26.1-38.3,27.38-43.32,51.66-5.83,28.17,22.34,41,22.49,68.32C1104.3,702.73,1014,771,959.88,742.83Z" transform="translate(0 -60.86)"/><path class="cls-4" d="M982,761.57a1.65,1.65,0,0,1-1.5-2.39c54.24-111.77,70.15-241.44,70.3-242.74a1.67,1.67,0,0,1,3.31.4c-.15,1.3-16.13,131.52-70.61,243.79A1.67,1.67,0,0,1,982,761.57Z" transform="translate(0 -60.86)"/><path class="cls-4" d="M1093.24,550a.82.82,0,0,1-.49-.16.81.81,0,0,1-.14-1.12c17.13-22,36.1-55,29.27-87.49-4.07-19.35-15.52-29.44-15.63-29.54a.79.79,0,1,1,1-1.2c.49.42,12,10.54,16.15,30.41,3.84,18.27,1.83,48.5-29.57,88.8A.8.8,0,0,1,1093.24,550Z" transform="translate(0 -60.86)"/><path class="cls-6" d="M956.19,733.06a.81.81,0,0,1-.66-.34c-26.31-38.4-35.28-68.08-26.67-88.19,7.66-17.89,27-21.22,27.2-21.25a.8.8,0,0,1,.26,1.57c-.19,0-18.7,3.24-26,20.32-8.37,19.59.55,48.74,26.52,86.65a.8.8,0,0,1-.2,1.11A.84.84,0,0,1,956.19,733.06Z" transform="translate(0 -60.86)"/><path class="cls-7" d="M288.94,369.49V711.71c0,25.18,22.12,45.6,49.41,45.6H913c27.28,0,49.4-20.42,49.4-45.6V369.49Z" transform="translate(0 -60.86)"/><path class="cls-8" d="M794.38,267.6,648.31,179.22a43,43,0,0,0-45.29,0L457,267.57,288.24,369.63,457,471.43l168.72,101.8L794.38,471.32,963.09,369.63Z" transform="translate(0 -60.86)"/><g class="cls-9"><path class="cls-8" d="M302.14,742.52a1.2,1.2,0,0,1-.79-.3,1.18,1.18,0,0,1-.1-1.67L511.68,503.81a1.18,1.18,0,1,1,1.76,1.57L303,742.12A1.19,1.19,0,0,1,302.14,742.52Z" transform="translate(0 -60.86)"/><path class="cls-8" d="M949.2,742.52a1.21,1.21,0,0,1-.89-.4L737.89,505.38a1.18,1.18,0,0,1,1.77-1.57L950.08,740.55a1.18,1.18,0,0,1-.1,1.67A1.16,1.16,0,0,1,949.2,742.52Z" transform="translate(0 -60.86)"/></g><path class="cls-10" d="M899.55,716.64v5a5.49,5.49,0,0,1-4,5.26,4.89,4.89,0,0,1-1.49.22h-20.9v49.25h16.44a3.32,3.32,0,0,1,3.31,3.32h-44.6a3.32,3.32,0,0,1,3.32-3.32h16.44V727.07H849a5.5,5.5,0,0,1-5.48-5.48v-5a5.5,5.5,0,0,1,5.48-5.48h45.13A5.49,5.49,0,0,1,899.55,716.64Z" transform="translate(0 -60.86)"/><path class="cls-11" d="M847.64,580.74s-6.94-8.32,2.49-13.45,24.26.5,26.13,11.41,11.24,4.42,15.33,2,15.51-5.62,18.4,6.81c1.15,4.93-.3,11.22,1.84,15.81,2.94,6.31,12.52,4.68,17.76,7.09,6.8,3.14,10.35,9.21,6.81,16.29-5.45,10.9-16.18,17.83-10.39,27.32s-17.55,30.78-25.56,11S880,648.66,870,647.41s-15.17-9.94-12.44-18.8-.85-14.14-4.6-17.88S836.56,590.79,847.64,580.74Z" transform="translate(0 -60.86)"/><path class="cls-12" d="M833,686.78A44.2,44.2,0,0,0,817,693.64a4.24,4.24,0,0,0-1.88,4.05c1,8.07,5.21,34.19,19,59.7a6.43,6.43,0,0,1,.62,4.41L832.33,773l-4.45,4.17h11.46L847,756.48l-3.27-1a6.18,6.18,0,0,1-4.31-5.78L839,727.51A25.23,25.23,0,0,0,833,710.83l18.31-.89Z" transform="translate(0 -60.86)"/><path class="cls-13" d="M823.4,779.15c-1,1.37,11.24,3.17,17.44.18,0,0,8.6-15,8.6-22.66,0,0-.68-1.57-5.73-1.22,0,0-2.89,17.72-5.93,19.7s-8.54.2-8.54.2S824.94,777.14,823.4,779.15Z" transform="translate(0 -60.86)"/><path class="cls-14" d="M849,711.16c-.09-.17-19.71-2.36-19.71-2.36A45.08,45.08,0,0,1,827.88,723c-2,8.21-30.8,43.78-30.8,43.78l3,9.57A48.55,48.55,0,0,1,772.54,778l18.72-11.22s17.51-59.68,28.23-70.33l19.66-6.8Z" transform="translate(0 -60.86)"/><path class="cls-15" d="M892.94,676.43s11.3,16.81,12.23,24.48-3.1,10.78-15,11.29c-9.84.43-33.33.49-41,.51a6.69,6.69,0,0,1-4.37-1.62l-25.13-21.47s19.69-7,24.81-9S892.94,676.43,892.94,676.43Z" transform="translate(0 -60.86)"/><path class="cls-13" d="M799,773.09s3.25,3.15,1,6.66c0,0-25.75,4.56-32.74,2.49,0,0,1.45-3.31,9.32-7.09l-.58.45a.94.94,0,0,0,.62,1.69C781.82,777,792.56,776,799,773.09Z" transform="translate(0 -60.86)"/><path class="cls-10" d="M862.38,674.21s-13.16-12.53-19.64-20.83a17.61,17.61,0,0,1-3-15.85c3-10,8.21-20.28,8.69-21.89.74-2.46,15.49-2.36,15.49-2.36s29,18.85,40.44,50.77l-12.81,4s-7.58-12.71-15.07-20.8c0,0,13,17.12,13.42,24.13Z" transform="translate(0 -60.86)"/><path class="cls-16" d="M846.67,601.89c.15.51,4,13.27,4.31,13.54s8.44.7,12.27-1.92l-6.5-13.61Z" transform="translate(0 -60.86)"/><path class="cls-17" d="M853,575.07s-7,2.94-11.68,13-1.2,14.69,3.23,15.32,11.07.54,18.08-6S862,571.59,853,575.07Z" transform="translate(0 -60.86)"/><path class="cls-11" d="M857.92,592.06s5.24-14.7-7.79-14.87l-3.06,2.14s-4.79-8.15,3.06-12A16.7,16.7,0,0,1,873,577.44c3.34,10.57,1.38,17.4-4.17,22.46s-7.85-.68-7.85-.68,3-4.73,1.8-7.26-4.08.52-4.08.52Z" transform="translate(0 -60.86)"/><path class="cls-18" d="M857.34,598.13l-.81-3.72a15.61,15.61,0,0,1,1.68-3.29,7,7,0,0,1,.89-1,2.44,2.44,0,0,1,3.62-.22C866.26,592.87,859.85,596.85,857.34,598.13Z" transform="translate(0 -60.86)"/><path class="cls-19" d="M835.57,675.14l9.67-9.32,13.37,5.65s13.32,2.06,20.94,0l7.62-2.06,17.21-5.36,2.71,7.64a4.63,4.63,0,0,1-1.68,5.29,30.57,30.57,0,0,1-4.35,2.7c-2.27,1-55.9-.68-55.9-.68Z" transform="translate(0 -60.86)"/><g class="cls-20"><path class="cls-21" d="M905.8,593l-.45-.05c.39-3.65-.21-6.09-1.86-7.44-3.27-2.69-10-.59-16,1.27a38.14,38.14,0,0,1-7.89,1.93,4.58,4.58,0,0,1-3.65-1.21,6.23,6.23,0,0,1-1.5-4.35l.45,0a6,6,0,0,0,1.37,4,4.12,4.12,0,0,0,3.3,1.07,38.1,38.1,0,0,0,7.78-1.91c6.09-1.89,13-4,16.44-1.19C905.56,586.56,906.22,589.13,905.8,593Z" transform="translate(0 -60.86)"/></g><g class="cls-20"><path class="cls-21" d="M920,648c-1.08-4.42,1.83-8.16,5.19-12.49,2.42-3.12,5.17-6.65,6.64-10.88a6.26,6.26,0,0,0-.45-5.53c-3.14-5.11-13.54-6.6-13.64-6.61l.06-.46c.44.06,10.72,1.54,14,6.83a6.67,6.67,0,0,1,.49,5.92c-1.49,4.31-4.26,7.87-6.71,11-3.29,4.24-6.13,7.89-5.11,12.1Z" transform="translate(0 -60.86)"/></g><path class="cls-22" d="M872.16,679.53H872L816,679.47a2.51,2.51,0,0,1,0-5l56.09.06a2.51,2.51,0,0,1,.12,5Z" transform="translate(0 -60.86)"/><path class="cls-22" d="M765.53,628.61h46.71a8.9,8.9,0,0,1,8,5.11l21.59,45.78h-58a5.41,5.41,0,0,1-5-3.42l-16.75-42.37A3.74,3.74,0,0,1,765.53,628.61Z" transform="translate(0 -60.86)"/><path class="cls-23" d="M950.54,681.58a2.06,2.06,0,0,0-.48-1.79,2.39,2.39,0,0,0-1.79-.79h-234a2.71,2.71,0,0,0-2.24,1.15,2.34,2.34,0,0,0-.17,2.39l2.53,5.15a3.57,3.57,0,0,0,3.23,1.93H946.67a2.65,2.65,0,0,0,2.63-2Z" transform="translate(0 -60.86)"/><path class="cls-24" d="M727.36,790a1.93,1.93,0,0,1-.81-.17,2.12,2.12,0,0,1-1.07-2.76l43.07-102.45a2,2,0,0,1,2.7-1.1,2.12,2.12,0,0,1,1.07,2.76L729.25,788.75A2.06,2.06,0,0,1,727.36,790Z" transform="translate(0 -60.86)"/><path class="cls-25" d="M775.88,790a2.05,2.05,0,0,1-1.88-1.27L730.92,686.3a2.13,2.13,0,0,1,1.08-2.76,2,2,0,0,1,2.7,1.1l43.07,102.45a2.12,2.12,0,0,1-1.08,2.76A1.93,1.93,0,0,1,775.88,790Z" transform="translate(0 -60.86)"/><path class="cls-26" d="M897,790a2,2,0,0,1-.82-.17,2.12,2.12,0,0,1-1.07-2.76l43.07-102.45a2,2,0,0,1,2.7-1.1,2.13,2.13,0,0,1,1.08,2.76L898.86,788.75A2.05,2.05,0,0,1,897,790Z" transform="translate(0 -60.86)"/><path class="cls-27" d="M945.5,790a2.05,2.05,0,0,1-1.89-1.27L900.54,686.3a2.12,2.12,0,0,1,1.07-2.76,2,2,0,0,1,2.7,1.1l43.07,102.45a2.12,2.12,0,0,1-1.07,2.76A2,2,0,0,1,945.5,790Z" transform="translate(0 -60.86)"/><g class="cls-28"><path class="cls-29" d="M902.51,272.59l-61.86.53a5.43,5.43,0,0,1-4.08-1.78c-1.17-1.16-1.29-2.73-1.29-4.36V204.37Z" transform="translate(0 -60.86)"/><polygon class="cls-30" points="545.2 609.22 360.26 595.15 360.26 74.71 545.2 61.01 545.2 609.22"/><polygon class="cls-31" points="378.17 264.49 378.17 485.66 374.55 485.66 374.55 542.27 545.2 542.27 545.2 264.49 378.17 264.49"/><g class="cls-32"><path class="cls-33" d="M600.56,83.94s.18,119.72,27,174.68,36.95,108.47,16.74,139.8-99.13-16.48-99.13-16.48-37.24,26.28-54.07,82.5S364.86,567.51,341.29,551.66s-13.47-440.15-13.47-440.15Z" transform="translate(0 -60.86)"/><path class="cls-33" d="M336.24,583.93s66.31,30.92,116.49,2.35,92.47-79.93,92.47-79.93,51,31.28,78.45,29.53,47.7-89.71,47.7-89.71,45.38-22.55,65.58-68.31,82.22-95.59,116.17-106S907,280.88,907,280.88l-8.41,398.85-524,27.44Z" transform="translate(0 -60.86)"/><path class="cls-34" d="M634.87,98.83s-17.88,82,0,103.78,31.51,84,36.48,100.84,43.69,53.78,63.9,20.17,50.5-58.12,65.66-69.44S912,231.25,917.07,222.75s8.42-105,8.42-105Z" transform="translate(0 -60.86)"/></g><rect class="cls-35" x="671.35" y="152.5" width="215.7" height="487.67" transform="translate(1558.4 731.81) rotate(180)"/><polygon class="cls-31" points="869.56 557.03 869.56 113.58 671.35 113.58 611.87 281.04 671.35 557.03 869.56 557.03"/><g class="cls-36"><path class="cls-33" d="M600.56,83.94s.18,119.72,27,174.68,36.95,108.47,16.74,139.8-99.13-16.48-99.13-16.48-37.24,26.28-54.07,82.5S364.86,567.51,341.29,551.66s-13.47-440.15-13.47-440.15Z" transform="translate(0 -60.86)"/><path class="cls-33" d="M336.24,583.93s66.31,30.92,116.49,2.35,92.47-79.93,92.47-79.93,51,31.28,78.45,29.53,47.7-89.71,47.7-89.71,45.38-22.55,65.58-68.31,82.22-95.59,116.17-106S907,280.88,907,280.88l-8.41,398.85-524,27.44Z" transform="translate(0 -60.86)"/><path class="cls-33" d="M634.87,98.83s-17.88,82,0,103.78,31.51,84,36.48,100.84,43.69,53.78,63.9,20.17,50.5-58.12,65.66-69.44S912,231.25,917.07,222.75s8.42-105,8.42-105Z" transform="translate(0 -60.86)"/></g><polygon class="cls-37" points="671.35 579.31 545.2 609.22 545.2 61.01 671.35 91.64 671.35 113.58 647.74 160.45 640.52 547.76 671.35 557.03 671.35 579.31"/><polygon class="cls-38" points="671.35 482.75 671.35 119.28 626.93 104.07 604.9 99.2 601.1 98.76 614.25 325.49 545.2 320.51 545.2 482.75 671.35 482.75"/><g class="cls-39"><path class="cls-31" d="M600.56,83.94s.18,119.72,27,174.68,36.95,108.47,16.74,139.8-99.13-16.48-99.13-16.48-37.24,26.28-54.07,82.5S364.86,567.51,341.29,551.66s-13.47-440.15-13.47-440.15Z" transform="translate(0 -60.86)"/><path class="cls-31" d="M336.24,583.93s66.31,30.92,116.49,2.35,92.47-79.93,92.47-79.93,51,31.28,78.45,29.53,47.7-89.71,47.7-89.71,45.38-22.55,65.58-68.31,82.22-95.59,116.17-106S907,280.88,907,280.88l-8.41,398.85-524,27.44Z" transform="translate(0 -60.86)"/><path class="cls-31" d="M634.87,98.83s-17.88,82,0,103.78,31.51,84,36.48,100.84,43.69,53.78,63.9,20.17,50.5-58.12,65.66-69.44S912,231.25,917.07,222.75s8.42-105,8.42-105Z" transform="translate(0 -60.86)"/></g><path class="cls-40" d="M412,415.73a3.92,3.92,0,0,1-2.34-7.06l4.15-3.1a3.91,3.91,0,1,1,4.71,6.24c-2.67,2-4.2,3.15-4.2,3.15A3.89,3.89,0,0,1,412,415.73Z" transform="translate(0 -60.86)"/><path class="cls-5" d="M747.08,431a38.93,38.93,0,0,1-8.14-1,3.91,3.91,0,0,1,1.66-7.65c3.78.82,6.78,1,8.58.65a3.91,3.91,0,0,1,1.83,7.61l-.12,0A17.91,17.91,0,0,1,747.08,431Zm12.78-3.64a3.91,3.91,0,0,1-1.68-7.44,44.37,44.37,0,0,0,8.08-5,3.91,3.91,0,0,1,4.81,6.17,51.23,51.23,0,0,1-9.53,5.9A3.85,3.85,0,0,1,759.86,427.35Zm-30.08-.13a4,4,0,0,1-1.26-.21c-3-1-6.38-2.27-9.95-3.7a3.91,3.91,0,0,1,2.91-7.26c3.43,1.37,6.64,2.57,9.55,3.55a3.91,3.91,0,0,1-1.25,7.62Zm-19.34-7.67a3.91,3.91,0,0,1-1.58-.34c-3-1.34-6.24-2.8-9.54-4.36a3.91,3.91,0,1,1,3.33-7.08c3.25,1.53,6.4,3,9.38,4.28a3.92,3.92,0,0,1-1.59,7.5Zm65.74-4.79a3.92,3.92,0,0,1-2.94-6.49,60.43,60.43,0,0,0,5.79-7.84,3.92,3.92,0,0,1,6.64,4.15,68.79,68.79,0,0,1-6.54,8.84A3.9,3.9,0,0,1,776.18,414.76Zm-84.56-4.06a4,4,0,0,1-1.73-.4c-3-1.49-6.16-3.07-9.34-4.7a3.91,3.91,0,0,1,3.56-7c3.16,1.61,6.26,3.18,9.24,4.65a3.91,3.91,0,0,1-1.73,7.42Zm-267.24-4.39a3.91,3.91,0,0,1-2.39-7c2.47-1.9,5.22-4,8.19-6.36a3.91,3.91,0,0,1,4.82,6.17c-3,2.34-5.76,4.48-8.24,6.39A3.87,3.87,0,0,1,424.38,406.31Zm248.72-5.08a4,4,0,0,1-1.82-.45c-3.07-1.62-6.15-3.26-9.21-4.92a3.92,3.92,0,0,1,3.72-6.89q4.56,2.47,9.14,4.88a3.92,3.92,0,0,1-1.83,7.38Zm-232.35-7.72a3.92,3.92,0,0,1-2.44-7c2.61-2.07,5.32-4.24,8.08-6.48a3.91,3.91,0,0,1,4.93,6.08c-2.78,2.25-5.51,4.44-8.13,6.53A3.92,3.92,0,0,1,440.75,393.51Zm214-2.17a3.87,3.87,0,0,1-1.88-.48q-4.6-2.55-9.11-5.09a3.91,3.91,0,1,1,3.84-6.82c3,1.68,6,3.37,9.05,5.05a3.91,3.91,0,0,1-1.9,7.34Zm-18.12-10.2a3.9,3.9,0,0,1-1.94-.52c-3.08-1.77-6.1-3.51-9-5.22a3.91,3.91,0,1,1,3.94-6.76q4.38,2.55,9,5.19a3.91,3.91,0,0,1-2,7.31Zm-179.78-.72a3.91,3.91,0,0,1-2.5-6.93c2.72-2.25,5.39-4.48,7.93-6.64a3.91,3.91,0,0,1,5.06,6c-2.57,2.18-5.26,4.43-8,6.7A3.88,3.88,0,0,1,456.9,380.42Zm161.81-9.76a3.88,3.88,0,0,1-2-.55c-3.13-1.85-6.13-3.64-9-5.35a3.91,3.91,0,0,1,4-6.7c2.82,1.69,5.8,3.48,8.91,5.32a3.91,3.91,0,0,1-2,7.28Zm-146-3.68a3.91,3.91,0,0,1-2.58-6.86c2.7-2.36,5.3-4.67,7.71-6.86a3.91,3.91,0,0,1,5.26,5.8c-2.45,2.22-5.09,4.56-7.82,6.95A3.89,3.89,0,0,1,472.74,367Zm128.15-7.07a3.9,3.9,0,0,1-2-.58c-3.25-2-6.24-3.87-8.88-5.54a3.91,3.91,0,1,1,4.19-6.61c2.61,1.66,5.57,3.5,8.79,5.48a3.92,3.92,0,0,1-2.06,7.25ZM488.12,353a3.91,3.91,0,0,1-2.7-6.75c2.64-2.52,5.1-4.94,7.3-7.19a3.91,3.91,0,1,1,5.6,5.47c-2.27,2.32-4.79,4.81-7.5,7.39A3.91,3.91,0,0,1,488.12,353Zm95.24-4.31a3.85,3.85,0,0,1-2.19-.68c-1.67-1.12-3.37-2.29-5.1-3.48l-3.49-2.39a3.91,3.91,0,0,1,4.42-6.46l3.5,2.4c1.72,1.18,3.4,2.33,5.06,3.45a3.92,3.92,0,0,1-2.2,7.16Zm-80.79-10.61a3.91,3.91,0,0,1-2.95-6.47c1.12-1.3,2.15-2.56,3.07-3.73a43.29,43.29,0,0,1,3.94-4.39,3.91,3.91,0,0,1,5.44,5.63,35.21,35.21,0,0,0-3.21,3.58c-1,1.28-2.12,2.63-3.32,4A3.94,3.94,0,0,1,502.57,338.09Zm63.57-1a3.82,3.82,0,0,1-2.11-.63c-3.17-2-6-3.76-8.68-5.27a3.92,3.92,0,1,1,3.85-6.82c2.8,1.59,5.77,3.39,9.06,5.51a3.92,3.92,0,0,1-2.12,7.21ZM548,327a4,4,0,0,1-1.58-.33,58,58,0,0,0-9.16-3.24,3.92,3.92,0,1,1,1.93-7.59,66.78,66.78,0,0,1,10.39,3.67A3.91,3.91,0,0,1,548,327Zm-30.12-2.56a3.92,3.92,0,0,1-1.56-7.51,30.93,30.93,0,0,1,11.54-2.48,3.91,3.91,0,0,1,.2,7.82,22.59,22.59,0,0,0-8.63,1.85A3.88,3.88,0,0,1,517.89,324.43Z" transform="translate(0 -60.86)"/><path class="cls-8" d="M533.64,179.43c0,47.82-67,135.09-97.31,172.13a18.87,18.87,0,0,1-29.2,0c-30.32-37-97.31-124.31-97.31-172.13a111.91,111.91,0,1,1,223.82,0Z" transform="translate(0 -60.86)"/><circle class="cls-33" cx="421.73" cy="179.43" r="62.41" transform="translate(-3.36 289.91) rotate(-45)"/><circle class="cls-8" cx="421.73" cy="345.15" r="22.87"/><path class="cls-11" d="M839.85,282.71c0,21.76-30.49,61.47-44.28,78.33a8.6,8.6,0,0,1-13.29,0C768.48,344.18,738,304.47,738,282.71a50.93,50.93,0,1,1,101.85,0Z" transform="translate(0 -60.86)"/><circle class="cls-33" cx="788.92" cy="282.71" r="28.4" transform="translate(399.52 963.94) rotate(-82.03)"/><circle class="cls-11" cx="788.92" cy="385.81" r="10.41" transform="translate(-77.95 184.32) rotate(-16.85)"/></g><path class="cls-10" d="M1056.05,528.11s-13.15,12.48-17.5,34.67-14.69-31.36-14.69-31.36h-10.44S1009.49,586.59,1039,591a15.84,15.84,0,0,0,14.77-5.85c5.38-6.84,13.78-19,15.81-30.58C1067.8,536.28,1056.05,528.11,1056.05,528.11Z" transform="translate(0 -60.86)"/><path class="cls-13" d="M1122.92,783.6a2.18,2.18,0,0,0-.05-.5c-2.47-9.78-12.56-14.8-12.56-14.8l-4.86.38c-2.79,8.63-4.59,12.84-4.14,15.2a1.8,1.8,0,0,0,0,.19A115,115,0,0,0,1122.92,783.6Z" transform="translate(0 -60.86)"/><path class="cls-13" d="M1101.36,784.07a2.06,2.06,0,0,0,1.54,1.55c5.7,1.2,14.75.24,18.55-.26a1.76,1.76,0,0,0,1.47-1.76A115,115,0,0,1,1101.36,784.07Z" transform="translate(0 -60.86)"/><path class="cls-41" d="M1114.3,760.74,1112.18,771a1.66,1.66,0,0,1-1.43,1.37,14.22,14.22,0,0,1-3.3-.05,2.1,2.1,0,0,1-1.66-2.47l1.48-9.09Z" transform="translate(0 -60.86)"/><path class="cls-13" d="M1060.1,784c5.18-.14,7.87-.75,9.25-1.32,0,.52,0,1,0,1.58a1,1,0,0,1-1,1l-28.48-.19a1.3,1.3,0,0,1-1-1.89A212.31,212.31,0,0,0,1060.1,784Z" transform="translate(0 -60.86)"/><path class="cls-13" d="M1038.84,783.21a1.13,1.13,0,0,1,.11-.22c2.52-3.51,8.92-10.51,21.58-13.54l6.07-.19s2.7,4.7,2.75,13.4c-1.38.57-4.07,1.18-9.25,1.32A212.31,212.31,0,0,1,1038.84,783.21Z" transform="translate(0 -60.86)"/><path class="cls-42" d="M1067.72,760.06c-.06.45-.9,7.33-1.22,10a1.31,1.31,0,0,1-1.11,1.2,14,14,0,0,1-4.17-.07,1.79,1.79,0,0,1-1.36-1.8v-10.8Z" transform="translate(0 -60.86)"/><path class="cls-15" d="M1110.25,626.35s9.71,86.36,4.31,140.33c0,0-6.47,0-9.71-1.08,0,0-10.1-84.44-13.36-108.6a.81.81,0,0,0-1.6,0c-4,20.33-19.86,100-21.74,107.57,0,0-5.4,2.16-9.72,0,0,0,8.64-115.5,15.11-136Z" transform="translate(0 -60.86)"/><path class="cls-10" d="M1129.68,526s-41-6.47-73.41,2.16l2.16,33.47s8.64,46.41,15.11,66.92c0,0,24.83,4.32,36.71-2.15,0,0,9.71-58.3,15.11-66.93C1125.36,559.42,1130.76,536.75,1129.68,526Z" transform="translate(0 -60.86)"/><path class="cls-43" d="M1100.89,490.72l4.38,33.37s-11.42,5.25-19.41-.22l1.72-19.51Z" transform="translate(0 -60.86)"/><path class="cls-10" d="M1129.68,526s63.69,69.09-11.34,95.54v-5.4s28.07-23.75,6.48-56.13C1124.82,560,1127.52,529.19,1129.68,526Z" transform="translate(0 -60.86)"/><path class="cls-44" d="M1117.8,616.63s-9.71-6.48-14-4.32-4.32,5.4-4.32,5.4,2.16,4.32,5.4,3.24,10.79,1.08,14,0C1118.88,621,1120,616.63,1117.8,616.63Z" transform="translate(0 -60.86)"/><path class="cls-11" d="M1012.78,496.52l13.71,4.62a4.54,4.54,0,0,1,2.93,4.3l-.71,22.87c.22,3.58-2.73,6.73-5.52,5.9l-11-3.75a2.81,2.81,0,0,1-1.79-2.83l-.24-28.47C1010.15,497.51,1011.51,496.14,1012.78,496.52Z" transform="translate(0 -60.86)"/><path class="cls-45" d="M1010.17,526s-4.29-13.74-2.11-16.05,6.52-8.7,6.81-3.48S1017.79,534.18,1010.17,526Z" transform="translate(0 -60.86)"/><path class="cls-46" d="M1075.78,485.07c-.07.39,4.81,26.49,4.81,26.49l14.84-3.1-.94-25.42S1076.85,478.43,1075.78,485.07Z" transform="translate(0 -60.86)"/><path class="cls-11" d="M1090.05,487.18a2.19,2.19,0,0,1,1,1.62L1092.6,502a1.67,1.67,0,0,1,0,.59c-.18,1.1-1,4.53-4.56,3.46-3-.9-5.78-1.69-7.81-1.33a2.18,2.18,0,0,0-1.74,2.56,80,80,0,0,0,3,11.61,2.17,2.17,0,0,0,2.62,1.34,61,61,0,0,0,12.7-4.95,2.18,2.18,0,0,0,1.1-2c-.09-3.54-.3-13.46.07-16.27.35-2.6,3.5-4.15,5-4.74a2.16,2.16,0,0,0,1.24-1.24c.67-1.71,1.41-5.26-3-6.89a2.19,2.19,0,0,1-1.27-2.76c.69-2,.88-4.87-2.7-6.54s-6.42.05-8,1.63a2.27,2.27,0,0,1-2.68.4,1.44,1.44,0,0,0-1.44,0,2.12,2.12,0,0,1-2.87-.93,5.57,5.57,0,0,0-6.36-3.16c-6.65,1-7.52,8.35-5.84,12.68s8.81,2.82,12.42.71C1085.11,484.6,1088.46,486.21,1090.05,487.18Z" transform="translate(0 -60.86)"/><path class="cls-47" d="M1097.81,501.43s-1.88-7.22,1-9.05,7-.78,6,4.73C1103.46,504,1097.81,501.43,1097.81,501.43Z" transform="translate(0 -60.86)"/><path class="cls-33" d="M1068.79,481.07a.23.23,0,0,1-.21-.14c-2.41-5.17,3.22-9.29,3.27-9.33a.24.24,0,0,1,.33,0,.23.23,0,0,1-.06.32s-5.37,3.95-3.12,8.77a.23.23,0,0,1-.11.3A.19.19,0,0,1,1068.79,481.07Z" transform="translate(0 -60.86)"/><path class="cls-29" d="M979.7,497.26v47.18c0,3.85-2.35,7-5.24,7H802.57c-2.4,0-4.49,2.17-5.08,5.27l-3.08,16.43c-.41,2.17-2.69,2.36-3.29.26l-4-13.88c-.78-2.7-2.72-4.49-4.89-4.49h-7.39c-2.89,0-5.23-3.11-5.23-7v-48.5c0-3.82,2.31-6.93,5.18-7l199.6-2.28C977.33,490.27,979.7,493.39,979.7,497.26Z" transform="translate(0 -60.86)"/><ellipse class="cls-48" cx="796.24" cy="460.29" rx="21.08" ry="21.64"/><path class="cls-49" d="M803.87,512.38c0,3.88-3.15,8.08-7,8.08s-7-4.2-7-8.08a7,7,0,0,1,14.07,0Z" transform="translate(0 -60.86)"/><path class="cls-49" d="M788.1,535.43h17.18a4.16,4.16,0,0,0,4-2.89l.93-2.89a4.15,4.15,0,0,0-2.51-5.17c-7-2.56-14.22-2.23-21.63.23a4.14,4.14,0,0,0-2.65,5l.71,2.63A4.16,4.16,0,0,0,788.1,535.43Z" transform="translate(0 -60.86)"/><path class="cls-49" d="M963.28,526.8a4.19,4.19,0,0,1-4.27,4.09H833.55a4.19,4.19,0,0,1-4.26-4.09h0a4.18,4.18,0,0,1,4.26-4.09H959a4.18,4.18,0,0,1,4.27,4.09Z" transform="translate(0 -60.86)"/><path class="cls-49" d="M903.87,539.91a3.72,3.72,0,0,1-3.72,3.72H834.38a3.73,3.73,0,0,1-3.72-3.72h0a3.73,3.73,0,0,1,3.72-3.72h65.77a3.72,3.72,0,0,1,3.72,3.72Z" transform="translate(0 -60.86)"/><path class="cls-49" d="M963.35,539.91a3.72,3.72,0,0,1-3.72,3.72H912.16a3.72,3.72,0,0,1-3.71-3.72h0a3.72,3.72,0,0,1,3.71-3.72h47.47a3.72,3.72,0,0,1,3.72,3.72Z" transform="translate(0 -60.86)"/><rect class="cls-48" x="828.94" y="440.45" width="73.78" height="10.87" rx="5.22"/><path class="cls-50" d="M258.51,762.86s-1.1,6.23-1.64,12.4a4.26,4.26,0,0,0,4.07,4.61c8.21.34,25.79,1,32.09.73a1.39,1.39,0,0,0,1.22-1.9h0a3.08,3.08,0,0,0-1.58-1.67l-29-13.34Z" transform="translate(0 -60.86)"/><path class="cls-51" d="M257.61,759.2l.89,7.45s5.08,2.37,8.55-.29l-2.1-8.31Z" transform="translate(0 -60.86)"/><path class="cls-15" d="M258.28,619.05c-.39,1.94-2.06,97.15,8.12,139.81a1.44,1.44,0,0,1-.85,1.68,25.3,25.3,0,0,1-8.29,1.69,2.49,2.49,0,0,1-2.47-1.79c-2.91-9.9-16.85-59.5-18.67-106.87-2-52.94,0-1.8,0-1.8l1.2-32.73Z" transform="translate(0 -60.86)"/><path class="cls-50" d="M225.12,766.11s-1.75,3.15-3.45,11.51a2.6,2.6,0,0,0,2.28,3.11c2.71.26,6.89.61,10.24.58a2.59,2.59,0,0,0,2.56-2.88,21.84,21.84,0,0,0-5.09-12Z" transform="translate(0 -60.86)"/><path class="cls-52" d="M223.58,756.52l2.07,11.28s2,1.52,6.08.42l-1-12.13Z" transform="translate(0 -60.86)"/><path class="cls-15" d="M218,622c-8.33,50.23,1.8,124.14,5.22,138.61a2.23,2.23,0,0,0,1.82,1.71,15.15,15.15,0,0,0,6.51-.25,2.09,2.09,0,0,0,1.49-1.91c.45-11.7-.37-83.5,7.38-111.88a6.48,6.48,0,0,1,2.49-3.55L258,634l1.16-17.3Z" transform="translate(0 -60.86)"/><path class="cls-10" d="M271,526.79c-24.94-.41-52.46,6.55-52.46,6.55-7.44,43.38-1.3,93.42-1.3,93.42,19.31,5.06,41.09-3.1,41.09-3.1,3.21-18.13,18.18-69.16,18.18-69.16a82.12,82.12,0,0,0,30.5-9.68c-6.31-7.31-9.28-16.61-10.57-22.11A83.37,83.37,0,0,1,271,526.79Z" transform="translate(0 -60.86)"/><path class="cls-53" d="M344.71,490.05a4.78,4.78,0,0,0-5.56-1.56c-3.67,15.51-22.91,28.08-42.68,34.22,1.29,5.5,4.26,14.8,10.57,22.11C339.85,526.37,344.71,490.05,344.71,490.05Z" transform="translate(0 -60.86)"/><path class="cls-54" d="M343.28,493.67c.25.81-2.71,2.05-4.46-1.28-.06-1.6-1-8.44-.08-9.74,5.08-6.94,14.94-15.63,14.94-15.63a2.34,2.34,0,0,1,.29,3.26l-4.78,5c1,1.8,2.22,3.33,2.79,5.51a6.71,6.71,0,0,1-.66,4.94c-.84,1.51-2,3.47-3.07,5A6.64,6.64,0,0,1,343.28,493.67Z" transform="translate(0 -60.86)"/><path class="cls-55" d="M347.1,478.5l-4.36,3.69-1.36,3.68,3.88,4.31s1.31-7.3,2.28-8.88S348,479,347.1,478.5Z" transform="translate(0 -60.86)"/><path class="cls-10" d="M228.13,557.49l-9.56-24.15s-23.3,15.83-27.13,35.9a53.08,53.08,0,0,1,19.62,5.5C214.6,566.78,228.13,557.49,228.13,557.49Z" transform="translate(0 -60.86)"/><path class="cls-56" d="M245.77,506.54l-7.94,22.95a.82.82,0,0,0,.38,1c2.16,1.2,9.95,4.65,19.35-1.3a3.89,3.89,0,0,0,1.79-2.78l2.57-19.87Z" transform="translate(0 -60.86)"/><path class="cls-57" d="M263,485.29s8.72,16.4,7.6,23-11.92,6.15-21.35.77l-6.59-17.71Z" transform="translate(0 -60.86)"/><path class="cls-11" d="M249.7,500.39a.68.68,0,0,0,.29-1,17.92,17.92,0,0,1-2.42-5.15s-1.57-1,4-2.33,13.83-3.39,15.58-8.12-2.77-16.2-9.88-7a.68.68,0,0,1-1.07,0c-1.17-1.52-4.24-4.67-8.49-2.76-4,1.79-4.44,4.71-4.38,6.18a.67.67,0,0,1-.8.69c-2-.38-6.85-.71-9.1,4.25-1.86,4.08-.65,6.39.45,7.52a.68.68,0,0,1-.29,1.12c-1.33.41-3,1.53-2.86,4.63.23,4.29,5,3.91,6.39,3.72a.64.64,0,0,1,.6.21c1.17,1.29,6.45,6.79,12.15,7.46a.69.69,0,0,0,.72-.91l-2.47-7.17a.68.68,0,0,1,.37-.85Z" transform="translate(0 -60.86)"/><path class="cls-58" d="M250.69,501.41s-6.2-4.26-6.66-.67,5.59,5.19,8.58,3.85Z" transform="translate(0 -60.86)"/><path class="cls-59" d="M191.6,569.43s-15.92,36.27,23,41.58l5.31-4.42s-19.46-10.62-8.85-31.85C211.06,574.74,199.56,565,191.6,569.43Z" transform="translate(0 -60.86)"/><path class="cls-11" d="M219.55,588.53l13.71,4.62a4.52,4.52,0,0,1,2.93,4.3l-.71,22.87c.23,3.58-2.73,6.73-5.52,5.9l-11-3.75a2.83,2.83,0,0,1-1.8-2.83l-.24-28.48C216.93,589.52,218.29,588.15,219.55,588.53Z" transform="translate(0 -60.86)"/><path class="cls-60" d="M220.22,590.61l12.19,4.1a4,4,0,0,1,2.61,3.83l-.63,20.35c.2,3.19-2.43,6-4.91,5.25l-9.78-3.33a2.52,2.52,0,0,1-1.59-2.52L217.89,593C217.88,591.49,219.09,590.27,220.22,590.61Z" transform="translate(0 -60.86)"/><path class="cls-61" d="M216,615.64a18.58,18.58,0,0,1-2.27-11.36c.66-6.28-.56-9.11,2.36-8.86s5.34.73,5,3.82S221.7,621.93,216,615.64Z" transform="translate(0 -60.86)"/><polygon class="cls-63" points="249.66 88.17 138.24 104.07 212.18 53.67 215.94 69.82 243.04 74.73 249.66 88.17 249.66 88.17"/><polygon class="cls-49" points="138.24 104.07 230.96 56.26 321.84 51.69 138.24 104.07 138.24 104.07"/><polygon class="cls-49" points="212.18 53.67 138.24 104.07 195.48 25.3 212.18 53.67 212.18 53.67"/><polygon class="cls-63" points="1075.4 160.29 1177.12 208.48 1121.42 138.44 1113.05 152.76 1085.71 149.42 1075.4 160.29 1075.4 160.29"/><polygon class="cls-49" points="1177.12 208.48 1102.72 135.35 1017.27 104.07 1177.12 208.48 1177.12 208.48"/><polygon class="cls-49" points="1121.42 138.44 1177.12 208.48 1145.78 116.29 1121.42 138.44 1121.42 138.44"/><circle class="cls-22" cx="859.22" cy="533.83" r="2.18"/><circle class="cls-64" cx="859.22" cy="533.83" r="1.11"/><path class="cls-22" d="M859.1,590.07a14.64,14.64,0,0,0-.77,2,15.07,15.07,0,0,0-.47,2.36h-.36a14.07,14.07,0,0,1,.42-2.41c.09-.33.18-.65.29-.94A7,7,0,0,1,859.1,590.07Z" transform="translate(0 -60.86)"/><path class="cls-22" d="M845.41,599.55a4.91,4.91,0,0,1-1.49-.23,6.31,6.31,0,0,1-3-2.08l.38-.32a5.85,5.85,0,0,0,2.77,1.92c1.67.51,3.11,0,5.3-.79l.79-.29c.76-.26,1.72-.55,2.83-.89,1.54-.47,3.28-1,5-1.6l.17.46c-1.68.62-3.43,1.15-5,1.62-1.1.33-2,.62-2.8.88l-.79.29A12.71,12.71,0,0,1,845.41,599.55Z" transform="translate(0 -60.86)"/><circle class="cls-64" cx="841.11" cy="536.23" r="0.64"/></g></g></g></svg>