<svg xmlns="http://www.w3.org/2000/svg" viewBox="0 0 1405.48 384.46"><defs><style>.cls-1{fill:#fff;}.cls-2{fill:#54718d;}.cls-3{fill:#e6eefa;}</style></defs><g id="Слой_2" data-name="Слой 2"><g id="Слой_1-2" data-name="Слой 1"><path class="cls-1" d="M595.1,384.46c-1.63,0-3.28,0-4.9-.07a.76.76,0,0,1-.73-.78.75.75,0,0,1,.77-.72c1.61,0,3.24.07,4.86.07h1.12a.76.76,0,0,1,.75.75.75.75,0,0,1-.74.75Zm6.12-.12a.74.74,0,0,1-.75-.72.76.76,0,0,1,.72-.78c2-.07,4-.18,6-.32a.75.75,0,0,1,.11,1.49c-2,.15-4,.26-6,.33Zm-16-.18h-.05c-2-.12-4-.28-6-.48a.75.75,0,0,1,.15-1.49c2,.19,4,.35,5.95.47a.75.75,0,0,1,0,1.5Zm26.95-.58a.75.75,0,0,1-.08-1.5c2-.2,4-.44,5.93-.72a.76.76,0,0,1,.84.64.75.75,0,0,1-.64.85c-2,.28-4,.52-6,.72Zm-37.9-.46h-.1c-2-.26-4-.56-6-.89a.75.75,0,0,1,.25-1.48c1.95.33,3.94.62,5.91.88a.75.75,0,0,1-.1,1.49Zm48.78-1a.75.75,0,0,1-.73-.63.74.74,0,0,1,.61-.86c1.95-.33,3.92-.7,5.87-1.1a.74.74,0,0,1,.88.59.74.74,0,0,1-.58.88c-2,.4-4,.78-5.92,1.11Zm-59.63-.76-.15,0c-2-.39-3.94-.83-5.88-1.29a.76.76,0,0,1-.56-.91.75.75,0,0,1,.91-.55c1.92.46,3.88.89,5.83,1.28a.76.76,0,0,1,.59.88A.77.77,0,0,1,563.43,381.34Zm70.41-1.41a.76.76,0,0,1-.73-.58.73.73,0,0,1,.56-.9c1.92-.46,3.87-.95,5.78-1.47a.75.75,0,0,1,.4,1.45c-1.93.52-3.9,1-5.84,1.48Zm-81.11-1.13-.2,0c-1.93-.53-3.88-1.11-5.78-1.71a.74.74,0,0,1-.49-.94.76.76,0,0,1,.94-.49c1.89.6,3.81,1.16,5.73,1.69a.75.75,0,0,1-.2,1.47Zm91.72-1.73a.75.75,0,0,1-.21-1.46c1.89-.58,3.8-1.19,5.68-1.83a.74.74,0,0,1,1,.47.76.76,0,0,1-.47.95c-1.89.64-3.82,1.26-5.73,1.84A.83.83,0,0,1,644.45,377.07Zm-102.22-1.54a.74.74,0,0,1-.25,0c-1.89-.66-3.79-1.37-5.65-2.1a.75.75,0,0,1-.43-1,.76.76,0,0,1,1-.43c1.84.73,3.73,1.43,5.6,2.09a.75.75,0,0,1,.46.95A.76.76,0,0,1,542.23,375.53Zm112.64-2a.77.77,0,0,1-.71-.49.75.75,0,0,1,.44-1c1.86-.69,3.73-1.43,5.56-2.18a.75.75,0,0,1,.57,1.39c-1.84.76-3.73,1.5-5.6,2.19A.63.63,0,0,1,654.87,373.56Zm-122.89-2a.8.8,0,0,1-.3-.06c-1.83-.79-3.68-1.62-5.49-2.49a.75.75,0,1,1,.64-1.35c1.8.85,3.63,1.68,5.44,2.47a.75.75,0,0,1,.4,1A.76.76,0,0,1,532,371.52ZM665,369.41a.75.75,0,0,1-.31-1.44c1.82-.81,3.64-1.65,5.42-2.52a.75.75,0,1,1,.65,1.35c-1.79.87-3.63,1.73-5.45,2.54A.7.7,0,0,1,665,369.41Zm-143-2.58a.85.85,0,0,1-.35-.08c-1.77-.92-3.56-1.88-5.31-2.86a.74.74,0,0,1-.28-1,.75.75,0,0,1,1-.29c1.73,1,3.5,1.93,5.26,2.83a.75.75,0,0,1,.32,1A.74.74,0,0,1,522,366.83Zm152.91-2.21a.73.73,0,0,1-.67-.4.75.75,0,0,1,.32-1c1.75-.92,3.52-1.88,5.24-2.86a.75.75,0,0,1,1,.29.74.74,0,0,1-.28,1c-1.74,1-3.52,1.95-5.29,2.88A.71.71,0,0,1,674.94,364.62Zm-162.53-3.15a.75.75,0,0,1-.38-.1c-1.72-1-3.44-2.11-5.11-3.21a.75.75,0,1,1,.82-1.25c1.66,1.08,3.36,2.15,5.06,3.17a.75.75,0,0,1-.39,1.39Zm172.1-2.24a.75.75,0,0,1-.64-.36.75.75,0,0,1,.25-1c1.7-1,3.39-2.1,5-3.18a.75.75,0,0,1,1,.22.74.74,0,0,1-.22,1c-1.67,1.1-3.38,2.18-5.09,3.21A.7.7,0,0,1,684.51,359.23Zm-181.33-3.74a.69.69,0,0,1-.43-.14c-1.64-1.14-3.28-2.33-4.88-3.53a.75.75,0,1,1,.9-1.2c1.59,1.19,3.21,2.37,4.84,3.5a.76.76,0,0,1,.19,1.05A.75.75,0,0,1,503.18,355.49Zm190.54-2.25a.75.75,0,0,1-.43-1.36c1.63-1.13,3.26-2.31,4.84-3.5a.75.75,0,0,1,.9,1.2c-1.6,1.2-3.24,2.39-4.88,3.53A.75.75,0,0,1,693.72,353.24Zm-199.35-4.33a.75.75,0,0,1-.47-.17c-1.57-1.25-3.13-2.54-4.64-3.84a.75.75,0,0,1-.08-1.06.74.74,0,0,1,1.05-.08c1.51,1.29,3.06,2.57,4.6,3.81a.75.75,0,0,1-.46,1.34Zm208.16-2.23a.75.75,0,0,1-.47-1.34c1.55-1.24,3.1-2.52,4.6-3.81a.76.76,0,0,1,1.06.09.74.74,0,0,1-.08,1.05c-1.52,1.3-3.08,2.6-4.64,3.84A.78.78,0,0,1,702.53,346.68ZM486,341.76a.69.69,0,0,1-.5-.2c-1.49-1.35-3-2.74-4.38-4.14a.75.75,0,0,1,1.05-1.07c1.41,1.38,2.87,2.77,4.34,4.11a.75.75,0,0,1,0,1.06A.74.74,0,0,1,486,341.76Zm224.89-2.22a.76.76,0,0,1-.56-.24.75.75,0,0,1,0-1.06c1.47-1.34,2.92-2.72,4.33-4.1a.75.75,0,1,1,1,1.07c-1.42,1.4-2.89,2.79-4.37,4.14A.73.73,0,0,1,710.89,339.54Zm-232.77-5.46a.78.78,0,0,1-.54-.23c-1.39-1.45-2.77-2.94-4.09-4.43a.75.75,0,1,1,1.11-1c1.32,1.48,2.69,2.95,4.06,4.39a.75.75,0,0,1,0,1.06A.73.73,0,0,1,478.12,334.08Zm240.63-2.21a.73.73,0,0,1-.52-.21.75.75,0,0,1,0-1.06c1.37-1.43,2.73-2.91,4-4.39a.75.75,0,0,1,1.13,1c-1.33,1.5-2.7,3-4.08,4.44A.78.78,0,0,1,718.75,331.87Zm424.09-.16h-2.57a.75.75,0,0,1-.75-.76.73.73,0,0,1,.76-.74q3,0,6,0h0a.75.75,0,0,1,0,1.5C1145.13,331.71,1144,331.71,1142.84,331.71Zm-7.56-.12h0c-2-.06-4-.15-6-.27a.75.75,0,1,1,.09-1.5c2,.12,4,.21,6,.27a.76.76,0,0,1,.73.78A.76.76,0,0,1,1135.28,331.59Zm16,0a.75.75,0,0,1,0-1.5c2-.06,4-.15,6-.27a.75.75,0,1,1,.08,1.5c-2,.11-4,.2-6,.27Zm11-.59a.75.75,0,0,1,0-1.5q2.94-.21,6-.5a.74.74,0,0,1,.81.67.75.75,0,0,1-.67.82q-3,.28-6,.51Zm-38,0h-.06c-2-.17-4-.36-6-.58a.75.75,0,1,1,.17-1.49c2,.21,4,.41,5.95.57a.75.75,0,0,1-.06,1.5Zm48.9-1a.75.75,0,0,1-.08-1.49q2.94-.33,5.94-.72a.75.75,0,0,1,.19,1.49q-3,.39-6,.72Zm-59.83-.19h-.11c-2-.28-4-.59-6-.92a.75.75,0,0,1,.25-1.48c1.94.33,3.93.64,5.91.91a.75.75,0,0,1-.1,1.49Zm70.74-1.21a.75.75,0,0,1-.11-1.49c2-.28,3.92-.59,5.92-.91a.75.75,0,1,1,.24,1.48c-2,.32-4,.63-5.94.91Zm-81.59-.6-.15,0c-2-.39-3.95-.82-5.89-1.27a.75.75,0,0,1-.55-.9.73.73,0,0,1,.9-.56c1.92.45,3.88.87,5.83,1.26a.75.75,0,0,1-.14,1.49Zm92.44-1.15a.75.75,0,0,1-.73-.62.74.74,0,0,1,.6-.87c2-.34,3.91-.71,5.89-1.09a.75.75,0,1,1,.28,1.47c-2,.39-4,.75-5.91,1.1Zm-724.19-.92a.72.72,0,0,1-.57-.27c-1.29-1.53-2.57-3.11-3.8-4.68a.76.76,0,0,1,.13-1.05.74.74,0,0,1,1.05.13c1.22,1.56,2.49,3.12,3.76,4.64a.75.75,0,0,1-.09,1.06A.78.78,0,0,1,470.77,325.89Zm621-.41a.69.69,0,0,1-.2,0c-1.94-.52-3.89-1.07-5.79-1.65a.75.75,0,0,1-.5-.94.76.76,0,0,1,.94-.5c1.88.58,3.81,1.13,5.74,1.64a.75.75,0,0,1-.19,1.48Zm114-.75a.74.74,0,0,1-.73-.6.75.75,0,0,1,.58-.88q2.91-.6,5.86-1.26a.75.75,0,0,1,.32,1.47q-3,.66-5.87,1.26Zm-479.71-1.07a.72.72,0,0,1-.47-.17.74.74,0,0,1-.1-1.05c1.26-1.53,2.51-3.1,3.71-4.67a.75.75,0,0,1,1.2.91c-1.22,1.59-2.48,3.17-3.76,4.71A.74.74,0,0,1,726.05,323.66Zm490.45-1.3a.75.75,0,0,1-.73-.58.76.76,0,0,1,.56-.9q2.89-.67,5.82-1.4a.75.75,0,1,1,.36,1.45q-2.94.74-5.84,1.41A.47.47,0,0,1,1216.5,322.36Zm-135.22-.06a1,1,0,0,1-.24,0c-1.91-.65-3.81-1.34-5.67-2.05a.75.75,0,1,1,.54-1.4c1.84.7,3.73,1.39,5.61,2a.75.75,0,0,1-.24,1.46Zm145.9-2.58a.75.75,0,0,1-.19-1.47q2.87-.75,5.79-1.55a.75.75,0,0,1,.39,1.45q-2.93.8-5.8,1.55ZM1071,318.39a.75.75,0,0,1-.29-.06c-1.85-.78-3.7-1.61-5.51-2.46a.75.75,0,1,1,.64-1.35c1.79.84,3.63,1.66,5.45,2.43a.75.75,0,0,1-.29,1.44Zm-607-1.15a.77.77,0,0,1-.61-.31c-1.18-1.62-2.35-3.28-3.47-4.93a.76.76,0,0,1,.2-1.05.74.74,0,0,1,1,.21c1.11,1.63,2.27,3.28,3.44,4.88a.75.75,0,0,1-.16,1A.73.73,0,0,1,464,317.24Zm773.81-.41a.74.74,0,0,1-.72-.54.76.76,0,0,1,.52-.93q2.85-.81,5.75-1.67a.75.75,0,0,1,.93.5.76.76,0,0,1-.51.94c-1.93.57-3.86,1.13-5.76,1.67Zm-505-1.87a.82.82,0,0,1-.44-.14.76.76,0,0,1-.17-1.05c1.15-1.61,2.28-3.27,3.36-4.92a.76.76,0,0,1,1-.22.75.75,0,0,1,.22,1c-1.09,1.67-2.24,3.34-3.4,5A.75.75,0,0,1,732.76,315ZM1061,313.74a.85.85,0,0,1-.35-.08c-1.78-.92-3.56-1.88-5.3-2.86a.77.77,0,0,1-.29-1,.75.75,0,0,1,1-.28c1.73,1,3.49,1.93,5.26,2.83a.75.75,0,0,1,.32,1A.74.74,0,0,1,1061,313.74Zm187.3,0a.75.75,0,0,1-.22-1.46q2.84-.87,5.71-1.79a.75.75,0,0,1,1,.48.77.77,0,0,1-.49.95q-2.89.92-5.73,1.79Zm10.48-3.33a.75.75,0,0,1-.23-1.46q2.82-.93,5.68-1.9a.75.75,0,1,1,.48,1.42q-2.87,1-5.7,1.91A.85.85,0,0,1,1258.82,310.38Zm-207.37-2a.77.77,0,0,1-.39-.11c-.9-.55-1.79-1.11-2.66-1.67L1046,305a.75.75,0,0,1-.2-1,.74.74,0,0,1,1-.21c.78.53,1.58,1.06,2.39,1.57s1.74,1.11,2.63,1.66a.75.75,0,0,1-.39,1.39Zm-593.66-.22a.76.76,0,0,1-.64-.35c-1.07-1.69-2.12-3.43-3.12-5.16a.74.74,0,0,1,.27-1,.75.75,0,0,1,1,.27c1,1.71,2,3.43,3.09,5.11a.74.74,0,0,1-.23,1A.77.77,0,0,1,457.79,308.14Zm811.45-1.28a.76.76,0,0,1-.71-.5.75.75,0,0,1,.46-1q2.8-1,5.65-2a.75.75,0,0,1,.51,1.41c-1.9.69-3.79,1.35-5.67,2A1,1,0,0,1,1269.24,306.86ZM738.8,305.78a.72.72,0,0,1-.39-.11.75.75,0,0,1-.25-1l.81-1.35c.74-1.26,1.47-2.54,2.17-3.82a.75.75,0,0,1,1-.29.75.75,0,0,1,.3,1c-.71,1.29-1.45,2.58-2.2,3.86l-.81,1.36A.77.77,0,0,1,738.8,305.78Zm540.79-2.63a.75.75,0,0,1-.7-.49.74.74,0,0,1,.44-1l5.62-2.09a.75.75,0,0,1,.53,1.4l-5.63,2.1A.75.75,0,0,1,1279.59,303.15Zm-237.29-.89a.73.73,0,0,1-.44-.15c-1.62-1.18-3.24-2.4-4.8-3.64a.75.75,0,1,1,.94-1.17c1.54,1.22,3.13,2.43,4.74,3.6a.75.75,0,0,1,.17,1.05A.77.77,0,0,1,1042.3,302.26Zm247.59-3a.75.75,0,0,1-.27-1.45l5.58-2.18a.74.74,0,0,1,1,.42.75.75,0,0,1-.42,1l-5.6,2.19A.8.8,0,0,1,1289.89,299.28Zm-837.65-.64a.74.74,0,0,1-.66-.39c-1-1.77-1.88-3.58-2.76-5.37a.75.75,0,0,1,.34-1,.76.76,0,0,1,1,.34c.87,1.78,1.78,3.56,2.73,5.31a.76.76,0,0,1-.31,1A.73.73,0,0,1,452.24,298.64Zm291.89-2.48a.71.71,0,0,1-.34-.08.74.74,0,0,1-.33-1c.9-1.77,1.76-3.58,2.58-5.38a.75.75,0,0,1,1-.38.76.76,0,0,1,.38,1c-.83,1.82-1.71,3.65-2.61,5.43A.74.74,0,0,1,744.13,296.16Zm289.55-.71a.78.78,0,0,1-.49-.18c-1.52-1.3-3-2.66-4.47-4a.74.74,0,0,1,0-1.06.75.75,0,0,1,1.06,0c1.43,1.35,2.92,2.69,4.42,4a.75.75,0,0,1,.08,1.06A.76.76,0,0,1,1033.68,295.45Zm266.44-.21a.76.76,0,0,1-.7-.47.74.74,0,0,1,.42-1l5.55-2.26a.75.75,0,1,1,.57,1.38q-2.81,1.15-5.56,2.27A.69.69,0,0,1,1300.12,295.24Zm10.17-4.18a.75.75,0,0,1-.29-1.44c1.83-.77,3.67-1.54,5.52-2.34a.75.75,0,0,1,1,.4.74.74,0,0,1-.39,1c-1.85.8-3.7,1.58-5.53,2.34A.72.72,0,0,1,1310.29,291.06Zm-862.92-2.28a.76.76,0,0,1-.69-.45c-.82-1.82-1.61-3.69-2.36-5.54a.75.75,0,0,1,.42-1,.74.74,0,0,1,1,.41c.74,1.84,1.53,3.69,2.34,5.5a.75.75,0,0,1-.37,1A.87.87,0,0,1,447.37,288.78Zm578.29-.82a.75.75,0,0,1-.53-.23c-1.4-1.42-2.79-2.9-4.12-4.39a.75.75,0,1,1,1.11-1c1.33,1.47,2.7,2.93,4.08,4.34a.76.76,0,0,1-.54,1.28Zm294.75-1.21a.75.75,0,0,1-.69-.46.74.74,0,0,1,.39-1l5.49-2.41a.75.75,0,0,1,1,.38.76.76,0,0,1-.39,1q-2.76,1.23-5.49,2.41A.66.66,0,0,1,1320.41,286.75Zm-571.7-.58a.71.71,0,0,1-.28-.06.74.74,0,0,1-.41-1c.75-1.82,1.48-3.69,2.16-5.56a.75.75,0,0,1,1.41.52c-.69,1.88-1.42,3.77-2.18,5.62A.77.77,0,0,1,748.71,286.17Zm581.76-3.87a.77.77,0,0,1-.69-.44.76.76,0,0,1,.38-1q2.71-1.22,5.46-2.47a.74.74,0,0,1,1,.37.73.73,0,0,1-.37,1q-2.74,1.26-5.47,2.48A.66.66,0,0,1,1330.47,282.3Zm-312.16-2.49a.74.74,0,0,1-.58-.27c-1.27-1.52-2.53-3.11-3.74-4.72a.75.75,0,1,1,1.19-.9c1.21,1.58,2.45,3.15,3.7,4.66a.76.76,0,0,1-.09,1.06A.72.72,0,0,1,1018.31,279.81Zm-575.08-1.22a.75.75,0,0,1-.71-.5c-.69-1.89-1.34-3.81-1.95-5.7a.75.75,0,0,1,1.43-.46c.6,1.88,1.25,3.78,1.93,5.65a.75.75,0,0,1-.45,1A.74.74,0,0,1,443.23,278.59Zm897.24-.86a.75.75,0,0,1-.31-1.43q2.7-1.24,5.43-2.54a.75.75,0,0,1,.64,1.36q-2.74,1.29-5.44,2.54A.71.71,0,0,1,1340.47,277.73Zm-587.94-1.87a.67.67,0,0,1-.24,0,.75.75,0,0,1-.48-.95c.62-1.87,1.21-3.79,1.75-5.7a.75.75,0,1,1,1.44.41c-.55,1.93-1.14,3.87-1.76,5.76A.76.76,0,0,1,752.53,275.86Zm597.9-2.81a.75.75,0,0,1-.33-1.43l5.41-2.59a.74.74,0,0,1,1,.34.76.76,0,0,1-.35,1l-5.41,2.6A.77.77,0,0,1,1350.43,273.05Zm-338.79-2a.72.72,0,0,1-.61-.32c-1.14-1.62-2.27-3.3-3.37-5a.75.75,0,0,1,.23-1,.74.74,0,0,1,1,.22c1.09,1.68,2.21,3.35,3.33,5a.74.74,0,0,1-.18,1A.76.76,0,0,1,1011.64,271.09Zm348.69-2.83a.75.75,0,0,1-.33-1.42l5.37-2.66a.75.75,0,1,1,.67,1.35l-5.38,2.65A.67.67,0,0,1,1360.33,268.26Zm-920.48-.14a.74.74,0,0,1-.72-.54c-.32-1.14-.63-2.28-.92-3.43-.21-.81-.41-1.61-.6-2.41a.75.75,0,0,1,.56-.9.74.74,0,0,1,.9.55c.19.8.39,1.59.59,2.39.29,1.13.59,2.26.91,3.39a.74.74,0,0,1-.52.92A.69.69,0,0,1,439.85,268.12Zm315.72-2.83a.55.55,0,0,1-.18,0,.76.76,0,0,1-.55-.91c.48-1.91.93-3.87,1.34-5.82a.74.74,0,0,1,.88-.58.74.74,0,0,1,.58.89c-.41,2-.86,3.94-1.34,5.87A.76.76,0,0,1,755.57,265.29Zm614.61-1.92a.75.75,0,0,1-.34-1.42q2.67-1.33,5.35-2.71a.75.75,0,1,1,.68,1.34l-5.35,2.71A.84.84,0,0,1,1370.18,263.37Zm-364.52-1.49a.75.75,0,0,1-.65-.37c-1-1.68-2-3.43-3-5.2a.75.75,0,0,1,1.31-.73c1,1.76,2,3.5,3,5.16a.75.75,0,0,1-.26,1A.76.76,0,0,1,1005.66,261.88Zm374.32-3.5a.75.75,0,0,1-.34-1.41l5.32-2.76a.75.75,0,1,1,.7,1.33l-5.33,2.76A.72.72,0,0,1,1380,258.38Zm-942.71-.95a.75.75,0,0,1-.73-.6c-.39-2-.75-4-1.06-5.94a.75.75,0,1,1,1.48-.23c.31,2,.66,3.93,1.05,5.87a.74.74,0,0,1-.59.88Zm320.59-2.89-.13,0a.75.75,0,0,1-.61-.86c.34-1.94.65-3.93.92-5.9a.75.75,0,0,1,.85-.64.74.74,0,0,1,.64.84c-.27,2-.59,4-.94,6A.75.75,0,0,1,757.86,254.54Zm631.88-1.23a.76.76,0,0,1-.35-1.42l5.3-2.8a.75.75,0,1,1,.7,1.32c-1.77,1-3.54,1.88-5.3,2.81A.73.73,0,0,1,1389.74,253.31Zm-389.42-1a.77.77,0,0,1-.67-.4c-.9-1.76-1.8-3.57-2.68-5.4a.75.75,0,0,1,.35-1,.74.74,0,0,1,1,.36c.87,1.81,1.77,3.61,2.67,5.35a.75.75,0,0,1-.33,1A.77.77,0,0,1,1000.32,252.29Zm399.13-4.15a.76.76,0,0,1-.66-.39.75.75,0,0,1,.31-1l5.27-2.85a.75.75,0,1,1,.72,1.32l-5.28,2.85A.8.8,0,0,1,1399.45,248.14Zm-963.91-1.57a.74.74,0,0,1-.74-.66c-.24-2-.44-4-.59-6a.75.75,0,1,1,1.49-.11c.15,2,.35,4,.59,5.94a.76.76,0,0,1-.66.83Zm323.86-2.92h-.08a.75.75,0,0,1-.67-.82c.21-2,.39-4,.53-5.95a.75.75,0,0,1,1.5.11c-.14,2-.32,4-.54,6A.75.75,0,0,1,759.4,243.65Zm236.14-1.27a.77.77,0,0,1-.69-.44c-.8-1.77-1.61-3.64-2.41-5.53a.76.76,0,0,1,.4-1,.75.75,0,0,1,1,.4c.8,1.89,1.61,3.74,2.4,5.5a.74.74,0,0,1-.37,1A.7.7,0,0,1,995.54,242.38ZM434.66,235.6a.75.75,0,0,1-.75-.72c-.07-1.91-.11-3.86-.11-5.79v-.23a.75.75,0,0,1,1.5,0v.23c0,1.91,0,3.83.11,5.73a.74.74,0,0,1-.72.78Zm325.56-2.92h0a.75.75,0,0,1-.72-.78c.08-2,.13-4,.15-6a.74.74,0,0,1,.75-.75.76.76,0,0,1,.75.76c0,2-.07,4-.15,6A.75.75,0,0,1,760.22,232.68Zm231-.44a.74.74,0,0,1-.7-.47q-1.11-2.78-2.18-5.6a.73.73,0,0,1,.43-1,.75.75,0,0,1,1,.43c.71,1.87,1.43,3.73,2.18,5.57a.76.76,0,0,1-.42,1A.69.69,0,0,1,991.23,232.24Zm-556.59-7.63h0a.76.76,0,0,1-.72-.78c.07-2,.19-4,.35-6a.74.74,0,0,1,.8-.69.76.76,0,0,1,.69.81c-.15,2-.27,4-.34,6A.75.75,0,0,1,434.64,224.61ZM987.3,222a.75.75,0,0,1-.7-.49c-.69-1.88-1.36-3.76-2-5.66a.75.75,0,0,1,1.42-.49q1,2.82,2,5.63a.76.76,0,0,1-.45,1A.78.78,0,0,1,987.3,222Zm-227-.28a.75.75,0,0,1-.75-.74c0-2-.11-4-.22-6a.75.75,0,0,1,1.5-.08c.11,2,.18,4,.22,6a.75.75,0,0,1-.74.77Zm-324.88-8h-.09a.74.74,0,0,1-.66-.83c.22-2,.49-4,.79-6a.75.75,0,1,1,1.48.22c-.3,2-.56,4-.78,5.92A.75.75,0,0,1,435.46,213.65Zm548.19-2.05a.74.74,0,0,1-.71-.51c-.65-1.89-1.29-3.78-1.92-5.69a.75.75,0,1,1,1.42-.47q.94,2.85,1.92,5.68a.75.75,0,0,1-.47.95A.67.67,0,0,1,983.65,211.6Zm-223.86-.9a.74.74,0,0,1-.74-.69c-.16-2-.35-4-.57-5.94a.74.74,0,0,1,.66-.83.75.75,0,0,1,.83.66c.22,2,.41,4,.57,6a.74.74,0,0,1-.69.81Zm-322.72-7.93h-.13a.77.77,0,0,1-.61-.88c.37-2,.77-3.94,1.21-5.9a.75.75,0,0,1,1.47.33c-.44,1.94-.84,3.9-1.2,5.85A.75.75,0,0,1,437.07,202.77Zm543.09-1.6a.74.74,0,0,1-.71-.52c-.63-1.89-1.25-3.8-1.87-5.7a.75.75,0,1,1,1.43-.47l1.86,5.7a.75.75,0,0,1-.48.95A.85.85,0,0,1,980.16,201.17Zm-221.56-1.4a.74.74,0,0,1-.74-.64c-.27-2-.58-3.95-.91-5.91a.75.75,0,0,1,1.48-.25c.33,2,.64,4,.92,5.95a.76.76,0,0,1-.64.85ZM439.44,192a.55.55,0,0,1-.18,0,.73.73,0,0,1-.54-.91c.49-1.93,1-3.88,1.59-5.81a.75.75,0,1,1,1.44.42c-.56,1.92-1.09,3.85-1.58,5.76A.75.75,0,0,1,439.44,192Zm537.3-1.32a.75.75,0,0,1-.71-.52q-.93-2.83-1.86-5.7a.75.75,0,1,1,1.42-.47q.95,2.86,1.87,5.71a.75.75,0,0,1-.48.94A.67.67,0,0,1,976.74,190.71Zm-220-1.78a.76.76,0,0,1-.74-.61c-.38-1.95-.8-3.91-1.24-5.84a.75.75,0,1,1,1.47-.33c.44,1.94.86,3.92,1.25,5.89a.76.76,0,0,1-.6.88Zm-314.28-7.46a.66.66,0,0,1-.23,0,.74.74,0,0,1-.48-.94c.61-1.89,1.27-3.81,2-5.7a.75.75,0,1,1,1.41.51c-.68,1.87-1.33,3.77-1.94,5.65A.76.76,0,0,1,442.51,181.47Zm530.8-1.21a.75.75,0,0,1-.71-.51q-.95-2.83-1.91-5.69a.75.75,0,1,1,1.42-.48q1,2.85,1.91,5.69a.75.75,0,0,1-.47.95A.67.67,0,0,1,973.31,180.26Zm-881.64-.57a.76.76,0,0,1-.55-1.27q2-2.11,4.16-4.34a.75.75,0,0,1,1.06,0,.75.75,0,0,1,0,1.06c-1.42,1.47-2.8,2.92-4.14,4.33A.71.71,0,0,1,91.67,179.69Zm662.7-1.48a.75.75,0,0,1-.72-.57c-.49-1.93-1-3.87-1.56-5.77a.75.75,0,0,1,.51-.93.76.76,0,0,1,.93.52c.55,1.91,1.08,3.87,1.57,5.81a.75.75,0,0,1-.54.91A.63.63,0,0,1,754.37,178.21ZM99.31,171.77a.76.76,0,0,1-.54-1.28q2.07-2.1,4.24-4.26a.75.75,0,0,1,1.06,1.06q-2.17,2.16-4.23,4.25A.75.75,0,0,1,99.31,171.77Zm346.91-.65a.86.86,0,0,1-.27-.05.76.76,0,0,1-.42-1c.72-1.84,1.49-3.71,2.28-5.57a.75.75,0,0,1,1.38.59c-.79,1.84-1.55,3.7-2.27,5.53A.74.74,0,0,1,446.22,171.12Zm523.55-1.28a.75.75,0,0,1-.71-.5q-1-2.82-2-5.65a.75.75,0,1,1,1.41-.5q1,2.82,2,5.66a.74.74,0,0,1-.46,1A.73.73,0,0,1,969.77,169.84Zm-218.4-2.21a.76.76,0,0,1-.72-.52c-.59-1.89-1.22-3.8-1.87-5.68a.75.75,0,1,1,1.41-.49c.66,1.89,1.3,3.81,1.9,5.72a.76.76,0,0,1-.5.94A.83.83,0,0,1,751.37,167.63ZM107.1,164a.78.78,0,0,1-.54-.23.75.75,0,0,1,0-1.06c1.4-1.37,2.85-2.76,4.32-4.17a.75.75,0,0,1,1.06,0,.75.75,0,0,1,0,1.06c-1.47,1.41-2.91,2.79-4.32,4.17A.73.73,0,0,1,107.1,164Zm343.43-3a.71.71,0,0,1-.32-.07.75.75,0,0,1-.37-1c.83-1.81,1.7-3.64,2.59-5.44a.75.75,0,0,1,1.34.66c-.88,1.79-1.74,3.61-2.56,5.4A.75.75,0,0,1,450.53,161ZM966,159.5a.75.75,0,0,1-.7-.49c-.69-1.87-1.4-3.73-2.13-5.6a.75.75,0,1,1,1.4-.54q1.1,2.81,2.14,5.61a.77.77,0,0,1-.44,1A.86.86,0,0,1,966,159.5Zm-218.25-2.27a.76.76,0,0,1-.71-.48c-.7-1.86-1.43-3.74-2.19-5.56a.76.76,0,0,1,.41-1,.75.75,0,0,1,1,.41c.76,1.84,1.5,3.72,2.21,5.6a.76.76,0,0,1-.44,1A.82.82,0,0,1,747.79,157.23Zm-632.74-.84a.78.78,0,0,1-.55-.23.75.75,0,0,1,0-1.06c1.44-1.35,2.91-2.72,4.4-4.09a.75.75,0,0,1,1.06.05.76.76,0,0,1,0,1.06c-1.5,1.37-3,2.72-4.4,4.07A.72.72,0,0,1,115.05,156.39Zm340.31-5.28A.73.73,0,0,1,455,151a.75.75,0,0,1-.32-1c.92-1.76,1.88-3.55,2.85-5.3a.75.75,0,0,1,1.32.72c-1,1.75-1.92,3.52-2.84,5.27A.74.74,0,0,1,455.36,151.11Zm506.7-1.86a.76.76,0,0,1-.7-.47q-1.11-2.78-2.3-5.53a.75.75,0,0,1,1.38-.59q1.18,2.78,2.31,5.55a.74.74,0,0,1-.41,1A.71.71,0,0,1,962.06,149.25ZM123.15,149a.71.71,0,0,1-.55-.25.75.75,0,0,1,.05-1.06q2.2-2,4.49-4a.76.76,0,0,1,1.06.07.75.75,0,0,1-.07,1.06q-2.28,2-4.47,4A.77.77,0,0,1,123.15,149Zm620.47-1.9a.73.73,0,0,1-.68-.44c-.81-1.83-1.65-3.65-2.51-5.43a.75.75,0,1,1,1.35-.65c.87,1.79,1.71,3.63,2.53,5.47a.76.76,0,0,1-.38,1A.85.85,0,0,1,743.62,147.05Zm-612.21-5.37a.75.75,0,0,1-.49-1.32q2.25-1.94,4.57-3.9a.76.76,0,0,1,1.06.09.75.75,0,0,1-.09,1.06c-1.55,1.3-3.06,2.6-4.56,3.89A.76.76,0,0,1,131.41,141.68Zm329.26-.21a.69.69,0,0,1-.37-.1.76.76,0,0,1-.28-1c1-1.73,2.05-3.46,3.1-5.16a.75.75,0,0,1,1-.25.74.74,0,0,1,.25,1c-1,1.69-2.08,3.42-3.08,5.14A.75.75,0,0,1,460.67,141.47Zm497.08-2.34a.77.77,0,0,1-.69-.44q-1.21-2.73-2.5-5.44a.74.74,0,0,1,.35-1,.75.75,0,0,1,1,.35c.87,1.82,1.7,3.64,2.52,5.46a.75.75,0,0,1-.38,1A.66.66,0,0,1,957.75,139.13Zm-218.87-2a.76.76,0,0,1-.67-.41c-.91-1.77-1.86-3.54-2.82-5.26a.75.75,0,0,1,.29-1,.74.74,0,0,1,1,.28c1,1.74,1.93,3.53,2.85,5.31a.75.75,0,0,1-.33,1A.69.69,0,0,1,738.88,137.13Zm-599.06-2.55a.75.75,0,0,1-.48-1.33q2.29-1.89,4.65-3.8a.76.76,0,0,1,1.06.11.75.75,0,0,1-.12,1.06q-2.34,1.9-4.64,3.79A.78.78,0,0,1,139.82,134.58Zm326.6-2.49a.72.72,0,0,1-.4-.12.76.76,0,0,1-.23-1c1.07-1.66,2.19-3.35,3.32-5a.75.75,0,0,1,1-.21.76.76,0,0,1,.2,1c-1.12,1.66-2.23,3.34-3.29,5A.76.76,0,0,1,466.42,132.09Zm486.63-2.9a.73.73,0,0,1-.67-.42c-.89-1.79-1.81-3.58-2.73-5.31a.75.75,0,1,1,1.32-.71c.93,1.75,1.85,3.55,2.75,5.35a.75.75,0,0,1-.34,1A.76.76,0,0,1,953.05,129.19Zm-804.68-1.53a.77.77,0,0,1-.59-.28.76.76,0,0,1,.12-1.06q2.34-1.84,4.74-3.7a.75.75,0,1,1,.91,1.19q-2.38,1.84-4.72,3.69A.72.72,0,0,1,148.37,127.66Zm585.17-.15a.75.75,0,0,1-.64-.36c-.24-.41-.49-.82-.74-1.22q-1.18-2-2.41-3.86a.73.73,0,0,1,.22-1,.75.75,0,0,1,1,.22c.82,1.28,1.64,2.58,2.44,3.89l.74,1.23a.75.75,0,0,1-.26,1A.68.68,0,0,1,733.54,127.51Zm-261-4.55a.76.76,0,0,1-.43-.14.74.74,0,0,1-.18-1q1.76-2.49,3.52-4.89a.75.75,0,0,1,1.21.89c-1.18,1.59-2.34,3.21-3.5,4.86A.75.75,0,0,1,472.57,123Zm-315.5-2a.77.77,0,0,1-.6-.3.75.75,0,0,1,.14-1c1.59-1.2,3.19-2.4,4.82-3.6a.74.74,0,0,1,1,.16.76.76,0,0,1-.16,1c-1.62,1.19-3.22,2.39-4.8,3.58A.71.71,0,0,1,157.07,120.93Zm790.85-1.47a.72.72,0,0,1-.65-.38c-1-1.74-2-3.48-3-5.18a.74.74,0,0,1,.26-1,.76.76,0,0,1,1,.26c1,1.71,2,3.47,3,5.22a.75.75,0,0,1-.29,1A.81.81,0,0,1,947.92,119.46Zm-220.32-1.2a.74.74,0,0,1-.61-.32c-1.12-1.62-2.29-3.25-3.47-4.84a.75.75,0,0,1,.15-1,.74.74,0,0,1,1.05.16c1.19,1.6,2.37,3.24,3.5,4.88a.74.74,0,0,1-.62,1.17Zm-561.69-3.88a.77.77,0,0,1-.61-.31.75.75,0,0,1,.17-1c1.61-1.16,3.24-2.33,4.89-3.49a.75.75,0,0,1,.86,1.22c-1.64,1.16-3.27,2.33-4.87,3.49A.79.79,0,0,1,165.91,114.38Zm313.17-.3a.74.74,0,0,1-.45-.15.75.75,0,0,1-.14-1.05c1.23-1.62,2.47-3.2,3.7-4.75a.75.75,0,0,1,1.17.93q-1.83,2.31-3.68,4.73A.76.76,0,0,1,479.08,114.08ZM942.33,110a.76.76,0,0,1-.64-.35c-1.05-1.69-2.14-3.38-3.24-5a.76.76,0,0,1,.21-1,.75.75,0,0,1,1,.21c1.1,1.65,2.2,3.35,3.27,5a.76.76,0,0,1-.24,1A.83.83,0,0,1,942.33,110Zm-221.24-.55a.75.75,0,0,1-.59-.29c-1.22-1.55-2.49-3.1-3.78-4.61a.77.77,0,0,1,.09-1.06.75.75,0,0,1,1.06.09c1.29,1.52,2.57,3.09,3.81,4.65a.75.75,0,0,1-.13,1A.73.73,0,0,1,721.09,109.45ZM174.89,108a.76.76,0,0,1-.62-.33.75.75,0,0,1,.19-1c1.64-1.13,3.29-2.26,5-3.39a.75.75,0,1,1,.83,1.25c-1.66,1.12-3.31,2.25-4.94,3.37A.76.76,0,0,1,174.89,108Zm311-2.57a.78.78,0,0,1-.48-.17.75.75,0,0,1-.1-1.06q1.95-2.37,3.87-4.61a.75.75,0,0,1,1.14,1c-1.27,1.48-2.56,3-3.85,4.58A.77.77,0,0,1,485.93,105.46ZM184,101.87a.74.74,0,0,1-.63-.34.76.76,0,0,1,.21-1c1.67-1.09,3.34-2.18,5-3.27a.75.75,0,0,1,1,.22.76.76,0,0,1-.23,1c-1.69,1.09-3.36,2.17-5,3.27A.78.78,0,0,1,184,101.87Zm530-.82a.75.75,0,0,1-.55-.25c-1.32-1.47-2.69-2.94-4.07-4.38a.75.75,0,0,1,0-1.06.75.75,0,0,1,1.06,0c1.4,1.45,2.78,2.94,4.1,4.42a.75.75,0,0,1-.06,1.06A.73.73,0,0,1,714,101.05Zm222.24-.21a.75.75,0,0,1-.61-.32c-1.14-1.62-2.32-3.25-3.51-4.83a.75.75,0,0,1,1.2-.9c1.19,1.59,2.38,3.23,3.54,4.87a.76.76,0,0,1-.19,1A.75.75,0,0,1,936.25,100.84ZM493.08,97.08a.77.77,0,0,1-.5-.18.75.75,0,0,1-.06-1.06c1.36-1.55,2.71-3,4-4.48a.75.75,0,0,1,1.1,1c-1.31,1.43-2.65,2.92-4,4.45A.73.73,0,0,1,493.08,97.08ZM193.26,95.92a.77.77,0,0,1-.64-.35.76.76,0,0,1,.24-1c1.68-1.06,3.39-2.11,5.11-3.16a.74.74,0,0,1,1,.25.76.76,0,0,1-.25,1c-1.72,1-3.41,2.1-5.09,3.15A.77.77,0,0,1,193.26,95.92Zm513.16-2.83a.77.77,0,0,1-.53-.21c-1.41-1.39-2.86-2.78-4.33-4.13a.76.76,0,0,1,0-1.06.75.75,0,0,1,1.06,0c1.47,1.36,2.94,2.76,4.36,4.16a.75.75,0,0,1,0,1.06A.73.73,0,0,1,706.42,93.09ZM929.69,92a.77.77,0,0,1-.59-.28c-1.23-1.56-2.5-3.12-3.77-4.63a.75.75,0,0,1,1.15-1c1.28,1.53,2.56,3.1,3.8,4.67a.75.75,0,0,1-.13,1.05A.72.72,0,0,1,929.69,92ZM202.64,90.17a.75.75,0,0,1-.39-1.39q2.56-1.53,5.18-3a.75.75,0,1,1,.75,1.29q-2.6,1.52-5.16,3A.75.75,0,0,1,202.64,90.17ZM500.52,89A.74.74,0,0,1,500,87.7c1.43-1.52,2.83-3,4.18-4.33a.75.75,0,0,1,1.07,1c-1.35,1.37-2.74,2.8-4.17,4.31A.7.7,0,0,1,500.52,89ZM698.35,85.6a.75.75,0,0,1-.5-.19c-1.49-1.3-3-2.61-4.56-3.87a.76.76,0,0,1-.11-1.06.75.75,0,0,1,1.06-.1c1.55,1.27,3.1,2.59,4.6,3.9a.76.76,0,0,1,.07,1.06A.74.74,0,0,1,698.35,85.6Zm-486.21-1a.75.75,0,0,1-.37-1.4q2.61-1.48,5.25-2.94a.76.76,0,0,1,1,.3.75.75,0,0,1-.3,1q-2.64,1.45-5.23,2.92A.69.69,0,0,1,212.14,84.64Zm710.5-1a.78.78,0,0,1-.56-.25c-1.31-1.49-2.66-3-4-4.42a.75.75,0,1,1,1.09-1c1.37,1.45,2.73,3,4.05,4.44a.75.75,0,0,1-.06,1.06A.73.73,0,0,1,922.64,83.6Zm-414.4-2.5a.73.73,0,0,1-.53-.22.75.75,0,0,1,0-1.06c1.53-1.5,3-2.9,4.34-4.18a.75.75,0,0,1,1,1.09c-1.35,1.28-2.79,2.66-4.31,4.16A.77.77,0,0,1,508.24,81.1ZM221.77,79.32a.75.75,0,0,1-.35-1.41q2.63-1.41,5.31-2.81a.75.75,0,0,1,.69,1.33q-2.67,1.39-5.29,2.8A.77.77,0,0,1,221.77,79.32Zm468.08-.75a.72.72,0,0,1-.46-.16c-1.56-1.22-3.16-2.43-4.77-3.61a.75.75,0,1,1,.89-1.21c1.62,1.19,3.23,2.41,4.8,3.64a.74.74,0,0,1,.13,1A.75.75,0,0,1,689.85,78.57Zm225.29-3a.75.75,0,0,1-.54-.22c-1.39-1.4-2.82-2.81-4.26-4.18a.75.75,0,0,1,0-1.06.75.75,0,0,1,1.06,0c1.45,1.38,2.89,2.8,4.29,4.22a.75.75,0,0,1,0,1.06A.73.73,0,0,1,915.14,75.57ZM231.52,74.22a.76.76,0,0,1-.67-.41.74.74,0,0,1,.33-1c1.78-.91,3.57-1.8,5.38-2.69a.74.74,0,0,1,1,.34.75.75,0,0,1-.34,1q-2.7,1.33-5.36,2.68A.68.68,0,0,1,231.52,74.22Zm284.72-.7a.75.75,0,0,1-.5-1.3c1.51-1.38,3-2.73,4.5-4a.76.76,0,0,1,1.06.07.75.75,0,0,1-.08,1.06c-1.46,1.28-3,2.62-4.47,4A.73.73,0,0,1,516.24,73.52ZM681,72a.75.75,0,0,1-.43-.13c-1.62-1.14-3.29-2.27-5-3.36a.75.75,0,1,1,.83-1.25c1.67,1.1,3.34,2.24,5,3.38A.75.75,0,0,1,681,72ZM241.38,69.35a.73.73,0,0,1-.67-.42.75.75,0,0,1,.35-1c1.8-.87,3.61-1.72,5.43-2.57a.75.75,0,0,1,.64,1.36q-2.73,1.27-5.42,2.56A.78.78,0,0,1,241.38,69.35ZM907.2,68a.73.73,0,0,1-.5-.19c-1.46-1.32-3-2.65-4.48-4a.75.75,0,0,1,1-1.14c1.53,1.31,3,2.65,4.52,4a.76.76,0,0,1,0,1.06A.76.76,0,0,1,907.2,68Zm-382.66-1.7a.75.75,0,0,1-.48-1.32c1.52-1.28,3.09-2.56,4.66-3.8a.75.75,0,1,1,.94,1.17c-1.57,1.24-3.13,2.51-4.64,3.78A.78.78,0,0,1,524.54,66.27ZM671.84,66a.8.8,0,0,1-.4-.11c-1.67-1-3.39-2.1-5.11-3.12a.75.75,0,0,1,.77-1.29c1.73,1,3.46,2.08,5.14,3.13a.76.76,0,0,1,.23,1A.73.73,0,0,1,671.84,66ZM251.36,64.71a.77.77,0,0,1-.69-.44.75.75,0,0,1,.38-1q2.72-1.24,5.49-2.44a.75.75,0,0,1,1,.38.76.76,0,0,1-.39,1c-1.84.8-3.66,1.61-5.48,2.43A.66.66,0,0,1,251.36,64.71Zm647.51-3.9a.78.78,0,0,1-.47-.17c-1.53-1.25-3.1-2.5-4.68-3.72a.75.75,0,1,1,.92-1.18c1.59,1.22,3.17,2.48,4.71,3.74a.75.75,0,0,1-.48,1.33Zm-236.48-.47a.69.69,0,0,1-.37-.1c-1.71-1-3.48-1.93-5.25-2.87a.75.75,0,1,1,.71-1.32c1.77.94,3.55,1.91,5.27,2.89a.74.74,0,0,1,.29,1A.76.76,0,0,1,662.39,60.34Zm-401,0a.75.75,0,0,1-.29-1.44q2.76-1.17,5.55-2.31a.73.73,0,0,1,1,.41.75.75,0,0,1-.41,1c-1.85.76-3.69,1.52-5.52,2.3A.8.8,0,0,1,261.43,60.3Zm271.71-.88a.74.74,0,0,1-.6-.3.75.75,0,0,1,.14-1c1.59-1.2,3.21-2.41,4.83-3.58a.75.75,0,1,1,.88,1.22c-1.61,1.16-3.22,2.36-4.8,3.56A.78.78,0,0,1,533.14,59.42Zm-261.53-3.3a.76.76,0,0,1-.7-.47.75.75,0,0,1,.42-1c1.86-.74,3.72-1.47,5.6-2.18a.75.75,0,0,1,1,.43.75.75,0,0,1-.43,1c-1.88.71-3.74,1.44-5.58,2.17A.72.72,0,0,1,271.61,56.12Zm381.08-1a.81.81,0,0,1-.34-.08c-1.77-.9-3.57-1.79-5.37-2.65a.75.75,0,1,1,.65-1.35c1.8.86,3.62,1.76,5.4,2.66a.76.76,0,0,1,.33,1A.76.76,0,0,1,652.69,55.16Zm237.5-1.09a.76.76,0,0,1-.45-.15c-1.59-1.17-3.23-2.34-4.86-3.48a.76.76,0,0,1-.19-1,.74.74,0,0,1,1-.18c1.65,1.14,3.3,2.32,4.9,3.51a.74.74,0,0,1,.16,1.05A.77.77,0,0,1,890.19,54.07ZM542,53a.75.75,0,0,1-.42-1.36c1.63-1.13,3.31-2.27,5-3.37a.75.75,0,0,1,.82,1.26c-1.66,1.09-3.33,2.22-4.95,3.34A.75.75,0,0,1,542,53Zm-260.15-.77a.74.74,0,0,1-.7-.49.75.75,0,0,1,.44-1q2.81-1,5.65-2a.76.76,0,0,1,1,.46.75.75,0,0,1-.46,1q-2.83,1-5.63,2A.8.8,0,0,1,281.88,52.19Zm360.89-1.8a.85.85,0,0,1-.31-.06c-1.81-.83-3.63-1.63-5.47-2.42a.75.75,0,0,1,.59-1.38q2.77,1.19,5.5,2.43a.75.75,0,0,1-.31,1.43Zm-350.53-1.9A.75.75,0,0,1,292,47c1.88-.65,3.78-1.28,5.69-1.91a.75.75,0,1,1,.47,1.42c-1.9.63-3.8,1.26-5.68,1.91A.67.67,0,0,1,292.24,48.49Zm588.93-.74a.81.81,0,0,1-.42-.12c-1.64-1.1-3.33-2.19-5-3.26a.75.75,0,0,1-.24-1,.76.76,0,0,1,1-.24c1.7,1.08,3.4,2.18,5.05,3.28a.74.74,0,0,1,.21,1A.73.73,0,0,1,881.17,47.75Zm-330-.85a.73.73,0,0,1-.63-.35.74.74,0,0,1,.23-1c1.68-1.06,3.4-2.12,5.12-3.15a.75.75,0,1,1,.77,1.29c-1.7,1-3.42,2.07-5.09,3.13A.71.71,0,0,1,551.2,46.9ZM632.67,46a.71.71,0,0,1-.28-.06q-2.76-1.12-5.56-2.21a.75.75,0,0,1-.43-1,.75.75,0,0,1,1-.43c1.87.73,3.74,1.47,5.59,2.22a.75.75,0,0,1-.29,1.45Zm-330-1a.76.76,0,0,1-.71-.52.75.75,0,0,1,.49-1c1.9-.6,3.81-1.2,5.73-1.78a.75.75,0,1,1,.44,1.43L302.91,45A.59.59,0,0,1,302.68,45Zm319.74-3a.75.75,0,0,1-.26,0c-1.87-.69-3.75-1.35-5.64-2a.75.75,0,0,1-.47-.95.77.77,0,0,1,1-.47q2.85,1,5.67,2a.75.75,0,0,1,.44,1A.74.74,0,0,1,622.42,42.06Zm249.44-.19a.76.76,0,0,1-.38-.11c-1.7-1-3.44-2-5.18-3a.75.75,0,0,1,.75-1.31c1.74,1,3.49,2,5.2,3a.75.75,0,0,1,.25,1A.73.73,0,0,1,871.86,41.87Zm-558.66,0a.75.75,0,0,1-.21-1.47c1.92-.57,3.84-1.12,5.78-1.67a.75.75,0,0,1,.4,1.45q-2.9.81-5.76,1.66Zm247.42-.58a.76.76,0,0,1-.65-.38.74.74,0,0,1,.27-1c1.74-1,3.5-2,5.25-2.94a.75.75,0,1,1,.72,1.32c-1.74,1-3.5,1.93-5.22,2.92A.86.86,0,0,1,560.62,41.24ZM323.79,38.82a.77.77,0,0,1-.73-.55.76.76,0,0,1,.53-.92c1.93-.52,3.86-1,5.81-1.54a.74.74,0,0,1,.91.53.75.75,0,0,1-.53.92Q326.87,38,324,38.8ZM612,38.46a.66.66,0,0,1-.23,0q-2.84-.93-5.7-1.81a.75.75,0,1,1,.44-1.43q2.88.89,5.73,1.82a.75.75,0,0,1,.48.94A.76.76,0,0,1,612,38.46ZM862.3,36.4a.74.74,0,0,1-.36-.09c-1.75-.94-3.53-1.88-5.3-2.79a.75.75,0,0,1-.33-1,.76.76,0,0,1,1-.33c1.78.92,3.58,1.86,5.33,2.81a.75.75,0,0,1-.35,1.41Zm-527.87-.35a.75.75,0,0,1-.18-1.48c1.94-.48,3.88-1,5.83-1.42a.75.75,0,0,1,.9.55.76.76,0,0,1-.56.91c-1.94.46-3.88.93-5.8,1.41ZM570.26,36a.75.75,0,0,1-.67-.4.75.75,0,0,1,.32-1c1.78-.93,3.56-1.83,5.36-2.72a.76.76,0,0,1,1,.34.75.75,0,0,1-.34,1q-2.69,1.34-5.34,2.71A.68.68,0,0,1,570.26,36Zm31.26-.75-.21,0q-2.88-.84-5.77-1.63a.75.75,0,0,1,.4-1.45q2.91.8,5.79,1.64a.75.75,0,0,1-.21,1.47ZM345.1,33.49a.75.75,0,0,1-.16-1.48l5.85-1.31a.75.75,0,0,1,.32,1.47c-1.95.42-3.9.86-5.84,1.3A.47.47,0,0,1,345.1,33.49Zm245.81-1.2-.19,0c-1.93-.5-3.86-1-5.81-1.45a.76.76,0,0,1-.55-.91.75.75,0,0,1,.9-.55c2,.47,3.9,1,5.84,1.46a.75.75,0,0,1-.19,1.47Zm261.59-.93a.78.78,0,0,1-.33-.07c-1.78-.87-3.6-1.74-5.41-2.57a.75.75,0,1,1,.62-1.36c1.82.84,3.66,1.7,5.45,2.58a.75.75,0,0,1-.33,1.42Zm-496.67-.22a.75.75,0,0,1-.15-1.48q2.93-.61,5.87-1.2a.75.75,0,0,1,.88.59.76.76,0,0,1-.59.89q-2.94.57-5.86,1.19Zm224.27-.06a.76.76,0,0,1-.68-.43.77.77,0,0,1,.36-1l.06,0Q577,29,574.2,28.39a.75.75,0,0,1,.31-1.46q3,.62,5.88,1.28a.75.75,0,0,1,.56.89q2.14-1,4.3-2a.75.75,0,0,1,1,.37.78.78,0,0,1-.38,1c-1.82.81-3.64,1.64-5.44,2.49A.71.71,0,0,1,580.1,31.08ZM366.6,29a.75.75,0,0,1-.14-1.49q2.94-.56,5.9-1.08a.75.75,0,0,1,.87.6.77.77,0,0,1-.61.88q-3,.53-5.88,1.08Zm202.86-1.59-.14,0q-2.94-.59-5.89-1.12a.75.75,0,0,1,.27-1.48q3,.54,5.91,1.13a.75.75,0,0,1-.15,1.49Zm-192-.35a.75.75,0,0,1-.13-1.49c2-.33,3.94-.66,5.92-1a.75.75,0,1,1,.24,1.48c-2,.31-3.94.64-5.91,1Zm465.09-.32a.8.8,0,0,1-.3-.06q-2.75-1.2-5.52-2.35a.75.75,0,0,1,.58-1.38c1.86.76,3.7,1.55,5.54,2.35a.76.76,0,0,1,.39,1A.75.75,0,0,1,842.5,26.74Zm-252.37-.16a.75.75,0,0,1-.29-1.44q2.76-1.17,5.55-2.29a.74.74,0,0,1,1,.41.75.75,0,0,1-.41,1q-2.78,1.11-5.53,2.28A.58.58,0,0,1,590.13,26.58Zm-31.49-1.17h-.12q-3-.51-5.92-1a.76.76,0,0,1-.62-.86.74.74,0,0,1,.86-.62q3,.47,5.93,1a.75.75,0,0,1-.13,1.49Zm-170.39-.09a.76.76,0,0,1-.74-.64.75.75,0,0,1,.63-.85l5.94-.87a.75.75,0,1,1,.21,1.49c-2,.28-4,.56-5.92.86Zm10.88-1.54a.75.75,0,0,1-.09-1.49q3-.41,5.95-.76a.75.75,0,1,1,.18,1.49q-3,.36-5.94.75Zm148.65-.09h-.11c-2-.28-3.95-.56-5.94-.82a.75.75,0,0,1,.2-1.49c2,.27,4,.54,6,.83a.75.75,0,0,1-.1,1.49Zm284.54-1.16a.66.66,0,0,1-.27-.06q-2.79-1.08-5.61-2.12a.74.74,0,0,1-.44-1,.75.75,0,0,1,1-.45q2.84,1.05,5.63,2.14a.75.75,0,0,1,.43,1A.77.77,0,0,1,832.32,22.53Zm-232-.06a.75.75,0,0,1-.27-1.45q2.81-1.07,5.64-2.09a.75.75,0,0,1,1,.46.74.74,0,0,1-.46.95q-2.81,1-5.6,2.08A.65.65,0,0,1,600.32,22.47ZM410,22.44a.75.75,0,0,1-.08-1.5c2-.22,4-.44,6-.64a.74.74,0,0,1,.82.66.75.75,0,0,1-.67.83c-2,.2-4,.42-5.95.64Zm126.83-.2h-.09q-3-.36-5.95-.68a.75.75,0,0,1,.16-1.5q3,.33,6,.69a.75.75,0,0,1-.09,1.49ZM421,21.3a.75.75,0,0,1-.07-1.5q3-.29,6-.54a.75.75,0,1,1,.12,1.5l-6,.53Zm105-.25h-.08q-3-.3-6-.54A.75.75,0,1,1,520,19q3,.25,6,.54a.75.75,0,0,1-.07,1.5Zm-94-.69a.75.75,0,0,1-.05-1.5q3-.22,6-.42a.74.74,0,0,1,.8.69.76.76,0,0,1-.7.8c-2,.13-4,.28-6,.43Zm83-.25h-.05q-3-.22-6-.41a.75.75,0,1,1,.1-1.5c2,.13,4,.26,6,.41a.75.75,0,0,1-.06,1.5Zm-72.06-.49a.75.75,0,0,1,0-1.49c2-.12,4-.22,6-.32a.76.76,0,0,1,.78.72.75.75,0,0,1-.71.78c-2,.09-4,.2-6,.31Zm61-.21h0q-3-.16-6-.28a.75.75,0,0,1-.72-.78.78.78,0,0,1,.78-.72c2,.08,4,.18,6,.28a.76.76,0,0,1,.71.79A.75.75,0,0,1,504,19.41ZM453.9,19.1a.75.75,0,0,1,0-1.5q3-.12,6-.2a.75.75,0,0,1,0,1.5q-3,.08-6,.2Zm39-.15h0q-3-.11-6-.16a.76.76,0,0,1-.74-.77.74.74,0,0,1,.77-.73q3,.06,6,.16a.75.75,0,0,1,0,1.5Zm-28-.17a.75.75,0,0,1,0-1.5l6-.09a.73.73,0,0,1,.76.75.75.75,0,0,1-.74.75q-3,0-6,.09Zm145.76,0a.75.75,0,0,1-.25-1.46c1.9-.65,3.8-1.27,5.71-1.88a.74.74,0,0,1,.94.48.75.75,0,0,1-.48.95c-1.9.6-3.8,1.23-5.68,1.87A.67.67,0,0,1,610.66,18.74Zm211.32,0a.67.67,0,0,1-.24,0c-1.89-.65-3.78-1.29-5.68-1.9a.75.75,0,1,1,.46-1.43c1.91.62,3.82,1.26,5.71,1.92a.75.75,0,0,1-.25,1.45Zm-340.07,0h0c-2,0-4,0-6,0a.75.75,0,0,1,0-1.5h0c2,0,4,0,6,0a.74.74,0,0,1,.74.76A.75.75,0,0,1,481.91,18.71Zm139.21-3.33a.75.75,0,0,1-.22-1.47q2.88-.86,5.78-1.68a.74.74,0,0,1,.92.52.76.76,0,0,1-.52.93c-1.92.54-3.83,1.09-5.74,1.67A.83.83,0,0,1,621.12,15.38Zm190.39-.08a.83.83,0,0,1-.22,0c-1.91-.58-3.82-1.15-5.75-1.69a.75.75,0,1,1,.41-1.45c1.94.55,3.86,1.12,5.78,1.7a.75.75,0,0,1-.22,1.47ZM631.7,12.39a.75.75,0,0,1-.19-1.47c1.93-.51,3.88-1,5.82-1.48a.75.75,0,1,1,.36,1.46q-2.91.7-5.8,1.47A.62.62,0,0,1,631.7,12.39Zm169.22-.11a.69.69,0,0,1-.2,0c-1.92-.51-3.86-1-5.8-1.48a.74.74,0,0,1-.55-.91.75.75,0,0,1,.9-.55c2,.48,3.9,1,5.84,1.49a.75.75,0,0,1-.19,1.48ZM642.37,9.77a.75.75,0,0,1-.16-1.48q2.92-.66,5.87-1.28a.76.76,0,0,1,.89.59.75.75,0,0,1-.58.88c-2,.41-3.91.83-5.85,1.28Zm147.85-.13-.16,0Q787.14,9,784.2,8.34a.75.75,0,1,1,.31-1.46c2,.41,3.92.83,5.88,1.28a.75.75,0,0,1-.17,1.48ZM653.13,7.52A.75.75,0,0,1,653,6q3-.57,5.92-1.08a.75.75,0,0,1,.25,1.48q-2.94.51-5.88,1.07Zm126.31-.14h-.14q-2.94-.57-5.89-1.08a.75.75,0,0,1-.62-.86.76.76,0,0,1,.87-.62c2,.35,4,.71,5.92,1.08a.75.75,0,0,1-.14,1.49ZM664,5.62a.74.74,0,0,1-.74-.63.75.75,0,0,1,.62-.86q3-.46,5.95-.88a.75.75,0,1,1,.2,1.48c-2,.28-4,.57-5.92.88Zm104.62-.13h-.11q-3-.47-5.93-.87a.75.75,0,0,1,.2-1.49q3,.42,6,.88a.75.75,0,0,1-.12,1.49Zm-93.73-1.4a.75.75,0,0,1-.1-1.5q3-.36,6-.69a.75.75,0,0,1,.16,1.5q-3,.31-5.95.68ZM757.69,4h-.09c-2-.25-4-.47-6-.68a.75.75,0,0,1-.67-.82.76.76,0,0,1,.83-.67c2,.21,4,.43,6,.68a.74.74,0,0,1,.65.83A.75.75,0,0,1,757.69,4Zm-71.9-1.06a.75.75,0,0,1-.07-1.5c2-.18,4-.35,6-.49a.75.75,0,0,1,.11,1.49q-3,.22-6,.49Zm61-.09h-.07q-3-.25-6-.47a.76.76,0,0,1-.7-.8.75.75,0,0,1,.81-.7q3,.21,6,.48a.75.75,0,0,1-.06,1.5Zm-50-.74a.75.75,0,0,1-.75-.7.77.77,0,0,1,.71-.8q3-.16,6-.3a.75.75,0,1,1,.06,1.5q-3,.14-6,.3Zm39-.06h0c-2-.11-4-.2-6-.28A.76.76,0,0,1,729,1a.76.76,0,0,1,.78-.72c2,.08,4,.17,6,.28a.76.76,0,0,1,.71.79A.76.76,0,0,1,735.76,2Zm-28-.41A.74.74,0,0,1,707,.88a.76.76,0,0,1,.73-.77c2,0,4-.08,6-.1a.74.74,0,0,1,.76.74.76.76,0,0,1-.75.76c-2,0-4,.05-6,.1Zm17,0h0q-3-.07-6-.09A.75.75,0,0,1,718,.75a.78.78,0,0,1,.75-.75c2,0,4,0,6,.09a.75.75,0,0,1,0,1.5Z"/><polygon class="cls-2" points="136.71 188 0 256.85 73.43 159.8 85.29 178.99 122.34 173.56 136.71 188 136.71 188"/><polygon class="cls-3" points="0 256.85 98.76 154.99 213.9 109.66 0 256.85 0 256.85"/><polygon class="cls-3" points="73.43 159.8 0 256.85 39.59 130.49 73.43 159.8 73.43 159.8"/></g></g></svg>