<svg xmlns="http://www.w3.org/2000/svg" viewBox="0 0 871.02 601.55"><defs><style>.cls-1{fill:#fbfbfb;}.cls-2{fill:#5dbdb0;}.cls-3{fill:#455a64;}.cls-11,.cls-4{fill:#fff;}.cls-5{fill:#37474f;}.cls-6{fill:#263239;}.cls-7{opacity:0.2;}.cls-11,.cls-8{opacity:0.3;}.cls-9{opacity:0.5;}.cls-10{opacity:0.6;}.cls-12{fill:#e0e0e0;}.cls-13,.cls-18{opacity:0.1;}.cls-14{fill:#f28f8f;}.cls-15{opacity:0.4;}.cls-16{fill:#ebebeb;}.cls-17{fill:#f4a6a7;}.cls-19{fill:#36474f;}.cls-20{fill:#3d7b76;}</style></defs><g id="Слой_2" data-name="Слой 2"><g id="Слой_1-2" data-name="Слой 1"><path class="cls-1" d="M117.94,539.94c157.25,82.15,412.2,82.15,569.44,0s157.25-215.33,0-297.48-412.2-82.15-569.44,0S-39.31,457.79,117.94,539.94Z"/><polygon class="cls-2" points="105.9 122.61 205.01 91.8 128.77 144.62 105.9 122.61"/><polygon class="cls-2" points="205.01 91.8 98.28 109.41 75.41 87.4 205.01 91.8"/><polygon class="cls-3" points="98.28 109.41 98.28 135.82 105.9 122.61 205.01 91.8 98.28 109.41"/><polygon class="cls-2" points="98.28 135.82 113.52 129.95 105.9 122.61 98.28 135.82"/><polygon class="cls-3" points="105.9 122.61 113.52 129.95 111.09 130.88 105.9 122.61"/><path class="cls-4" d="M84.16,129.93a.77.77,0,0,1-.67-.4.76.76,0,0,1,.32-1c.92-.48,1.82-.93,2.71-1.35a.75.75,0,0,1,.65,1.35c-.88.42-1.77.86-2.67,1.33A.68.68,0,0,1,84.16,129.93Z"/><path class="cls-4" d="M70.18,286.36a.75.75,0,0,1-.38-.1c-1.78-1-3.54-2.15-5.22-3.31a.75.75,0,1,1,.86-1.23c1.64,1.13,3.36,2.23,5.11,3.24a.75.75,0,0,1,.28,1A.74.74,0,0,1,70.18,286.36Zm-9.26-6.31a.74.74,0,0,1-.47-.16c-1.6-1.28-3.18-2.64-4.67-4.05a.75.75,0,0,1,0-1.06.75.75,0,0,1,1.06,0c1.46,1.38,3,2.71,4.58,4a.75.75,0,0,1-.47,1.34Zm-8.21-7.63a.75.75,0,0,1-.55-.24c-1.39-1.5-2.74-3.08-4-4.7a.75.75,0,1,1,1.18-.93c1.24,1.59,2.56,3.14,3.92,4.62a.76.76,0,0,1,0,1.06A.77.77,0,0,1,52.71,272.42Zm-7-8.77a.75.75,0,0,1-.62-.33c-1.15-1.69-2.24-3.45-3.26-5.25a.75.75,0,0,1,1.3-.74c1,1.76,2.08,3.49,3.2,5.15a.75.75,0,0,1-.2,1A.83.83,0,0,1,45.75,263.65Zm-5.6-9.71a.77.77,0,0,1-.68-.42c-.88-1.83-1.72-3.73-2.48-5.65a.75.75,0,1,1,1.39-.55c.75,1.88,1.57,3.75,2.44,5.54a.75.75,0,0,1-.34,1A.67.67,0,0,1,40.15,253.94ZM36,243.55a.74.74,0,0,1-.71-.52c-.64-1.93-1.22-3.92-1.73-5.92a.75.75,0,0,1,1.46-.37c.5,2,1.07,3.93,1.69,5.82a.75.75,0,0,1-.48.95A.59.59,0,0,1,36,243.55ZM33.12,232.7a.75.75,0,0,1-.73-.61c-.39-2-.72-4.05-1-6.09a.75.75,0,0,1,1.49-.19c.26,2,.59,4,1,6a.76.76,0,0,1-.59.88Zm-1.49-11.11a.75.75,0,0,1-.75-.7c-.15-2-.24-4.1-.27-6.16a.75.75,0,0,1,1.5,0c0,2,.12,4.07.27,6.07a.75.75,0,0,1-.69.8Zm-.21-11.21h0a.75.75,0,0,1-.72-.78c.07-2,.21-4.12.41-6.15a.75.75,0,0,1,1.49.15c-.19,2-.33,4-.4,6.05A.76.76,0,0,1,31.42,210.38Zm1-11.17h-.11a.74.74,0,0,1-.63-.85c.3-2,.68-4.07,1.12-6.06a.74.74,0,0,1,.89-.57.75.75,0,0,1,.57.89c-.43,2-.8,4-1.1,6A.75.75,0,0,1,32.45,199.21Zm2.35-11a.71.71,0,0,1-.2,0,.76.76,0,0,1-.52-.93c.56-2,1.2-4,1.9-5.87a.75.75,0,1,1,1.41.51c-.69,1.89-1.31,3.83-1.86,5.77A.76.76,0,0,1,34.8,188.25Zm3.76-10.55a.66.66,0,0,1-.3-.07.75.75,0,0,1-.39-1c.81-1.88,1.69-3.75,2.64-5.58a.75.75,0,0,1,1.33.69c-.93,1.8-1.8,3.64-2.59,5.48A.75.75,0,0,1,38.56,177.7Zm5.08-10a.76.76,0,0,1-.38-.11.75.75,0,0,1-.26-1c1-1.75,2.15-3.5,3.31-5.2a.76.76,0,0,1,1-.19.75.75,0,0,1,.19,1c-1.14,1.67-2.24,3.39-3.26,5.12A.77.77,0,0,1,43.64,167.71Zm6.29-9.29a.79.79,0,0,1-.46-.15.74.74,0,0,1-.13-1.05c1.24-1.62,2.56-3.22,3.91-4.77a.75.75,0,0,1,1.13,1c-1.33,1.52-2.63,3.1-3.86,4.69A.74.74,0,0,1,49.93,158.42ZM57.27,150a.7.7,0,0,1-.52-.22.75.75,0,0,1,0-1.06c1.42-1.46,2.91-2.9,4.42-4.29a.75.75,0,0,1,1.06.05.76.76,0,0,1,0,1.06c-1.5,1.36-3,2.79-4.36,4.23A.76.76,0,0,1,57.27,150Zm8.24-7.62A.75.75,0,0,1,65,141c1.57-1.31,3.2-2.59,4.85-3.8a.74.74,0,0,1,1.05.16.75.75,0,0,1-.16,1c-1.62,1.19-3.23,2.45-4.79,3.74A.72.72,0,0,1,65.51,142.33Zm9-6.7a.73.73,0,0,1-.62-.33.75.75,0,0,1,.21-1c1.71-1.14,3.47-2.24,5.23-3.27a.76.76,0,0,1,1,.27.75.75,0,0,1-.27,1c-1.73,1-3.46,2.09-5.15,3.22A.79.79,0,0,1,74.5,135.63Z"/><path class="cls-4" d="M77.44,290.08a.81.81,0,0,1-.31-.06c-.93-.42-1.84-.85-2.74-1.3a.75.75,0,1,1,.67-1.34c.88.43,1.77.86,2.69,1.27a.75.75,0,0,1,.37,1A.74.74,0,0,1,77.44,290.08Z"/><polygon class="cls-2" points="719.39 222.64 798.77 171.8 833.75 183.03 719.39 222.64"/><polygon class="cls-2" points="719.39 222.64 788 165.42 772.76 147.82 719.39 222.64"/><polygon class="cls-3" points="788 165.42 788 178.7 719.39 222.64 788 165.42"/><path class="cls-4" d="M799.44,163.38a.73.73,0,0,1-.7-.48.75.75,0,0,1,.43-1q2.34-.88,4.65-1.8a.76.76,0,0,1,1,.43.75.75,0,0,1-.43,1q-2.32.91-4.67,1.8A.75.75,0,0,1,799.44,163.38Zm9.3-3.64a.75.75,0,0,1-.69-.47.75.75,0,0,1,.41-1c1.87-.74,3.72-1.5,5.55-2.26a.75.75,0,1,1,.58,1.38q-2.76,1.16-5.57,2.28A.87.87,0,0,1,808.74,159.74Zm10.17-4.22a.75.75,0,0,1-.3-1.43q2.79-1.2,5.49-2.41a.75.75,0,1,1,.61,1.37q-2.72,1.22-5.5,2.41A.8.8,0,0,1,818.91,155.52ZM829,151a.75.75,0,0,1-.32-1.43q2.76-1.28,5.4-2.58a.76.76,0,0,1,1,.34.74.74,0,0,1-.35,1c-1.77.88-3.58,1.74-5.42,2.6A.74.74,0,0,1,829,151Zm9.88-4.84a.76.76,0,0,1-.67-.41.75.75,0,0,1,.32-1c1.83-1,3.61-1.9,5.27-2.83a.74.74,0,0,1,1,.29.76.76,0,0,1-.29,1c-1.68.93-3.46,1.89-5.31,2.85A.72.72,0,0,1,838.84,146.19Zm9.61-5.36a.75.75,0,0,1-.38-1.39c1.78-1.07,3.47-2.15,5-3.19a.75.75,0,1,1,.84,1.24c-1.58,1.06-3.3,2.15-5.1,3.24A.76.76,0,0,1,848.45,140.83Zm9.15-6.11a.74.74,0,0,1-.6-.3.75.75,0,0,1,.15-1,58.35,58.35,0,0,0,4.56-3.78.75.75,0,0,1,1.06,0,.76.76,0,0,1,0,1.06c-1.38,1.26-3,2.57-4.68,3.87A.74.74,0,0,1,857.6,134.72Zm8.09-7.42a.72.72,0,0,1-.48-.17.75.75,0,0,1-.09-1.06,22,22,0,0,0,3.18-4.82.75.75,0,0,1,1-.36.73.73,0,0,1,.36,1,23.77,23.77,0,0,1-3.39,5.16A.78.78,0,0,1,865.69,127.3Zm4.56-9.77h0a.75.75,0,0,1-.71-.79c0-.17,0-.35,0-.52a9.24,9.24,0,0,0-.06-1,10,10,0,0,0-1.21-3.74.74.74,0,0,1,.3-1,.75.75,0,0,1,1,.29A11.47,11.47,0,0,1,871,115a10,10,0,0,1,.07,1.22c0,.2,0,.4,0,.6A.75.75,0,0,1,870.25,117.53ZM865.9,108a.77.77,0,0,1-.52-.21,28.93,28.93,0,0,0-4.6-3.51.75.75,0,0,1,.8-1.27,30.2,30.2,0,0,1,4.84,3.7.75.75,0,0,1-.52,1.29Zm-9.08-6a.81.81,0,0,1-.34-.08c-1.64-.81-3.47-1.62-5.43-2.4a.76.76,0,0,1-.42-1,.75.75,0,0,1,1-.41c2,.79,3.86,1.62,5.54,2.45a.75.75,0,0,1-.33,1.42Zm-10.19-4.17a.67.67,0,0,1-.24,0c-1.79-.61-3.7-1.23-5.69-1.82a.75.75,0,1,1,.43-1.44c2,.6,3.94,1.22,5.75,1.84a.75.75,0,0,1,.46,1A.73.73,0,0,1,846.63,97.82Zm-10.54-3.2a.63.63,0,0,1-.19,0c-1.85-.5-3.8-1-5.81-1.48a.75.75,0,0,1,.35-1.46c2,.49,4,1,5.85,1.49a.75.75,0,0,1-.2,1.48ZM825.39,92l-.16,0c-1.92-.43-3.87-.85-5.87-1.26a.75.75,0,0,1,.3-1.47q3,.61,5.89,1.26a.75.75,0,0,1-.16,1.49ZM814.6,89.76l-.14,0c-1.94-.37-3.91-.74-5.9-1.09a.77.77,0,0,1-.61-.88.76.76,0,0,1,.87-.6c2,.36,4,.73,5.92,1.1a.75.75,0,0,1-.14,1.49Zm-10.84-2h-.13l-5.92-1a.75.75,0,0,1,.24-1.48q3,.48,5.93,1a.75.75,0,0,1-.12,1.49ZM792.88,86h-.11l-5.94-.9a.75.75,0,1,1,.22-1.48q3,.44,6,.9a.73.73,0,0,1,.62.85A.74.74,0,0,1,792.88,86ZM782,84.41h-.1c-2-.29-4-.56-6-.84a.75.75,0,0,1,.2-1.48l6,.83a.75.75,0,0,1-.11,1.49Zm-10.91-1.5H771l-6-.79a.75.75,0,0,1,.2-1.48l6,.78a.75.75,0,0,1-.1,1.5Zm-10.92-1.43h-.1l-6-.75a.75.75,0,0,1,.19-1.49l6,.75a.75.75,0,0,1-.09,1.5ZM749.2,80.1h-.1l-6-.73a.75.75,0,0,1-.65-.84.74.74,0,0,1,.83-.65l6,.74a.74.74,0,0,1,.65.83A.75.75,0,0,1,749.2,80.1Zm-10.93-1.35h-.09l-6-.74a.75.75,0,0,1-.66-.83.77.77,0,0,1,.84-.66l6,.74a.74.74,0,0,1,.66.83A.76.76,0,0,1,738.27,78.75ZM727.34,77.4h-.09l-6-.74a.75.75,0,1,1,.19-1.49l6,.74a.75.75,0,0,1,.65.84A.74.74,0,0,1,727.34,77.4ZM716.41,76h-.1l-6-.77a.75.75,0,1,1,.19-1.49l6,.77a.75.75,0,0,1-.09,1.5Zm-10.93-1.43h-.1l-6-.81a.75.75,0,0,1,.21-1.49l6,.81a.75.75,0,0,1-.1,1.49ZM694.56,73.1h-.1l-6-.88a.75.75,0,0,1,.23-1.49c1.94.3,3.93.59,5.94.88a.75.75,0,0,1-.11,1.49Zm-10.89-1.65h-.12q-3-.48-5.94-1a.75.75,0,1,1,.25-1.47c1.93.33,3.91.66,5.92,1a.76.76,0,0,1,.63.86A.75.75,0,0,1,683.67,71.45ZM672.8,69.58h-.14c-2-.38-4-.76-5.91-1.16a.75.75,0,0,1-.59-.88.76.76,0,0,1,.89-.59c1.9.4,3.86.78,5.89,1.16a.75.75,0,0,1-.14,1.48ZM662,67.37l-.17,0c-2.07-.47-4-1-5.87-1.45a.75.75,0,0,1-.53-.92.76.76,0,0,1,.92-.53c1.81.48,3.76,1,5.82,1.44a.74.74,0,0,1,.56.89A.76.76,0,0,1,662,67.37Zm-10.66-2.84-.23,0c-2.11-.67-4-1.36-5.72-2a.76.76,0,0,1-.41-1,.75.75,0,0,1,1-.41c1.64.68,3.53,1.36,5.6,2a.75.75,0,0,1-.22,1.46Zm-10.16-4.21a.76.76,0,0,1-.38-.11,13.62,13.62,0,0,1-4.67-4.06.75.75,0,0,1,1.26-.82,12.47,12.47,0,0,0,4.17,3.59.75.75,0,0,1,.27,1A.77.77,0,0,1,641.18,60.32ZM636,51.92a.41.41,0,0,1-.16,0,.74.74,0,0,1-.58-.89,12.57,12.57,0,0,1,2.73-5.5.75.75,0,1,1,1.14,1,11.08,11.08,0,0,0-2.4,4.85A.76.76,0,0,1,636,51.92Zm6.27-8.38a.75.75,0,0,1-.41-1.38,30.64,30.64,0,0,1,5.47-2.72.75.75,0,0,1,.54,1.4,28.52,28.52,0,0,0-5.19,2.58A.78.78,0,0,1,642.31,43.54Zm10.08-4.19a.75.75,0,0,1-.19-1.47c1.8-.49,3.79-.94,5.91-1.34a.75.75,0,1,1,.28,1.47c-2.08.4-4,.84-5.8,1.32Zm10.8-2.13a.75.75,0,0,1-.1-1.49c1.86-.27,3.88-.51,6-.73a.75.75,0,1,1,.15,1.49c-2.1.22-4.1.46-5.94.72Zm11-1.18a.75.75,0,0,1-.06-1.5q2.94-.23,6-.41a.74.74,0,0,1,.79.7.75.75,0,0,1-.7.8c-2,.12-4,.25-6,.41Zm11-.68a.75.75,0,0,1,0-1.5l6-.25a.75.75,0,0,1,.05,1.5l-6,.25Zm11-.42a.75.75,0,0,1,0-1.5c2-.07,4-.12,6-.18a.74.74,0,0,1,.77.73.76.76,0,0,1-.73.77c-2,.05-4,.11-6,.18Zm11-.33a.74.74,0,0,1-.75-.72.76.76,0,0,1,.73-.78l6-.17a.73.73,0,0,1,.77.72.76.76,0,0,1-.73.78l-6,.17Zm11-.34a.75.75,0,0,1,0-1.5c2-.07,4-.15,6-.24a.75.75,0,0,1,.07,1.5q-3,.13-6,.24Zm11-.48a.75.75,0,0,1,0-1.5q3-.15,6-.35a.75.75,0,0,1,.1,1.5q-3,.2-6,.35Zm11-.72a.75.75,0,0,1-.06-1.5c2-.17,4-.35,6-.55a.75.75,0,0,1,.16,1.49c-2,.2-4,.39-6,.55Zm11-1.13a.75.75,0,0,1-.09-1.5c2-.26,4-.55,5.92-.85a.75.75,0,0,1,.24,1.48c-1.9.31-3.91.6-6,.86ZM762,30.19a.75.75,0,0,1-.14-1.48c2-.41,4-.85,5.82-1.32a.75.75,0,0,1,.37,1.45c-1.86.48-3.84.93-5.9,1.34Zm10.68-2.7a.75.75,0,0,1-.23-1.46c2-.63,3.85-1.32,5.57-2a.75.75,0,1,1,.58,1.38c-1.76.74-3.68,1.44-5.7,2.09A.83.83,0,0,1,772.72,27.49Zm10.14-4.21a.75.75,0,0,1-.66-.4.74.74,0,0,1,.3-1,36.87,36.87,0,0,0,4.92-3.18.75.75,0,0,1,.91,1.19,38.11,38.11,0,0,1-5.11,3.31A.8.8,0,0,1,782.86,23.28Zm8.68-6.59a.73.73,0,0,1-.51-.2.76.76,0,0,1,0-1.06,22.92,22.92,0,0,0,3.34-4.66.75.75,0,0,1,1.32.72,25.08,25.08,0,0,1-3.55,5A.75.75,0,0,1,791.54,16.69Zm5.3-9.37a.75.75,0,0,1-.72-1,25,25,0,0,0,1-5.65.75.75,0,1,1,1.5.08,26.78,26.78,0,0,1-1,6A.74.74,0,0,1,796.84,7.32Z"/><path class="cls-5" d="M691.71,250.08v-3H691a11.75,11.75,0,0,0-4.86-4.78c-7.47-4.31-19.58-4.31-27.05,0a11.75,11.75,0,0,0-4.86,4.78h-.74V250c-.06,2.87,1.8,5.76,5.6,8,7.47,4.31,19.58,4.31,27.05,0C689.87,255.76,691.73,252.92,691.71,250.08Z"/><ellipse class="cls-3" cx="672.58" cy="247.08" rx="19.13" ry="11.05"/><path class="cls-5" d="M667.66,155v90.74a2.46,2.46,0,0,0,1.44,2,7.71,7.71,0,0,0,7,0,2.46,2.46,0,0,0,1.44-2V155Z"/><path class="cls-3" d="M694.64,87.11c-4.79-2.77-9.14-3-12.41-1.16v0l-60.77,35.16L652,182.25l61-35.28V120.19C712.94,107.75,704.74,92.94,694.64,87.11Z"/><path class="cls-5" d="M652,155.47v26.77l-36.59-21.13V134.34c0-12.43,8.18-17.79,18.28-12,6.47,3.73,12.17,11.16,15.41,19.27A37.76,37.76,0,0,1,652,155.47Z"/><path class="cls-6" d="M652,155.47v26.77l-36.59-21.13,33.69-19.45A37.76,37.76,0,0,1,652,155.47Z"/><path class="cls-3" d="M645.85,164.64c-3.37-9.72-14.29-22.34-24.4-28.17s-15.56-2.68-12.2,7l6.1,17.61L652,182.25S649.21,174.36,645.85,164.64Z"/><path class="cls-6" d="M671,156.47l-2-1.18h0a2.76,2.76,0,0,0-2.73.28,8.58,8.58,0,0,0-3.89,6.73,2.74,2.74,0,0,0,1.14,2.51h0l1.91,1.09.34-.57a4,4,0,0,0,1.12-.43,8.6,8.6,0,0,0,3.88-6.73,4.26,4.26,0,0,0-.12-1Z"/><path class="cls-5" d="M668.18,156.7a8.55,8.55,0,0,0-3.89,6.72c0,2.48,1.74,3.48,3.89,2.24a8.59,8.59,0,0,0,3.88-6.72C672.06,156.46,670.32,155.46,668.18,156.7Z"/><path class="cls-6" d="M668.18,161.72a.6.6,0,0,1-.6-.6V122.39a.6.6,0,0,1,1.2,0v38.73A.6.6,0,0,1,668.18,161.72Z"/><polygon class="cls-5" points="669.18 123.41 669.18 133.5 680.01 122.39 669.18 123.41"/><path class="cls-2" d="M99.84,458.34c-.93.5-18.16,5.39-24.54-3s4.21-21.56-1.78-26.41-22.76,0-26.79-10.17,7.93-14.57,1.2-24.83c-4.24-6.47-16.1-10.05-15.56-16.07.8-8.8,17-11.18,31.16-1.74s20.75,1.7,25.24,1.07,14.18.76,13.87,16.53S99.84,458.34,99.84,458.34Z"/><path class="cls-4" d="M101,435.47a.49.49,0,0,1-.49-.42c-5-30.11-39.94-54.61-58.12-59.86a.5.5,0,0,1-.34-.62.49.49,0,0,1,.62-.34c18.4,5.31,53.79,30.13,58.82,60.66a.49.49,0,0,1-.41.57Z"/><path class="cls-4" d="M60,410.42a.51.51,0,0,1-.43-.25.5.5,0,0,1,.18-.68c.13-.08,13.78-8.06,26.79-4.45a.5.5,0,0,1-.26,1c-12.6-3.5-25.89,4.27-26,4.35A.48.48,0,0,1,60,410.42Z"/><path class="cls-2" d="M590.47,299.77c7.39,1,20-3.27,20.89-15.58s6-15.66,15.33-17.66,12.06-5.25,13.09-11.11-6-12.86-4-21.67,8.63-8.8,15.16-18.8c4.2-6.42-4.38-16.2-18.66-12s-13.09,13.42-27.43,14.6-23.23,9.86-23.5,20.61S590.47,299.77,590.47,299.77Z"/><path class="cls-7" d="M590.47,299.77c7.39,1,20-3.27,20.89-15.58s6-15.66,15.33-17.66,12.06-5.25,13.09-11.11-6-12.86-4-21.67,8.63-8.8,15.16-18.8c4.2-6.42-4.38-16.2-18.66-12s-13.09,13.42-27.43,14.6-23.23,9.86-23.5,20.61S590.47,299.77,590.47,299.77Z"/><path class="cls-4" d="M587.77,275.71h-.1a.48.48,0,0,1-.39-.58c6.87-34,44.34-65.08,53.48-68.25a.5.5,0,0,1,.63.31.49.49,0,0,1-.3.63c-9,3.14-46,33.89-52.83,67.5A.5.5,0,0,1,587.77,275.71Z"/><path class="cls-2" d="M92,264.06a10.79,10.79,0,0,1,4.87-8.45l249.45-144a10.8,10.8,0,0,1,9.75,0l5.5,3.17a10.81,10.81,0,0,1,4.88,8.45V314.42a10.8,10.8,0,0,1-4.88,8.44l-249.45,144a10.8,10.8,0,0,1-9.75,0l-5.5-3.17A10.82,10.82,0,0,1,92,455.27Z"/><path class="cls-8" d="M92,264.06a10.79,10.79,0,0,1,4.87-8.45l249.45-144a10.8,10.8,0,0,1,9.75,0l5.5,3.17a10.81,10.81,0,0,1,4.88,8.45V314.42a10.8,10.8,0,0,1-4.88,8.44l-249.45,144a10.8,10.8,0,0,1-9.75,0l-5.5-3.17A10.82,10.82,0,0,1,92,455.27Z"/><path class="cls-2" d="M114.82,271.64,93.38,259.26a9.92,9.92,0,0,0-1.42,4.8V455.27a10.82,10.82,0,0,0,4.87,8.44l5.5,3.17a10.8,10.8,0,0,0,9.75,0l2.74-1.58Z"/><path class="cls-9" d="M114.82,271.64,93.38,259.26a9.92,9.92,0,0,0-1.42,4.8V455.27a10.82,10.82,0,0,0,4.87,8.44l5.5,3.17a10.8,10.8,0,0,0,9.75,0l2.74-1.58Z"/><path class="cls-2" d="M366.41,123.22V314.43a9.94,9.94,0,0,1-1.52,4.93,10.38,10.38,0,0,1-2.85,3.19l-.19.11a2.2,2.2,0,0,1-.32.21l-249.44,144,0,0a3.47,3.47,0,0,1-3.32.37,3.36,3.36,0,0,1-1.52-3.21V272.85a4.23,4.23,0,0,1,5.48-4.31l104.89,24.94,13.74,3.27a9.07,9.07,0,0,0,8.77-3.29L256,271.3,363.13,122.15C364.93,119.63,366.41,120.1,366.41,123.22Z"/><path class="cls-7" d="M366.41,123.22V314.43a9.94,9.94,0,0,1-1.52,4.93,10.38,10.38,0,0,1-2.85,3.19l-.19.11a2.2,2.2,0,0,1-.32.21l-249.44,144,0,0a3.47,3.47,0,0,1-3.32.37,3.36,3.36,0,0,1-1.52-3.21V272.85a4.23,4.23,0,0,1,5.48-4.31l104.89,24.94,13.74,3.27a9.07,9.07,0,0,0,8.77-3.29L256,271.3,363.13,122.15C364.93,119.63,366.41,120.1,366.41,123.22Z"/><path class="cls-2" d="M361.53,322.87a2.2,2.2,0,0,0,.32-.21l.19-.11a10.38,10.38,0,0,0,2.85-3.19,9.94,9.94,0,0,0,1.52-4.85L256,271.3l73.93,69.81Z"/><path class="cls-10" d="M361.53,322.87a2.2,2.2,0,0,0,.32-.21l.19-.11a10.38,10.38,0,0,0,2.85-3.19,9.94,9.94,0,0,0,1.52-4.85L256,271.3l73.93,69.81Z"/><path class="cls-2" d="M107.21,464.06a3.36,3.36,0,0,0,1.52,3.21,3.47,3.47,0,0,0,3.32-.37l0,0L198,417.3l19.61-123.82L107.21,460.89Z"/><path class="cls-10" d="M107.21,464.06a3.36,3.36,0,0,0,1.52,3.21,3.47,3.47,0,0,0,3.32-.37l0,0L198,417.3l19.61-123.82L107.21,460.89Z"/><path class="cls-2" d="M364.89,319.36a10.38,10.38,0,0,1-2.85,3.19l-.19.11L112.09,466.88l0,0a3.47,3.47,0,0,1-3.32.37L228.18,276.58a18.77,18.77,0,0,1,23.48-7.21Z"/><path class="cls-7" d="M364.89,319.36a10.38,10.38,0,0,1-2.85,3.19l-.19.11L112.09,466.88l0,0a3.47,3.47,0,0,1-3.32.37L228.18,276.58a18.77,18.77,0,0,1,23.48-7.21Z"/><path class="cls-2" d="M107.21,267.23l114.72,50.65a18.78,18.78,0,0,0,23.5-7.22L365.9,117.87Z"/><path class="cls-10" d="M107.21,267.23l114.72,50.65a18.78,18.78,0,0,0,23.5-7.22L365.9,117.87Z"/><path class="cls-2" d="M107.21,267.23l115.53,43.16A18.77,18.77,0,0,0,245,303.07L365.9,117.87Z"/><path class="cls-7" d="M107.21,267.23l115.53,43.16A18.77,18.77,0,0,0,245,303.07L365.9,117.87Z"/><path class="cls-3" d="M134.57,287.6a10.79,10.79,0,0,1,4.87-8.45l249.45-144a10.8,10.8,0,0,1,9.75,0l5.5,3.18a10.77,10.77,0,0,1,4.88,8.44V338a10.83,10.83,0,0,1-4.88,8.45l-249.45,144a10.87,10.87,0,0,1-9.75,0l-5.5-3.18a10.8,10.8,0,0,1-4.87-8.44Z"/><path class="cls-3" d="M134.57,287.6a10.79,10.79,0,0,1,4.87-8.45l249.45-144a10.8,10.8,0,0,1,9.75,0l5.5,3.18a10.77,10.77,0,0,1,4.88,8.44V338a10.83,10.83,0,0,1-4.88,8.45l-249.45,144a10.87,10.87,0,0,1-9.75,0l-5.5-3.18a10.8,10.8,0,0,1-4.87-8.44Z"/><path class="cls-6" d="M157.43,295.18,136,282.8a10,10,0,0,0-1.42,4.8V478.81a10.8,10.8,0,0,0,4.87,8.44l5.5,3.17a10.83,10.83,0,0,0,9.75,0l2.74-1.59Z"/><path class="cls-5" d="M409,146.76V338a9.94,9.94,0,0,1-1.52,4.93,10.38,10.38,0,0,1-2.85,3.19l-.19.12a2.14,2.14,0,0,1-.32.2l-249.44,144,0,0a3.47,3.47,0,0,1-3.32.37,3.36,3.36,0,0,1-1.52-3.21V296.4a4.24,4.24,0,0,1,5.48-4.32L260.19,317l13.74,3.27A9.07,9.07,0,0,0,282.7,317l15.91-22.16L405.74,145.69C407.54,143.17,409,143.64,409,146.76Z"/><path class="cls-6" d="M404.14,346.41a2.14,2.14,0,0,0,.32-.2l.19-.12a10.38,10.38,0,0,0,2.85-3.19,9.94,9.94,0,0,0,1.52-4.85L298.61,294.84l73.93,69.81Z"/><path class="cls-6" d="M149.82,487.6a3.36,3.36,0,0,0,1.52,3.21,3.47,3.47,0,0,0,3.32-.37l0,0,85.88-49.58L260.19,317,149.82,484.43Z"/><path class="cls-5" d="M407.5,342.9a10.38,10.38,0,0,1-2.85,3.19l-.19.12L154.7,490.42l0,0a3.47,3.47,0,0,1-3.32.37L270.79,300.12a18.77,18.77,0,0,1,23.48-7.21Z"/><path class="cls-6" d="M149.82,290.77l114.72,50.65A18.78,18.78,0,0,0,288,334.2L408.51,141.41Z"/><path class="cls-5" d="M149.82,290.77l115.53,43.16a18.77,18.77,0,0,0,22.28-7.32l120.88-185.2Z"/><path class="cls-2" d="M317.53,439.39V248.18a20.53,20.53,0,0,1,3.29-10.2l119-165.67A18.78,18.78,0,0,1,459.38,65L571.26,91.6a46.48,46.48,0,0,1,10.35,4.12l5.5,3.17a10.82,10.82,0,0,1,4.87,8.45V298.55a10.82,10.82,0,0,1-4.87,8.44L337.66,451a10.82,10.82,0,0,1-9.76,0l-5.49-3.17A10.83,10.83,0,0,1,317.53,439.39Z"/><path class="cls-11" d="M317.53,439.39V248.18a20.53,20.53,0,0,1,3.29-10.2l119-165.67A18.78,18.78,0,0,1,459.38,65L571.26,91.6a46.48,46.48,0,0,1,10.35,4.12l5.5,3.17a10.82,10.82,0,0,1,4.87,8.45V298.55a10.82,10.82,0,0,1-4.87,8.44L337.66,451a10.82,10.82,0,0,1-9.76,0l-5.49-3.17A10.83,10.83,0,0,1,317.53,439.39Z"/><path class="cls-1" d="M340.4,155.75v244c0,3.11,2.19,4.37,4.88,2.81l234.2-135.21a10.78,10.78,0,0,0,4.88-8.45V14.9c0-3.1-2.18-4.37-4.88-2.81L345.28,147.31A10.77,10.77,0,0,0,340.4,155.75Z"/><path class="cls-12" d="M343.1,403.76a3,3,0,0,1-1.52-.39,3.91,3.91,0,0,1-1.68-3.59v-244a11.36,11.36,0,0,1,5.13-8.88L579.23,11.66a3.9,3.9,0,0,1,3.95-.35,3.91,3.91,0,0,1,1.68,3.59v244a11.33,11.33,0,0,1-5.13,8.88L345.53,403A4.9,4.9,0,0,1,343.1,403.76ZM581.66,11.92a3.94,3.94,0,0,0-1.93.6L345.53,147.74a10.25,10.25,0,0,0-4.63,8v244a2.49,2.49,0,0,0,4.13,2.38l234.2-135.22a10.23,10.23,0,0,0,4.63-8V14.9a3,3,0,0,0-1.18-2.72A2,2,0,0,0,581.66,11.92Z"/><path class="cls-2" d="M335.34,252.84l-16.9-9.76a18,18,0,0,0-.91,5.1V439.39a10.83,10.83,0,0,0,4.88,8.45L327.9,451a10.82,10.82,0,0,0,9.76,0l2.33-1.35Z"/><g class="cls-13"><path d="M335.34,252.84l-16.9-9.76a18,18,0,0,0-.91,5.1V439.39a10.83,10.83,0,0,0,4.88,8.45L327.9,451a10.82,10.82,0,0,0,9.76,0l2.33-1.35Z"/></g><path class="cls-2" d="M592,107.34V298.55a9.94,9.94,0,0,1-1.52,4.94,10.63,10.63,0,0,1-2.85,3.19l-.19.11c-.12.08-.21.15-.32.21L337.67,451l0,0a3.48,3.48,0,0,1-3.32.38,3.37,3.37,0,0,1-1.52-3.21V257a4.24,4.24,0,0,1,5.48-4.32l104.89,25,13.74,3.26a9,9,0,0,0,8.76-3.28l15.92-22.17L588.7,106.27C590.51,103.76,592,104.23,592,107.34Z"/><path class="cls-11" d="M592,107.34V298.55a9.94,9.94,0,0,1-1.52,4.94,10.63,10.63,0,0,1-2.85,3.19l-.19.11c-.12.08-.21.15-.32.21L337.67,451l0,0a3.48,3.48,0,0,1-3.32.38,3.37,3.37,0,0,1-1.52-3.21V257a4.24,4.24,0,0,1,5.48-4.32l104.89,25,13.74,3.26a9,9,0,0,0,8.76-3.28l15.92-22.17L588.7,106.27C590.51,103.76,592,104.23,592,107.34Z"/><path class="cls-2" d="M587.11,307c.11-.06.2-.13.32-.21l.19-.11a10.63,10.63,0,0,0,2.85-3.19,10,10,0,0,0,1.51-4.86l-110.4-43.21,73.93,69.82Z"/><path class="cls-2" d="M332.79,448.19a3.37,3.37,0,0,0,1.52,3.21,3.48,3.48,0,0,0,3.32-.38l0,0,85.88-49.58,19.61-123.81L332.79,445Z"/><path class="cls-2" d="M590.47,303.49a10.63,10.63,0,0,1-2.85,3.19l-.19.11L337.67,451l0,0a3.48,3.48,0,0,1-3.32.38L453.75,260.71a18.77,18.77,0,0,1,23.49-7.21Z"/><path class="cls-11" d="M590.47,303.49a10.63,10.63,0,0,1-2.85,3.19l-.19.11L337.67,451l0,0a3.48,3.48,0,0,1-3.32.38L453.75,260.71a18.77,18.77,0,0,1,23.49-7.21Z"/><path class="cls-1" d="M364.88,329.63a7.48,7.48,0,0,1-6.57-2.26c-1.56-1.74-2.33-4.4-2.33-8a28.64,28.64,0,0,1,2.49-11.76,35.51,35.51,0,0,1,7-10.28,48.69,48.69,0,0,1,10.7-8.25q5.76-3.31,9.85-3.68t6.2,2.1q2.12,2.47,2.11,7.5a19.75,19.75,0,0,1-2.29,9.58A16,16,0,0,1,386,311a4.49,4.49,0,0,1-3,.81,2.07,2.07,0,0,1-1.6-1.55,19.1,19.1,0,0,1-3.21,4.39,20.64,20.64,0,0,1-4.38,3.41q-4.18,2.37-6.66,1.5c-1.64-.58-2.47-2.24-2.47-5a17.25,17.25,0,0,1,3.06-9.72,24.5,24.5,0,0,1,8.36-7.66,16.08,16.08,0,0,1,4.49-1.81,7,7,0,0,1,3.6,0v10.79c0,.87.15,1.4.45,1.61s.79.1,1.48-.3a6.55,6.55,0,0,0,2.72-3.59,17.9,17.9,0,0,0,1-6.22q0-4-1.76-5.87a5.52,5.52,0,0,0-4.83-1.48,18.52,18.52,0,0,0-7,2.63,34.41,34.41,0,0,0-11.42,10.25,23.4,23.4,0,0,0-4.18,13.58c0,2.94.61,5.08,1.82,6.44a5.61,5.61,0,0,0,5,1.72,18.26,18.26,0,0,0,7.21-2.64,28.46,28.46,0,0,0,4.25-3,21.78,21.78,0,0,0,3.35-3.41,1.84,1.84,0,0,1,.36-.35q.13-.08.27.12l1.12,2.05a1.08,1.08,0,0,1,.09.26,1,1,0,0,1-.31.59,31.16,31.16,0,0,1-4.07,4.05,34.13,34.13,0,0,1-5,3.52A24.34,24.34,0,0,1,364.88,329.63Zm13.34-19.26a6.86,6.86,0,0,0,1.62-4.11V300a8.84,8.84,0,0,0-4.09,1.41,14.14,14.14,0,0,0-4.85,4.51,10.45,10.45,0,0,0-1.8,5.81c0,1.74.43,2.77,1.3,3.09s2.22,0,4.05-1.1A12.68,12.68,0,0,0,378.22,310.37Z"/><path class="cls-12" d="M363.91,330.17a7.64,7.64,0,0,1-6-2.47c-1.63-1.82-2.46-4.62-2.46-8.33a29.25,29.25,0,0,1,2.53-12A36,36,0,0,1,365.15,297a49.07,49.07,0,0,1,10.8-8.33c3.88-2.24,7.26-3.5,10.05-3.75s5.12.51,6.63,2.28,2.23,4.36,2.23,7.82a20.36,20.36,0,0,1-2.35,9.82,16.54,16.54,0,0,1-6.26,6.59,4.9,4.9,0,0,1-3.39.87,2.45,2.45,0,0,1-1.51-1,19.51,19.51,0,0,1-2.83,3.68,20.82,20.82,0,0,1-4.49,3.49c-3,1.67-5.27,2.18-7.07,1.54s-2.81-2.49-2.81-5.47a17.89,17.89,0,0,1,3.14-10,25.18,25.18,0,0,1,8.53-7.81,16.33,16.33,0,0,1,4.63-1.86,7.38,7.38,0,0,1,3.86,0l.35.11v11.15c0,1,.22,1.19.23,1.19s.32.05.95-.31a6.17,6.17,0,0,0,2.5-3.34,17.34,17.34,0,0,0,.94-6c0-2.55-.55-4.41-1.62-5.52a5,5,0,0,0-4.41-1.33,18.2,18.2,0,0,0-6.84,2.56,34.06,34.06,0,0,0-11.26,10.1,23.1,23.1,0,0,0-4.09,13.3c0,2.8.57,4.85,1.69,6.1a5.07,5.07,0,0,0,4.57,1.56,17.79,17.79,0,0,0,7-2.57,29.59,29.59,0,0,0,4.18-2.94,21.66,21.66,0,0,0,3.27-3.34,2.26,2.26,0,0,1,.51-.47.68.68,0,0,1,.93.26l1.15,2.1a1.28,1.28,0,0,1,.15.5,1.45,1.45,0,0,1-.43.91,31.46,31.46,0,0,1-4.13,4.11,36.55,36.55,0,0,1-5.08,3.58,24.73,24.73,0,0,1-10,3.6C364.57,330.15,364.24,330.17,363.91,330.17Zm23.16-44.32c-.31,0-.64,0-1,0-2.64.23-5.88,1.45-9.64,3.62a48.45,48.45,0,0,0-10.59,8.16,34.93,34.93,0,0,0-6.93,10.14,28.12,28.12,0,0,0-2.45,11.55c0,3.45.74,6,2.21,7.66s3.47,2.32,6.14,2.1h0a23.91,23.91,0,0,0,9.55-3.48,35,35,0,0,0,4.94-3.47,30.75,30.75,0,0,0,4-4c.11-.13.16-.21.19-.25l0-.09-.92-1.67a22.87,22.87,0,0,1-3.4,3.46,30.19,30.19,0,0,1-4.32,3,19,19,0,0,1-7.41,2.7,6.08,6.08,0,0,1-5.41-1.89c-1.29-1.44-1.95-3.72-1.95-6.77a24,24,0,0,1,4.27-13.86,35,35,0,0,1,11.58-10.41,19.08,19.08,0,0,1,7.23-2.68,5.94,5.94,0,0,1,5.24,1.63c1.26,1.3,1.9,3.39,1.9,6.21a18.4,18.4,0,0,1-1,6.39,7.05,7.05,0,0,1-2.94,3.85c-.32.19-1.3.76-2,.28-.46-.31-.67-.95-.67-2v-10.4a7.07,7.07,0,0,0-3,.13,15.38,15.38,0,0,0-4.35,1.75,24.32,24.32,0,0,0-8.2,7.51,16.84,16.84,0,0,0-3,9.44c0,2.54.7,4,2.14,4.53s3.6,0,6.24-1.47a19.6,19.6,0,0,0,4.27-3.32,18.65,18.65,0,0,0,3.13-4.28l.56-1.06.36,1.15a1.59,1.59,0,0,0,1.22,1.21,4.09,4.09,0,0,0,2.68-.75,15.62,15.62,0,0,0,5.88-6.21,19.36,19.36,0,0,0,2.23-9.34c0-3.21-.67-5.63-2-7.17A5.93,5.93,0,0,0,387.07,285.85Zm-16,29.6a2.58,2.58,0,0,1-.86-.14c-1.08-.4-1.63-1.6-1.63-3.56a10.93,10.93,0,0,1,1.88-6.08,14.75,14.75,0,0,1,5-4.67,9.14,9.14,0,0,1,4.34-1.48h.5v6.75a7.36,7.36,0,0,1-1.72,4.41h0a13.27,13.27,0,0,1-3.92,3.5A7.73,7.73,0,0,1,371.09,315.45Zm8.25-14.9a9.63,9.63,0,0,0-3.34,1.32,13.62,13.62,0,0,0-4.68,4.35,10,10,0,0,0-1.72,5.53c0,1.5.33,2.38,1,2.62.49.18,1.52.15,3.62-1.07a12.35,12.35,0,0,0,3.63-3.24h0a6.39,6.39,0,0,0,1.51-3.8Z"/><path class="cls-14" d="M204.49,230.76l-18.3-10.56h0l-.13-.07,0,0c-6.26-3.54-14.86-3-24.37,2.49C142.51,233.68,127,260.58,127,282.7c0,11,3.87,18.8,10.12,22.43h0l0,0h0l17,9.75,3.07-5.13a35.27,35.27,0,0,0,10-3.87c19.15-11.06,34.68-37.95,34.68-60.07a37,37,0,0,0-1.09-8.86Z"/><path class="cls-2" d="M204.49,230.76l-18.3-10.56h0l-.13-.07,0,0c-6.26-3.54-14.86-3-24.37,2.49C142.51,233.68,127,260.58,127,282.7c0,11,3.87,18.8,10.12,22.43h0l0,0h0l17,9.75,3.07-5.13a35.27,35.27,0,0,0,10-3.87c19.15-11.06,34.68-37.95,34.68-60.07a37,37,0,0,0-1.09-8.86Z"/><path class="cls-15" d="M204.49,230.76l-18.3-10.56h0l-.13-.07,0,0c-6.26-3.54-14.86-3-24.37,2.49C142.51,233.68,127,260.58,127,282.7c0,11,3.87,18.8,10.12,22.43h0l0,0h0l17,9.75,3.07-5.13a35.27,35.27,0,0,0,10-3.87c19.15-11.06,34.68-37.95,34.68-60.07a37,37,0,0,0-1.09-8.86Z"/><path class="cls-2" d="M179.25,232.74c-19.15,11-34.68,37.95-34.68,60.07s15.53,31.08,34.68,20,34.68-37.95,34.68-60.07S198.41,221.68,179.25,232.74Z"/><path class="cls-4" d="M165.7,298.08c-.36,0-.54-.21-.54-.53a2.64,2.64,0,0,1,.3-1l1.73-3.93a2.29,2.29,0,0,1,.66-1,2.19,2.19,0,0,1,.84-.18,16.57,16.57,0,0,0,4.57-.91,28.76,28.76,0,0,0,5.64-2.6,22.39,22.39,0,0,0,7.2-6,11.12,11.12,0,0,0,2.3-6.56q0-6.21-7.59-1.83l-5,2.9c-.8.45-1.37.61-1.71.47s-.5-.59-.5-1.35V274a3.26,3.26,0,0,1,.5-1.85,5,5,0,0,1,1.71-1.46l4.89-2.83a13.2,13.2,0,0,0,4.84-4.49,10,10,0,0,0,1.62-5.27q0-6-8.49-1.13a37.08,37.08,0,0,0-9.26,7.55,4.83,4.83,0,0,1-.83.78q-.3.18-.66-.15l-1.67-1.84a1,1,0,0,1-.3-.67,2,2,0,0,1,.54-1.15A34.89,34.89,0,0,1,172,256a57.37,57.37,0,0,1,7.71-5.29,23.72,23.72,0,0,1,8-3.17c2.25-.34,4,0,5.2,1s1.82,2.7,1.82,5a15.45,15.45,0,0,1-1.34,6,21.3,21.3,0,0,1-3.85,5.93q3.22-.68,4.81.89a6.71,6.71,0,0,1,1.58,4.91q0,5.63-4.15,11.45A36.59,36.59,0,0,1,180,292.94Q170.31,298.52,165.7,298.08Z"/><path class="cls-16" d="M495.37,428.72c-37,21.35-37,56,0,77.32s97,21.36,133.93,0,37-56,0-77.32S532.36,407.37,495.37,428.72Z"/><path class="cls-17" d="M559.27,501.84h0l.36-.33c.26-.23.53-.45.78-.7l.84-.82.84-.8a17.17,17.17,0,0,0,1.42-1.47l6.68,5,4.45,3.33s0,.05,0,.06a21.54,21.54,0,0,0-3.9,5.94s-1.33,2.16-5.87,1.07C559.28,511.77,558.4,503.49,559.27,501.84Z"/><path class="cls-2" d="M493.83,499.56c-5.1-5.94-.56-15.78,4.4-28.57,5.45-14.06,13.86-37.94,13.86-37.94l59.7-12.33s63.61-1.23,69.53,10.93c4.74,9.73-37.17,24.35-43.18,24.93l-36.87,2-3.86,1.86-25.82,32.68Z"/><path class="cls-2" d="M603.81,441.54a152.45,152.45,0,0,0-12.92,15c-10.76,15.08-27.78,42.28-27.78,42.28s2.66,8.64,10.78,8.26c0,0,55.93-52.24,60.5-57.05,6.94-7.32,12.48-19.39.51-20.39S608.47,436.58,603.81,441.54Z"/><path class="cls-2" d="M590.6,456.94s10-14.62,20.31-20.7c0,0-10.28,2-25.85,21Z"/><path class="cls-18" d="M590.6,456.94s10-14.62,20.31-20.7c0,0-10.28,2-25.85,21Z"/><path class="cls-17" d="M597.39,475.38l-3.93.74,3.64,13.47s3.54-.33,4.74-.27,5.1-2,5.1-2l-1-8.22-4.32-4.51Z"/><path class="cls-6" d="M628.36,478.57c3.89,1.31,6.51,4.67,8.21,8.37a41.38,41.38,0,0,1,2,6.08c.61,2.18.32,5.88-2.44,6.48a4.6,4.6,0,0,1-2.61-.47c-5.53-2.15-11-4.62-16.61-6.41-4.83-1.53-9.49-3.1-15.12-3.3,2.86-4.07,1.67-10-.45-12a7.2,7.2,0,0,0-4-1.91c1.43-.64,2.76-1.46,4.12-2.23,2.7-1.51,5.6-2.86,8.77-2.17,2.37.52,4.16,2.4,6.17,3.75C620.28,477.32,624,477.11,628.36,478.57Z"/><path class="cls-2" d="M501.87,486.65c4.94-1.51,12.81-2.86,36.22-4.06,23.61-1.22,55.37-6.47,55.37-6.47,5.45,5.24,3.64,13.47,3.64,13.47S555.56,502.73,542,504.48c-21.54,2.77-29,2.56-38.7.48C492.41,502.62,485.52,491.68,501.87,486.65Z"/><polygon class="cls-14" points="587.34 375.27 604.92 417.25 592.34 424.99 568.17 384.06 587.34 375.27"/><path class="cls-12" d="M551,335.71c9.6.1,20.18,3.59,23.81,11.12s15,31,15,31-8.49,12.42-22,11.55Z"/><path class="cls-17" d="M487.12,401c.12-1.63,2.47-9.61,5-18.2L510.33,389l-4.89,15.44L490,419.16C484.54,409.89,487,402.59,487.12,401Z"/><path class="cls-1" d="M531.3,336.29c-11.45,2.76-27,6.34-31.57,18.75s-11,34.36-11,34.36c2.51,4.36,16.32,8,21.1,5.44l2.26-7.44v45.65c8.95,9.73,53.11,7.24,59.7-12.33V358.49c0-9.94-5.52-21.89-20.78-22.78Z"/><polygon class="cls-12" points="512.09 387.4 517.83 369.33 512.09 395.49 512.09 387.4"/><path class="cls-6" d="M527,285.4a6.79,6.79,0,0,0-5.62,2c-2.42,2.47-1.92,7.05,0,17.57l7.47.85Z"/><path class="cls-6" d="M570.57,282.36a11.72,11.72,0,0,0,4.67-.95c2.29-1.31,2.89,1.29,1.64,3.56a10.7,10.7,0,0,1-8.67,5.77c-.07-.33-2.15-5.84-2.15-5.84Z"/><path class="cls-17" d="M530.51,305.81c-1.11.66-2.69-1.47-4.06-2.9s-5.83-3.39-8.06,1.31,2.88,11.14,5.91,13.24c3.59,2.5,6.21.54,6.21.54l.79,18.29s4,9.71,14.71,11.16,8.53-7.4,5-11.74v-6.65s5.54,1.12,8.16.42c1.41-.37,4.75-4.41,6.9-8.93,2.42-5.08,6.45-14.09,2.87-29.33C565.07,274.85,547.49,274.35,537,281S530.51,305.81,530.51,305.81Z"/><path class="cls-6" d="M530.51,307.67c-.56,0-2.68-3.51-4.06-4.76-1.91-1.74.55-17.51.55-17.51s-1.93-6,1.85-9.94,11.11-3.3,16.47-3.49c5.57-.2,11.54-.54,19.15-3.84s8.18-3.7,9.12-.36,1.3,11-3.24,16.12l-2.46,4s-2.32,1.95-9.41,2.81-19.2-2.95-20.71-3.16c-2.06-.28-2.49,1.72-3.6,7.17C533.19,299.53,532.38,307.64,530.51,307.67Z"/><path class="cls-6" d="M527,286.63l-6.71-3.6a3.69,3.69,0,0,1,5.07-1.68A4,4,0,0,1,527,286.63Z"/><path class="cls-14" d="M551,329.06s-10-2-13.43-3.85a11.43,11.43,0,0,1-4.8-4.75,15.57,15.57,0,0,0,2.73,5.6c2.54,3.26,15.5,5.65,15.5,5.65Z"/><path class="cls-6" d="M551.31,305.44a2,2,0,1,1-2-2.07A2,2,0,0,1,551.31,305.44Z"/><path class="cls-6" d="M549.2,297.92l-4.26,2.35a2.54,2.54,0,0,1,1-3.39A2.38,2.38,0,0,1,549.2,297.92Z"/><path class="cls-14" d="M550.09,318.77l4.56,1.71a2.4,2.4,0,0,1-3.09,1.51A2.56,2.56,0,0,1,550.09,318.77Z"/><path class="cls-6" d="M569.09,299.58l-3.89-3a2.35,2.35,0,0,1,3.38-.52A2.58,2.58,0,0,1,569.09,299.58Z"/><path class="cls-6" d="M567.89,304.88a2,2,0,1,1-2-2.08A2,2,0,0,1,567.89,304.88Z"/><polygon class="cls-14" points="558.5 304.64 556.62 316.49 563.19 315.72 558.5 304.64"/><path class="cls-5" d="M627,439.33,586.52,416a2.34,2.34,0,0,0-2.32,0l-70.93,41,41.59,24Z"/><polygon class="cls-6" points="554.49 477.52 532.68 464.94 596.45 428.12 618.37 440.64 554.49 477.52"/><polygon class="cls-6" points="543.77 442.53 544.17 442.76 554.86 448.93 573.87 437.95 574.27 437.73 563.17 431.33 543.77 442.53"/><polygon class="cls-6" points="544.17 442.76 554.86 448.93 573.87 437.95 563.17 431.78 544.17 442.76"/><path class="cls-6" d="M513.27,456.94v.95a3.93,3.93,0,0,0,2,3.38L552.91,483a3.92,3.92,0,0,0,3.9,0L625,443.66a3.91,3.91,0,0,0,2-3.38v-.95L554.86,481Z"/><path class="cls-6" d="M554.86,481v2.6a3.88,3.88,0,0,0,1.95-.52L625,443.66a3.91,3.91,0,0,0,2-3.38v-.95Z"/><path class="cls-6" d="M556,481.53a4.61,4.61,0,0,0,4-.31l67.9-39.2a4.62,4.62,0,0,0,2.24-3.23l7.44-44.33a4.74,4.74,0,0,0,.06-.75,4.61,4.61,0,0,0-1.37-3.29l-70.56,40.75a3.42,3.42,0,0,0-1.66,2.38Z"/><path class="cls-3" d="M554.86,481l.47.27a4.6,4.6,0,0,0,.63.31l8-48a3.42,3.42,0,0,1,1.66-2.38l70.56-40.75a4.46,4.46,0,0,0-.94-.71l-70.7,40.81a3.45,3.45,0,0,0-1.66,2.39Z"/><path class="cls-5" d="M594.2,440.61c.5-3,3.56-6.91,6.84-8.81s5.54-1,5,1.95-3.56,6.9-6.84,8.8S593.7,443.57,594.2,440.61Z"/><path class="cls-17" d="M505.44,404.47s12.18,46.87,17.32,50.28,14.71,5.82,19.3,7.58,6.67,4,5.88,4.64-7.4,1.34-9.7,2.15.69,4.5,5.74,8.42,9.45,3.56,8.83,6.17-11.86,5.22-21.4-.37S519,470.2,513.3,463.8s-18.68-33.07-23.3-44.64c0,0,.44-21.62,7.44-20.25S505.44,404.47,505.44,404.47Z"/><path class="cls-2" d="M563.39,499.55c.86,2.09,3.84,7.82,10.5,7.51,0,0,7.05-6.58,16.33-15.28Z"/><path class="cls-18" d="M563.39,499.55c.86,2.09,3.84,7.82,10.5,7.51,0,0,7.05-6.58,16.33-15.28Z"/><path class="cls-6" d="M573.25,508.89a1.46,1.46,0,0,0-.07.19A1.46,1.46,0,0,1,573.25,508.89Z"/><path class="cls-6" d="M568.33,526.42c-.28-4.84.68-9.23,2.38-14.41h0a6,6,0,0,1-5.47.73c-5.46-1.64-6.83-9.27-6-10.92h0c-.8.69-1.61,1.35-2.42,2-2.38,2-4.68,4.21-5.17,7.41-.37,2.4.74,4.74,1.29,7.1,1,4.51,0,9.2-.17,13.82-.19,4.1,2,7.76,4.86,10.66a41.33,41.33,0,0,0,4.94,4.1c1.81,1.35,4.82,1.93,6.93,0a5.51,5.51,0,0,0,1.2-3.37C570,537.76,568.67,532.54,568.33,526.42Z"/><path class="cls-5" d="M574.6,506.09c-.51,1-1,1.88-1.35,2.8C573.64,508,574.09,507,574.6,506.09Z"/><path class="cls-5" d="M559.25,501.83h0l.36-.33Z"/><path class="cls-19" d="M494.76,136.23c.8,20.34-13.64,45.41-32.94,58.19-1.37.93-2.76,1.76-4.18,2.55l-.38-9.74,4.19-2.3.2,5.2c17-11.49,29.63-33.65,28.92-51.59S476,113,458.9,120.27l.21,5.2-4.19,2.3-.39-9.73c1.42-.78,2.82-1.48,4.2-2.07C478.2,107.42,494,115.89,494.76,136.23Z"/><path class="cls-19" d="M423,236.37l-.32-8.11,2.56-1.41a3.34,3.34,0,0,1,2.93-.43,2.32,2.32,0,0,1,1.3,2.25,6.26,6.26,0,0,1-1.05,3.53,7.78,7.78,0,0,1-2.86,2.76Zm.8-1.23,1.73-1a6.12,6.12,0,0,0,2.3-2.22,5,5,0,0,0,.82-2.84,1.89,1.89,0,0,0-1-1.85,2.67,2.67,0,0,0-2.37.36l-1.73,1Z"/><path class="cls-19" d="M432,224.28a7.5,7.5,0,0,1,2.77-2.77,3.11,3.11,0,0,1,2.87-.34,2.4,2.4,0,0,1,1.28,2.3v0a6.3,6.3,0,0,1-1,3.53,7.42,7.42,0,0,1-2.78,2.76,3.06,3.06,0,0,1-2.88.35,2.4,2.4,0,0,1-1.27-2.29A6.52,6.52,0,0,1,432,224.28Zm-.23,3.12a2,2,0,0,0,1,1.87,2.41,2.41,0,0,0,2.3-.27,5.81,5.81,0,0,0,2.22-2.21,5.18,5.18,0,0,0,.81-2.87,2,2,0,0,0-1-1.88,2.42,2.42,0,0,0-2.3.26,5.82,5.82,0,0,0-2.21,2.22A5.25,5.25,0,0,0,431.75,227.4Z"/><path class="cls-19" d="M440.66,226.64l-.32-8.11.82-.45.29,7.33,4.16-2.29,0,.77Z"/><path class="cls-19" d="M447.34,215.83a7.38,7.38,0,0,1,2.78-2.77,3.34,3.34,0,0,1,2.22-.51,2,2,0,0,1,1.48,1.1l-.8.61a1.57,1.57,0,0,0-1.15-.81,2.76,2.76,0,0,0-1.72.42,5.81,5.81,0,0,0-2.22,2.21,5.13,5.13,0,0,0-.81,2.86,2,2,0,0,0,1,1.87,2.44,2.44,0,0,0,2.29-.27,5.32,5.32,0,0,0,2-1.89,5.55,5.55,0,0,0,.87-2.55l-3,1.64,0-.72,3.79-2.09v.27a6.29,6.29,0,0,1-.94,3.48,6.84,6.84,0,0,1-2.66,2.65,3.09,3.09,0,0,1-2.88.36,2.4,2.4,0,0,1-1.27-2.3A6.37,6.37,0,0,1,447.34,215.83Z"/><path class="cls-19" d="M456.64,210.71a7.43,7.43,0,0,1,2.77-2.77,3.09,3.09,0,0,1,2.87-.34,2.37,2.37,0,0,1,1.28,2.29v0a6.3,6.3,0,0,1-1,3.53,7.42,7.42,0,0,1-2.78,2.76,3.09,3.09,0,0,1-2.88.35,2.4,2.4,0,0,1-1.27-2.29A6.52,6.52,0,0,1,456.64,210.71Zm-.23,3.12a2,2,0,0,0,1,1.87,2.41,2.41,0,0,0,2.3-.27,5.81,5.81,0,0,0,2.22-2.21,5.19,5.19,0,0,0,.81-2.88,2,2,0,0,0-1-1.88,2.41,2.41,0,0,0-2.29.27,5.77,5.77,0,0,0-2.22,2.22A5.22,5.22,0,0,0,456.41,213.83Z"/><path class="cls-19" d="M464,205.5l.91-.49,3,6.27,2.45-9.29.89-.48-2.6,9.71-1.44.79Z"/><path class="cls-20" d="M455.17,134.13l1.4,35.54-18.32-21.42-4.64-5.43-2.24-2.65c-.54.76-1.06,1.53-1.57,2.32s-1,1.58-1.48,2.37c-6.54,10.87-10.36,22.92-9.94,33.67.47,12,6.16,19.9,14.75,22.57l2-5c-7.3-2.58-12.11-9.48-12.52-19.88-.36-9.12,2.71-19.29,8.07-28.65l26.57,31.1a1.42,1.42,0,0,0,1.85.09,3.47,3.47,0,0,0,.54-.37,4,4,0,0,0,1.48-2.92l-1.72-43.65Z"/><path class="cls-20" d="M474.34,199.82l4.46,5.45-.31-7.73.81-.45.32,8.11-1.54.85-4.5-5.5.31,7.8-.8.44-.31-8.11Z"/><path class="cls-20" d="M486.75,193l0,.78-4.71,2.59.11,2.9,4.26-2.35,0,.76L482.21,200l.11,2.9,4.71-2.59,0,.78-5.53,3-.32-8.1Z"/><path class="cls-20" d="M488.21,192.19l6.3-3.47,0,.78-2.7,1.49.29,7.32-.82.45-.29-7.33L488.24,193Z"/></g></g></svg>