<svg xmlns="http://www.w3.org/2000/svg" xmlns:xlink="http://www.w3.org/1999/xlink" viewBox="0 0 1029.59 243.38"><defs><style>.cls-1{fill:none;}.cls-2{clip-path:url(#clip-path);}.cls-3{fill:#d1e8df;}.cls-4{fill:#c4e2d4;}.cls-5{fill:#e3f1e9;}</style><clipPath id="clip-path" transform="translate(-17.5 33.4)"><rect class="cls-1" width="1007" height="260.95"/></clipPath></defs><g id="Слой_2" data-name="Слой 2"><g id="Слой_1-2" data-name="Слой 1"><g class="cls-2"><path class="cls-3" d="M117.52,51.35l-27,36.25a5.61,5.61,0,0,1-7.83,1.15L19.74,41.84A5.62,5.62,0,0,1,18.6,34l27-36.23a5.59,5.59,0,0,1,7.82-1.15l63,46.9a5.59,5.59,0,0,1,1.15,7.81Z" transform="translate(-17.5 33.4)"/><path class="cls-4" d="M89.12,88.92a5.6,5.6,0,0,1-6.43-.17L19.74,41.84a5.56,5.56,0,0,1-2-6.13L68.9,45,89.12,88.92Z" transform="translate(-17.5 33.4)"/><path class="cls-5" d="M117.52,51.35,63.67,49.94,44.22-.36,45.6-2.21a5.59,5.59,0,0,1,7.82-1.15l63,46.9a5.59,5.59,0,0,1,1.15,7.81Z" transform="translate(-17.5 33.4)"/><path class="cls-3" d="M229-1.29l-6.35,44.75a5.61,5.61,0,0,1-6.33,4.75l-77.72-11a5.57,5.57,0,0,1-4.68-4.43,5.42,5.42,0,0,1-.06-1.89l6.35-44.73a5.61,5.61,0,0,1,6.32-4.76l77.72,11A5.59,5.59,0,0,1,229-1.29Z" transform="translate(-17.5 33.4)"/><path class="cls-4" d="M222,45.29a5.59,5.59,0,0,1-5.73,2.92l-77.72-11a5.57,5.57,0,0,1-4.68-4.43l49.37-16.31L222,45.29Z" transform="translate(-17.5 33.4)"/><path class="cls-5" d="M229-1.29,181,23.25,139.85-11.59l.32-2.29a5.61,5.61,0,0,1,6.32-4.76l77.72,11A5.59,5.59,0,0,1,229-1.29Z" transform="translate(-17.5 33.4)"/><path class="cls-3" d="M279.57-4.75l44.8,6a5.53,5.53,0,0,1,1.83.58,5.6,5.6,0,0,1,3,5.71l-10.45,77.8a5.58,5.58,0,0,1-4.4,4.72,5.42,5.42,0,0,1-1.89.07l-44.78-6a5.6,5.6,0,0,1-4.8-6.29L273.3.05a5.58,5.58,0,0,1,6.27-4.8Z" transform="translate(-17.5 33.4)"/><path class="cls-4" d="M326.2,1.84a5.6,5.6,0,0,1,3,5.71l-10.45,77.8a5.58,5.58,0,0,1-4.4,4.72L297.64,40.82l28.56-39Z" transform="translate(-17.5 33.4)"/><path class="cls-5" d="M279.57-4.75,304.48,43,270,84.43l-2.3-.3a5.6,5.6,0,0,1-4.8-6.29L273.3.05a5.58,5.58,0,0,1,6.27-4.8Z" transform="translate(-17.5 33.4)"/><path class="cls-3" d="M440.4,64.5,396.45,54a5.32,5.32,0,0,1-1.77-.77,5.58,5.58,0,0,1-2.37-6l18.3-76.34a5.58,5.58,0,0,1,4.85-4.25,5.79,5.79,0,0,1,1.89.12l43.93,10.53A5.6,5.6,0,0,1,465.42-16l-18.3,76.34a5.6,5.6,0,0,1-6.72,4.14Z" transform="translate(-17.5 33.4)"/><path class="cls-4" d="M394.68,53.19a5.58,5.58,0,0,1-2.37-6l18.3-76.34a5.58,5.58,0,0,1,4.85-4.25l11.59,50.69L394.68,53.19Z" transform="translate(-17.5 33.4)"/><path class="cls-5" d="M440.4,64.5l-19.93-50L459-23.25l2.25.53A5.6,5.6,0,0,1,465.42-16l-18.3,76.34a5.6,5.6,0,0,1-6.72,4.14Z" transform="translate(-17.5 33.4)"/><path class="cls-3" d="M582.33.87l22.35,39.28a5.45,5.45,0,0,1,.65,1.82,5.58,5.58,0,0,1-2.74,5.81L534.36,86.6a5.57,5.57,0,0,1-7.62-2.1L504.4,45.23a5.58,5.58,0,0,1,2.09-7.62L574.71-1.21A5.6,5.6,0,0,1,582.33.87Z" transform="translate(-17.5 33.4)"/><path class="cls-4" d="M605.33,42a5.58,5.58,0,0,1-2.74,5.81L534.36,86.6a5.6,5.6,0,0,1-6.42-.63L557,42.86,605.33,42Z" transform="translate(-17.5 33.4)"/><path class="cls-5" d="M582.33.87,559.42,49.62l-53.88-2.38-1.14-2a5.58,5.58,0,0,1,2.09-7.62L574.71-1.21A5.6,5.6,0,0,1,582.33.87Z" transform="translate(-17.5 33.4)"/><path class="cls-3" d="M1024-18.57l22.36,39.28a5.43,5.43,0,0,1,.64,1.82,5.58,5.58,0,0,1-2.74,5.81L976,67.16a5.59,5.59,0,0,1-6.42-.64,5.75,5.75,0,0,1-1.2-1.46L946.07,25.79a5.58,5.58,0,0,1,2.09-7.62l68.23-38.82a5.57,5.57,0,0,1,7.61,2.08Z" transform="translate(-17.5 33.4)"/><path class="cls-4" d="M1047,22.53a5.58,5.58,0,0,1-2.74,5.81L976,67.16a5.59,5.59,0,0,1-6.42-.64l29.08-43.11,48.31-.88Z" transform="translate(-17.5 33.4)"/><path class="cls-5" d="M1024-18.57l-22.91,48.75L947.21,27.8l-1.14-2a5.58,5.58,0,0,1,2.09-7.62l68.23-38.82a5.57,5.57,0,0,1,7.61,2.08Z" transform="translate(-17.5 33.4)"/><path class="cls-3" d="M763.33,50.52,722.49,69.88a5.34,5.34,0,0,1-1.86.51,5.6,5.6,0,0,1-5.6-3.16L681.42-3.71a5.56,5.56,0,0,1,1.11-6.35,5.41,5.41,0,0,1,1.55-1.09L724.9-30.5a5.58,5.58,0,0,1,7.45,2.65L766,43.08a5.59,5.59,0,0,1-2.64,7.44Z" transform="translate(-17.5 33.4)"/><path class="cls-4" d="M720.63,70.39a5.6,5.6,0,0,1-5.6-3.16L681.42-3.71a5.56,5.56,0,0,1,1.11-6.35l40.82,32.21-2.72,48.24Z" transform="translate(-17.5 33.4)"/><path class="cls-5" d="M763.33,50.52,716.42,24l6.39-53.55,2.09-1a5.58,5.58,0,0,1,7.45,2.65L766,43.08a5.59,5.59,0,0,1-2.64,7.44Z" transform="translate(-17.5 33.4)"/><path class="cls-3" d="M897.46,79.36l-42.63,15a5.48,5.48,0,0,1-1.9.31A5.57,5.57,0,0,1,847.7,91L821.58,17a5.6,5.6,0,0,1,1.76-6.21A5.81,5.81,0,0,1,825,9.83l42.6-15a5.6,5.6,0,0,1,7.14,3.41l26.11,74a5.59,5.59,0,0,1-3.39,7.13Z" transform="translate(-17.5 33.4)"/><path class="cls-4" d="M852.93,94.71A5.57,5.57,0,0,1,847.7,91L821.58,17a5.6,5.6,0,0,1,1.76-6.21L860.62,47l-7.69,47.7Z" transform="translate(-17.5 33.4)"/><path class="cls-5" d="M897.46,79.36,853.54,48.17l11.88-52.6,2.18-.77a5.6,5.6,0,0,1,7.14,3.41l26.11,74a5.59,5.59,0,0,1-3.39,7.13Z" transform="translate(-17.5 33.4)"/><path class="cls-5" d="M632.49,21.1a4.32,4.32,0,0,0-3.82,4.77l1.27,11.45a4.32,4.32,0,0,0,4.77,3.82l6.91-.77a8.12,8.12,0,0,0,5.06-2.75c.58-.94,2.33-2.26,3-3.77,2.73-5.86,5.81-15.07,4.12-30.33S647-20.92,643-26.76c-1.25-1.82-3.46-3.1-4.33-4.08a6.11,6.11,0,0,0-4.74-1.49,2.47,2.47,0,0,1-.53,0l-4.84.49-1.9.3a4.32,4.32,0,0,0-3.82,4.77L624.1-15.3a4.32,4.32,0,0,0,4.77,3.82l8.63-1a66.92,66.92,0,0,1,4.29,17.3,60.1,60.1,0,0,1-.18,15.23l-9.12,1Z" transform="translate(-17.5 33.4)"/><path class="cls-4" d="M640.54,40.49l1.08-.12a8.12,8.12,0,0,0,5.06-2.75c.58-.94,2.33-2.26,3-3.77,2.73-5.86,5.81-15.07,4.12-30.33S647-20.92,643-26.76c-1.25-1.82-3.46-3.1-4.33-4.08a4.56,4.56,0,0,0-1-.72C656.81-10,651,19.93,640.54,40.49Z" transform="translate(-17.5 33.4)"/><path class="cls-3" d="M624.47-27.33l.75,6.81c-.14-2.91.56-9.35,9.26-10.31l-7.9.87a2.4,2.4,0,0,0-2.11,2.63Z" transform="translate(-17.5 33.4)"/><path class="cls-3" d="M630.66,25.51l.75,6.8C631.27,29.4,632,23,640.67,22l-7.9.87a2.41,2.41,0,0,0-2.11,2.64Z" transform="translate(-17.5 33.4)"/><path class="cls-5" d="M936.71,186.2a5,5,0,0,0-6.7-2l-11.54,6.31a4.94,4.94,0,0,0-2,6.69l3.81,7a9.22,9.22,0,0,0,5.1,4.14c1.24.21,3.4,1.48,5.29,1.57,7.38.34,18.44-.39,33.83-8.79s22.85-17.8,27.28-24.58c1.38-2.11,1.78-5,2.44-6.34a7,7,0,0,0-.49-5.65c-.11-.22-.19-.4-.25-.55l-2.61-4.91-1.14-1.88a4.93,4.93,0,0,0-6.69-2l-11.55,6.3a4.93,4.93,0,0,0-2,6.7L974.3,177a75.74,75.74,0,0,1-16.4,12,69.1,69.1,0,0,1-16.17,6.41l-5-9.2Z" transform="translate(-17.5 33.4)"/><path class="cls-4" d="M919.72,203.11l.59,1.1a9.22,9.22,0,0,0,5.1,4.14c1.24.21,3.4,1.48,5.29,1.57,7.38.34,18.44-.39,33.83-8.79s22.85-17.8,27.28-24.58c1.38-2.11,1.78-5,2.44-6.34a5.58,5.58,0,0,0,.32-1.36c-14.42,29.54-48.6,36.4-74.85,34.26Z" transform="translate(-17.5 33.4)"/><path class="cls-3" d="M984.39,156.74l-6.87,3.74c3-1.4,10.12-3.46,14.9,5.32l-4.34-8a2.74,2.74,0,0,0-3.69-1.09Z" transform="translate(-17.5 33.4)"/><path class="cls-3" d="M931.26,186.18l-6.86,3.74c3-1.41,10.12-3.46,14.9,5.31l-4.34-8a2.73,2.73,0,0,0-3.7-1.09Z" transform="translate(-17.5 33.4)"/><path class="cls-5" d="M43.59,136.6a4.94,4.94,0,0,0,0-7l-9.28-9.32a4.93,4.93,0,0,0-7,0l-5.64,5.6a9.13,9.13,0,0,0-2.55,6.05c.14,1.25-.48,3.68,0,5.53,1.74,7.17,5.52,17.59,17.88,30s23.48,17,31.23,19.34c2.41.74,5.28.31,6.76.57a6.93,6.93,0,0,0,5.29-2,4.18,4.18,0,0,1,.46-.39l4-3.88,1.48-1.62a4.94,4.94,0,0,0,0-7L77,163.16a4.91,4.91,0,0,0-7,0l-7,7a75.62,75.62,0,0,1-16.13-12.39A68.58,68.58,0,0,1,36.15,144l7.44-7.39Z" transform="translate(-17.5 33.4)"/><path class="cls-4" d="M22.61,125l-.89.88a9.13,9.13,0,0,0-2.55,6.05c.14,1.25-.48,3.68,0,5.53,1.74,7.17,5.52,17.59,17.88,30s23.48,17,31.23,19.34c2.41.74,5.28.31,6.76.57a5.6,5.6,0,0,0,1.4-.06C44,181.72,27.88,150.81,22.61,125Z" transform="translate(-17.5 33.4)"/><path class="cls-3" d="M85.18,174.16l-5.51-5.54c2.19,2.5,6.15,8.75-.94,15.79L85.17,178a2.74,2.74,0,0,0,0-3.86Z" transform="translate(-17.5 33.4)"/><path class="cls-3" d="M42.09,131.36l-5.51-5.54c2.19,2.5,6.15,8.75-.94,15.79l6.43-6.39a2.74,2.74,0,0,0,0-3.86Z" transform="translate(-17.5 33.4)"/></g></g></g></svg>