<svg xmlns="http://www.w3.org/2000/svg" xmlns:xlink="http://www.w3.org/1999/xlink" viewBox="0 0 376.94 276.21"><defs><style>.cls-1{fill:none;}.cls-2{clip-path:url(#clip-path);}.cls-3{fill:#d1e8df;}.cls-4{fill:#c4e2d4;}.cls-5{fill:#e3f1e9;}</style><clipPath id="clip-path" transform="translate(3.02 -6.31)"><rect class="cls-1" width="279.66" height="290.82"/></clipPath></defs><g id="Слой_2" data-name="Слой 2"><g id="Слой_1-2" data-name="Слой 1"><g class="cls-2"><path class="cls-3" d="M225.14,173.55l-60.23,63.18a10.49,10.49,0,0,1-3,2.21,10.79,10.79,0,0,1-12.28-1.83L39.91,132.5a10.76,10.76,0,0,1-2.4-12.22,11.27,11.27,0,0,1,2-3l60.2-63.15A10.79,10.79,0,0,1,115,53.71l109.74,104.6a10.8,10.8,0,0,1,.39,15.24Z" transform="translate(3.02 -6.31)"/><path class="cls-4" d="M161.92,238.94a10.79,10.79,0,0,1-12.28-1.83L39.91,132.5a10.76,10.76,0,0,1-2.4-12.22l95.9,29.8,28.51,88.86Z" transform="translate(3.02 -6.31)"/><path class="cls-5" d="M225.14,173.55,122.23,158.29l-25.56-101,3.08-3.23A10.79,10.79,0,0,1,115,53.71l109.74,104.6a10.8,10.8,0,0,1,.39,15.24Z" transform="translate(3.02 -6.31)"/><path class="cls-3" d="M227.84,170.33l-36.18,97.72a12.93,12.93,0,0,1-16.57,7.62L5.38,212.83A12.89,12.89,0,0,1-3,200.56a13,13,0,0,1,.8-4.29L34,98.59A12.89,12.89,0,0,1,50.5,91l169.71,62.84a12.89,12.89,0,0,1,7.63,16.52Z" transform="translate(3.02 -6.31)"/><path class="cls-4" d="M189.42,271.88a12.89,12.89,0,0,1-14.33,3.79L5.38,212.83A12.89,12.89,0,0,1-3,200.56l119.21-12.63,73.23,83.95Z" transform="translate(3.02 -6.31)"/><path class="cls-5" d="M227.84,170.33l-120,31.88L32.1,103.59l1.85-5A12.89,12.89,0,0,1,50.5,91l169.71,62.84a12.89,12.89,0,0,1,7.63,16.52Z" transform="translate(3.02 -6.31)"/><path class="cls-3" d="M369.75,183.69l-86.87,93.77a15.48,15.48,0,0,1-4.34,3.29,15.78,15.78,0,0,1-18-2.43L97.68,127.45a15.83,15.83,0,0,1-.84-22.34l86.83-93.72A15.8,15.8,0,0,1,206,10.52L368.86,161.38a15.82,15.82,0,0,1,.89,22.31Z" transform="translate(3.02 -6.31)"/><path class="cls-4" d="M278.54,280.75a15.78,15.78,0,0,1-18-2.43L97.68,127.45a15.8,15.8,0,0,1-3.76-17.85l141,41.64,43.59,129.51Z" transform="translate(3.02 -6.31)"/><path class="cls-5" d="M369.75,183.69l-151-20.2L179.23,16.18l4.44-4.79A15.8,15.8,0,0,1,206,10.52L368.86,161.38a15.82,15.82,0,0,1,.89,22.31Z" transform="translate(3.02 -6.31)"/></g></g></g></svg>