<svg xmlns="http://www.w3.org/2000/svg" viewBox="0 0 663.9 804.86"><defs><style>.cls-1{fill:#36474f;}.cls-2{fill:#1e2128;}.cls-3{fill:#f4a5a8;}.cls-4{fill:#9cd2c8;}.cls-5{fill:#f7bb7d;}.cls-6{fill:#fcfbfc;}.cls-7{fill:#f28f8f;}.cls-8{fill:#438e86;}.cls-9{fill:#fff;}.cls-10{fill:#4ea69d;}</style></defs><g id="Слой_2" data-name="Слой 2"><g id="Слой_1-2" data-name="Слой 1"><path class="cls-1" d="M659.1,492.63a5.45,5.45,0,0,1,3,9.48c-65.34,58.67-123.78,120.79-182.67,186.3C462.17,707.56,374,789.15,367,795.72s-17.08,11.14-26.26,8.25c-4.31-1.36-8-4.2-11.52-7C216.06,707.79,139.5,610.15,7.66,511.11,4.05,508.39-1.82,504.84.55,501c2-3.21,13.35-3.6,18.89-4.23a801.35,801.35,0,0,1,101.77-5.7l-11.76-190c-1.33-21.42-2.65-42.84-4.19-64.25-4.16-58-8.1-117.87-15.34-175.57,114.66-4.19,229.46-8,344.1-3.5,49.2,1.91,101.09,1.85,150.08,6.79,3.74,9.24-17.36,233.94-18.76,335-.43,30.63-4.3,62.39-6.61,90.06,1.63-.12,65.61-1.37,100.37,3Z"/><path class="cls-2" d="M233.77,444.86c.91,5.09-2.9,9.71-6.49,13.44q-23,23.9-48.15,45.49c-1.14,1-2.4,2-3.9,2-3.44.12-4.76-4.44-4.68-7.87.47-20.77,19.78-41.53,17.46-62.18,16.48,1.08,24.92.06,40.76-4.58-.94,4.85,4.13,8.8,5,13.66Z"/><path class="cls-2" d="M565.37,390.22c12.13,19.66,24.52,40,28.2,62.78-9.32,0-17.09-6.62-25.34-10.94-12.64-6.62-28.34-16.32-42.55-17.55,6.85-13.9,9.91-21.78,6.66-36.93a75.44,75.44,0,0,1,21-3.63c2.85-.08,5.9.06,8.24,1.69a15,15,0,0,1,3.77,4.58Z"/><path class="cls-3" d="M286.53,96.79a4.06,4.06,0,0,1,1,2.43,3.66,3.66,0,0,1-2,2.53A26.35,26.35,0,0,1,272.05,106c-.89-5.79-3.24-7.61-7.5-11.62s-13.44-10.77-17.29-15.18-11.54-22.72-6.92-19C242.26,61.67,263.15,79,273.59,83c.81-2.9,2.15-8.45,3.84-11s2.36-5.88,5-4.42c1.73,1-1.39,20.78,4.11,29.16Z"/><path class="cls-3" d="M552.3,127.15a15.33,15.33,0,0,1-3.07,2.19c-3.93,1.93-8.61.37-13,.66-1-6.34-10.78-24.09-6.34-28.74,1.53-1.61,7.44,11.62,9.61,12.1,2,.45,7.11-.19,10.37-5.38,4.4-7,20.34-26,20.34-26a1.68,1.68,0,0,1,2.89.67c1.73,7.85.14,16.31-3.46,23.56-4,8.18-10.44,15-17.36,20.93Z"/><path class="cls-4" d="M414.49,355.34C413,345.6,404.38,332.73,404.9,321a36.47,36.47,0,0,1,3.46-14.28c3.54-7.27,9.75-12.82,15.48-18.53a207.32,207.32,0,0,0,29.81-37.48c3.38-5.43,6.67-11.21,11.94-14.84,6.09-4.18,13.84-4.86,21.21-5.4l24.33-1.78c6.88-.51,14.39-1.28,19.31-6.12,3.37-3.3,4.93-8,6.36-12.47q12.33-38.76,22.09-78.28a43.58,43.58,0,0,0-24.8-3.35,8.45,8.45,0,0,0-4.38,1.69c-1.73,1.55-2,4.09-2.32,6.4-1.65,13-5.85,26.08-13.43,36.74-3,4.15-7.22,12.92-7.25,14.63-26.39.13-52.91.27-78.95,4.56-5.77.95-11.63,2.1-17.41,1.24s-11.59-4.2-13.59-9.69c-8.94-7.64-21.47-9.31-33.23-9.33S339.8,176,328.43,173a12.76,12.76,0,0,1-6-3,14.8,14.8,0,0,1-2.82-5L291.7,94.6l-28.64,10c12.59,16.24,17.66,39.29,18.7,59.82.54,10.55-.3,22.09,6,30.59,4.78,6.48,12.7,9.71,20.25,12.5q16.38,6,33,11.28l-30.51,61.64c-1.44,2.9-3,5.92-5.56,7.87-2.17,1.63-4.87,2.35-7.5,3-14.13,3.46-25.76,8.12-40.27,9.19,5.78,16.18,17.32,24,34.2,27.25s34.26.56,51.23-2.12c4.79,13.57,18,22.8,31.87,26.63s25.62,3.8,40,3.07Z"/><path class="cls-5" d="M385.18,202.27a8.33,8.33,0,0,0,16.1,1.77,9.5,9.5,0,0,0-2.61-9.89,12.25,12.25,0,0,0-10.08-2.87,6.93,6.93,0,0,0-3.18,1.2,6.14,6.14,0,0,0-2.1,3.79,8.45,8.45,0,0,0,1.34,6.36c1.29,1.8-1.69-.33.53-.36Z"/><path class="cls-6" d="M367.26,187.52c3.45,3.89,13.79,15.84,19.73,10.75,2.5-2.14,1.74-3,0-5.74s-6.12-5.55-8.45-7.88c-5.71-5.71-6.41-16.33-7.13-24.37s.23-16.12.65-24.18c.18-3.44.2-7.12-1.64-10-.94-1.5-10.4-13.67-14.36-16.54-7.69-5.57-19.41-10.57-19.8-7.88s11.86,11.8,7.5,22.28c-2.17,5.21-6.16,10.12-5.61,15.75.28,2.91,1.78,5.55,3.33,8,3.27,5.2,7,10.17,9.35,15.84,1.12,2.69,14,21.16,16.47,24Z"/><path class="cls-6" d="M380.94,189.85c3.42-4.35,9.91-4.26,15.42-3.77l26,2.29c3.65.33,7.6.78,10.26,3.29,3.68,3.46,3.26,9.91-.07,13.7-4.23,4.82-11.33,5.58-17.73,5.9-8.29.4-16.85.56-24.58-2.48-3.8-1.5-7.42-3.88-9.5-7.4s-2.28-8.32.24-11.53Z"/><path class="cls-6" d="M397.71,13.83c.88-.85,34-7.89,43.43-13.83.91,20.28,2.8,42,15.78,57.64,3.7,4.45,8.45,8.34,14.11,9.54a148.18,148.18,0,0,0-33.94,8.54C429.9,78.47,422.64,82,418,88.16q-3.74-9.42-7.5-18.83a112.57,112.57,0,0,1-4.94-14.24c-3.09-12.4-9-40.16-7.86-41.26Z"/><path class="cls-6" d="M162.79,135.06c-2.32-10.75-5.93-21.17-9.53-31.56C150.05,94.25,146.84,85,143,76c-2.36-5.59-5-11.14-6.34-17.06a1.39,1.39,0,0,1,1.12-2c20.09-6.49,43-2.35,61.94-11.74,4.39,15.7,24.28,76.41,36.87,91.87,2.3,2.83-51.22,7.91-70.83,22.35a136.24,136.24,0,0,0-3-24.31Z"/><path class="cls-6" d="M165,223.3A120.53,120.53,0,0,0,203.82,192c4.51,3.12,8.05,7.42,11.73,11.48a169.59,169.59,0,0,0,55.76,40.63,121.85,121.85,0,0,0-48.41,27.93c-5.72-12.12-15.84-21.52-26.05-30.2-9.47-8-19.72-16-31.9-18.58Z"/><path class="cls-6" d="M40.91,323.54q.6-15.51,1.21-31l24.07,4.35c21.32,3.85,43,7.72,64.53,5.7-9,16.81-14.18,36-12.46,55-13.68-2.18-26.93-6.46-40.44-9.57s-27.58-5-41.19-2.45c3.61-6.62,4-14.46,4.28-22Z"/><path class="cls-6" d="M309.35,564c.52-4,1-8.15.3-12.14a38.68,38.68,0,0,0-3.72-9.78c-3.8-7.83-11-22-10.06-22a477.31,477.31,0,0,0,59.54-2.25c-.94,6.68,2.28,13.13,5,19.31,3.87,8.84,6.84,18.26,6.8,27.9s-3.38,19.58-10.53,26.06a4.3,4.3,0,0,1-1.41.94,4.71,4.71,0,0,1-2.33,0,352,352,0,0,0-49.8-4.11c4-7.27,5.17-15.73,6.23-24Z"/><path class="cls-7" d="M398.05,178.84c2.22-3.05,4.84-6.08,8.42-7.3,2.68-.91,5.6-.69,8.44-.53a160.84,160.84,0,0,0,24.24-.49c-3.8,8.75-8.18,18.4-9.93,27.77-5.19,2.88-9,3.34-16.72,4.23-3.71.42-12.55-.53-15.65-2.63-3.26-2.21-4.49-6.61-3.87-10.5s2.74-7.37,5.07-10.55Z"/><path class="cls-3" d="M449.72,137.66c-6.52-4.9-15.36-6.09-23.31-4.25s-15,6.47-20.9,12.14c-5.22,5-9.72,11.21-10.89,18.36s1.75,15.28,8.2,18.57c4.06,2.06,8.85,2,13.39,1.59,14.92-1.32,30.46-6.39,39.77-18.13,2.69-3.39,4.84-7.54,4.45-11.85a18.28,18.28,0,0,0-3.23-8,32.24,32.24,0,0,0-7.48-8.39Z"/><path class="cls-6" d="M544.38,253.23a6,6,0,0,1,.42-3.22,5.86,5.86,0,0,1,2.81-2.19c11.32-5.39,23.66-8.25,36-10.71q22.65-4.52,45.6-7.4a57.53,57.53,0,0,0,.59,46c-26.27,4.05-53,8.25-76.81,20.09-6.86-12.88-7.79-28-8.57-42.56Z"/><path class="cls-8" d="M125.49,166.26a24.61,24.61,0,1,1-24.61-24.61,24.61,24.61,0,0,1,24.61,24.61Z"/><path class="cls-9" d="M105.78,173a2.2,2.2,0,0,0-.83-1.73,10.88,10.88,0,0,0-2.49-1.46v6.07c2.21-.38,3.32-1.33,3.32-2.88ZM96,158.19a2.29,2.29,0,0,0,.75,1.76,8.61,8.61,0,0,0,2.39,1.43v-5.73C97,156,96,156.81,96,158.19Zm17.13,14.42a7.71,7.71,0,0,1-2.8,6.22,13.94,13.94,0,0,1-7.85,2.82v5H99.12v-4.9a27.15,27.15,0,0,1-10.42-2.09v-6.43A31.65,31.65,0,0,0,99.12,176v-7.55l-1.63-.64q-4.81-1.89-6.83-4.13a7.91,7.91,0,0,1-2-5.51,7.2,7.2,0,0,1,2.76-5.81,14.12,14.12,0,0,1,7.71-2.77v-3.73h3.34v3.64a27.69,27.69,0,0,1,10.09,2.24l-2.29,5.7a26.19,26.19,0,0,0-7.8-1.9v7.18a37.69,37.69,0,0,1,6.76,3.17,9.2,9.2,0,0,1,3,3,7.25,7.25,0,0,1,.94,3.75Z"/><path class="cls-8" d="M506.73,328.48a24.61,24.61,0,1,1-14.59-31.59,24.6,24.6,0,0,1,14.59,31.59Z"/><path class="cls-9" d="M485.91,328a2.16,2.16,0,0,0-.18-1.91,10.44,10.44,0,0,0-1.83-2.23l-2.09,5.69c2.2.41,3.57-.1,4.1-1.55Zm-4.08-17.26a2.27,2.27,0,0,0,.09,1.91,8.61,8.61,0,0,0,1.76,2.17l2-5.37q-3.11-.66-3.82,1.29Zm11.09,19.45a7.74,7.74,0,0,1-4.78,4.87,13.89,13.89,0,0,1-8.33-.07l-1.73,4.69L475,338.49l1.69-4.59a27.12,27.12,0,0,1-9.06-5.57l2.22-6a28.65,28.65,0,0,0,4.15,3.5,27.24,27.24,0,0,0,4.67,2.73l2.61-7.09-1.32-1.16c-2.57-2.3-4.23-4.37-5-6.23a7.94,7.94,0,0,1,0-5.87,7.22,7.22,0,0,1,4.61-4.5,14.07,14.07,0,0,1,8.19.07l1.28-3.5,3.14,1.16-1.26,3.4a27.56,27.56,0,0,1,8.68,5.59L495.48,315a26.59,26.59,0,0,0-6.66-4.48l-2.48,6.74a37.8,37.8,0,0,1,5.25,5.31,9.09,9.09,0,0,1,1.74,3.79,7.29,7.29,0,0,1-.41,3.84Z"/><path class="cls-8" d="M311.63,576.58a24.61,24.61,0,1,1-34.8.42,24.61,24.61,0,0,1,34.8-.42Z"/><path class="cls-9" d="M302.66,595.37a2.21,2.21,0,0,0-1.82-.61,11,11,0,0,0-2.78.75l4.35,4.24q1.9-2.76.25-4.38Zm-17.42-3.32a2.3,2.3,0,0,0,1.78.7,8.77,8.77,0,0,0,2.7-.72l-4.1-4q-1.86,2.58-.38,4Zm22.28-2.18a7.73,7.73,0,0,1,2.5,6.35,13.93,13.93,0,0,1-3.47,7.58l3.57,3.49-2.33,2.39-3.5-3.42a27.42,27.42,0,0,1-8.78,6l-4.6-4.5a27.91,27.91,0,0,0,4.89-2.36,26.27,26.27,0,0,0,4.39-3.14l-5.4-5.28-1.6.73a18.05,18.05,0,0,1-7.72,2,7.91,7.91,0,0,1-5.35-2.41,7.2,7.2,0,0,1-2.23-6,14,14,0,0,1,3.41-7.45l-2.67-2.6,2.33-2.39,2.6,2.54a27.49,27.49,0,0,1,8.65-5.65l2.48,5.62a25.94,25.94,0,0,0-6.81,4.25l5.14,5a38.45,38.45,0,0,1,7-2.62,9.34,9.34,0,0,1,4.17-.05,7.24,7.24,0,0,1,3.34,2Z"/><path class="cls-2" d="M399.38,152.18c-2.79,4.7-.13-21,28.3-20.18,19.07.52,22.87,5.38,27.86.38s2.7-10,3.28-10,6.91,7.88,5.18,21.91-2.63,30.16-23.12,37.59c-8.24,3-9-3.35-5.64-12.55,4.42-11.91.77-20.75-17.16-25.62-5.25-1.42-14.6,1.54-18.7,8.46Z"/><path class="cls-4" d="M402.87,322.63c-3-.25-5.8-1.63-8.51-3-25-12.21-51.75-19.92-78.42-27.78-18.2,5.6-37.39,6.92-56.39,8.21l-90.39,6.1c-2.89.2-6,.48-8.19,2.37-1.76,1.51-2.6,3.8-3.23,6-5.61,19.9,1.65,40.86,3.43,61.46.8,9.28,6.42,61.51,13.51,76.9a478.23,478.23,0,0,1,65.84-8.44c-1.54-25-8.2-65.46-14.59-89.68,37.12,7.85,61.58,6.85,107.61-1.54,7.52,39.65,21.78,84,45.17,116.88,5.71,8,13.37,16,23.21,16.59,5.45.31,10.73-1.77,15.76-3.89,38.12-16.08,76.55-37.58,117.81-34.62q0-38-1.75-75.87c-25.21,3.87-51.28,9.49-71.2,25.41-5.79,4.63-12,10.42-19.35,9.59a252.07,252.07,0,0,1-40.32-84.75Z"/><path class="cls-10" d="M390.89,361.22a100.62,100.62,0,0,1-27.51-4c-22.24-6.35-42.1-19.11-60.24-32-13.37-9.48-28.72-22.61-28.73-40.17H279c0,15.36,13.55,27,26.79,36.4,17.8,12.62,37.25,25.14,58.83,31.29,23.41,6.68,46.6,4.46,63.65-6.08l2.42,3.92c-11.3,7-25.08,10.56-39.82,10.56Z"/><polygon class="cls-10" points="390.06 229.31 386 227.13 389.23 221.08 393.3 223.25 390.06 229.31 390.06 229.31"/><polygon class="cls-10" points="375.58 263.19 371.51 261.03 374.41 255.56 378.48 257.71 375.58 263.19 375.58 263.19"/><path class="cls-10" d="M356.92,298.38l-4.12-2.07a25,25,0,0,1,4.67-6.45l3.26,3.27a20.28,20.28,0,0,0-3.81,5.25Z"/><path class="cls-10" d="M340.32,325.32l-2.89-3.59a12.26,12.26,0,0,0,3.44-4.41l4.19,1.94a16.91,16.91,0,0,1-4.74,6.06Z"/><path class="cls-10" d="M312.77,299.55c-5.88-4.35-12-8.46-18.22-12.21l2.37-3.95c6.35,3.83,12.59,8,18.58,12.45l-2.73,3.71Z"/><path class="cls-10" d="M414,330.77a80.78,80.78,0,0,1-32.21-10.16l2.28-4a76.17,76.17,0,0,0,30.36,9.58l-.43,4.59Z"/><path class="cls-10" d="M303.6,178.82l-1.28-4.43a99.08,99.08,0,0,1,30.52-3.87l-.13,4.61a94.14,94.14,0,0,0-29.11,3.69Z"/><path class="cls-10" d="M305.5,170.32l-.92-4.51a120.41,120.41,0,0,1,23.56-2.46l0,4.61a117.63,117.63,0,0,0-22.67,2.36Z"/><path class="cls-10" d="M517,197.91c-7.76-.89-11.95-9-13.28-16.22l4.53-.83c1,5.38,4,11.86,9.28,12.47l-.53,4.58Z"/><path class="cls-10" d="M236.88,373.85l-3.19-3.33c1.11-1.06.24-3.69-1.1-5.82a53.92,53.92,0,0,0-20.5-18.85l2.13-4.09a58.32,58.32,0,0,1,22.25,20.47c3,4.67,3.12,9,.41,11.62Z"/><path class="cls-10" d="M247.66,372l-3.37-3.14a5.23,5.23,0,0,0,.7-5A20.17,20.17,0,0,0,241.5,358c-3.34-4.45-7.51-10-13.13-12.1L230,341.6c6.87,2.59,11.48,8.72,15.19,13.64a24.35,24.35,0,0,1,4.21,7.3,9.72,9.72,0,0,1-1.74,9.46Z"/><path class="cls-10" d="M414.21,435.07c0-5.55,13-17.12,16.11-19a109.09,109.09,0,0,0,23.07-18.64l3.36,3.16a113.94,113.94,0,0,1-24,19.43c-3.64,2.2-13.76,12.43-13.89,15l-4.61,0Z"/><path class="cls-10" d="M164.21,457.9l-1.48-4.37c17.51-6,36.2-7.33,54.29-8.63,16.08-1.16,32.72-2.36,48.26-6.84l1.27,4.43c-16,4.61-32.88,5.83-49.2,7-17.79,1.28-36.19,2.61-53.14,8.4Z"/><path class="cls-10" d="M540.7,458.63c-3.08,0-5.81-2.45-6.8-5.22s-.65-5.46-.38-7.91c1.18-10.68.67-21.32.19-31.62-.68-14.32-1.37-29.13,2.24-43.35l4.47,1.13c-3.45,13.56-2.77,28-2.11,42,.5,10.48,1,21.31-.16,31.92-.29,2.58-.51,4.6.09,6.27.48,1.35,1.92,2.42,2.83,2.12l1.32,4.41a5.87,5.87,0,0,1-1.69.25Z"/><path class="cls-10" d="M260.85,106.75l-1.18-4.46c11.14-3,26-7.84,36.19-11.82l1.68,4.29c-10.3,4-25.39,9-36.69,12Z"/><path class="cls-10" d="M523.86,129.08l.67-4.56c11.42,1.67,27,3.09,37.91,3.45l-.15,4.61a385.5,385.5,0,0,1-38.43-3.5Z"/></g></g></svg>