<svg xmlns="http://www.w3.org/2000/svg" viewBox="0 0 983.75 698.75"><defs><style>.cls-1{fill:#fcfbfc;}.cls-2{fill:#f8f7f7;}.cls-3{fill:#36474f;}.cls-4{fill:#3d7b76;}.cls-5{fill:#aa473f;}.cls-6{fill:#f4a5a8;}.cls-7{fill:#eeccad;}.cls-8{fill:#f28f8f;}.cls-9{fill:#5dbdaf;}.cls-10{fill:#e6effa;}.cls-11{fill:#4ea69d;}.cls-12{fill:#b1dbd5;}.cls-13{fill:#fff;}</style></defs><g id="Слой_2" data-name="Слой 2"><g id="Слой_1-2" data-name="Слой 1"><path class="cls-1" d="M578.13,93.86a25.68,25.68,0,0,1,5.58,5.77,8.48,8.48,0,0,0,.86,1c5.63,5.93,10.57,12.43,15.62,18.85,6,7.58,11.36,15.55,16.57,23.64,3.7,5.74,7,11.74,10.35,17.7,2.46,4.4,4.69,8.94,7,13.41l-18,5.25c-5.47,1.59-10.94,3.19-16.41,4.76q-9.81,2.82-19.64,5.61c-3.76,1.08-7.5,2.19-11.26,3.26-3.44,1-6.9,1.85-10.32,2.87-.55.16-.93.88-1.39,1.34-.85-.52-1.72-1-2.54-1.57a102.43,102.43,0,0,0-13-7.62c-1.87-3.42-4-6.74-5.55-10.28a75.94,75.94,0,0,1-3.08-9.17,4.14,4.14,0,0,1,.64-3.8,11,11,0,0,0,1.91-5.29c1-.95,1.88-1.94,2.87-2.84,3.34-3,5.25-6.93,6.65-11.15a84.61,84.61,0,0,0,3.78-17.06c.34-3,.66-6.05-.48-9a1.32,1.32,0,0,1,.22-1.18c.42-.39,1.06-.68.17-1.08a2.59,2.59,0,0,1-1.66-1.92,7.08,7.08,0,0,0-2.39-4,1.86,1.86,0,0,0-.87-.33c-1,1.77-1.85.09-2.69-.19a50.9,50.9,0,0,0-5.68-2.06,58.41,58.41,0,0,0-9.65-1.37c-5.49-.19-11-.13-16.5.11a89.25,89.25,0,0,0-11,1.26,26.49,26.49,0,0,0-10.63,4,11.84,11.84,0,0,0-5.34,7.11c-1.2,5.2.31,9.76,3.71,13.76a3.94,3.94,0,0,0,3.26,1.48c1.45-.06,2.91-.2,4.36-.3-.23,2.79-.48,5.57-.7,8.36-.15,2-.27,4-.39,6a15.73,15.73,0,0,0,0,1.68c.14,2.46.28,4.93.48,7.39A45.75,45.75,0,0,0,495,168.94a9.68,9.68,0,0,0,2.13,3.77,4.72,4.72,0,0,0,3.23,1.58c1.67.12,3.34.42,5,.64.24,3.09.46,6.18.72,9.27a3,3,0,0,0,.37.91c.2,2,.41,4,.6,6,.16,1.54.3,3.08.44,4.62L504.14,198l-.27.21a3.71,3.71,0,0,0-3.09.77c-4.33,3.85-8.83,7.52-12.62,11.94-2.24,2.61-4.4,5.3-6.59,7.95a24.14,24.14,0,0,0-3.64.44c-5,1.36-9.89,2.81-14.83,4.24-3.87,1.11-7.73,2.26-11.6,3.36-5.59,1.59-11.19,3.15-16.78,4.74-6.45,1.84-12.92,3.63-19.33,5.58-1.66.5-3.57.6-4.84,2.07l-2.44-.28c-.36-.4-.65-.94-1.11-1.16a10.63,10.63,0,0,0-2.25-.67L390,233.7c-1.64-.39-3.27-.82-4.92-1.19a2.68,2.68,0,0,0-2.83.51l-17.32-4.11c-.65-.16-1.29-.41-1.94-.52a1.73,1.73,0,0,0-2.23,1.48c-.43,1.74-.76,3.5-1.16,5.24-.82,3.61-1.6,7.22-2.49,10.8-.77,3.15-1.68,6.27-2.52,9.4a11.11,11.11,0,0,0-4.3.61c-2.1.76-4.27,1.34-6.42,2Q331.43,261.45,319,265c-3.54,1-7.08,2.08-10.63,3.09-5.6,1.59-11.2,3.15-16.79,4.75-5.38,1.54-10.73,3.17-16.13,4.64a12.77,12.77,0,0,1-5.28.8c-.2-.88-.45-1.74-.58-2.63-1.42-9.56-2.71-19.15-4.26-28.69-1.14-7-2.64-13.9-3.93-20.87-1.14-6.16-4.46-10.94-9.21-14.87a67.2,67.2,0,0,0-15.5-9.46c-2.35-1.06-4.68-2.16-7-3.24a40.54,40.54,0,0,0,4.73-11.8C236.74,176.9,236.81,167,236,157l.09-1.6A46.15,46.15,0,0,0,238.65,144c.53-6.56-.77-12.47-6-17a2.88,2.88,0,0,1-.4-.52,5.74,5.74,0,0,1,4.31-1.5,18.56,18.56,0,0,0,4.36-.16,23.21,23.21,0,0,1,5.68-.52,5.74,5.74,0,0,0,2-.16,12.51,12.51,0,0,1,4.66-.51,7.63,7.63,0,0,0,2.35-.1,18.77,18.77,0,0,1,6-.58,4.86,4.86,0,0,0,1.67-.12c1.74-.7,3.54-.52,5.33-.55a6.67,6.67,0,0,0,2-.12c2-.73,4-.51,6-.56a7.24,7.24,0,0,0,2.34-.16c1.75-.69,3.55-.38,5.33-.53s3.77-.62,5.66-.61c3.6,0,7.1-1.12,10.71-.76,2.16-.85,4.43-.59,6.67-.65a3.63,3.63,0,0,0,1.33-.13c1.73-.76,3.55-.41,5.33-.55s3.77-.63,5.66-.61c3.6,0,7.1-1.14,10.71-.76,2.16-.85,4.43-.6,6.67-.65a3.63,3.63,0,0,0,1.33-.13c1.62-.7,3.32-.49,5-.53a6.68,6.68,0,0,0,2-.09c2.19-.78,4.44-.55,6.68-.59a4.84,4.84,0,0,0,1.67-.12c1.74-.69,3.54-.52,5.33-.56a7.22,7.22,0,0,0,2.34-.17,13.2,13.2,0,0,1,4.66-.5,8.3,8.3,0,0,0,2.35-.1,18.51,18.51,0,0,1,6-.58,4.83,4.83,0,0,0,1.67-.13c1.74-.7,3.54-.51,5.33-.54a6.65,6.65,0,0,0,2-.12c1.86-.69,3.77-.52,5.67-.56a6,6,0,0,0,2-.16c1.75-.72,3.56-.38,5.34-.53s3.77-.62,5.65-.62c3.6,0,7.11-1.11,10.72-.75,2.16-.86,4.43-.59,6.67-.65a3.45,3.45,0,0,0,1.33-.14c1.62-.71,3.32-.48,5-.52a9.59,9.59,0,0,0,2.69-.11,19.07,19.07,0,0,1,6-.57,5.12,5.12,0,0,0,1.67-.12c1.74-.7,3.54-.52,5.33-.56a7.23,7.23,0,0,0,2.34-.18,13.41,13.41,0,0,1,4.66-.49,7.94,7.94,0,0,0,2.35-.11,18.73,18.73,0,0,1,6-.57,4.89,4.89,0,0,0,1.68-.13,13.19,13.19,0,0,1,5-.54,7.52,7.52,0,0,0,2.34-.14,16.38,16.38,0,0,1,5.34-.54,7.23,7.23,0,0,0,2.34-.18,13.17,13.17,0,0,1,4.66-.49,7.94,7.94,0,0,0,2.35-.11,18.76,18.76,0,0,1,6-.57,4.85,4.85,0,0,0,1.67-.13c1.73-.71,3.54-.5,5.33-.54a6.35,6.35,0,0,0,2-.13,15.27,15.27,0,0,1,5.33-.55,6.36,6.36,0,0,0,2-.11c2-.72,4-.53,6-.56a6.69,6.69,0,0,0,2-.1c2-.71,4-.55,6-.58a4.83,4.83,0,0,0,1.67-.13c1.74-.7,3.54-.51,5.33-.55a6.06,6.06,0,0,0,2-.12c1.86-.69,3.77-.51,5.67-.55a6,6,0,0,0,2-.16c1.74-.72,3.55-.39,5.33-.53s3.77-.63,5.66-.62c3.59,0,7.1-1.12,10.71-.75,2.16-.86,4.43-.59,6.67-.65a3.63,3.63,0,0,0,1.33-.14,11.71,11.71,0,0,1,4.66-.53,7.63,7.63,0,0,0,2.35-.09c2-.71,4-.55,6-.58A2.06,2.06,0,0,0,578.13,93.86Z"/><path class="cls-2" d="M46.59,694.46c-.28-1.2-.47-2.42-.84-3.59-1.61-4.9-3.36-9.76-4.88-14.7-2.26-7.38-4.33-14.83-6.57-22.23-2.86-9.43-5.27-19-7.68-28.54-1.91-7.59-3.82-15.19-5.57-22.82-1.69-7.41-3.25-14.86-4.73-22.31-1.09-5.48-1.92-11-2.92-16.5-.79-4.4-1.71-8.77-2.48-13.17-.58-3.3-1-6.63-1.51-9.94-.64-4.2-1.32-8.39-1.91-12.59-.34-2.43-.51-4.89-.82-7.33-.36-2.88-.82-5.74-1.16-8.62s-.56-5.57-.85-8.35c-.13-1.22-.3-2.43-.46-3.65,0-.22-.12-.44-.13-.66-.26-3.46-.5-6.92-.77-10.38-.09-1.22-.25-2.44-.4-3.66-.05-.44-.2-.88-.22-1.32-.25-5-.5-10.08-.72-15.11a16.66,16.66,0,0,0-.51-5,7.25,7.25,0,0,1-.14-2.34c0-3.94,0-7.87,0-11.81,1.09-.23,2.17-.52,3.28-.66,2.43-.3,4.91-.36,7.32-.81,3.08-.58,6.22-.7,9.28-1.28,2.21-.42,4.44-.55,6.66-.81,2.65-.32,5.29-.81,7.94-1.15,2.44-.32,4.92-.36,7.32-.84,3-.6,6-.69,9-1.22,2.2-.39,4.42-.62,6.65-.82,2.55-.22,5.07-.79,7.6-1.16,1.88-.28,3.77-.49,5.65-.7,2.56-.28,5.12-.51,7.67-.8,1.66-.2,3.31-.49,5-.73,2.76-.4,5.52-.81,8.28-1.17,2.44-.32,4.88-.56,7.32-.89,2.65-.35,5.29-.79,8-1.13,2.43-.31,4.89-.51,7.32-.82,2.88-.37,5.74-.84,8.62-1.22,2.32-.3,4.68-.43,7-.83a59.85,59.85,0,0,1,11.32-1.2c.2,1.22.45,2.43.6,3.65,1.24,10.05,2.35,20.11,3.71,30.14,1.92,14.26,4,28.5,6.06,42.74,1.91,13.13,3.83,26.25,5.87,39.36q2.73,17.49,5.73,34.94c2.06,11.85,4.28,23.68,6.48,35.5,1.26,6.74,2.67,13.45,3.88,20.2.26,1.48,1.13,1.73,2.26,1.92,1.5,6.33,3,12.66,4.52,19a26.09,26.09,0,0,1,.34,11.66l-1.41,6.9a66.17,66.17,0,0,0-1.2,14.73c0,.9.25,1.8-.5,2.53-1.35-.05-2.69-.14-4-.14q-62.05,0-124.1,0C49.27,694.67,47.93,694.53,46.59,694.46Z"/><path class="cls-2" d="M578.13,93.86a2.06,2.06,0,0,1-1.81.7c-2,0-4-.13-6,.58a7.63,7.63,0,0,1-2.35.09,11.71,11.71,0,0,0-4.66.53,3.63,3.63,0,0,1-1.33.14c-2.24.06-4.51-.21-6.67.65-3.61-.37-7.12.77-10.71.75-1.89,0-3.77.47-5.66.62s-3.59-.19-5.33.53a6,6,0,0,1-2,.16c-1.9,0-3.81-.14-5.67.55a6.06,6.06,0,0,1-2,.12c-1.79,0-3.59-.15-5.33.55a4.83,4.83,0,0,1-1.67.13c-2,0-4-.13-6,.58a6.69,6.69,0,0,1-2,.1c-2,0-4-.16-6,.56a6.36,6.36,0,0,1-2,.11,15.27,15.27,0,0,0-5.33.55,6.35,6.35,0,0,1-2,.13c-1.79,0-3.6-.17-5.33.54a4.85,4.85,0,0,1-1.67.13,18.76,18.76,0,0,0-6,.57,7.94,7.94,0,0,1-2.35.11,13.17,13.17,0,0,0-4.66.49,7.23,7.23,0,0,1-2.34.18,16.38,16.38,0,0,0-5.34.54,7.52,7.52,0,0,1-2.34.14,13.19,13.19,0,0,0-5,.54,4.89,4.89,0,0,1-1.68.13,18.73,18.73,0,0,0-6,.57,7.94,7.94,0,0,1-2.35.11,13.41,13.41,0,0,0-4.66.49,7.23,7.23,0,0,1-2.34.18c-1.79,0-3.59-.14-5.33.56a5.12,5.12,0,0,1-1.67.12,19.07,19.07,0,0,0-6,.57,9.59,9.59,0,0,1-2.69.11c-1.67,0-3.37-.19-5,.52a3.45,3.45,0,0,1-1.33.14c-2.24.06-4.51-.21-6.67.65-3.61-.36-7.12.77-10.72.75-1.88,0-3.76.47-5.65.62s-3.59-.19-5.34.53a6,6,0,0,1-2,.16c-1.9,0-3.81-.13-5.67.56a6.65,6.65,0,0,1-2,.12c-1.79,0-3.59-.16-5.33.54a4.83,4.83,0,0,1-1.67.13,18.51,18.51,0,0,0-6,.58,8.3,8.3,0,0,1-2.35.1,13.2,13.2,0,0,0-4.66.5,7.22,7.22,0,0,1-2.34.17c-1.79,0-3.59-.13-5.33.56a4.84,4.84,0,0,1-1.67.12c-2.24,0-4.49-.19-6.68.59a6.68,6.68,0,0,1-2,.09c-1.68,0-3.38-.17-5,.53a3.63,3.63,0,0,1-1.33.13c-2.24,0-4.51-.2-6.67.65-3.61-.38-7.11.79-10.71.76-1.89,0-3.77.46-5.66.61s-3.6-.21-5.33.55a3.63,3.63,0,0,1-1.33.13c-2.24.06-4.51-.2-6.67.65-3.61-.36-7.11.78-10.71.76-1.89,0-3.77.46-5.66.61s-3.58-.16-5.33.53a7.24,7.24,0,0,1-2.34.16c-2,.05-4-.17-6,.56a6.67,6.67,0,0,1-2,.12c-1.79,0-3.59-.15-5.33.55a4.86,4.86,0,0,1-1.67.12,18.77,18.77,0,0,0-6,.58,7.63,7.63,0,0,1-2.35.1,12.51,12.51,0,0,0-4.66.51,5.74,5.74,0,0,1-2,.16,23.21,23.21,0,0,0-5.68.52,18.56,18.56,0,0,1-4.36.16,5.74,5.74,0,0,0-4.31,1.5A8.06,8.06,0,0,1,228,122a33.73,33.73,0,0,0-2-3.87,12.84,12.84,0,0,0-8.76-6.71c-2.39-.52-4.84-.79-7.26-1.16-.73-.11-1.61.17-2-.79l.6-.37c-.1,0-.25-.08-.28,0a4.25,4.25,0,0,0-.27.46,4,4,0,0,0-3.25.42A6.61,6.61,0,0,1,199,110a17.77,17.77,0,0,0-3.27-.81A20.54,20.54,0,0,0,176.5,115a36.77,36.77,0,0,0-7.68,11.8c-.71,1.64-1.39,3.3-2.09,5a34.53,34.53,0,0,0-6.36.15,33.49,33.49,0,0,1-6,.53,5.06,5.06,0,0,0-1.66.11,14.43,14.43,0,0,1-5.3.56,6.61,6.61,0,0,0-2,.1c-2,.71-4,.54-6,.58a4.8,4.8,0,0,0-1.66.13c-1.73.7-3.52.48-5.3.55-.89,0-1.77.16-2.66.26-1.1.12-2.2.33-3.3.39a22.74,22.74,0,0,0-5,.49c-1.31.36-2.88.72-4.11-.5a91.3,91.3,0,0,1,7.2-8.86c2.27-2.62,4.49-5.3,6.73-8,.29-.34.6-.67.92-1,6.92-7.06,13.46-14.49,20.61-21.33,4.62-4.42,9.33-8.74,14.2-12.89,2-1.75,4-3.6,6.06-5.33,3.35-2.81,6.71-5.6,10.14-8.3,4-3.19,8.15-6.31,12.28-9.4,6.38-4.76,12.95-9.27,19.77-13.39q8.22-4.95,16.46-9.85c.77-.46,1.59-.84,2.39-1.24,5.84-2.92,11.63-5.93,17.52-8.73,6.07-2.9,12.26-5.56,18.59-7.86,3.58-1.3,7.1-2.79,10.72-4,5.11-1.68,10.26-3.27,15.44-4.69,5-1.36,10-2.53,15-3.64,4.47-1,9-1.79,13.49-2.6,3.85-.7,7.7-1.38,11.57-1.88,3.22-.41,6.47-.55,9.7-.81a9.42,9.42,0,0,0,2.34-.18,15.1,15.1,0,0,1,4.67-.48C356.61.54,360,1,363.31.05c5,.21,10.08-.48,15.12.46a40.84,40.84,0,0,0,6.74.17c2,0,4.05-.18,6,.55a2.75,2.75,0,0,0,1,.1c4.05,0,8,.86,12,1.21,3.8.33,7.52,1.11,11.29,1.61s7.46,1.42,11.18,2.22a256.75,256.75,0,0,1,25,6.7q12.5,4,24.63,9c3.63,1.5,7.09,3.39,10.72,4.91,5,2.09,9.64,4.81,14.4,7.31s9.4,5.27,14,8.08c4.21,2.58,8.31,5.33,12.41,8.09,6,4.07,11.93,8.35,17.58,13,4.51,3.69,8.95,7.45,13.37,11.26,6.66,5.74,12.55,12.23,18.84,18.33A4.87,4.87,0,0,1,578.13,93.86Z"/><path class="cls-2" d="M668,362.7c-.07,2.69.23,5.4-.66,8,.11,4.4-1.08,8.65-1.48,13-.38,4.11-1.29,8.16-1.81,12.26-.4,3.1-.54,6.24-.82,9.36-.11,1.22-.31,2.44-.43,3.66-.1,1-.17,2-.22,3-.15,3.13.31,6.3-.61,9.39a7.53,7.53,0,0,0,0,2c0,3.26,0,6.52,0,9.78a29.05,29.05,0,0,0,.47,6,32,32,0,0,1,.18,5.72c0,1.9-.17,3.83.55,5.67a2.77,2.77,0,0,1,.1,1c0,3.61.76,7.11,1.23,10.65.42,3.11.92,6.19,1.47,9.27,1.14,6.4,2.79,12.68,4.51,18.94,1.33,4.86,2.84,9.69,4.54,14.43,2.69,7.5,5.47,15,8.46,22.34,5.45,13.41,10.93,26.8,15.21,40.64A168,168,0,0,1,703,585.79c.74,3.84,1.45,7.69,1.94,11.57a100,100,0,0,1,.76,10.37c.19,9,.1,15.92,0,17.55-.08,1.83-.45,9.44-1.78,18.69-.36,2.51-.73,4.81-.88,5.63-.72,4-1.32,7.95-2.26,11.85q-2.49,10.45-5.36,20.81c-1.14,4.1-2.6,8.11-3.91,12.16-1,.07-2,.2-3,.2H625.83c-.79,0-1.58,0-2.36-.06-.2,0-.54-.16-.55-.25,0-.27,0-.67.22-.81a15.05,15.05,0,0,0,5.53-9.74,16,16,0,0,1,3.67-7.82c1.38-1.64,2.9-3.15,4.25-4.8a38.72,38.72,0,0,0,3.34-4.62,6.43,6.43,0,0,0,.47-5.85,16.49,16.49,0,0,0-1.53-3.36c-1.46-2.11-3.08-4.13-4.69-6.14-1.12-1.41-2.32-2.74-3.49-4.1a9.71,9.71,0,0,1,.83-1.06,3.94,3.94,0,0,0,1.13-3.68c-.84-5.79-1.62-11.58-2.4-17.37-1.53-11.48-3.38-22.9-5.38-34.31-2.83-16.06-6.09-32-10.3-47.78a201.1,201.1,0,0,0-10.16-30,57,57,0,0,0-7-12.27,77.86,77.86,0,0,1-9-15,258.13,258.13,0,0,1-16.81-47.65c-1.55-6.1-2.94-12.24-3.14-18.59-.12-3.48-.38-7-.68-10.44q-.87-9.9-1.86-19.81c-.31-3-.77-6-1.16-9,1.43-1.27,2.95-2.47,3.16-4.57a8.59,8.59,0,0,0,2.6-.12c2.14-.79,4.32-.48,6.48-.56a7.2,7.2,0,0,1,.15,1.31c-.12,3.56-.19,7.14-.45,10.7a6.49,6.49,0,0,0,1.52,4.92q-1.53,2-3.07,4c-3.61,4.67-3.77,5-3.62,11.08a27.34,27.34,0,0,0,.62,4.3,1,1,0,0,0,.69.58,1.1,1.1,0,0,0,.84-.41c.43-.64.78-1.35,1.16-2s.83-1.58,1.29-2.34c.09-.14.46-.28.56-.21s.61.47.57.66c-.39,2.32-.84,4.62-1.29,6.92-.39,2-.88,3.94-1.14,5.93-.13.91-.59,2.21.54,2.71.91.39,1.57-.67,2.19-1.25a87.8,87.8,0,0,0,10.41-11.88,14.84,14.84,0,0,0,2.79-6.06c.45-2.19.7-4.42,1-6.63a3.68,3.68,0,0,1,.66-.06,1.5,1.5,0,0,0,1.9-1.34c.39-2,.9-3.91,1.36-5.86q2.19-9.26,4.39-18.51c1.43-.2,2.85-.42,4.29-.58,2.43-.28,4.9-.36,7.31-.81,3.07-.58,6.19-.73,9.26-1.26,2.09-.37,4.21-.48,6.3-.8,3.08-.47,6.2-.68,9.26-1.25,2.2-.4,4.42-.55,6.64-.8,2.76-.32,5.5-.78,8.25-1.17s5.5-.84,8.26-1.18S665.18,363,668,362.7Z"/><path class="cls-1" d="M117.44,135.06c1.23,1.22,2.8.86,4.11.5a22.74,22.74,0,0,1,5-.49c1.1-.06,2.2-.27,3.3-.39.89-.1,1.77-.23,2.66-.26,1.78-.07,3.57.15,5.3-.55a4.8,4.8,0,0,1,1.66-.13c2,0,4,.13,6-.58a6.61,6.61,0,0,1,2-.1,14.43,14.43,0,0,0,5.3-.56,5.06,5.06,0,0,1,1.66-.11,33.49,33.49,0,0,0,6-.53,34.53,34.53,0,0,1,6.36-.15c-.1.54-.17,1.1-.32,1.63A87,87,0,0,0,162.72,162a74.09,74.09,0,0,1,0,8.43,27.61,27.61,0,0,1-7.16,17.44,34.79,34.79,0,0,1-8.2,6.43c-1.17.68-2.37,1.28-3.53,2a21.72,21.72,0,0,0-10.11,13.38A32.74,32.74,0,0,0,132.56,221a86.44,86.44,0,0,0,8.11,29.42c0,.9,0,1.8-.1,2.69-.67,11.22-1,22.44-.09,33.66.42,4.8,1.08,9.58,1.71,14.36a71.28,71.28,0,0,0,3.67,13.61c-1.5.44-3,.9-4.5,1.33-4,1.13-8,2.22-11.94,3.38-6,1.75-12,3.58-18,5.31-7,2-14,3.9-21,5.89-5.6,1.6-11.16,3.3-16.75,4.91q-12.26,3.53-24.52,7l-11.62,3.28-16.77,4.83c-3.23.92-6.44,1.9-9.68,2.76a27.34,27.34,0,0,1-3.63.51c.46-2.64.81-5.3,1.39-7.91,1.62-7.32,3.24-14.63,5-21.9,2-8.28,4.65-16.39,7.45-24.44,2.1-6,4.43-12,6.92-17.88,5.34-12.65,11.76-24.76,17.87-37,2.7-5.43,5.48-10.83,8.44-16.12q7.41-13.2,15.14-26.23c2.86-4.82,6-9.47,9-14.19,2.55-4,5-8,7.69-11.86,3.54-5.18,7.22-10.26,10.87-15.37,2.67-3.73,5.33-7.48,8.12-11.13,2.91-3.83,5.92-7.59,9-11.3C115.35,137.37,115.88,135.76,117.44,135.06Z"/><path class="cls-2" d="M7.43,353.94a27.34,27.34,0,0,0,3.63-.51c3.24-.86,6.45-1.84,9.68-2.76l16.77-4.83,11.62-3.28q12.25-3.49,24.52-7c5.59-1.61,11.15-3.31,16.75-4.91,7-2,14-3.89,21-5.89,6-1.73,12-3.56,18-5.31,4-1.16,8-2.25,11.94-3.38,1.5-.43,3-.89,4.5-1.33a4.09,4.09,0,0,0,3.36,2.22c1.4.07,2.8.36,4.21.56-.22,1.09-.35,2.2-.66,3.26q-4.89,16.91-9.83,33.8c-.3,1.06-.47,2.16-.7,3.24l.17,0c-.58,0-.52.37-.51.74-.21.51-.47,1-.63,1.55q-5.88,19.31-11.75,38.6c-1.27,4.18-2.62,8.34-3.89,12.52-.38,1.24-.17,1.57,1,2.11l3,1.42c-.11.76-.54,1.09-1.31,1.27q-9.13,2.15-18.24,4.37c-8.79,2.13-17.57,4.3-26.37,6.42q-14.16,3.4-28.34,6.75c-5.1,1.22-10.22,2.39-15.32,3.64-8.67,2.11-17.33,4.31-26,6.4-4.23,1-8.49,1.87-12.74,2.81a16.17,16.17,0,0,1-.66-5.32c.05-3.48,0-7,0-10.45a18.77,18.77,0,0,1,.5-6,7.63,7.63,0,0,0,.12-2.35c0-3.37,0-6.74,0-10.11,0-2.46-.18-4.93.55-7.36a13.14,13.14,0,0,0,.11-3c.07-2.35-.16-4.7.55-7a11.64,11.64,0,0,0,.12-3,12.67,12.67,0,0,1,.51-4.66,4.49,4.49,0,0,0,.15-1.33c.24-3.12.37-6.26.75-9.36.51-4.1,1.21-8.17,1.82-12.25.25-1.65.48-3.31.73-5S7.15,355.7,7.43,353.94Z"/><path class="cls-2" d="M557.12,197.36c.46-.46.84-1.18,1.39-1.34,3.42-1,6.88-1.9,10.32-2.87,3.76-1.07,7.5-2.18,11.26-3.26q9.81-2.8,19.64-5.61c5.47-1.57,10.94-3.17,16.41-4.76l18-5.25c3.88,7.47,7.07,15.25,10.3,23,3.75,9,6.87,18.25,9.83,27.54a249.4,249.4,0,0,1,7,26.93c.7,3.51,1.71,7,2.26,10.48s1.59,7,1.76,10.57a49.53,49.53,0,0,0,.76,5c.4,2.65.8,5.29,1.18,7.94a10.14,10.14,0,0,1,0,1.35,21.55,21.55,0,0,0-3,.23c-2.94.62-5.87,1.32-8.81,2-5.64,1.35-11.29,2.69-16.93,4.07-9.55,2.35-19.07,4.78-28.63,7-2.7.64-5.34,1.75-8.21,1.53a11.65,11.65,0,0,1-.58-1.55c-3.77-16.55-7.94-33-12.9-49.25A266.74,266.74,0,0,0,578,222.91a56.4,56.4,0,0,0-16.27-21.64C560.17,200,558.66,198.67,557.12,197.36Z"/><path class="cls-3" d="M630.69,647.08c1.17,1.36,2.37,2.69,3.49,4.1,1.61,2,3.23,4,4.69,6.14a16.49,16.49,0,0,1,1.53,3.36,6.43,6.43,0,0,1-.47,5.85,38.72,38.72,0,0,1-3.34,4.62c-1.35,1.65-2.87,3.16-4.25,4.8a16,16,0,0,0-3.67,7.82,15.05,15.05,0,0,1-5.53,9.74c-.18.14-.22.54-.22.81,0,.09.35.24.55.25.78,0,1.57.06,2.36.06h62.72c1,0,2-.13,3-.2,1.34.08,2.68.23,4,.23q19.42,0,38.83,0a21.89,21.89,0,0,1,3,.16,1.77,1.77,0,0,1,1.48,1.95,1.79,1.79,0,0,1-1.32,1.75,5.49,5.49,0,0,1-1.33.2c-1,0-2,0-3,0H5.52c-1.23,0-2.48,0-3.7-.1a1.95,1.95,0,0,1-.11-3.88,27.81,27.81,0,0,1,3-.12q19.08,0,38.16,0c1.23,0,2.46-.11,3.69-.17s2.68.21,4,.21q62.06,0,124.1,0c1.34,0,2.68.09,4,.14,5.22,0,10.44.12,15.66.13,2.33,0,4.66-.1,7-.15,1,0,2-.12,3-.12q53.84,0,107.67,0c1,0,2,.08,3,.12l6-.09,15.71.11c1.22,0,2.44.13,3.67.13q8.52,0,17,0c2,0,4-.08,6-.13,1.23-.05,2.46-.14,3.7-.14H452.3c1.35,0,2.7,0,4.05,0a1.56,1.56,0,0,0,1.71-1.24c1.07-3.51,3.72-5.19,7.12-5.93,2-.44,4-.77,5.93-1.29a41.77,41.77,0,0,0,14.1-6.26,18.56,18.56,0,0,0,7.35-9.4c.63.23,1.27.43,1.88.71a30.33,30.33,0,0,0,13.71,2.89c2.13-.06,4.26-.2,6.38-.3.15,6.61,1,13.25-1.2,19.72-.2.58.19,1,.92,1,.9,0,1.79,0,2.69,0h76.87c.79,0,1.58,0,2.36,0,1.36,0,1.58-.15,1.51-1.54-.14-2.59,1.3-3.92,3.47-4.75a10,10,0,0,1,1.61-.5c3.7-.82,6.1-3.2,7.7-6.49a22.22,22.22,0,0,0,2.18-9.78c0-4.95,0-9.89,0-14.83C618.81,653.82,625.05,651,630.69,647.08Z"/><path class="cls-1" d="M601.65,301.94c2.87.22,5.51-.89,8.21-1.53,9.56-2.26,19.08-4.69,28.63-7,5.64-1.38,11.29-2.72,16.93-4.07,2.94-.7,5.87-1.4,8.81-2a21.55,21.55,0,0,1,3-.23A25.76,25.76,0,0,1,668,292c.58,4,.29,8,1.15,12a10.71,10.71,0,0,1,.13,2.34c0,2.69,0,5.39,0,8.08,0,1.1.27,2.2.38,3.31s.24,2,.25,3c0,5.49,0,11,0,16.48,0,1.11-.22,2.21-.33,3.32s-.27,2-.29,3c0,2.35,0,4.71,0,7.06a21.57,21.57,0,0,1-.46,4.65,27.07,27.07,0,0,0-.22,5c0,.87.18,1.82-.64,2.49-2.78.28-5.55.51-8.32.85s-5.5.78-8.26,1.18-5.49.85-8.25,1.17c-2.22.25-4.44.4-6.64.8-3.06.57-6.18.78-9.26,1.25-2.09.32-4.21.43-6.3.8-3.07.53-6.19.68-9.26,1.26-2.41.45-4.88.53-7.31.81-1.44.16-2.86.38-4.29.58.25-1.32.47-2.65.75-4,2.15-10.1,4.43-20.17,6-30.38a23.78,23.78,0,0,0-.05-8.37q-1.83-9.24-3.59-18.5C602.66,307.44,602.16,304.69,601.65,301.94Z"/><path class="cls-1" d="M1.29,446.46c4.25-.94,8.51-1.8,12.74-2.81,8.69-2.09,17.35-4.29,26-6.4,5.1-1.25,10.22-2.42,15.32-3.64q14.17-3.36,28.34-6.75c8.8-2.12,17.58-4.29,26.37-6.42q9.11-2.22,18.24-4.37c.77-.18,1.2-.51,1.31-1.27,1,.3,1.92.57,2.86.9l8.86,3.11q.53,6.39,1,12.78a59.85,59.85,0,0,0-11.32,1.2c-2.3.4-4.66.53-7,.83-2.88.38-5.74.85-8.62,1.22-2.43.31-4.89.51-7.32.82-2.66.34-5.3.78-8,1.13-2.44.33-4.88.57-7.32.89-2.76.36-5.52.77-8.28,1.17-1.66.24-3.31.53-5,.73-2.55.29-5.11.52-7.67.8-1.88.21-3.77.42-5.65.7-2.53.37-5.05.94-7.6,1.16-2.23.2-4.45.43-6.65.82-3,.53-6,.62-9,1.22-2.4.48-4.88.52-7.32.84-2.65.34-5.29.83-7.94,1.15-2.22.26-4.45.39-6.66.81-3.06.58-6.2.7-9.28,1.28-2.41.45-4.89.51-7.32.81-1.11.14-2.19.43-3.28.66C1.29,448.7,1.29,447.58,1.29,446.46Z"/><path class="cls-4" d="M601.65,301.94c.51,2.75,1,5.5,1.54,8.25q1.77,9.26,3.59,18.5a23.78,23.78,0,0,1,.05,8.37c-1.58,10.21-3.86,20.28-6,30.38-.28,1.31-.5,2.64-.75,4q-2.21,9.25-4.39,18.51c-.46,1.95-1,3.89-1.36,5.86a1.5,1.5,0,0,1-1.9,1.34,3.68,3.68,0,0,0-.66.06,15.1,15.1,0,0,0-1.93-.56,26.82,26.82,0,0,1-11.65-4.82,6.49,6.49,0,0,1-1.52-4.92c.26-3.56.33-7.14.45-10.7a7.2,7.2,0,0,0-.15-1.31c.13-1.11.32-2.22.37-3.33.17-4.38.38-8.76.44-13.14.14-9.1.18-18.2.29-27.3a10.21,10.21,0,0,0-2-6.29c-3-4.19-5.91-8.48-8.88-12.71a22.09,22.09,0,0,0-1.78-2c-.65-1.17-1.23-2.39-1.95-3.5q-7.74-11.83-15.52-23.62a24.74,24.74,0,0,0-1.53-2.21c-.23-.29-.71-.38-1.08-.55a3.3,3.3,0,0,0-.29.87c0,2.36,0,4.72-.06,7.08-.08,6,1.51,11.73,3.52,17.35a65.13,65.13,0,0,0,16.68,24.11c.24,5.82.43,11.63.75,17.44.49,8.95,1.07,17.89,1.62,26.82a13.65,13.65,0,0,0,.34,1.64c-.21,2.1-1.73,3.3-3.17,4.57A163.94,163.94,0,0,1,539.3,390a115.3,115.3,0,0,1-43,4.67c-7.5-.64-15-1.36-22.5-2-1.78-.15-3.58-.08-5.38-.1-1.71-.22-2.79-1.05-2.8-2.92a2.1,2.1,0,0,0-.24-.59c0-.45.09-.89.09-1.34q-.11-18.3-.21-36.59c0-5.15,0-10.29,0-15.43q.25-6,.52-12.07c.07-2.91.14-5.83.19-8.74a38.68,38.68,0,0,1,.15-6.38,52.14,52.14,0,0,0,.51-8.36,37.86,37.86,0,0,1,.19-6,44.87,44.87,0,0,0,.49-7c.07-1.68.12-3.36.23-5,.1-1.33.33-2.65.42-4,.28-4,.32-8.05.86-12,.28-2.11.37-4.23.63-6.33.33-2.54.91-5.06,1.16-7.6a94.18,94.18,0,0,1,2.59-14.15,10.58,10.58,0,0,0,.09-2.33l-.08,0c.74-.13.82-.68.82-1.28.85-.51.69-1.34.65-2.13l0,.09c.72-.35.71-1,.73-1.68.44-1,.82-2.06,1.34-3,1.58-2.94,3.21-5.85,4.83-8.78,2.19-2.65,4.35-5.34,6.59-7.95,3.79-4.42,8.29-8.09,12.62-11.94a3.71,3.71,0,0,1,3.09-.77,4.81,4.81,0,0,0,1,.29,33.88,33.88,0,0,0,19-3.18c3.63-1.8,7.33-3.46,11-5.12a20.11,20.11,0,0,1,6.75-2,102.43,102.43,0,0,1,13,7.62c.82.56,1.69,1.05,2.54,1.57,1.54,1.31,3,2.64,4.61,3.91A56.4,56.4,0,0,1,578,222.91a266.74,266.74,0,0,1,10.17,28.23c5,16.24,9.13,32.7,12.9,49.25A11.65,11.65,0,0,0,601.65,301.94Z"/><path class="cls-2" d="M465.8,323.62q-.26,6-.52,12.07a29.29,29.29,0,0,0-4,.35c-5.56,1.26-11.1,2.6-16.64,3.94-6.95,1.69-13.89,3.43-20.85,5.11-5.21,1.25-10.44,2.43-15.66,3.69-5.87,1.41-11.72,2.89-17.59,4.3-5.32,1.28-10.67,2.46-16,3.73-5.87,1.41-11.72,2.89-17.58,4.31-6.31,1.51-12.63,3-18.93,4.49-7.71,1.87-15.4,3.83-23.11,5.69-4.35,1.06-8.73,2-13.07,3-2.39.58-4.74,1.34-7.1,2-1.1-.95-1.2-2.37-1.61-3.62q-5.82-17.64-11.58-35.3c-.35-1.06-.8-2.07-1.2-3.1a4.23,4.23,0,0,1,.69-.71,1.77,1.77,0,0,0,.72-2.55c-1.56-3.72-3.07-7.47-4.47-11.26a37.51,37.51,0,0,1-1.8-6.11c-.95-5-1.71-10-2.55-14.94a15.79,15.79,0,0,1,2.28.55,12.94,12.94,0,0,0,5.95.58c.26,0,.7-.27.71-.43a1.19,1.19,0,0,0-.43-.79,11.85,11.85,0,0,0-5.24-2.84c-1-.21-1.92-.6-2.88-.89a2.34,2.34,0,0,1-1.65-1.92,6.94,6.94,0,0,0,.18-1.62c-.23-1.86-.56-3.7-.81-5.56-.32-2.51-.59-5-.89-7.54a12.77,12.77,0,0,0,5.28-.8c5.4-1.47,10.75-3.1,16.13-4.64,5.59-1.6,11.19-3.16,16.79-4.75,3.55-1,7.09-2.07,10.63-3.09q12.44-3.56,24.85-7.11c2.15-.62,4.32-1.2,6.42-2a11.11,11.11,0,0,1,4.3-.61c-.15,1-.28,1.95-.45,2.92-.3,1.73-.62,3.45-.93,5.17-1.58.09-2.29,1.2-2.89,2.44a31.45,31.45,0,0,0-3,9.83c-.28,2.25-.68,4.7,1.14,6.67-.75,3.28-1.48,6.56-2.25,9.83q-3.1,13.08-6.24,26.16c-.75,3.16-.38,3.73,2.72,4.43q9,2.06,18,4.15,15.87,3.7,31.75,7.44c4.36,1,8.72,2.09,13.08,3.12a13.45,13.45,0,0,0,2,.29,1.47,1.47,0,0,0,1.77-1.17c.16-.65.42-1.28.58-1.93,1.41-6.12,2.78-12.24,4.23-18.35a22.54,22.54,0,0,1,1.2-3.1c1.57.58,3.16,1.13,4.71,1.75a154.94,154.94,0,0,0,25.53,8.2c5.49,1.16,11,2,16.65,1.09Z"/><path class="cls-5" d="M140.67,250.42A86.44,86.44,0,0,1,132.56,221a32.74,32.74,0,0,1,1.13-11.36,21.72,21.72,0,0,1,10.11-13.38c1.16-.7,2.36-1.3,3.53-2a34.79,34.79,0,0,0,8.2-6.43,27.61,27.61,0,0,0,7.16-17.44,74.09,74.09,0,0,0,0-8.43,87,87,0,0,1,3.69-28.64c.15-.53.22-1.09.32-1.63.7-1.66,1.38-3.32,2.09-5A36.77,36.77,0,0,1,176.5,115a20.54,20.54,0,0,1,19.18-5.78A17.77,17.77,0,0,1,199,110a6.61,6.61,0,0,0,5.82-.09,4,4,0,0,1,3.25-.42l-.05,0c.4,1,1.28.68,2,.79,2.42.37,4.87.64,7.26,1.16a12.84,12.84,0,0,1,8.76,6.71,33.73,33.73,0,0,1,2,3.87,8.06,8.06,0,0,0,4.23,4.5,2.88,2.88,0,0,0,.4.52c5.25,4.52,6.55,10.43,6,17a46.15,46.15,0,0,1-2.55,11.43,1.77,1.77,0,0,1-2-.79,13.31,13.31,0,0,1-1.11-2.79c-.74-3.05-1.45-6.1-2.06-9.18a19.18,19.18,0,0,0-5.34-9.92c-3-3.09-2.74-3.05-4.55.68a66.88,66.88,0,0,1-9.13,14.08,23.51,23.51,0,0,1-13.13,8.27c-2.08.45-4.2.68-6.31,1-.76.12-1.25.49-1.26,1.29,0,4.15-.29,8.33,1.38,12.27a8.75,8.75,0,0,1,.66,3.6c-.06,3.93,0,7.86-.16,11.79a51.45,51.45,0,0,1-.77,6.66,4.15,4.15,0,0,1-1.37,3,135.84,135.84,0,0,0-14.59,2.6,65.65,65.65,0,0,0-17.8,7.06c-6.32,3.82-10.84,9-12.76,16.29-.21.76-.46,1.51-.66,2.27a128.51,128.51,0,0,0-3.41,18.89C141.4,245.1,141,247.76,140.67,250.42Z"/><path class="cls-2" d="M481.57,218.85c-1.62,2.93-3.25,5.84-4.83,8.78-.52,1-.9,2-1.34,3l-.73,1.68,0-.09-1.15,2.12c-.11.43-.22.86-.32,1.29l.08,0c-1.2.5-1.33,1.74-1.73,2.7-3.46,8.3-6.83,16.63-10.25,24.93-2.27,5.51-4.52,11-6.91,16.47a48.3,48.3,0,0,1-3.32,5.85,3.83,3.83,0,0,1-4.3,1.8c-8.23-1.22-16.48-2.27-24.72-3.38a19.77,19.77,0,0,1,.24-2.67c1.66-7.07,3.37-14.14,5.05-21.21q1.63-6.87,3.23-13.73c.31-1.33,0-1.84-1.25-2.26-.42-.14-.87-.2-1.31-.3-2.94-.68-5.91-1.26-8.81-2.07s-6-1.07-8.68-2.46c1.27-1.47,3.18-1.57,4.84-2.07,6.41-2,12.88-3.74,19.33-5.58,5.59-1.59,11.19-3.15,16.78-4.74,3.87-1.1,7.73-2.25,11.6-3.36,4.94-1.43,9.87-2.88,14.83-4.24A24.14,24.14,0,0,1,481.57,218.85Z"/><path class="cls-4" d="M270.17,278.27c.3,2.51.57,5,.89,7.54.25,1.86.58,3.7.81,5.56a6.94,6.94,0,0,1-.18,1.62l0,0a8.11,8.11,0,0,0-2.91-4,44.28,44.28,0,0,0-5.91-4.41c-5.71-3.35-6.88-3.49-13.28-1.2-2,.72-3.92,1.62-5.88,2.43l-3.31-1.38c-.1-8.21-.27-16.42-.26-24.64a58.18,58.18,0,0,0-3.59-20.14c-3.34-9.19-6.57-18.42-9.94-27.6-2.1-5.69-4.36-11.32-6.55-17,1,.25,1.93.47,2.87.77,1.28.4,2.53.85,3.79,1.28l1.31.6,1.61.77c2.35,1.08,4.68,2.18,7,3.24a67.2,67.2,0,0,1,15.5,9.46c4.75,3.93,8.07,8.71,9.21,14.87,1.29,7,2.79,13.89,3.93,20.87,1.55,9.54,2.84,19.13,4.26,28.69C269.72,276.53,270,277.39,270.17,278.27Z"/><path class="cls-6" d="M541.63,188.17a20.11,20.11,0,0,0-6.75,2c-3.69,1.66-7.39,3.32-11,5.12a33.88,33.88,0,0,1-19,3.18,4.81,4.81,0,0,1-1-.29l.27-.21,3.31-2.25c-.14-1.54-.28-3.08-.44-4.62-.19-2-.4-4-.6-6a30.27,30.27,0,0,0,7.83-3,60.52,60.52,0,0,0,6.12-4.11,50.57,50.57,0,0,0,4.57-4.46.91.91,0,0,0,.1-.9,1,1,0,0,0-.88-.28,16.89,16.89,0,0,0-1.92.58,45.87,45.87,0,0,1-12.19,2c-1.57.06-3.15,0-4.72,0-1.66-.22-3.33-.52-5-.64a4.72,4.72,0,0,1-3.23-1.58,9.68,9.68,0,0,1-2.13-3.77A45.75,45.75,0,0,1,493,158.39c-.2-2.46-.34-4.93-.48-7.39a15.73,15.73,0,0,1,0-1.68c.12-2,.24-4,.39-6,.22-2.79.47-5.57.7-8.36,4.07-1.23,8.11-2.52,12.2-3.66a17.94,17.94,0,0,1,3.68-.33,8.3,8.3,0,0,1,7.27,3.5,30.31,30.31,0,0,1,2.51,4c.71,1.27,1.25,2.63,1.94,3.91a10.52,10.52,0,0,0,1.49,2.22c.9,1,1.88.91,2.88-.07a16.88,16.88,0,0,1,2.21-2c1.85-1.24,3.16-.72,3.83,1.38a10.33,10.33,0,0,1,0,5.65,8.51,8.51,0,0,0,1.38,7c.75,1.1,1.68,2.08,2.52,3.12a11,11,0,0,1-1.91,5.29,4.14,4.14,0,0,0-.64,3.8,75.94,75.94,0,0,0,3.08,9.17C537.68,181.43,539.76,184.75,541.63,188.17Z"/><path class="cls-3" d="M535.55,159.63c-.84-1-1.77-2-2.52-3.12a8.51,8.51,0,0,1-1.38-7,10.33,10.33,0,0,0,0-5.65c-.67-2.1-2-2.62-3.83-1.38a16.88,16.88,0,0,0-2.21,2c-1,1-2,1.07-2.88.07a10.52,10.52,0,0,1-1.49-2.22c-.69-1.28-1.23-2.64-1.94-3.91a30.31,30.31,0,0,0-2.51-4,8.3,8.3,0,0,0-7.27-3.5,17.94,17.94,0,0,0-3.68.33c-4.09,1.14-8.13,2.43-12.2,3.66-1.45.1-2.91.24-4.36.3a3.94,3.94,0,0,1-3.26-1.48c-3.4-4-4.91-8.56-3.71-13.76a11.84,11.84,0,0,1,5.34-7.11,26.49,26.49,0,0,1,10.63-4,89.25,89.25,0,0,1,11-1.26c5.49-.24,11-.3,16.5-.11a58.41,58.41,0,0,1,9.65,1.37,50.9,50.9,0,0,1,5.68,2.06c.84.28,1.65,2,2.69.19a1.86,1.86,0,0,1,.87.33,7.08,7.08,0,0,1,2.39,4,2.59,2.59,0,0,0,1.66,1.92c.89.4.25.69-.17,1.08a1.32,1.32,0,0,0-.22,1.18c1.14,3,.82,6,.48,9a84.61,84.61,0,0,1-3.78,17.06c-1.4,4.22-3.31,8.1-6.65,11.15C537.43,157.69,536.51,158.68,535.55,159.63Z"/><path class="cls-6" d="M190.91,195.32a4.15,4.15,0,0,0,1.37-3,51.45,51.45,0,0,0,.77-6.66c.15-3.93.1-7.86.16-11.79a8.75,8.75,0,0,0-.66-3.6c-1.67-3.94-1.43-8.12-1.38-12.27,0-.8.5-1.17,1.26-1.29,2.11-.31,4.23-.54,6.31-1a23.51,23.51,0,0,0,13.13-8.27A66.88,66.88,0,0,0,221,133.39c1.81-3.73,1.52-3.77,4.55-.68a19.18,19.18,0,0,1,5.34,9.92c.61,3.08,1.32,6.13,2.06,9.18a13.31,13.31,0,0,0,1.11,2.79,1.77,1.77,0,0,0,2,.79L236,157a30.07,30.07,0,0,0-.88,3.93,68.77,68.77,0,0,1-2.24,11.2,33.31,33.31,0,0,1-3.82,9.31,5.46,5.46,0,0,1-5.27,2.95c-1.23-.07-2.47,0-3.7,0a4.4,4.4,0,0,0-1.5-.57,29.37,29.37,0,0,1-6-.68,39,39,0,0,1-13.4-5,1,1,0,0,0-.89-.11c-.5.35-.16.79.09,1.14,2.48,3.44,4.88,7,8.59,9.26s7.71,4.62,12.5,4l-.06,2.49c.51,2.84-1.19,4.43-3.34,5.63A11.83,11.83,0,0,1,211,202a28.41,28.41,0,0,1-17.61-4.58,20,20,0,0,0-1.78-.92Z"/><path class="cls-7" d="M410.55,239.28c2.73,1.39,5.78,1.66,8.68,2.46s5.87,1.39,8.81,2.07c.44.1.89.16,1.31.3,1.28.42,1.56.93,1.25,2.26q-1.61,6.87-3.23,13.73c-1.68,7.07-3.39,14.14-5.05,21.21a19.77,19.77,0,0,0-.24,2.67c-1,.6-1,1.75-1.19,2.67q-2.82,11.63-5.5,23.28c-.25,1.06-.66,2.17-.1,3.28a22.54,22.54,0,0,0-1.2,3.1c-1.45,6.11-2.82,12.23-4.23,18.35-.16.65-.42,1.28-.58,1.93a1.47,1.47,0,0,1-1.77,1.17,13.45,13.45,0,0,1-2-.29c-4.36-1-8.72-2.09-13.08-3.12q-15.87-3.74-31.75-7.44-9-2.1-18-4.15c-3.1-.7-3.47-1.27-2.72-4.43q3.12-13.08,6.24-26.16c.77-3.27,1.5-6.55,2.25-9.83,1.05-.48,2.09-1,3.15-1.43.67-.28,1.38-.46,2.07-.69-.26,1.54-.43,3.09-.78,4.61-2.13,9.05-4.3,18.09-6.44,27.14-1.06,4.44-1.05,4.44,3.33,5.48l34.35,8.1c6,1.41,12,2.84,18,4.24,1.4.33,1.8.08,2.21-1.22a10,10,0,0,0,.21-1c1.62-7,3.22-14,4.87-20.95,2.09-8.83,4.23-17.65,6.33-26.48q3.39-14.22,6.77-28.45c.05-.22.12-.43.16-.65.18-1-.07-1.5-1-1.84a12.45,12.45,0,0,0-1.6-.52c-3.7-.88-7.41-1.76-11.12-2.59a16.54,16.54,0,0,0-2.34-.2c.5-2.3,1-4.61,1.49-6.91Z"/><path class="cls-7" d="M353.19,263.4c.31-1.72.63-3.44.93-5.17.17-1,.3-2,.45-2.92.84-3.13,1.75-6.25,2.52-9.4.89-3.58,1.67-7.19,2.49-10.8.4-1.74.73-3.5,1.16-5.24a1.73,1.73,0,0,1,2.23-1.48c.65.11,1.29.36,1.94.52L382.23,233q-.8,3.1-1.57,6.21c-1.87-.35-3.74-.65-5.6-1.06-3.05-.68-6.08-1.44-9.13-2.13a1.33,1.33,0,0,0-1.82,1c-.09.32-.1.66-.18,1-.8,3.37-1.62,6.73-2.41,10.1-1,4.46-2,9-3.14,13.38-.6,2.25-.71,4.67-2,6.72-.42-.31-1-.53-1.24-.95C354.44,266,353.84,264.69,353.19,263.4Z"/><path class="cls-8" d="M380.65,239.24c.53-2.08,1.05-4.15,1.58-6.22a2.68,2.68,0,0,1,2.83-.51c1.65.37,3.28.8,4.92,1.19l14.77,3.47a10.63,10.63,0,0,1,2.25.67c.46.22.75.76,1.11,1.16-.49,2.3-1,4.61-1.49,6.91-.95,2.11-1.09,2.21-2.86,2-.22,0-.44-.05-.66-.1-6.88-1.62-13.77-3.23-20.64-4.88-1.63-.39-1.79-.7-1.79-2.65C380.67,239.91,380.66,239.57,380.65,239.24Z"/><path class="cls-5" d="M219.46,194.94l.06-2.49c.79-2.65.43-5.39.58-8.09,1.23,0,2.47-.05,3.7,0a5.46,5.46,0,0,0,5.27-2.95,33.31,33.31,0,0,0,3.82-9.31,68.77,68.77,0,0,0,2.24-11.2A30.07,30.07,0,0,1,236,157c.8,10,.73,19.91-1.62,29.72a40.54,40.54,0,0,1-4.73,11.8l-1.61-.77a59.25,59.25,0,0,0,2-11.93l-3.36,11.33c-1.26-.43-2.51-.88-3.79-1.28-.94-.3-1.91-.52-2.87-.77A3.3,3.3,0,0,0,219.46,194.94Z"/><path class="cls-8" d="M505.32,174.93c1.57,0,3.15.07,4.72,0a45.87,45.87,0,0,0,12.19-2,16.89,16.89,0,0,1,1.92-.58,1,1,0,0,1,.88.28.91.91,0,0,1-.1.9,50.57,50.57,0,0,1-4.57,4.46,60.52,60.52,0,0,1-6.12,4.11,30.27,30.27,0,0,1-7.83,3,3,3,0,0,1-.37-.91C505.78,181.11,505.56,178,505.32,174.93Z"/><path class="cls-3" d="M142.39,431.59q-.52-6.39-1-12.79a173.58,173.58,0,0,0,17.43,5.07c2,.43,4,.71,5.93,1.13a1.76,1.76,0,0,1,.94.81c.07.12-.25.6-.5.78-3.29,2.44-5.07,5.88-6.56,9.57a53.67,53.67,0,0,0-3.21,15.4c-.57,6.51.29,13,.67,19.5,0,.11,0,.22,0,.33.62,3.87,1.3,7.72,1.84,11.59.56,4.1,1,8.22,1.48,12.33q.36,3,.78,6c.61,4.32,1.26,8.63,1.86,12.94.31,2.22.53,4.45.85,6.66s.81,4.63,1.14,7c.53,3.88.93,7.77,1.5,11.65.79,5.42,1.69,10.82,2.53,16.23.68,4.42,1.33,8.84,2,13.27.24,1.65.49,3.31.74,5,.32,2.22.59,4.44.95,6.65.55,3.31,1.16,6.6,1.74,9.91.83,4.73,1.62,9.47,2.48,14.2.71,3.85,1.48,7.7,2.27,11.53a136.08,136.08,0,0,0,4.64,17.88c.68,1.89,1.52,3.73,2.29,5.6l-4.27.13L177,640c-1.13-.19-2-.44-2.26-1.92-1.21-6.75-2.62-13.46-3.88-20.2-2.2-11.82-4.42-23.65-6.48-35.5q-3-17.43-5.73-34.94c-2-13.11-4-26.23-5.87-39.36-2.07-14.24-4.14-28.48-6.06-42.74-1.36-10-2.47-20.09-3.71-30.14C142.84,434,142.59,432.81,142.39,431.59Z"/><path class="cls-6" d="M177,640l3.93-.17,4.26-.13c2.08,0,4.16,0,6.24.11,1.75,0,3.49.16,5.23.25,0,7.27-.11,14.54-.12,21.81a20.51,20.51,0,0,0,.41,3.65c.69,4,1.44,7.89,2.17,11.84-.5.44-1,.88-1.5,1.33-4.11,3.75-8.44,4.26-13.27,1.48-1.36-.78-2.6-1.76-3.9-2.64l1.41-6.9A26.09,26.09,0,0,0,181.5,659C180,652.7,178.48,646.37,177,640Z"/><path class="cls-3" d="M180.43,677.57c1.3.88,2.54,1.86,3.9,2.64,4.83,2.78,9.16,2.27,13.27-1.48.49-.45,1-.89,1.5-1.33a14.81,14.81,0,0,1,.81,2.87c.35,3.77.59,7.56.85,11.34.07,1.1-.2,2.25.62,3.2-2.33.05-4.66.16-7,.15-5.22,0-10.44-.08-15.66-.13.75-.73.52-1.63.5-2.53A66.17,66.17,0,0,1,180.43,677.57Z"/><path class="cls-5" d="M208,109.47a4.25,4.25,0,0,1,.27-.46s.18,0,.28,0l-.6.37Z"/><path class="cls-9" d="M631.52,646a9.34,9.34,0,0,0-.83,1.05c-5.64,3.93-11.88,6.75-18.08,9.64-1.59.13-2.05-1.17-2.67-2.19-3.65-6.07-7.33-12.13-10.88-18.26-9-15.48-17.83-31-26.8-46.48q-11.71-20.22-22-41.17c-1.94-3.88-3.83-7.78-5.7-11.7-1.21-2.54-2.43-5.07-3.68-7.59a1.26,1.26,0,0,0-.43-.43l-.26-.2c-.15.24-.42.48-.44.73-.11,1.48-.21,3-.32,4.43v0c-.33,4.68-.64,9.37-1,14-.43,5.94-.84,11.89-1.4,17.81-.59,6.38-1.18,12.76-2,19.11-1.3,9.46-2.66,18.92-4.31,28.32q-3.32,18.93-8,37.58c-1.68,6.76-3.59,13.47-5.28,20.23a3.35,3.35,0,0,1-2.84,2.85c-2.13.1-4.25.24-6.38.29a30.33,30.33,0,0,1-13.71-2.89c-.61-.28-1.26-.47-1.88-.7a4,4,0,0,0-.75-.68c-1.65-.88-2.21-2.23-2.33-4.11-.3-4.82-.86-9.62-1.3-14.43-.27-2.91-.51-5.82-.76-8.73-.58-7.05-1.25-14.1-1.72-21.16-.42-6.17-.61-12.35-.9-18.52,0-.56-.06-1.12-.1-1.68-.36-4.82-.75-9.64-1.09-14.45-.31-4.49-.57-9-.87-13.46-.22-3.25-.47-6.5-.72-9.75-.4-5.15-.82-10.3-1.21-15.45-.28-3.59-.51-7.18-.8-10.76-.57-6.94-1.18-13.88-1.75-20.82-.68-8.4-1.32-16.8-2-25.2q-1-13.26-2.13-26.53-1-12.09-2-24.19c-.68-8.51-1.38-17-2-25.53q-.87-11.25-1.69-22.52c1.79,0,3.6-.05,5.38.1,7.5.63,15,1.35,22.5,2a115.29,115.29,0,0,0,43-4.66,165,165,0,0,0,25.41-9.88c.39,3,.86,6,1.16,9q1,9.9,1.87,19.81c.3,3.47.56,6.95.67,10.44a87.93,87.93,0,0,0,3.14,18.59,258.5,258.5,0,0,0,16.81,47.64,77.68,77.68,0,0,0,9,15,56.93,56.93,0,0,1,7,12.27,201.1,201.1,0,0,1,10.16,30c4.21,15.75,7.46,31.72,10.29,47.78,2,11.4,3.86,22.83,5.39,34.3q1.15,8.7,2.4,17.37A4,4,0,0,1,631.52,646Z"/><path class="cls-1" d="M565.4,310.11a22.09,22.09,0,0,1,1.78,2c3,4.23,5.86,8.52,8.88,12.71a10.21,10.21,0,0,1,2,6.29c-.11,9.1-.15,18.2-.29,27.3-.06,4.38-.27,8.76-.44,13.14-.05,1.11-.24,2.22-.37,3.33-2.16.08-4.34-.23-6.48.56a8.59,8.59,0,0,1-2.6.12,13.65,13.65,0,0,1-.34-1.64c-.55-8.93-1.13-17.87-1.62-26.82-.32-5.81-.51-11.62-.75-17.44,0-1.46.09-2.91.1-4.37Q565.35,317.7,565.4,310.11Z"/><path class="cls-6" d="M578.18,391.79a26.82,26.82,0,0,0,11.65,4.82,15.1,15.1,0,0,1,1.93.56c-.34,2.21-.59,4.44-1,6.63a14.84,14.84,0,0,1-2.79,6.06,87.8,87.8,0,0,1-10.41,11.88c-.62.58-1.28,1.64-2.19,1.25-1.13-.5-.67-1.8-.54-2.71.26-2,.75-3.95,1.14-5.93.45-2.3.9-4.6,1.29-6.92,0-.19-.32-.5-.57-.66s-.47.07-.56.21c-.46.76-.86,1.56-1.29,2.34s-.73,1.39-1.16,2a1.1,1.1,0,0,1-.84.41,1,1,0,0,1-.69-.58,27.34,27.34,0,0,1-.62-4.3c-.15-6.05,0-6.41,3.62-11.08Q576.66,393.81,578.18,391.79Z"/><path class="cls-4" d="M196.64,640.1c-1.74-.09-3.48-.2-5.23-.25-2.08-.06-4.16-.08-6.24-.11-.76-1.87-1.6-3.71-2.28-5.6a136.08,136.08,0,0,1-4.64-17.88c-.79-3.83-1.56-7.68-2.27-11.53-.86-4.73-1.65-9.47-2.48-14.2-.58-3.31-1.19-6.6-1.74-9.91-.36-2.21-.63-4.43-.95-6.65-.25-1.66-.5-3.32-.74-5-.67-4.43-1.32-8.85-2-13.27-.84-5.41-1.74-10.81-2.53-16.23-.57-3.88-1-7.77-1.5-11.65-.33-2.32-.79-4.63-1.14-7s-.54-4.44-.85-6.66c-.6-4.31-1.25-8.62-1.86-12.94q-.42-3-.78-6c-.5-4.11-.92-8.23-1.48-12.33-.54-3.87-1.22-7.72-1.84-11.59,0-.11,0-.22,0-.33-.38-6.5-1.24-13-.67-19.5a53.67,53.67,0,0,1,3.21-15.4c1.49-3.69,3.27-7.13,6.56-9.57.25-.18.57-.66.5-.78a1.76,1.76,0,0,0-.94-.81c-2-.42-4-.7-5.93-1.13a173.58,173.58,0,0,1-17.43-5.07l-8.86-3.1c-.94-.33-1.91-.6-2.86-.9l-3-1.42c-1.14-.54-1.35-.87-1-2.11,1.27-4.18,2.62-8.34,3.89-12.52q5.89-19.29,11.75-38.6c.16-.53.42-1,.63-1.55l.51-.74-.17,0a5.14,5.14,0,0,0,1.95-.17c2-1,3.91-2.21,5.8-3.4a106.18,106.18,0,0,0,10.57-7.76,76.9,76.9,0,0,0,10.56-11.24,79.58,79.58,0,0,0,7.21-11.34,45.68,45.68,0,0,0,2.45-5.54c.37-.94-.13-1.37-1.22-1.23a66.29,66.29,0,0,1-7.66.88c-6.16.05-12.34.61-18.47-.5-1.41-.2-2.81-.49-4.21-.56a4.09,4.09,0,0,1-3.36-2.22,71.28,71.28,0,0,1-3.67-13.61c-.63-4.78-1.29-9.56-1.71-14.36-1-11.22-.58-22.44.09-33.66.05-.89.06-1.79.1-2.69.34-2.66.73-5.32,1-8a128.51,128.51,0,0,1,3.41-18.89c.2-.76.45-1.51.66-2.27,1.92-7.26,6.44-12.47,12.76-16.29a65.65,65.65,0,0,1,17.8-7.06,135.84,135.84,0,0,1,14.59-2.6c.21.38.43.76.65,1.14.39,1,.76,2.11,1.19,3.14,4.05,9.76,8.18,19.49,12.14,29.29a212.69,212.69,0,0,1,7.47,21.32,26.42,26.42,0,0,1,.9,10.34q-.75,6.7-1.64,13.39c-.73,5.46-1.53,10.91-2.3,16.36l-14.06.93c-1.11.07-2.22.19-3.33.34a.58.58,0,0,0-.46.95,11.79,11.79,0,0,1,1.4,7.78c-.39,2.76-1.09,5.48-1.56,8.23-.25,1.49-1.35,2.81-.85,4.44,1.54-.14,3.08-.27,4.61-.42.45-.05.88-.19,1.32-.26l9.59-1.55c-.53,3.55-1,7.11-1.6,10.66q-3.27,19.78-6.63,39.56c-.92,5.29-1.22,4.27,4,4.94.78.1,1.57.07,2.36.1a110.66,110.66,0,0,0,17.17-.7,114.76,114.76,0,0,0,18.16-3.65c2.12-.61,2.15-.64,2.13-2.74,0-4.27-.14-8.54-.19-12.81q-.27-22.28-.5-44.54c.44-.05.88-.14,1.32-.15,4.55-.14,8.85-1,12.51-4a5.7,5.7,0,0,1,3.81-1c2.78,0,5.57,0,8.35,0l6.07,2.25c.84,5,1.6,10,2.55,14.94a37.51,37.51,0,0,0,1.8,6.11c1.4,3.79,2.91,7.54,4.47,11.26a1.77,1.77,0,0,1-.72,2.55,4.23,4.23,0,0,0-.69.71c-1,.56-1.94,1.12-2.9,1.69a36.74,36.74,0,0,1-11.11,4.71c-3.19.7-3.19.74-2.8,3.88a12.1,12.1,0,0,0,.45,1.61c.08,2.12.07,4.26.27,6.37q.87,9.21,1.88,18.4c.42,3.79,1,7.56,1.44,11.34.51,4.68,1,9.36,1.54,14,.5,4.23,1.06,8.46,1.63,12.69a2.34,2.34,0,0,1-1.26,2.77c-1.49.82-1.43.92-1,2.92.14,1.34.21,2.7.45,4,2.9,16.14,5.68,32.31,8.78,48.41q6,31.44,13.56,62.57c8.65,36.18,18.49,72,29.94,107.43a12.27,12.27,0,0,1,.63,2.26c0,.31-.42.67-.66,1-1.22,0-2.45-.08-3.67-.06-3.13,0-6.25.13-9.38.2-.63-2.22-2.23-3.87-3.44-5.74-3.95-6.14-8.09-12.15-11.95-18.33-3.45-5.53-6.67-11.19-9.89-16.84-3.33-5.86-6.72-11.69-9.77-17.69-3.4-6.71-6.57-13.54-9.59-20.43q-4-9.24-7.5-18.74a175.69,175.69,0,0,1-6.73-24.28,250,250,0,0,0-8.68-30.7c-3.22-9.22-6.64-18.36-10.68-27.25-3.35-7.36-6.63-14.75-10.11-22-2.38-5-5.07-9.77-7.62-14.65a8.24,8.24,0,0,0-.74-1.11.66.66,0,0,0-1.07.22,18.16,18.16,0,0,0-.34,2.64,64.25,64.25,0,0,1-.23,7.74,47.07,47.07,0,0,0-.48,6.36c-.11,4.49-1,8.93-.74,13.43a1.9,1.9,0,0,1-.08.67c-.67,1.73-.49,3.54-.53,5.34-.06,2.13-.11,4.27-.16,6.4a5.94,5.94,0,0,0-.4,1.26c-.25,2.91-.47,5.82-.68,8.74q-.83,11.58-1.62,23.18c-.26,3.59-.57,7.17-.77,10.76-.33,6-.66,12.11-.85,18.17-.13,4.49,0,9-.05,13.48-.1,19.21-.55,38.41-1.49,57.6-.3,6.06-.53,12.12-.91,18.18-.34,5.26-.83,10.52-1.29,15.78-.16,1.9-.44,3.79-.64,5.69a1.44,1.44,0,0,1-1.51,1.46A6,6,0,0,0,196.64,640.1Zm-8.18-359.42c.45-3.11-.5-7.27-1.9-11.31a85.33,85.33,0,0,0-5.71-12.91c-.72-1.31-1.17-2.87-2.79-3.46-.39,1.25-.85,2.49-1.16,3.77q-3.08,12.87-6.11,25.78c-.23,1-.5,1.95-.65,2.94a3.12,3.12,0,0,0,1.72,3.37,8.76,8.76,0,0,0,2.16.91c1.4.34,2.88.42,4.26.83,2.65.81,5.35.4,8,.49.76,0,1.16-.41,1.41-1.17C188.58,287.3,188.31,284.59,188.46,280.68Z"/><path class="cls-3" d="M153.43,317.52c6.13,1.11,12.31.55,18.47.5a66.29,66.29,0,0,0,7.66-.88c1.09-.14,1.59.29,1.22,1.23a45.68,45.68,0,0,1-2.45,5.54,79.58,79.58,0,0,1-7.21,11.34,76.9,76.9,0,0,1-10.56,11.24A106.18,106.18,0,0,1,150,354.25c-1.89,1.19-3.82,2.35-5.8,3.4a5.14,5.14,0,0,1-1.95.17c.23-1.08.4-2.18.7-3.24q4.91-16.9,9.83-33.8C153.08,319.72,153.21,318.61,153.43,317.52Z"/><path class="cls-3" d="M142.41,357.86l-.51.74C141.89,358.23,141.83,357.82,142.41,357.86Z"/><path class="cls-2" d="M321.2,640.42c.24-.34.7-.7.66-1a12.27,12.27,0,0,0-.63-2.26c-11.45-35.4-21.29-71.25-29.94-107.43q-7.46-31.14-13.56-62.57c-3.1-16.1-5.88-32.27-8.78-48.41-.24-1.32-.31-2.68-.45-4a44.44,44.44,0,0,0,7-.88c1.9-.53,3.79-.31,5.66-.63,2.63-.46,5.28-.85,7.93-1.19,2.43-.31,4.91-.37,7.31-.83,3-.58,6-.76,8.94-1.2,2.32-.35,4.65-.57,7-.89,2.65-.36,5.29-.79,7.94-1.13,2.43-.32,4.89-.49,7.32-.82s5.05-.82,7.59-1.2c1.87-.27,3.75-.49,5.64-.69,2.55-.28,5.11-.5,7.66-.8,1.66-.19,3.3-.48,5-.72,2.75-.4,5.51-.82,8.27-1.18,2.43-.32,4.87-.55,7.31-.87,2.64-.35,5.28-.81,7.93-1.15,2.43-.32,4.92-.35,7.31-.85,3-.61,6-.66,8.94-1.2,2.2-.41,4.46-.48,6.64-.86,3-.51,6-.6,8.94-1.17,2.2-.43,4.42-.62,6.65-.83,2.54-.23,5.05-.79,7.59-1.16,1.87-.27,3.76-.49,5.64-.7,2.55-.28,5.11-.47,7.66-.81s5.05-.81,7.58-1.19q2.66-.4,5.31-.69c3.1-.33,6.2-.63,9.28-1.19,2.3-.42,4.64-.57,7-.84a2.1,2.1,0,0,1,.24.59c0,1.87,1.09,2.7,2.8,2.92.57,7.5,1.11,15,1.69,22.52.66,8.51,1.36,17,2.05,25.53q1,12.09,1.95,24.18,1.06,13.27,2.14,26.54c.67,8.4,1.31,16.8,2,25.2.56,6.94,1.18,13.87,1.74,20.81.3,3.59.52,7.18.8,10.76.39,5.15.81,10.3,1.21,15.46.25,3.24.5,6.49.72,9.74.3,4.49.56,9,.87,13.46.34,4.82.73,9.63,1.09,14.45,0,.56.07,1.12.1,1.68.29,6.18.49,12.36.9,18.52.47,7.06,1.14,14.11,1.73,21.16.24,2.91.48,5.82.75,8.73.44,4.81,1,9.62,1.3,14.43.12,1.88.68,3.23,2.34,4.11a4.26,4.26,0,0,1,.74.68,18.56,18.56,0,0,1-7.35,9.4,41.77,41.77,0,0,1-14.1,6.26c-1.95.52-3.95.85-5.93,1.29-3.4.74-6.05,2.42-7.12,5.93a1.56,1.56,0,0,1-1.71,1.24c-1.35,0-2.7,0-4.05,0H367.25c-1.24,0-2.47.09-3.7.14a6.87,6.87,0,0,1-.85-1.41,15.78,15.78,0,0,0-6.38-8.46c-1.84-1.27-3.88-2.25-5.82-3.37a9.29,9.29,0,0,0-.53-.85c-4.89-5.83-9.85-11.62-14.67-17.51A106.29,106.29,0,0,1,321.2,640.42Z"/><path class="cls-2" d="M196.64,640.1a6,6,0,0,1,1-.24,1.44,1.44,0,0,0,1.51-1.46c.2-1.9.48-3.79.64-5.69.46-5.26,1-10.52,1.29-15.78.38-6.06.61-12.12.91-18.18.94-19.19,1.39-38.39,1.49-57.6,0-4.5-.08-9,.05-13.48.19-6.06.52-12.12.85-18.17.2-3.59.51-7.17.77-10.76q.81-11.58,1.62-23.18c.21-2.92.43-5.83.68-8.74a5.94,5.94,0,0,1,.4-1.26c.28.61.57,1.21.85,1.82,6.64,14.62,13.33,29.22,19.9,43.87a310.23,310.23,0,0,1,12.67,32.27,299.29,299.29,0,0,0,46.49,90c1.56,2.06,3.28,4,4.82,6.07a3.59,3.59,0,0,0,3.48,1.51c1.45-.1,2.92,0,4.38,0,.84,1.31,1.65,2.65,2.54,3.93,2.91,4.25,5.86,8.48,8.79,12.72-.65,1.54-1.35,3.07-1.95,4.63a13.42,13.42,0,0,0,.19,11.06,9.82,9.82,0,0,1,.65,1.89c1.51,5.84,3,11.68,4.47,17.53a7.49,7.49,0,0,1,0,1.95c-1,0-2-.12-3-.12q-53.83,0-107.67,0c-1,0-2,.08-3,.12-.83-.95-.56-2.1-.63-3.2-.26-3.78-.5-7.57-.85-11.34a14.81,14.81,0,0,0-.81-2.87c-.73-3.95-1.48-7.89-2.17-11.84a20.51,20.51,0,0,1-.41-3.65C196.53,654.64,196.59,647.37,196.64,640.1Z"/><path class="cls-2" d="M514.53,673.82a3.34,3.34,0,0,0,2.84-2.85c1.7-6.76,3.6-13.46,5.28-20.22q4.64-18.66,8-37.59c1.65-9.4,3-18.86,4.31-28.32.87-6.34,1.46-12.73,2.06-19.1.55-5.93,1-11.87,1.4-17.81.45-6.17.85-12.34,1.3-18.5,0-.26.29-.49.45-.74.23.21.56.37.69.63,1.24,2.52,2.46,5.06,3.67,7.6,8.58,18,17.76,35.63,27.75,52.86,9,15.48,17.84,31,26.8,46.48,3.56,6.13,7.23,12.19,10.88,18.27.62,1,1.08,2.32,2.68,2.18,0,4.95,0,9.89,0,14.84a22.22,22.22,0,0,1-2.18,9.78c-1.6,3.29-4,5.67-7.7,6.49a10,10,0,0,0-1.61.5c-2.17.83-3.61,2.16-3.47,4.75.07,1.39-.15,1.5-1.51,1.54-.78,0-1.57,0-2.36,0H516.94c-.9,0-1.79,0-2.69,0-.73,0-1.12-.46-.92-1C515.5,687.07,514.68,680.43,514.53,673.82Z"/><path class="cls-3" d="M315.1,694.81a7.49,7.49,0,0,0,0-1.95c-1.45-5.85-3-11.69-4.47-17.53a9.82,9.82,0,0,0-.65-1.89,13.42,13.42,0,0,1-.19-11.06c.6-1.56,1.3-3.09,1.95-4.63a8.25,8.25,0,0,1,4.86,1,56.88,56.88,0,0,1,6.36,3.73,68.41,68.41,0,0,1,11,9.88c1.37,1.48,2.68,3,4.16,4.39,3.5,3.2,7.49,5.27,12.43,4.84,1.94,1.12,4,2.1,5.82,3.37a15.78,15.78,0,0,1,6.38,8.46,6.87,6.87,0,0,0,.85,1.41c-2,0-4,.13-6,.13q-8.52,0-17,0c-1.23,0-2.45-.09-3.67-.13-.1-.41-.06-1-.31-1.21a27.26,27.26,0,0,1-4.21-6.47c-.95-1.78-1.88-3.58-2.7-5.42-1.49-3.37-4.28-5.08-7.58-6.18-.82-.27-1.24.06-1.24,1q0,8.58.13,17.17a5,5,0,0,0,.2,1Z"/><path class="cls-2" d="M321.12,694.72a5,5,0,0,1-.2-1q-.09-8.58-.13-17.17c0-.95.42-1.28,1.24-1,3.3,1.1,6.09,2.81,7.58,6.18.82,1.84,1.75,3.64,2.7,5.42a27.26,27.26,0,0,0,4.21,6.47c.25.26.21.8.31,1.21Z"/><path class="cls-1" d="M465.4,389.05c-2.33.27-4.67.42-7,.84-3.08.56-6.18.86-9.28,1.19q-2.65.29-5.31.69c-2.53.38-5,.86-7.58,1.19s-5.11.53-7.66.81c-1.88.21-3.77.43-5.64.7-2.54.37-5,.93-7.59,1.16-2.23.21-4.45.4-6.65.83-3,.57-6,.66-8.94,1.17-2.18.38-4.44.45-6.64.86-3,.54-6,.59-8.94,1.2-2.39.5-4.88.53-7.31.85-2.65.34-5.29.8-7.93,1.15-2.44.32-4.88.55-7.31.87-2.76.36-5.52.78-8.27,1.18-1.66.24-3.3.53-5,.72-2.55.3-5.11.52-7.66.8-1.89.2-3.77.42-5.64.69-2.54.38-5.06.85-7.59,1.2s-4.89.5-7.32.82c-2.65.34-5.29.77-7.94,1.13-2.32.32-4.65.54-7,.89-3,.44-6,.62-8.94,1.2-2.4.46-4.88.52-7.31.83-2.65.34-5.3.73-7.93,1.19-1.87.32-3.76.1-5.66.63a44.44,44.44,0,0,1-7,.88c-.43-2-.49-2.1,1-2.92a2.34,2.34,0,0,0,1.26-2.77c-.57-4.23-1.13-8.46-1.63-12.69-.55-4.68-1-9.36-1.54-14a24.45,24.45,0,0,0,3-.29c2-.43,3.87-1.08,5.83-1.47,2.62-.52,5.1-1.66,7.83-1.63a31.44,31.44,0,0,1,1.55,3.33c.68,2,1.24,4.07,1.8,6.13a8,8,0,0,0,2.41,3.95,33.6,33.6,0,0,1,2.63,3.06c.58.68,1.14,1.38,1.78,2a1,1,0,0,0,.89.18.9.9,0,0,0,.39-.79c-.24-1.2-.56-2.39-.87-3.58-.17-.65-.53-1.41.18-1.81.34-.18,1.06.13,1.52.37a9.27,9.27,0,0,1,4.75,5.41c.59,1.8,1.32,3.58,2.09,5.32a52.56,52.56,0,0,0,2.42,4.8,1.16,1.16,0,0,0,2.14-.12,15.85,15.85,0,0,0,1.25-4.49c.19-3.48.19-7,0-10.44a9.41,9.41,0,0,0-3-6.6c-1.55-1.46-3.1-2.93-4.76-4.26-2.18-1.75-4.47-3.38-6.71-5.06,2.36-.67,4.71-1.43,7.1-2,4.34-1.05,8.72-1.95,13.07-3,7.71-1.86,15.4-3.82,23.11-5.69,6.3-1.53,12.62-3,18.93-4.49,5.86-1.42,11.71-2.9,17.58-4.31,5.33-1.27,10.68-2.45,16-3.73,5.87-1.41,11.72-2.89,17.59-4.3,5.22-1.26,10.45-2.44,15.66-3.69,7-1.68,13.9-3.42,20.85-5.11,5.54-1.34,11.08-2.68,16.64-3.94a29.29,29.29,0,0,1,4-.35c0,5.14,0,10.28,0,15.43q.09,18.3.21,36.59C465.49,388.16,465.43,388.6,465.4,389.05Z"/><path class="cls-3" d="M415.29,313.21c-.56-1.11-.15-2.22.1-3.28q2.7-11.65,5.5-23.28c.22-.92.15-2.07,1.19-2.67,8.24,1.11,16.49,2.16,24.72,3.38a3.83,3.83,0,0,0,4.3-1.8,48.3,48.3,0,0,0,3.32-5.85c2.39-5.45,4.64-11,6.91-16.47,3.42-8.3,6.79-16.63,10.25-24.93.4-1,.53-2.2,1.73-2.7a10.58,10.58,0,0,1-.09,2.33,94.18,94.18,0,0,0-2.59,14.15c-.25,2.54-.83,5.06-1.16,7.6-.26,2.1-.35,4.22-.63,6.33-.54,4-.58,8-.86,12-.09,1.34-.32,2.66-.42,4-.11,1.68-.16,3.36-.23,5a44.87,44.87,0,0,1-.49,7,37.86,37.86,0,0,0-.19,6,52.14,52.14,0,0,1-.51,8.36,38.68,38.68,0,0,0-.15,6.38c-.05,2.91-.12,5.83-.19,8.74l-3.62.63c-5.63,1-11.16.07-16.65-1.09A154.94,154.94,0,0,1,420,315C418.45,314.34,416.86,313.79,415.29,313.21Z"/><path class="cls-3" d="M565.4,310.11q-.06,7.58-.13,15.16c0,1.46-.07,2.91-.1,4.37a65.13,65.13,0,0,1-16.68-24.11c-2-5.62-3.6-11.31-3.52-17.35,0-2.36,0-4.72.06-7.08a3.3,3.3,0,0,1,.29-.87c.37.17.85.26,1.08.55a24.74,24.74,0,0,1,1.53,2.21q7.76,11.81,15.52,23.62C564.17,307.72,564.75,308.94,565.4,310.11Z"/><path class="cls-3" d="M473.55,234.37l1.15-2.12c0,.79.2,1.62-.65,2.13Z"/><path class="cls-3" d="M473.55,234.37h.5c0,.6-.08,1.15-.82,1.28C473.33,235.23,473.44,234.8,473.55,234.37Z"/><path class="cls-3" d="M474.67,232.34l.73-1.68C475.38,231.32,475.39,232,474.67,232.34Z"/><path class="cls-6" d="M294.75,376.32c2.24,1.68,4.53,3.31,6.71,5.06,1.66,1.33,3.21,2.8,4.76,4.26a9.41,9.41,0,0,1,3,6.6c.14,3.47.14,7,0,10.44a15.85,15.85,0,0,1-1.25,4.49,1.16,1.16,0,0,1-2.14.12,52.56,52.56,0,0,1-2.42-4.8c-.77-1.74-1.5-3.52-2.09-5.32a9.27,9.27,0,0,0-4.75-5.41c-.46-.24-1.18-.55-1.52-.37-.71.4-.35,1.16-.18,1.81.31,1.19.63,2.38.87,3.58a.9.9,0,0,1-.39.79,1,1,0,0,1-.89-.18c-.64-.63-1.2-1.33-1.78-2a33.6,33.6,0,0,0-2.63-3.06,8,8,0,0,1-2.41-3.95c-.56-2.06-1.12-4.12-1.8-6.13a31.44,31.44,0,0,0-1.55-3.33,11.21,11.21,0,0,0-.57-1.21q-8.4-13.71-16.84-27.39c-.87-1.42-1.88-2.75-2.82-4.12a12.1,12.1,0,0,1-.45-1.61c-.39-3.14-.39-3.18,2.8-3.88A36.74,36.74,0,0,0,277.46,336c1-.57,1.93-1.13,2.9-1.69.4,1,.85,2,1.2,3.1q5.79,17.64,11.58,35.3C293.55,374,293.65,375.37,294.75,376.32Z"/><path class="cls-6" d="M353.19,263.4c.65,1.29,1.25,2.61,2,3.85.25.42.82.64,1.25.95.06,1.43,0,2.87.19,4.29a6.46,6.46,0,0,1-1.78,5.77,8.82,8.82,0,0,0-1.16,2c-.69.23-1.4.41-2.07.69-1.06.44-2.1.95-3.15,1.43-1.82-2-1.42-4.42-1.14-6.67a31.45,31.45,0,0,1,3-9.83C350.9,264.6,351.61,263.49,353.19,263.4Z"/><path class="cls-5" d="M273,298.73l-6.07-2.25,2.45-.72a2.9,2.9,0,0,0,2.38-2.73l0,0a2.34,2.34,0,0,0,1.65,1.92c1,.29,1.9.68,2.88.89a11.85,11.85,0,0,1,5.24,2.84,1.19,1.19,0,0,1,.43.79c0,.16-.45.42-.71.43a12.94,12.94,0,0,1-5.95-.58A15.79,15.79,0,0,0,273,298.73Z"/><path class="cls-10" d="M209.32,290.3c.77-5.45,1.57-10.9,2.3-16.36q.9-6.69,1.64-13.39a26.42,26.42,0,0,0-.9-10.34,212.69,212.69,0,0,0-7.47-21.32c-4-9.8-8.09-19.53-12.14-29.29-.43-1-.8-2.09-1.19-3.14a20,20,0,0,1,1.78.92A28.41,28.41,0,0,0,211,202a11.83,11.83,0,0,0,5.17-1.39c2.15-1.2,3.85-2.79,3.34-5.63a3.3,3.3,0,0,1,.62.15c2.19,5.66,4.45,11.29,6.55,17,3.37,9.18,6.6,18.41,9.94,27.6a58.18,58.18,0,0,1,3.59,20.14c0,8.22.16,16.43.26,24.64-.76-.16-1.54-.28-2.28-.51-4.83-1.47-9.64-3-14.46-4.44a8.85,8.85,0,0,0-2.27-.55,1.92,1.92,0,0,0-1.34.77,1.62,1.62,0,0,0,.66,2.52c1.36.52,2.76.92,4.15,1.37l14.38,4.63c-.88.95-2.06.73-3.15.78l-18.77.85c-.45,0-.89.08-1.34.1C213.78,290.09,211.55,290.19,209.32,290.3Z"/><path class="cls-6" d="M209.32,290.3c2.23-.11,4.46-.21,6.68-.33.45,0,.89-.08,1.34-.1l18.77-.85c1.09,0,2.27.17,3.15-.78l4.47-2.41c2-.81,3.88-1.71,5.88-2.43,6.4-2.29,7.57-2.15,13.28,1.2A44.28,44.28,0,0,1,268.8,289a8.11,8.11,0,0,1,2.91,4,2.9,2.9,0,0,1-2.38,2.73l-2.45.72c-2.78,0-5.57,0-8.35,0a5.7,5.7,0,0,0-3.81,1c-3.66,3-8,3.81-12.51,4-.44,0-.88.1-1.32.15-2-.39-3.73.5-5.52,1.08-7.34,2.37-14.71,4.63-22.26,6.29-2.4.52-4.76,1.2-7.13,1.81l-9.59,1.55c-.44.07-.87.21-1.32.26-1.53.15-3.07.28-4.61.42-.5-1.63.6-3,.85-4.44.47-2.75,1.17-5.47,1.56-8.23a11.79,11.79,0,0,0-1.4-7.78.58.58,0,0,1,.46-.95c1.11-.15,2.22-.27,3.33-.34Z"/><path class="cls-5" d="M243.73,285.83l-4.47,2.41-14.38-4.63c-1.39-.45-2.79-.85-4.15-1.37a1.62,1.62,0,0,1-.66-2.52,1.92,1.92,0,0,1,1.34-.77,8.85,8.85,0,0,1,2.27.55c4.82,1.47,9.63,3,14.46,4.44.74.23,1.52.35,2.28.51Z"/><path class="cls-7" d="M226.74,197.14l3.36-11.33a59.25,59.25,0,0,1-2,11.93Z"/><path class="cls-8" d="M220.1,184.36c-.15,2.7.21,5.44-.58,8.09-4.79.59-8.68-1.68-12.5-4s-6.11-5.82-8.59-9.26c-.25-.35-.59-.79-.09-1.14a1,1,0,0,1,.89.11,39,39,0,0,0,13.4,5,29.37,29.37,0,0,0,6,.68A4.4,4.4,0,0,1,220.1,184.36Z"/><path class="cls-10" d="M353.66,280.22a8.82,8.82,0,0,1,1.16-2,6.46,6.46,0,0,0,1.78-5.77c-.15-1.42-.13-2.86-.19-4.29,1.26-2.05,1.37-4.47,2-6.72,1.18-4.42,2.09-8.92,3.14-13.38.79-3.37,1.61-6.73,2.41-10.1.08-.33.09-.67.18-1a1.33,1.33,0,0,1,1.82-1c3.05.69,6.08,1.45,9.13,2.13,1.86.41,3.73.71,5.6,1.06,0,.34,0,.68,0,1,0,1.95.16,2.26,1.79,2.65,6.87,1.65,13.76,3.26,20.64,4.88.22,0,.44.07.66.1,1.77.25,1.91.15,2.86-2a16.54,16.54,0,0,1,2.34.2c3.71.83,7.42,1.71,11.12,2.59a12.45,12.45,0,0,1,1.6.52c.91.34,1.16.82,1,1.84,0,.22-.11.43-.16.65q-3.39,14.22-6.77,28.45c-2.1,8.83-4.24,17.65-6.33,26.48-1.65,7-3.25,14-4.87,20.95a10,10,0,0,1-.21,1c-.41,1.3-.81,1.55-2.21,1.22-6-1.4-12-2.83-18-4.24l-34.35-8.1c-4.38-1-4.39-1-3.33-5.48,2.14-9.05,4.31-18.09,6.44-27.14C353.23,283.31,353.4,281.76,353.66,280.22Zm10.75-13.45a2.79,2.79,0,0,0-.89.14c-.26.16-.65.43-.64.64,0,.38.19,1,.46,1.08a17.79,17.79,0,0,0,2.88.89c6.19,1.46,12.4,2.86,18.59,4.34,7.5,1.79,15,3.64,22.47,5.45a2.83,2.83,0,0,0,1.3.15,1.85,1.85,0,0,0,1-.8.75.75,0,0,0-.47-1.08,11.33,11.33,0,0,0-1.88-.66c-3.15-.74-6.32-1.41-9.47-2.16-9.78-2.34-19.54-4.72-29.32-7.07C367,267.35,365.61,267.05,364.41,266.77Zm48.92-.81c-.23-.45-.3-.87-.54-1a9.4,9.4,0,0,0-2.16-.87c-7.07-1.66-14.17-3.27-21.24-4.94-6.65-1.58-13.27-3.22-19.91-4.82a8.13,8.13,0,0,0-2-.22c-.23,0-.56.39-.63.66s0,.78.22.88a10.35,10.35,0,0,0,2.43,1c7,1.65,13.95,3.22,20.92,4.88,6.75,1.6,13.48,3.29,20.22,4.93a4.61,4.61,0,0,0,1.64.19C412.67,266.62,413,266.22,413.33,266Zm-.55-5.92a4.78,4.78,0,0,0,1.08,0,3.09,3.09,0,0,0,1.1-.56c.31-.29-.12-1.09-.76-1.26-1.51-.41-3-.72-4.56-1.08-7.72-1.83-15.44-3.64-23.16-5.48-4.9-1.17-9.78-2.39-14.67-3.53a7.51,7.51,0,0,0-2.32-.09c-.22,0-.54.42-.59.69a1,1,0,0,0,.3.86,18,18,0,0,0,2.84,1c5.22,1.2,10.47,2.31,15.69,3.54,6.64,1.56,13.26,3.21,19.89,4.8C409.46,259.36,411.32,259.73,412.78,260Zm-45.78.6a5.67,5.67,0,0,0-1.4.16c-.26.12-.58.42-.6.67a1.09,1.09,0,0,0,.42.82,3.53,3.53,0,0,0,1.21.52c1.2.28,2.41.48,3.6.77l26.41,6.35c4.13,1,8.26,2,12.41,2.89.71.15,1.6.29,2-.67.26-.58-.19-1-1.4-1.47a8.34,8.34,0,0,0-.95-.35c-4.58-1-9.18-1.94-13.75-3-6.74-1.59-13.46-3.29-20.2-4.91C372.08,261.74,369.35,261.17,367,260.64Z"/><path class="cls-3" d="M300.41,641.1c-1.46,0-2.93-.14-4.38,0a3.59,3.59,0,0,1-3.48-1.51c-1.54-2.07-3.26-4-4.82-6.07a299.29,299.29,0,0,1-46.49-90,310.23,310.23,0,0,0-12.67-32.27C222,496.6,215.31,482,208.67,467.38c-.28-.61-.57-1.21-.85-1.82.05-2.13.1-4.27.16-6.4,0-1.8-.14-3.61.53-5.34a1.9,1.9,0,0,0,.08-.67c-.25-4.5.63-8.94.74-13.43a47.07,47.07,0,0,1,.48-6.36,64.25,64.25,0,0,0,.23-7.74,18.16,18.16,0,0,1,.34-2.64.66.66,0,0,1,1.07-.22,8.24,8.24,0,0,1,.74,1.11c2.55,4.88,5.24,9.69,7.62,14.65,3.48,7.29,6.76,14.68,10.11,22,4,8.89,7.46,18,10.68,27.25a250,250,0,0,1,8.68,30.7A175.69,175.69,0,0,0,256,542.79q3.47,9.48,7.5,18.74c3,6.89,6.19,13.72,9.59,20.43,3,6,6.44,11.83,9.77,17.69,3.22,5.65,6.44,11.31,9.89,16.84,3.86,6.18,8,12.19,11.95,18.33,1.21,1.87,2.81,3.52,3.44,5.74-1.07.1-2.14.22-3.21.29C303.43,641,301.92,641,300.41,641.1Z"/><path class="cls-10" d="M206,310.74c2.37-.61,4.73-1.29,7.13-1.81,7.55-1.66,14.92-3.92,22.26-6.29,1.79-.58,3.54-1.47,5.52-1.08q.24,22.28.5,44.54c.05,4.27.15,8.54.19,12.81,0,2.1,0,2.13-2.13,2.74a114.76,114.76,0,0,1-18.16,3.65,110.66,110.66,0,0,1-17.17.7c-.79,0-1.58,0-2.36-.1-5.23-.67-4.93.35-4-4.94q3.39-19.75,6.63-39.56C205,317.85,205.45,314.29,206,310.74Z"/><path class="cls-6" d="M300.41,641.1c1.51-.08,3-.14,4.53-.25,1.07-.07,2.14-.19,3.21-.29,3.13-.07,6.25-.16,9.38-.2,1.22,0,2.45,0,3.67.06a106.29,106.29,0,0,0,14.1,22.81c4.82,5.89,9.78,11.68,14.67,17.51a9.29,9.29,0,0,1,.53.85c-4.94.43-8.93-1.64-12.43-4.84-1.48-1.36-2.79-2.91-4.16-4.39a68.41,68.41,0,0,0-11-9.88,56.88,56.88,0,0,0-6.36-3.73,8.25,8.25,0,0,0-4.86-1c-2.93-4.24-5.88-8.47-8.79-12.72C302.06,643.75,301.25,642.41,300.41,641.1Z"/><path class="cls-3" d="M188.46,280.68c-.15,3.91.12,6.62-.74,9.24-.25.76-.65,1.19-1.41,1.17-2.68-.09-5.38.32-8-.49-1.38-.41-2.86-.49-4.26-.83a8.76,8.76,0,0,1-2.16-.91,3.12,3.12,0,0,1-1.72-3.37c.15-1,.42-2,.65-2.94q3-12.9,6.11-25.78c.31-1.28.77-2.52,1.16-3.77,1.62.59,2.07,2.15,2.79,3.46a85.33,85.33,0,0,1,5.71,12.91C188,273.41,188.91,277.57,188.46,280.68Z"/><path class="cls-2" d="M264,346.19c.94,1.37,1.95,2.7,2.82,4.12q8.44,13.68,16.84,27.39a11.21,11.21,0,0,1,.57,1.21c-2.73,0-5.21,1.11-7.83,1.63-2,.39-3.87,1-5.83,1.47a24.45,24.45,0,0,1-3,.29c-.48-3.78-1-7.55-1.44-11.34q-1-9.19-1.88-18.4C264.07,350.45,264.08,348.31,264,346.19Z"/><path class="cls-2" d="M364.41,266.77c1.2.28,2.62.58,4,.92,9.78,2.35,19.54,4.73,29.32,7.07,3.15.75,6.32,1.42,9.47,2.16a11.33,11.33,0,0,1,1.88.66.75.75,0,0,1,.47,1.08,1.85,1.85,0,0,1-1,.8,2.83,2.83,0,0,1-1.3-.15c-7.49-1.81-15-3.66-22.47-5.45-6.19-1.48-12.4-2.88-18.59-4.34a17.79,17.79,0,0,1-2.88-.89c-.27-.11-.45-.7-.46-1.08,0-.21.38-.48.64-.64A2.79,2.79,0,0,1,364.41,266.77Z"/><path class="cls-2" d="M413.33,266c-.35.26-.66.66-1,.71a4.61,4.61,0,0,1-1.64-.19c-6.74-1.64-13.47-3.33-20.22-4.93-7-1.66-13.95-3.23-20.92-4.88a10.35,10.35,0,0,1-2.43-1c-.19-.1-.29-.61-.22-.88s.4-.65.63-.66a8.13,8.13,0,0,1,2,.22c6.64,1.6,13.26,3.24,19.91,4.82,7.07,1.67,14.17,3.28,21.24,4.94a9.4,9.4,0,0,1,2.16.87C413,265.09,413.1,265.51,413.33,266Z"/><path class="cls-2" d="M412.78,260c-1.46-.31-3.32-.68-5.16-1.13-6.63-1.59-13.25-3.24-19.89-4.8-5.22-1.23-10.47-2.34-15.69-3.54a18,18,0,0,1-2.84-1,1,1,0,0,1-.3-.86c.05-.27.37-.68.59-.69a7.51,7.51,0,0,1,2.32.09c4.89,1.14,9.77,2.36,14.67,3.53,7.72,1.84,15.44,3.65,23.16,5.48,1.52.36,3.05.67,4.56,1.08.64.17,1.07,1,.76,1.26a3.09,3.09,0,0,1-1.1.56A4.78,4.78,0,0,1,412.78,260Z"/><path class="cls-2" d="M367,260.64c2.35.53,5.08,1.1,7.79,1.76,6.74,1.62,13.46,3.32,20.2,4.91,4.57,1.08,9.17,2,13.75,3a8.34,8.34,0,0,1,.95.35c1.21.43,1.66.89,1.4,1.47-.44,1-1.33.82-2,.67-4.15-.92-8.28-1.91-12.41-2.89l-26.41-6.35c-1.19-.29-2.4-.49-3.6-.77a3.53,3.53,0,0,1-1.21-.52,1.09,1.09,0,0,1-.42-.82c0-.25.34-.55.6-.67A5.67,5.67,0,0,1,367,260.64Z"/><path class="cls-11" d="M927.45,618,968.6,433.05l12.54,4a3.58,3.58,0,0,1,2.43,4.53Z"/><path class="cls-2" d="M927.42,618.12h0l-.12,0-265.08-59a4,4,0,0,1-3-4.82l42.68-191.82a3.84,3.84,0,0,1,4.7-2.93L740.09,367l69.35,15.43,158.49,35.26a3.87,3.87,0,0,1,3.05,4.66l-2.38,10.71L927.45,618Z"/><path class="cls-12" d="M960.79,431.62a1.22,1.22,0,0,1-1.44.91L708.83,376.79a1.2,1.2,0,0,1,.52-2.35l250.52,55.74a1.22,1.22,0,0,1,.92,1.44Z"/><path class="cls-12" d="M950.65,477.17a1.2,1.2,0,0,1-1.43.91L698.7,422.34a1.2,1.2,0,1,1,.52-2.35l250.52,55.74a1.2,1.2,0,0,1,.91,1.44Z"/><path class="cls-12" d="M806.5,465a4,4,0,0,0-3.06-4.81L704,438.06a4,4,0,0,0-4.8,3.05l-15.65,70.33a4,4,0,0,0,3.06,4.8l99.44,22.13a4,4,0,0,0,4.8-3.06L806.5,465"/><path class="cls-12" d="M943.37,494.41a3,3,0,0,1-3.58,2.27L819.56,469.93a3,3,0,0,1-2.28-3.58v0a3,3,0,0,1,3.57-2.27L941.1,490.81a3,3,0,0,1,2.27,3.58v0Z"/><path class="cls-12" d="M940.34,508a3,3,0,0,1-3.58,2.28L816.53,483.55a3,3,0,0,1-2.28-3.58v0a3,3,0,0,1,3.57-2.27l120.24,26.75a3,3,0,0,1,2.27,3.58Z"/><path class="cls-12" d="M937.31,521.64a3,3,0,0,1-3.58,2.28L813.5,497.17a3,3,0,0,1-2.28-3.58v0a3,3,0,0,1,3.57-2.28L935,518.05a3,3,0,0,1,2.27,3.57v0Z"/><path class="cls-12" d="M934.28,535.26a3,3,0,0,1-3.58,2.27L810.47,510.78a3,3,0,0,1-2.28-3.57v0a3,3,0,0,1,3.57-2.28L932,531.66a3,3,0,0,1,2.27,3.58v0Z"/><path class="cls-12" d="M931.2,549.11a3,3,0,0,1-3.58,2.28L807.39,524.64a3,3,0,0,1-2.28-3.58v0a3,3,0,0,1,3.57-2.27l120.23,26.75a3,3,0,0,1,2.28,3.57v0Z"/><path class="cls-12" d="M928.16,562.73a3,3,0,0,1-3.57,2.27L804.36,538.25a3,3,0,0,1-2.28-3.57v0a3,3,0,0,1,3.57-2.28l120.23,26.75a3,3,0,0,1,2.28,3.58v0Z"/><path class="cls-12" d="M923.22,586.05a2.5,2.5,0,0,1-3,1.89L680.94,534.7a2.51,2.51,0,0,1-1.9-3v-.05a2.5,2.5,0,0,1,3-1.9L921.34,583a2.5,2.5,0,0,1,1.9,3l0,.06Z"/><path class="cls-12" d="M920.19,599.66a2.5,2.5,0,0,1-3,1.9l-239.3-53.25a2.5,2.5,0,0,1-1.9-3v-.05a2.5,2.5,0,0,1,3-1.9l239.31,53.25a2.5,2.5,0,0,1,1.9,3l0,0Z"/><path class="cls-13" d="M766,486.29c-2.84,12-14,19.9-25.48,18.62a23.37,23.37,0,0,1-2.46-.41l1.36-5.74,2.43.55-.73,3.06c10.17,1,19.94-6.05,22.45-16.62s-3.1-21.09-12.68-24.55l-.73,3.06-2.43-.55L749,458a20.16,20.16,0,0,1,2.4.68C762.39,462.44,768.8,474.3,766,486.29Z"/><path class="cls-13" d="M714.67,511.6l1.13-4.78,1.49.34a2.33,2.33,0,0,1,1.51,1,2.44,2.44,0,0,1,.28,1.86,2.41,2.41,0,0,1-2.93,1.86Zm.59-.35,1,.23a1.88,1.88,0,0,0,1.49-.25,2,2,0,0,0,.85-1.26,1.92,1.92,0,0,0-.2-1.51,1.88,1.88,0,0,0-1.22-.85l-1-.22Z"/><path class="cls-13" d="M721,508.69a2.24,2.24,0,0,1,1.81-.34,2.18,2.18,0,0,1,1.47,1.08,2.49,2.49,0,0,1,.26,1.88v0a2.45,2.45,0,0,1-1.07,1.55,2.2,2.2,0,0,1-1.81.34,2.16,2.16,0,0,1-1.47-1.07,2.45,2.45,0,0,1-.26-1.88A2.56,2.56,0,0,1,721,508.69Zm-.61,1.69a2,2,0,0,0,.2,1.51,1.69,1.69,0,0,0,1.17.87,1.74,1.74,0,0,0,1.45-.28,2.07,2.07,0,0,0,.86-1.28,2,2,0,0,0-.2-1.52,1.74,1.74,0,0,0-1.17-.87,1.76,1.76,0,0,0-1.44.28A2.09,2.09,0,0,0,720.41,510.38Z"/><path class="cls-13" d="M724.92,513.91l1.13-4.78.48.11-1,4.32,2.42.54-.11.46Z"/><path class="cls-13" d="M729.93,510.7a2.25,2.25,0,0,1,1.81-.35,2.08,2.08,0,0,1,1.17.7,2.44,2.44,0,0,1,.56,1.29H733a1.93,1.93,0,0,0-.44-1,1.65,1.65,0,0,0-.91-.53,1.77,1.77,0,0,0-1.45.27,2.1,2.1,0,0,0-.86,1.28,2,2,0,0,0,.2,1.51,1.74,1.74,0,0,0,1.17.87,1.64,1.64,0,0,0,1.27-.2,2.11,2.11,0,0,0,.84-1.07l-1.72-.38.09-.43,2.2.49,0,.16a2.66,2.66,0,0,1-1,1.57,2.13,2.13,0,0,1-1.74.33,2.2,2.2,0,0,1-1.47-1.08,2.49,2.49,0,0,1-.26-1.88A2.54,2.54,0,0,1,729.93,510.7Z"/><path class="cls-13" d="M735.32,511.91a2.28,2.28,0,0,1,1.81-.35,2.23,2.23,0,0,1,1.47,1.09,2.49,2.49,0,0,1,.26,1.88v0a2.5,2.5,0,0,1-1.08,1.55,2.2,2.2,0,0,1-1.81.34,2.14,2.14,0,0,1-1.47-1.08,2.47,2.47,0,0,1-.26-1.87A2.54,2.54,0,0,1,735.32,511.91Zm-.61,1.68a2,2,0,0,0,.2,1.52,1.71,1.71,0,0,0,1.17.87,1.78,1.78,0,0,0,1.45-.28,2.07,2.07,0,0,0,.86-1.28,2,2,0,0,0-.2-1.52A1.74,1.74,0,0,0,737,512a1.76,1.76,0,0,0-1.44.28A2.07,2.07,0,0,0,734.71,513.59Z"/><path class="cls-13" d="M739.78,512.22l.53.12.49,4.93,2.68-4.22.51.12-2.82,4.39-.84-.18Z"/><path class="cls-13" d="M746.79,467.46l-5,21L736.22,468l-1.42-5.17-.68-2.51c-.39.19-.77.4-1.15.63s-.74.45-1.1.69a24.68,24.68,0,0,0-10.26,14.83A24,24,0,0,0,725.28,496l1.76-2a21.45,21.45,0,0,1-3-17,22,22,0,0,1,8.54-12.79l8.12,29.62a1.22,1.22,0,0,0,.9.88,1.15,1.15,0,0,0,.32,0,1.32,1.32,0,0,0,1.2-1l6.1-25.73Z"/><path class="cls-13" d="M745.77,513.57l1.33,5.1,1.08-4.56.47.1L747.51,519l-.89-.2-1.34-5.15-1.09,4.6-.46-.1,1.13-4.78Z"/><path class="cls-13" d="M753,515.19l-.1.45-2.73-.61-.41,1.7,2.47.56-.11.44-2.46-.55-.41,1.71,2.73.62-.11.45-3.2-.72,1.13-4.78Z"/><path class="cls-13" d="M753.81,515.38l3.66.82-.11.46-1.57-.36-1,4.32-.48-.1,1-4.32-1.61-.37Z"/><path class="cls-12" d="M743.7,407.66c-.62.37-1.2.7-1.76,1.07a1,1,0,0,0-.26.52q-.6,2.64-1.18,5.3l-.13.6-6.57-1.46,4.46-20.05,6.55,1.46-1.43,6.43,1.65-1.17,5.25-3.78a.86.86,0,0,1,.59-.16c2.39.51,4.79,1.05,7.18,1.58.05,0,.09.05.21.13l-1.54,1c-2.3,1.51-4.59,3-6.91,4.53-.39.25-.46.45-.3.87,1.64,4.36,3.26,8.73,4.89,13.09.07.19.13.37.21.62a2.65,2.65,0,0,1-.44,0c-2.34-.52-4.68-1.05-7-1.55a.75.75,0,0,1-.61-.58c-.9-2.74-1.82-5.47-2.74-8.21Z"/><path class="cls-12" d="M831.2,434.13l-1.36,6.14L824.06,439l4.35-19.57,5.2,1.16-.43,1.9c.07,0,.12,0,.13,0,2-2.13,5.51-1.79,7.64-.19a5.72,5.72,0,0,1,2.24,3.53,10.05,10.05,0,0,1-2,8.66,6.45,6.45,0,0,1-8.29,1.31A12.21,12.21,0,0,1,831.2,434.13Zm6.26-5.2a12.44,12.44,0,0,0-.13-2.21,2.16,2.16,0,0,0-3.72-1,4.58,4.58,0,0,0-1.07,4.58,2.15,2.15,0,0,0,3.48,1.06A4.77,4.77,0,0,0,837.46,428.93Z"/><path class="cls-12" d="M791.5,411.23l-3.24,14.55-5.16-1.15c.35-1.58.64-3.17,1.06-4.73s1-3.09,1.51-4.77l-1.35,2.32c-1.2,2.05-2.4,4.09-3.57,6.16a.62.62,0,0,1-.86.35,9.23,9.23,0,0,0-1.56-.34c-.55-.06-.68-.34-.72-.85-.25-3-.53-6.11-.81-9.16a.75.75,0,0,0-.13-.38,47,47,0,0,1-1.65,9.61l-5.11-1.14,3.25-14.61,2.67.59c1.14.26,2.28.54,3.42.76.45.08.58.29.61.72.2,2.56.42,5.13.64,7.69a1.25,1.25,0,0,0,.07.27c.26-.44.48-.8.69-1.17,1.13-2,2.26-3.92,3.37-5.89a.48.48,0,0,1,.61-.29l5.94,1.33A2.4,2.4,0,0,1,791.5,411.23Z"/><path class="cls-12" d="M810.68,415.5,807.45,430l-5.14-1.14c.75-3.18,1.18-6.41,2.66-9.36l-.15-.06-2.25,3.85c-.9,1.54-1.81,3.08-2.69,4.63a.5.5,0,0,1-.65.3c-.63-.17-1.28-.3-1.92-.43a.48.48,0,0,1-.47-.53q-.4-4.8-.83-9.6c0-.05,0-.09-.15-.16a46.53,46.53,0,0,1-1.63,9.56L789.11,426l3.24-14.6,2.46.54c1.24.28,2.49.58,3.74.83.37.07.46.23.49.57.2,2.47.41,4.95.62,7.42,0,.19.05.38.09.72,1.08-1.89,2.08-3.64,3.09-5.39.34-.58.66-1.18,1-1.74a.65.65,0,0,1,.5-.27c2.07.44,4.14.92,6.21,1.38C810.6,415.43,810.62,415.46,810.68,415.5Z"/><path class="cls-12" d="M861.67,431.53a3.87,3.87,0,0,1,2.59-3.27,7.76,7.76,0,0,1,3.51-.37,18.5,18.5,0,0,1,6.84,1.8,4.07,4.07,0,0,1,2.34,4.86c-.55,2.72-1.15,5.43-1.75,8.15a2.36,2.36,0,0,0,.26,2.14c0,.06,0,.16.07.32l-6.08-1.35,0-1.4a12.83,12.83,0,0,1-2.2.72,7.92,7.92,0,0,1-6.94-1.81c-2.08-1.92-1.21-6.4,2-7.16a13.62,13.62,0,0,1,4.41-.15c1,.08,1.93.15,2.89.19a2.28,2.28,0,0,0,.86-.14.94.94,0,0,0,.34-1.68,2.86,2.86,0,0,0-2.72-.57,1.2,1.2,0,0,0-.66.53.58.58,0,0,1-.75.31C865,432.26,863.33,431.9,861.67,431.53Zm8.7,5.81c-.65,0-1.1.08-1.55.09s-1,0-1.42,0a4.22,4.22,0,0,0-1.28.25,1.21,1.21,0,0,0-.33,2,2.51,2.51,0,0,0,3.73-.42A15.13,15.13,0,0,0,870.37,437.34Z"/><path class="cls-12" d="M885,431.94l-1.08,4.86,4.26.95,1.07-4.83,5.8,1.28-3.24,14.57L886,447.49l1.2-5.39-4.25-1-1.2,5.4-5.86-1.3.12-.56c1-4.48,2-8.95,3-13.44.11-.5.29-.6.77-.48,1.55.37,3.1.7,4.66,1.05Z"/><path class="cls-12" d="M815.15,425.49a2.73,2.73,0,0,0,2,3.45,2.39,2.39,0,0,0,2.35-.53.66.66,0,0,1,.47-.16c1.75.37,3.5.77,5.31,1.17a5.46,5.46,0,0,1-2.18,2.35,7.92,7.92,0,0,1-4.64,1,11.35,11.35,0,0,1-6.13-1.94,6.83,6.83,0,0,1-3.06-6.19,7.9,7.9,0,0,1,8.93-7.88,9.66,9.66,0,0,1,5.73,2.37,8.17,8.17,0,0,1,2.44,7.28c0,.49-.14,1-.22,1.52Zm5.74-1.87a2.38,2.38,0,0,0-.8-2.43,3,3,0,0,0-3.08-.45,2.24,2.24,0,0,0-1.24,1.74Z"/><path class="cls-12" d="M760.9,420.23a11.31,11.31,0,0,1-3.86-1.65,6.69,6.69,0,0,1-3.07-5.81,8.4,8.4,0,0,1,3.29-7,7.12,7.12,0,0,1,4.7-1.33,10.38,10.38,0,0,1,7.06,2.7,6.91,6.91,0,0,1,2,6.32,9,9,0,0,1-1.35,3.79,7.19,7.19,0,0,1-6.82,3.24C762.2,420.43,761.55,420.31,760.9,420.23Zm4.25-7.26c0-.69.09-1.41,0-2.11a2.28,2.28,0,0,0-4.32-1,6.59,6.59,0,0,0-.92,4.31,2.28,2.28,0,0,0,4.35.81C764.63,414.34,764.85,413.66,765.15,413Z"/><path class="cls-12" d="M911.37,453.14l2.29-10.3-3.27-.73,1-4.27,8.92,2-1.14,5.11,2.93.65a8.58,8.58,0,0,1,4,1.84,4.43,4.43,0,0,1,1.43,4.89,4.12,4.12,0,0,1-3.88,3.09,10.73,10.73,0,0,1-2.83-.15c-3-.62-6.07-1.33-9.1-2Zm7-4.88c-.2.9-.36,1.67-.54,2.43-.06.26,0,.42.29.47.82.15,1.64.34,2.47.45a1.19,1.19,0,0,0,1.43-1,1.23,1.23,0,0,0-.75-1.57C920.36,448.76,919.4,448.54,918.38,448.26Z"/><path class="cls-12" d="M854.29,431c.05-1.84-1.2-3-2.81-2.51a2.56,2.56,0,0,0-1.25.9,6.57,6.57,0,0,0-1.16,4.51,2.23,2.23,0,0,0,1.69,2.12,2.09,2.09,0,0,0,2.49-.88c.15-.22.27-.46.42-.72l5.82,1.29a6.27,6.27,0,0,1-5.63,4.55,11.29,11.29,0,0,1-7.7-1.94c-3-2.09-3.56-5.33-2.62-8.48a7.42,7.42,0,0,1,3.83-4.77,8.22,8.22,0,0,1,4.63-.78,11.06,11.06,0,0,1,5.91,2.25A6.07,6.07,0,0,1,860.2,432a1.58,1.58,0,0,1-.07.34Z"/><path class="cls-12" d="M894.28,438.55l1-4.28c.22,0,.43.05.64.09l14.51,3.23c.83.19.81,0,.61.94-.26,1.15-.51,2.31-.79,3.53l-2.4-.54c-.71-.16-1.43-.29-2.14-.48-.41-.11-.57,0-.66.42-.66,3.05-1.35,6.11-2,9.16l-.14.62L897.05,450l2.28-10.28Z"/></g></g></svg>