<svg xmlns="http://www.w3.org/2000/svg" viewBox="0 0 1020.64 591.27"><defs><style>.cls-1{fill:#fcfcfc;}.cls-2{fill:#a9d29f;}.cls-3{fill:#e6eefa;}.cls-4{fill:#35474f;}.cls-5{fill:#53718c;}.cls-6{fill:#edccac;}.cls-7{fill:#e2a060;}.cls-8{fill:#36474f;}.cls-9{fill:#4ea69d;}.cls-10{fill:#438e86;}.cls-11{fill:#e3bb9f;}.cls-12{fill:#d76715;}.cls-13{fill:#9ed7ef;}.cls-14{fill:#fff;}.cls-15{fill:#b6cdec;}.cls-16{fill:#476ba8;}.cls-17{fill:#375da3;}.cls-18{fill:#f4a5a8;}.cls-19{fill:#ab483f;}.cls-20{fill:#e37971;}.cls-21{fill:#f28f8f;}.cls-22{fill:#3b7b75;}.cls-23{fill:#e7f1fb;}.cls-24{fill:#e49962;}.cls-25{fill:#1a355e;}.cls-26{fill:#1b478a;}.cls-27{fill:#5dbdaf;}</style></defs><g id="Слой_2" data-name="Слой 2"><g id="Слой_1-2" data-name="Слой 1"><path class="cls-1" d="M940.45,589.19s187.92-288.38-11.59-367.25c-50.25-19.87-67.78-298-291-158.94-48.07,30-107.59,24-171.49,18.16-54.12-5-111.38-10-167.51,6.8-112.41,33.59-115,130.5-100.78,165.39,15.53,38.12-46.41,83.7-109.83,115-99.5,49.1-26.33,221.66,67.66,222.49s784.53-1.65,784.53-1.65"/><path class="cls-2" d="M713.83,183.37S784,70,821.35,82.87s-91.16,102.84-91.16,102.84l-16.36-2.34Z"/><path class="cls-2" d="M772.26,178.7s49.09-50.26,72.46-38.57-14,33.89-72.46,38.57Z"/><path class="cls-3" d="M309.17,589.32l505.59.78s-36.61-28.82-63.1-18.69S673,574.52,666,553.49s-32.72-42.85-98.94-46-95.82,34.27-128.54,44.4a113.27,113.27,0,0,1-49.31,3.78c-13.41-48.38-46.89-143.86-101.91-142.12-73.63,2.34-10.52,32.73,11.69,46.75,14.17,9,44.06,58.85,63.82,93.78a95.72,95.72,0,0,0-21,4.27c-14.42-25.1-41.7-63.4-73.23-61.82-46.75,2.34-15.19,29.22,9.35,43.24,12.75,7.28,32.44,17.72,48.41,26.07-15.21,10.36-17.16,23.44-17.16,23.44"/><path class="cls-4" d="M968,591.27H1.07a1.07,1.07,0,1,1,0-2.14H968a1.07,1.07,0,0,1,0,2.14Z"/><path class="cls-3" d="M571.21,306.85A159.52,159.52,0,0,1,542,330a464.13,464.13,0,0,0-81.53-47.74c3.92-7.19,7.78-14.78,11.56-22.7a695.55,695.55,0,0,0,74.13,6.07c6,.17,11.79.17,17.43.13a309.64,309.64,0,0,0,38.75-2.6,159.73,159.73,0,0,1-31.08,43.65M520.1,341.31a161.45,161.45,0,0,1-111.37,5.14c11.9-6.24,23.86-20.57,33.06-33.77,4.76-6.8,9.5-14.33,14.19-22.46A455,455,0,0,1,533.36,335q-6.47,3.45-13.26,6.33M309.26,255.7c-.37-.87-.73-1.75-1.08-2.63a372.09,372.09,0,0,1,65,9.16q3,.69,5.95,1.41c-1.51,8.8-2.62,17.21-3.31,25.12-1.3,15-1.39,32.23,2.78,44.56a161.75,161.75,0,0,1-69.33-77.62m-5.68-36.37c4.16,1.56,8.41,3.12,12.79,4.64,20.12,7,42.69,13.46,66.82,19.21q-1.32,5.87-2.43,11.55-3-.72-5.92-1.39c-33.36-7.6-58.4-9.14-70-9.4a157,157,0,0,1-6.33-26.56l5.07,2m-23.32-18.42c-30.73-15-44.78-29.48-38.49-39.75,5.07-8.32,23.53-14,51.8-16a166.28,166.28,0,0,0-6.42,36.07c-.26,3.64-.39,7.28-.43,11v1c0,3.68.13,7.37.35,11-2.35-1-4.6-2.13-6.81-3.21m29-70.4c1.43-3.29,2.9-6.54,4.51-9.71h0C333.64,145.63,362.92,171,397.13,193c-4.85,14.76-9,29.28-12.33,43.18a658.9,658.9,0,0,1-68.17-20.13c-4.25-1.52-8.37-3.08-12.31-4.64-2.34-.91-4.64-1.86-6.89-2.81-.35-3.47-.61-7-.7-10.5,0-1.69-.09-3.33-.09-5,0-2,.05-4,.09-5.9a163.06,163.06,0,0,1,7.37-42.65c.74-2.34,1.52-4.64,2.38-6.94s1.78-4.77,2.78-7.11m-8.88-78.14c5.23-8.3,16.91-12.58,33.32-12.58a135.65,135.65,0,0,1,26.6,3c3.72.76,7.53,1.64,11.4,2.66h0a168,168,0,0,0-35,26.95c-2.21,2.17-4.33,4.42-6.41,6.77C327.73,82,325.25,85,322.87,88a173.91,173.91,0,0,0-10.58,15.13h0c-14.5-21.52-18.86-39.78-11.91-50.8M457.51,32.24a160.7,160.7,0,0,1,32.81,3.35C477.69,41.09,464.78,56.4,455,70.43c-10,14.37-20,31.95-29.48,51.63a178.67,178.67,0,0,1-18.07-11.23c-18.8-13.33-30.06-27.29-36.19-36.66a94.93,94.93,0,0,1-6.86-12.25,161.59,161.59,0,0,1,20.79-12.54h0q4.43-2.24,9-4.19l.66-.29.16-.06c.65-.28,1.3-.55,2-.81l.52-.21a159.66,159.66,0,0,1,60-11.58m113.7,47.12a160.49,160.49,0,0,1,41.7,72.11c-37.08,2.71-71,1.86-101.42-2.53A368.68,368.68,0,0,0,521,94.36c1.57-18.06,1.38-39.46-6-51.5q2.55,1,5.07,2a159.8,159.8,0,0,1,51.11,34.46m-88.32,73.43c5.65,1.31,11.46,2.48,17.39,3.51-4.17,15.69-9.3,32-15.29,48.53q-3.47,9.54-7.15,18.76C455.36,215.34,431.5,203.53,408,189q1.81-5.31,3.76-10.66c5.56-15.33,11.59-30.09,17.92-43.9a252.91,252.91,0,0,0,53.17,18.4M502.28,43c4.93,1.79,7.44,8.87,8.67,14.49,1.94,8.89,2.3,21.37,1,36.1a360.68,360.68,0,0,1-9.43,53.94q-8.71-1.5-17-3.4a244.78,244.78,0,0,1-52-17.92c9.26-19.32,19.06-36.55,28.85-50.59,8.46-12.13,16.73-21.48,23.93-27.06,3.75-2.9,8.8-6,13.22-6a7.81,7.81,0,0,1,2.72.46M357,67.49a105,105,0,0,0,6.29,11.06c11.75,18.17,27.28,31.34,38.23,39.19a187.62,187.62,0,0,0,20.12,12.53c-6.49,14.15-12.68,29.25-18.37,44.93q-1.59,4.4-3.1,8.76c-34-22.12-62.73-47.49-81.6-72.05h0a162.18,162.18,0,0,1,16.2-22.83q3.76-4.42,7.85-8.58l1.12-1.13A163.15,163.15,0,0,1,357,67.49M413.81,242.7q-10.26-2.12-20.2-4.41c3.11-13,6.95-26.51,11.42-40.3a395.59,395.59,0,0,0,69.29,34.18c-2.8,6.7-5.69,13.24-8.64,19.57-17-2.44-34.41-5.46-51.87-9m38.3,35.93A447.17,447.17,0,0,0,389.54,257q1.13-5.77,2.45-11.73,8.85,2,17.92,3.88c17.71,3.62,35.37,6.7,52.66,9.19q-5.13,10.62-10.46,20.33m-57.6,61.5c-4.93-1.79-7.44-8.87-8.67-14.49-1.95-8.89-2.3-21.37-1-36.1.65-7.45,1.69-15.37,3.1-23.66a440.13,440.13,0,0,1,59.73,20.67c-4.39,7.58-8.83,14.6-13.27,21-8.46,12.13-16.74,21.48-23.93,27.06-4.55,3.52-11,7.35-15.94,5.56M605.8,255.48c-11.57,2.08-26,3.3-42.87,3.47-26.16.32-56.22-1.75-87.88-5.92q4-8.7,7.82-17.86a242.09,242.09,0,0,0,28.46,7.74,143.83,143.83,0,0,0,28.42,3.16c19.89,0,34.14-5.74,41.18-16.92a29.28,29.28,0,0,0,2.84-5.85H573.63c-.17.31-.35.61-.54.91-5.23,8.3-16.91,12.59-33.32,12.58a135.57,135.57,0,0,1-26.6-3,230.54,230.54,0,0,1-26.78-7.25q3.66-9.15,7.1-18.65c6.19-17,11.48-33.95,15.76-50.17A430.29,430.29,0,0,0,572,162.07q20.77,0,43-1.68a161.94,161.94,0,0,1,3.32,32.72,159.83,159.83,0,0,1-12.53,62.37m40.79-28-13.22-.3c4.25,5.51,5.2,10.58,2.56,14.87s-9,8-18.43,10.71A170.56,170.56,0,0,0,578.23,72.38,171,171,0,0,0,391,35.76c-2.51,1.08-5,2.21-7.45,3.38h0c-7.35-2.24-14.5-4.08-21.4-5.48-34.84-7.07-59.56-2.18-69.61,13.76-9.55,15.16-4.35,38,14.61,64.6v0c-2.56,4.72-4.86,9.58-7,14.6-1.61,3.78-3,7.55-4.34,11.41-35.63,2.12-54.7,8.39-61.64,19.75-8.06,13.22,2.95,31,38.19,48.21,4.86,2.39,10.06,4.73,15.52,7.07a166.86,166.86,0,0,0,12.27,46.47,170.79,170.79,0,0,0,314,1.6c17.38-3.6,28.83-9.23,33.38-16.69,3.17-5.15,2.78-10.88-.91-16.95"/><polygon class="cls-5" points="636.81 22.36 596.41 29.22 622.84 10.16 624.36 16.01 634.27 17.53 636.81 22.36 636.81 22.36"/><polygon class="cls-3" points="596.41 29.22 629.7 10.93 662.73 8.38 596.41 29.22 596.41 29.22"/><polygon class="cls-3" points="622.84 10.16 596.41 29.22 616.48 0 622.84 10.16 622.84 10.16"/><polygon class="cls-5" points="193.43 69.55 231.67 84.27 209.55 60.36 206.9 65.79 196.88 65.32 193.43 69.55 193.43 69.55"/><polygon class="cls-3" points="231.67 84.27 202.67 59.75 170.8 50.71 231.67 84.27 231.67 84.27"/><polygon class="cls-3" points="209.55 60.36 231.67 84.27 217.79 51.66 209.55 60.36 209.55 60.36"/><path class="cls-6" d="M984.1,237.81H892.32a3.92,3.92,0,0,0-3.91,3.9v39.71a3.92,3.92,0,0,0,3.91,3.91h5.21v10.41l16.23-10.41H984.1a3.92,3.92,0,0,0,3.91-3.91V241.71a3.92,3.92,0,0,0-3.91-3.9Z"/><path class="cls-7" d="M975,253.76H901.43a2.61,2.61,0,0,1,0-5.21H975a2.61,2.61,0,0,1,0,5.21Z"/><path class="cls-7" d="M975,263.2H901.43a2.61,2.61,0,0,1,0-5.21H975a2.61,2.61,0,0,1,0,5.21Z"/><path class="cls-7" d="M975,272.63H901.43a2.6,2.6,0,1,1,0-5.2H975a2.6,2.6,0,1,1,0,5.2Z"/><path class="cls-6" d="M86,120.94h91.78a3.91,3.91,0,0,1,3.9,3.91v39.71a3.91,3.91,0,0,1-3.9,3.9h-5.21v10.42l-16.23-10.42H86a3.92,3.92,0,0,1-3.91-3.9V124.85A3.92,3.92,0,0,1,86,120.94Z"/><path class="cls-7" d="M95.06,136.89h73.56a2.61,2.61,0,0,0,0-5.21H95.06a2.61,2.61,0,0,0,0,5.21Z"/><path class="cls-7" d="M95.06,146.33h73.56a2.61,2.61,0,0,0,0-5.21H95.06a2.61,2.61,0,0,0,0,5.21Z"/><path class="cls-7" d="M95.06,155.77h73.56a2.61,2.61,0,0,0,0-5.21H95.06a2.61,2.61,0,0,0,0,5.21Z"/><path class="cls-8" d="M619.29,308.19,641.56,573s2.34,16-9.6,16.08c-19.64,0-97.73,0-97.73,0s14.78-3.34,14.6-10.86c-.21-8.86-26-272.55-26-272.55l96.49,2.51"/><path class="cls-9" d="M625.46,584.29c-19.12.24-93.7,0-97.56,0,1.45,0,12.67-.28,14.25-8.72a10.33,10.33,0,0,0,.19-2.14c0-1.65-.91-12.13-2.39-28.1-1.31-14.32-3.08-33.05-5.07-53.77-7.69-80.34-18.57-190.68-18.57-190.68l96.49,2.5,15.83,188.18,3.09,36.72,2.77,33.05.58,6.88s2.73,15.92-9.61,16.08"/><polyline class="cls-9" points="853.62 164.08 799.37 382 791.94 411.84 766.67 513.34 297.24 513.34 390.37 164.08 853.62 164.08"/><polygon class="cls-10" points="853.62 164.08 861.14 166.59 776.67 520.92 766.67 513.34 853.62 164.08 853.62 164.08"/><polyline class="cls-8" points="776.67 520.92 310.12 520.92 297.24 513.34 766.67 513.34 776.67 520.92"/><polyline class="cls-9" points="612.83 589.2 511.82 589.2 511.82 584.39 612.83 584.39 612.83 589.2"/><path class="cls-8" d="M632.35,520.77l-.63,7.51,0,.28s-65.61,6.29-91.74,16.77c-.65-7.18-1.43-15.47-2.29-24.56Z"/><path class="cls-10" d="M601.82,584.39H579.71c-24.67,0-49.62-.1-51.81-.1,1.45,0,12.67-.28,14.25-8.72,1.61.08,4.75.21,9.09.21,16.42,0,50.07-1.8,83.25-14.45l.58,6.88a23.19,23.19,0,0,1,.26,3.58c0,4.7-1.32,12.39-9.87,12.5-4.92.06-13.52.09-23.64.1"/><polyline class="cls-11" points="766.06 513.34 636.54 513.34 636.54 513.34 766.06 513.34 766.06 513.34"/><polyline class="cls-12" points="636.54 513.34 630.46 513.34 630.46 513.34 636.54 513.34 636.54 513.34"/><path class="cls-10" d="M766.07,513.34H608c66.83-21.23,98.46-52.29,111.21-68.56h63.91l-17.07,68.56"/><polygon class="cls-13" points="390.37 164.08 315.42 444.78 315.21 444.78 389.72 164.08 390.37 164.08 390.37 164.08"/><polyline class="cls-3" points="850.08 168.7 783.13 444.78 321.13 444.78 396.15 168.7 850.08 168.7"/><polyline class="cls-14" points="399.97 424.35 572.15 424.35 629.86 192.9 457.68 192.9 399.97 424.35"/><path class="cls-15" d="M574.79,299.58H460.73a1.94,1.94,0,0,1-1.92-2.57l.24-1a3.52,3.52,0,0,1,3.21-2.57H576.32a1.94,1.94,0,0,1,1.92,2.57l-.24,1a3.52,3.52,0,0,1-3.21,2.57"/><path class="cls-15" d="M584.94,258.88H470.88a2,2,0,0,1-1.93-2.57l.24-1a3.54,3.54,0,0,1,3.22-2.57H586.46a1.94,1.94,0,0,1,1.93,2.57l-.24,1a3.52,3.52,0,0,1-3.21,2.57"/><path class="cls-15" d="M581.41,273h-114a2,2,0,0,1-1.93-2.57l.24-1a3.52,3.52,0,0,1,3.21-2.57H582.94a2,2,0,0,1,1.93,2.57l-.24,1a3.54,3.54,0,0,1-3.22,2.57"/><path class="cls-15" d="M578.1,286.3h-114a1.94,1.94,0,0,1-1.93-2.57l.24-1a3.52,3.52,0,0,1,3.21-2.57H579.63a2,2,0,0,1,1.93,2.57l-.24,1a3.54,3.54,0,0,1-3.22,2.57"/><path class="cls-15" d="M568.05,326.64H454a1.94,1.94,0,0,1-1.93-2.57l.24-1a3.53,3.53,0,0,1,3.21-2.57H569.57a2,2,0,0,1,1.93,2.57l-.24,1a3.51,3.51,0,0,1-3.21,2.57"/><path class="cls-15" d="M571.36,313.36H457.3a1.94,1.94,0,0,1-1.93-2.57l.24-1a3.53,3.53,0,0,1,3.21-2.57H572.88a2,2,0,0,1,1.93,2.57l-.24,1a3.51,3.51,0,0,1-3.21,2.57"/><path class="cls-15" d="M471.77,368.38H444.06a2.31,2.31,0,0,1-2.29-3.05,4.2,4.2,0,0,1,3.81-3.06h27.71a2.32,2.32,0,0,1,2.29,3.06,4.19,4.19,0,0,1-3.81,3.05"/><path class="cls-15" d="M556.63,368.38h-27.7a2.31,2.31,0,0,1-2.29-3.05,4.19,4.19,0,0,1,3.81-3.06h27.7a2.32,2.32,0,0,1,2.3,3.06,4.2,4.2,0,0,1-3.82,3.05"/><path class="cls-16" d="M432.35,381.76a5.17,5.17,0,0,0-4.71,3.78l-2.91,11.67a3,3,0,0,0,.46,2.66,2.83,2.83,0,0,0,2.31,1h40.39a5.16,5.16,0,0,0,4.71-3.77l2.91-11.68a3,3,0,0,0-.46-2.66,2.83,2.83,0,0,0-2.3-1Zm35.54,19.47H427.5a3.17,3.17,0,0,1-2.57-1.16,3.37,3.37,0,0,1-.52-2.93l2.92-11.68a5.49,5.49,0,0,1,5-4h40.4a3.16,3.16,0,0,1,2.56,1.16,3.35,3.35,0,0,1,.52,2.94l-2.91,11.67a5.51,5.51,0,0,1-5,4Z"/><path class="cls-16" d="M517.36,381.76a5.17,5.17,0,0,0-4.71,3.78l-2.91,11.67a3,3,0,0,0,.46,2.66,2.83,2.83,0,0,0,2.3,1h40.4a5.16,5.16,0,0,0,4.71-3.77l2.91-11.68a3,3,0,0,0-.46-2.66,2.83,2.83,0,0,0-2.3-1Zm35.54,19.47H512.5a3.16,3.16,0,0,1-2.56-1.16,3.37,3.37,0,0,1-.52-2.93l2.92-11.68a5.49,5.49,0,0,1,5-4h40.4a3.16,3.16,0,0,1,2.56,1.16,3.38,3.38,0,0,1,.52,2.94l-2.91,11.67a5.51,5.51,0,0,1-5,4Z"/><path class="cls-17" d="M531.76,390.69a1.45,1.45,0,0,0,0,.92c-.19.14-.39.27-.6.4a3.6,3.6,0,0,1,.06-1.13c.28-.33.55-.68.79-1a5.77,5.77,0,0,0-.23.83Zm1.78-1.52a5.38,5.38,0,0,1-.2.51l-.18.33a4.45,4.45,0,0,1,.38-.84Zm28.11-9.28q-9.2,3.8-18.27,8.31c.24-.68.46-1.36.65-2s-.59-.91-1-.31a9.51,9.51,0,0,1-.64.76c.15-.49-.43-.76-.92-.4l-.09.07c.24-.65-.78-.75-1.16-.12l-.57.95a4,4,0,0,1-1.83,1.22,3.33,3.33,0,0,1-.27-1,.44.44,0,0,0-.47-.43c0-.33-.31-.53-.75-.33a4.18,4.18,0,0,0-1.39,1c-.31-.56-1.28-.16-1.8.39l0-.1c.25-.52-.21-1.12-.82-.59a7.38,7.38,0,0,0-2.26,3.31,11.36,11.36,0,0,1-1.16,1.14c-.2.17-1.13,1-1.35,1s-.1-.62,0-1a.71.71,0,0,1,.1-.14c.78-1.09,4.53-6.19,1.88-6.14a.92.92,0,0,0-.73.45,17.55,17.55,0,0,0-2.17,4.61c-.08.3-.21.69-.3,1.09-.08.11-.16.21-.23.32-1.06,1.37-2.51,3.36-4.21,4-.16-2.16.93-4.71,1.75-7,.36-1,.73-1.94,1.11-2.92a.77.77,0,0,0,.37-.19c1.84-1.55,2.59-3.84,1.75-5.39-.24-.44-1,0-1.18.44-1.26,2.83-2.42,5.69-3.44,8.55-.91,2.53-1.94,5.21-1.56,7.55,0,.25.33.34.59.28,1.94-.42,3.64-2.15,5-3.87a.79.79,0,0,0,.53.47c.9.27,2.13-.74,3-1.58a3.37,3.37,0,0,0,.16.85c.1.3.41.37.76.23a7.13,7.13,0,0,0,2.29-1.53,4.94,4.94,0,0,0,2.29-1.84,13.15,13.15,0,0,0,1.12-1.12,1.76,1.76,0,0,0,.32.57c.33.38,1.16,0,1.69-.21a5.44,5.44,0,0,0,1.4-.91,3.05,3.05,0,0,0,1-.26.72.72,0,0,0,.23.23,1,1,0,0,0,1.11-.1c-.09.25-.18.49-.28.74l-2.63,1.34c-.58.3-.72,1.19-.07,1.14l2.42-.18a1,1,0,0,0,.81-.61c.15-.32.28-.65.42-1q9.45-4.76,19.09-8.73c.82-.34.55-1.39-.27-1.05Z"/><path class="cls-17" d="M437,394.46c.07.28-.2.66-.43.92a2.13,2.13,0,0,1-.26.26l-.18.11h-.06a.25.25,0,0,0-.23-.13l.29-.62c.14-.31.71-1.15.87-.55Zm11.76-18.33c-2.17,4-3.39,8.18-5.16,12.27a32.5,32.5,0,0,1-3.19,5.85c-.92,1.31-2.91,4.16-4.6,3.54-.43-.15-.54-.51-.41-1a3.38,3.38,0,0,1,.11-.34.93.93,0,0,0,.88-.1,3.16,3.16,0,0,0,1.25-1.39c.25-.55.21-1.12-.23-1.37A1.26,1.26,0,0,0,436,394a4.69,4.69,0,0,0-.88,1.56,5,5,0,0,0-.6,2c.06.93,1.07,1.26,2.05,1a6.26,6.26,0,0,0,3.06-2.25,25.54,25.54,0,0,0,2.5-3.54,47.94,47.94,0,0,0,3.5-7.6,75.69,75.69,0,0,1,3.76-8.83c.26-.47-.41-.68-.66-.2Z"/><path class="cls-17" d="M461.16,388.66c0-.08.26-.32.23-.16a1.2,1.2,0,0,1-.31.38.65.65,0,0,1,.08-.22Zm-1.81,0a5.45,5.45,0,0,1-1,.9c.2-.43.65-.93,1-.9Zm-6.6,1.49a3.2,3.2,0,0,1-.81,1.16l-.16.15c.28-.44.63-.88,1-1.31Zm-4.25,2a6.65,6.65,0,0,1,1.58-2,.88.88,0,0,1,.15,1.23,5,5,0,0,1-.81.72l-.94.74-.25.19c-.11-.22.16-.69.27-.93Zm14.79-3.42a4.92,4.92,0,0,1-1.38.57,1.08,1.08,0,0,1-.36,0,2.09,2.09,0,0,0,.68-1.06c.09-.59-.56-.73-1.11-.43a1.72,1.72,0,0,0-.83,1.27.91.91,0,0,0,.06.41,3,3,0,0,1-1.78.72,6.52,6.52,0,0,0,1.65-1.62.36.36,0,0,0,0-.37,1.1,1.1,0,0,0-1.38-.11,2.8,2.8,0,0,0-1.19,1.43,2.3,2.3,0,0,0-.15.52,4,4,0,0,1-1.75.4h0c.18-.17.37-.34.54-.52s.11-.54-.14-.57a1.13,1.13,0,0,0-1.12.88,16.51,16.51,0,0,1-2.78,2c-.24.14-.58.43-.74.25a8.89,8.89,0,0,0,1.12-1c.67-.7,1.33-2,.54-2.4a.47.47,0,0,0-.56.14l-1,1.38a6,6,0,0,0-.8,1.24,1.77,1.77,0,0,0-.11.44,8.85,8.85,0,0,1-1.1.57l-.1,0,.61-.5a2.49,2.49,0,0,0,1.13-1.66,1.89,1.89,0,0,0-.72-1.4.42.42,0,0,0-.48.07,7.42,7.42,0,0,0-2.47,3.16,1.27,1.27,0,0,0,0,1c-1,.75-2,1.49-3,2.21-.1.07-.36.31-.47.28s-.05-.27-.05-.37a6.15,6.15,0,0,1,.05-.85,8,8,0,0,1,.46-1.9,9.71,9.71,0,0,1,.77-1.64.38.38,0,0,0,.42-.07,2.57,2.57,0,0,0,1.06-2.19c0-.27-.45-.23-.65,0a10.62,10.62,0,0,0-2.9,7.09c0,.51.25.93.93.65a5.35,5.35,0,0,0,.89-.57l1.1-.79,2.05-1.54a3.68,3.68,0,0,0,1.22-.27,8.55,8.55,0,0,0,1.4-.67.7.7,0,0,0,.73.35,3.75,3.75,0,0,0,1.23-.62c.42-.25.82-.51,1.21-.79s.75-.57,1.11-.87c.09.12.23.15.48.16a4.24,4.24,0,0,0,1-.11,6.27,6.27,0,0,0,1.12-.4.64.64,0,0,0,.18.13,2,2,0,0,0,1.51-.09,5.65,5.65,0,0,0,1.43-.81,1.39,1.39,0,0,0,.41.12,4.17,4.17,0,0,0,2.21-.69c.5-.26.33-.91-.16-.65Z"/><polyline class="cls-14" points="641.5 303.72 723.94 303.72 751.57 192.9 669.13 192.9 641.5 303.72"/><path class="cls-15" d="M728.76,224.26H674.15a.93.93,0,0,1-.93-1.23l.12-.46a1.68,1.68,0,0,1,1.53-1.23h54.62a.93.93,0,0,1,.92,1.23l-.12.46a1.67,1.67,0,0,1-1.53,1.23"/><path class="cls-15" d="M733.62,204.78H679a.93.93,0,0,1-.92-1.23l.12-.47a1.68,1.68,0,0,1,1.53-1.23h54.61a.94.94,0,0,1,.93,1.23l-.12.47a1.69,1.69,0,0,1-1.53,1.23"/><path class="cls-15" d="M731.93,211.55H677.32a.94.94,0,0,1-.93-1.24l.12-.46a1.7,1.7,0,0,1,1.54-1.23h54.61a.93.93,0,0,1,.92,1.23l-.11.46a1.7,1.7,0,0,1-1.54,1.24"/><path class="cls-15" d="M730.34,217.9H675.73a.93.93,0,0,1-.92-1.23l.11-.46a1.68,1.68,0,0,1,1.54-1.23h54.61a.94.94,0,0,1,.93,1.23l-.12.46a1.68,1.68,0,0,1-1.54,1.23"/><path class="cls-15" d="M725.53,237.22H670.91A.93.93,0,0,1,670,236l.12-.46a1.66,1.66,0,0,1,1.53-1.23h54.61a.93.93,0,0,1,.93,1.23l-.12.46a1.68,1.68,0,0,1-1.53,1.23"/><path class="cls-15" d="M727.11,230.86H672.5a.94.94,0,0,1-.93-1.23l.12-.46a1.68,1.68,0,0,1,1.54-1.23h54.61a.93.93,0,0,1,.92,1.23l-.11.46a1.68,1.68,0,0,1-1.54,1.23"/><path class="cls-15" d="M675.88,276.92H662.61a1.1,1.1,0,0,1-1.09-1.46,2,2,0,0,1,1.82-1.46H676.6a1.1,1.1,0,0,1,1.1,1.46,2,2,0,0,1-1.82,1.46"/><path class="cls-15" d="M716.51,276.92H703.24a1.1,1.1,0,0,1-1.09-1.46A2,2,0,0,1,704,274h13.27a1.11,1.11,0,0,1,1.1,1.46,2,2,0,0,1-1.83,1.46"/><path class="cls-16" d="M657,283.33a2.46,2.46,0,0,0-2.25,1.8l-1.4,5.6a1.43,1.43,0,0,0,.23,1.27,1.36,1.36,0,0,0,1.1.5H674a2.47,2.47,0,0,0,2.26-1.81l1.39-5.59a1.45,1.45,0,0,0-.22-1.27,1.33,1.33,0,0,0-1.1-.5Zm17,9.32H654.68a1.52,1.52,0,0,1-1.23-.56,1.61,1.61,0,0,1-.25-1.4l1.4-5.59a2.63,2.63,0,0,1,2.4-1.93h19.35a1.51,1.51,0,0,1,1.22.56,1.58,1.58,0,0,1,.25,1.4l-1.39,5.6a2.64,2.64,0,0,1-2.41,1.92Z"/><path class="cls-16" d="M697.71,283.33a2.47,2.47,0,0,0-2.26,1.8l-1.39,5.6a1.43,1.43,0,0,0,.22,1.27,1.36,1.36,0,0,0,1.1.5h19.35a2.47,2.47,0,0,0,2.25-1.81l1.39-5.59a1.42,1.42,0,0,0-.22-1.27,1.33,1.33,0,0,0-1.1-.5Zm17,9.32H695.38a1.5,1.5,0,0,1-1.22-.56,1.55,1.55,0,0,1-.25-1.4l1.39-5.59a2.64,2.64,0,0,1,2.41-1.93h19.34a1.53,1.53,0,0,1,1.23.56,1.61,1.61,0,0,1,.25,1.4l-1.4,5.6a2.63,2.63,0,0,1-2.4,1.92Z"/><path class="cls-17" d="M704.6,287.6a.74.74,0,0,0,0,.44,2.9,2.9,0,0,1-.29.19,1.67,1.67,0,0,1,0-.54,4.3,4.3,0,0,0,.38-.49,4.1,4.1,0,0,0-.11.4Zm.85-.72-.09.24-.09.16a1.59,1.59,0,0,1,.18-.4Zm13.46-4.45q-4.39,1.81-8.75,4c.12-.32.22-.65.31-1s-.28-.44-.49-.15a3.65,3.65,0,0,1-.31.36c.07-.23-.2-.36-.44-.19l0,0c.11-.32-.38-.36-.56-.06l-.27.45a.54.54,0,1,1-1,.1.21.21,0,0,0-.22-.21c0-.16-.15-.25-.36-.16a2,2,0,0,0-.67.5c-.14-.28-.61-.08-.86.18l0-.05c.12-.25-.1-.53-.39-.28a3.51,3.51,0,0,0-1.08,1.59,5.73,5.73,0,0,1-.56.54c-.09.08-.54.5-.64.46s-.05-.29,0-.47l0-.07c.37-.52,2.17-3,.91-2.94a.46.46,0,0,0-.36.22,8.18,8.18,0,0,0-1,2.21c0,.14-.1.33-.15.52l-.11.15a5.92,5.92,0,0,1-2,1.94,8.75,8.75,0,0,1,.84-3.34c.16-.47.34-.94.53-1.4a.34.34,0,0,0,.17-.1,2.22,2.22,0,0,0,.84-2.57c-.11-.22-.46,0-.56.2-.61,1.36-1.16,2.73-1.65,4.1a7.81,7.81,0,0,0-.75,3.62c0,.11.15.16.28.13a4.72,4.72,0,0,0,2.39-1.85.41.41,0,0,0,.26.22c.43.13,1-.35,1.45-.76a1.36,1.36,0,0,0,.08.41c0,.15.19.18.36.11a3.32,3.32,0,0,0,1.09-.73,2.36,2.36,0,0,0,1.1-.88,6.88,6.88,0,0,0,.54-.54.65.65,0,0,0,.15.27c.16.19.56,0,.81-.09a3.11,3.11,0,0,0,.67-.44,1.59,1.59,0,0,0,.46-.13.29.29,0,0,0,.11.11.46.46,0,0,0,.53,0c0,.12-.08.24-.13.36l-1.26.64c-.28.15-.35.57,0,.55l1.15-.09a.44.44,0,0,0,.39-.29c.07-.16.14-.31.2-.47,3-1.51,6.07-2.91,9.14-4.17.39-.17.27-.67-.13-.51Z"/><path class="cls-17" d="M659.22,289.41c0,.13-.1.31-.21.44a.46.46,0,0,1-.12.12l-.09,0h0a.11.11,0,0,0-.1-.06c0-.1.09-.2.14-.3s.34-.55.41-.26Zm5.63-8.78c-1,1.93-1.63,3.92-2.47,5.87a15.42,15.42,0,0,1-1.53,2.81c-.44.63-1.39,2-2.2,1.69-.2-.07-.26-.24-.19-.48a1.42,1.42,0,0,1,0-.16.44.44,0,0,0,.42-.05,1.5,1.5,0,0,0,.59-.66c.13-.27.11-.54-.1-.66a.6.6,0,0,0-.66.19,4,4,0,0,0-.71,1.69c0,.44.51.6,1,.5a3,3,0,0,0,1.46-1.08,11.86,11.86,0,0,0,1.2-1.69,23.28,23.28,0,0,0,1.68-3.64,34.4,34.4,0,0,1,1.8-4.23c.12-.23-.2-.33-.32-.1Z"/><path class="cls-17" d="M670.8,286.63s.12-.15.11-.07a.7.7,0,0,1-.15.18.21.21,0,0,1,0-.11Zm-.87,0a2.35,2.35,0,0,1-.46.43c.1-.21.31-.44.46-.43Zm-3.16.72a1.42,1.42,0,0,1-.39.55l-.07.07a6.62,6.62,0,0,1,.46-.62Zm-2,.95a3.21,3.21,0,0,1,.75-.94.43.43,0,0,1,.08.59,3.34,3.34,0,0,1-.4.35l-.44.35-.12.09c-.06-.1.07-.33.13-.44Zm7.07-1.64a2.25,2.25,0,0,1-.65.27.55.55,0,0,1-.18,0,1,1,0,0,0,.33-.51c0-.28-.27-.35-.53-.2a.8.8,0,0,0-.4.6.42.42,0,0,0,0,.2,1.42,1.42,0,0,1-.85.34,3.39,3.39,0,0,0,.79-.77.19.19,0,0,0,0-.18.54.54,0,0,0-.67-.05,1.33,1.33,0,0,0-.56.68,1.44,1.44,0,0,0-.08.25,1.8,1.8,0,0,1-.83.19h0a3.07,3.07,0,0,1,.26-.25c.12-.13,0-.26-.07-.27a.53.53,0,0,0-.54.42,8.32,8.32,0,0,1-1.33,1c-.12.07-.27.2-.35.12a6.17,6.17,0,0,0,.54-.48c.32-.34.63-.94.25-1.15a.23.23,0,0,0-.27.07l-.49.66a2.57,2.57,0,0,0-.39.6,1.17,1.17,0,0,0-.05.2,3.84,3.84,0,0,1-.53.28h0l.29-.23a1.28,1.28,0,0,0,.54-.8.91.91,0,0,0-.35-.67.22.22,0,0,0-.23,0,3.66,3.66,0,0,0-1.18,1.52.63.63,0,0,0,0,.5c-.47.36-1,.71-1.43,1.05-.05,0-.18.15-.23.14s0-.13,0-.18a2.93,2.93,0,0,1,0-.41,3.81,3.81,0,0,1,.22-.9,5.13,5.13,0,0,1,.37-.79.18.18,0,0,0,.2,0,1.22,1.22,0,0,0,.51-1.05c0-.12-.22-.1-.31,0a5.12,5.12,0,0,0-1.39,3.4c0,.24.12.45.44.31a2.2,2.2,0,0,0,.43-.27l.53-.38,1-.74a1.56,1.56,0,0,0,.58-.13,3.43,3.43,0,0,0,.67-.32.32.32,0,0,0,.35.17,1.83,1.83,0,0,0,.59-.3c.2-.12.39-.24.58-.38a5.34,5.34,0,0,0,.53-.41c0,.06.11.07.23.08a2.2,2.2,0,0,0,.5-.06,2.1,2.1,0,0,0,.53-.19l.09.06a1,1,0,0,0,.73,0,2.6,2.6,0,0,0,.68-.39.66.66,0,0,0,.2.06,2,2,0,0,0,1.06-.33c.23-.12.15-.44-.09-.31Z"/><polyline class="cls-14" points="610.46 425.73 692.9 425.73 720.53 314.9 638.09 314.9 610.46 425.73"/><path class="cls-15" d="M699.36,347.29H644.75a.93.93,0,0,1-.92-1.23l.11-.47a1.7,1.7,0,0,1,1.54-1.23h54.61a.93.93,0,0,1,.92,1.23l-.11.47a1.7,1.7,0,0,1-1.54,1.23"/><path class="cls-15" d="M704.22,327.8H649.61a.93.93,0,0,1-.92-1.23l.11-.46a1.68,1.68,0,0,1,1.54-1.23H705a.93.93,0,0,1,.92,1.23l-.11.46a1.68,1.68,0,0,1-1.54,1.23"/><path class="cls-15" d="M702.53,334.57H647.92a.93.93,0,0,1-.92-1.23l.11-.46a1.68,1.68,0,0,1,1.54-1.23h54.61a.92.92,0,0,1,.92,1.23l-.11.46a1.68,1.68,0,0,1-1.54,1.23"/><path class="cls-15" d="M701,340.93H646.34a.93.93,0,0,1-.93-1.23l.12-.47a1.67,1.67,0,0,1,1.53-1.22h54.61a.93.93,0,0,1,.93,1.22l-.11.47a1.7,1.7,0,0,1-1.54,1.23"/><path class="cls-15" d="M696.13,360.25H641.52a.93.93,0,0,1-.92-1.24l.11-.46a1.7,1.7,0,0,1,1.54-1.23h54.61a.93.93,0,0,1,.92,1.23l-.11.46a1.69,1.69,0,0,1-1.54,1.24"/><path class="cls-15" d="M697.72,353.89H643.11a.94.94,0,0,1-.93-1.23l.11-.46a1.71,1.71,0,0,1,1.54-1.24h54.61a.94.94,0,0,1,.93,1.24l-.12.46a1.69,1.69,0,0,1-1.53,1.23"/><path class="cls-15" d="M644.84,398.93H631.57a1.11,1.11,0,0,1-1.09-1.47A2,2,0,0,1,632.3,396h13.26a1.11,1.11,0,0,1,1.1,1.46,2,2,0,0,1-1.82,1.47"/><path class="cls-15" d="M685.47,398.93H672.21a1.11,1.11,0,0,1-1.1-1.47,2,2,0,0,1,1.83-1.46H686.2a1.11,1.11,0,0,1,1.1,1.46,2,2,0,0,1-1.83,1.47"/><path class="cls-16" d="M626,405.33a2.47,2.47,0,0,0-2.25,1.81l-1.4,5.59a1.45,1.45,0,0,0,.23,1.27,1.36,1.36,0,0,0,1.1.5H643a2.47,2.47,0,0,0,2.26-1.8l1.39-5.6a1.46,1.46,0,0,0-.22-1.27,1.36,1.36,0,0,0-1.1-.5Zm17,9.33H623.64a1.53,1.53,0,0,1-1.23-.56,1.61,1.61,0,0,1-.25-1.4l1.4-5.6a2.62,2.62,0,0,1,2.4-1.92h19.35a1.5,1.5,0,0,1,1.22.56,1.55,1.55,0,0,1,.25,1.4l-1.39,5.59a2.64,2.64,0,0,1-2.41,1.93Z"/><path class="cls-16" d="M666.67,405.33a2.47,2.47,0,0,0-2.26,1.81L663,412.73a1.45,1.45,0,0,0,.22,1.27,1.36,1.36,0,0,0,1.1.5h19.35a2.47,2.47,0,0,0,2.25-1.8l1.4-5.6a1.43,1.43,0,0,0-.23-1.27,1.36,1.36,0,0,0-1.1-.5Zm17,9.33H664.34a1.51,1.51,0,0,1-1.22-.56,1.55,1.55,0,0,1-.25-1.4l1.39-5.6a2.63,2.63,0,0,1,2.41-1.92H686a1.52,1.52,0,0,1,1.23.56,1.61,1.61,0,0,1,.25,1.4l-1.4,5.59a2.63,2.63,0,0,1-2.4,1.93Z"/><path class="cls-17" d="M673.56,409.6a.69.69,0,0,0,0,.45l-.29.19a1.24,1.24,0,0,1,0-.54,5.72,5.72,0,0,0,.37-.49c0,.14-.08.27-.11.39Zm.85-.72a1.17,1.17,0,0,1-.09.24l-.09.17a3,3,0,0,1,.18-.41Zm13.47-4.44q-4.41,1.81-8.75,4c.11-.33.22-.65.31-1s-.28-.43-.5-.14c-.1.12-.2.25-.31.36.08-.23-.2-.36-.43-.19l-.05,0c.11-.31-.37-.36-.56-.05l-.27.45a2,2,0,0,1-.87.59,1.37,1.37,0,0,1-.13-.49.22.22,0,0,0-.23-.21c0-.16-.15-.26-.36-.16a2.19,2.19,0,0,0-.67.49c-.14-.27-.6-.07-.85.18l0,0c.12-.25-.11-.54-.4-.28a3.57,3.57,0,0,0-1.08,1.58,7.14,7.14,0,0,1-.55.55c-.1.08-.55.5-.65.46s0-.29,0-.48l0-.06c.38-.52,2.18-3,.91-2.94a.44.44,0,0,0-.35.21,8,8,0,0,0-1,2.22c0,.14-.1.32-.15.52l-.11.15a5.71,5.71,0,0,1-2,1.93,8.84,8.84,0,0,1,.84-3.34c.17-.47.34-.93.53-1.4a.4.4,0,0,0,.17-.09,2.23,2.23,0,0,0,.84-2.58c-.11-.21-.46,0-.56.21-.61,1.36-1.16,2.73-1.65,4.09a7.86,7.86,0,0,0-.75,3.62c0,.12.16.16.29.13a4.71,4.71,0,0,0,2.39-1.85.33.33,0,0,0,.25.22c.43.13,1-.35,1.45-.75a1.86,1.86,0,0,0,.08.41c0,.14.19.17.36.11a3.67,3.67,0,0,0,1.1-.74,2.33,2.33,0,0,0,1.09-.88,6.75,6.75,0,0,0,.54-.53.89.89,0,0,0,.15.27c.16.18.56,0,.81-.1a2.51,2.51,0,0,0,.67-.44,1.25,1.25,0,0,0,.46-.12.38.38,0,0,0,.11.11.46.46,0,0,0,.53-.05l-.13.36-1.26.64c-.28.14-.35.57,0,.54l1.16-.08a.47.47,0,0,0,.38-.3c.07-.15.14-.3.2-.46q4.53-2.26,9.14-4.18c.4-.16.27-.67-.12-.5Z"/><path class="cls-17" d="M628.18,411.41c0,.14-.1.32-.2.45l-.13.12-.08,0h0a.12.12,0,0,0-.11-.07c0-.1.09-.2.14-.3s.34-.54.41-.26Zm5.63-8.77c-1,1.93-1.62,3.92-2.47,5.87a15.69,15.69,0,0,1-1.52,2.81c-.44.62-1.4,2-2.21,1.69-.2-.07-.26-.25-.19-.48a1,1,0,0,1,.05-.16.47.47,0,0,0,.42-.05,1.55,1.55,0,0,0,.6-.67c.12-.26.1-.53-.11-.65a.61.61,0,0,0-.66.18,2.28,2.28,0,0,0-.43.75,2.52,2.52,0,0,0-.28.94c0,.45.51.61,1,.5a3,3,0,0,0,1.47-1.08,12,12,0,0,0,1.19-1.69,22.87,22.87,0,0,0,1.68-3.64,35.07,35.07,0,0,1,1.8-4.23c.12-.22-.19-.32-.32-.09Z"/><path class="cls-17" d="M639.76,408.64s.13-.16.11-.08a.7.7,0,0,1-.15.18.42.42,0,0,1,0-.1Zm-.87,0a2.4,2.4,0,0,1-.46.44c.1-.21.32-.45.46-.44Zm-3.16.72a1.38,1.38,0,0,1-.39.56l-.07.07c.14-.21.3-.42.46-.63Zm-2,1a3.21,3.21,0,0,1,.75-.94.42.42,0,0,1,.08.59,2.5,2.5,0,0,1-.39.34l-.45.36-.12.09c-.05-.1.07-.33.13-.44Zm7.08-1.64a2.63,2.63,0,0,1-.66.27H640a1,1,0,0,0,.32-.51c0-.28-.26-.34-.53-.2a.83.83,0,0,0-.4.61.45.45,0,0,0,0,.2,1.53,1.53,0,0,1-.86.34,3.08,3.08,0,0,0,.79-.78.15.15,0,0,0,0-.17.5.5,0,0,0-.66-.05,1.3,1.3,0,0,0-.57.68.78.78,0,0,0-.07.25,2.17,2.17,0,0,1-.84.19h0l.26-.25a.15.15,0,0,0-.07-.27.55.55,0,0,0-.54.42,8.78,8.78,0,0,1-1.32,1c-.12.06-.28.2-.36.11a4.78,4.78,0,0,0,.54-.47c.32-.34.63-.94.25-1.15a.2.2,0,0,0-.26.07l-.5.66a2.74,2.74,0,0,0-.39.59,1.6,1.6,0,0,0,0,.21,3.78,3.78,0,0,1-.53.27l0,0,.29-.24a1.16,1.16,0,0,0,.54-.79.86.86,0,0,0-.35-.67c0-.05-.16,0-.22,0a3.52,3.52,0,0,0-1.19,1.51.58.58,0,0,0,0,.5c-.48.36-1,.72-1.44,1.06,0,0-.17.15-.22.13s0-.12,0-.17a2.82,2.82,0,0,1,0-.41,3.89,3.89,0,0,1,.22-.91,5,5,0,0,1,.37-.78.19.19,0,0,0,.2,0,1.21,1.21,0,0,0,.51-1c0-.13-.21-.11-.31,0a5.08,5.08,0,0,0-1.39,3.4c0,.24.12.44.45.31a2.72,2.72,0,0,0,.42-.27l.53-.38,1-.74a1.52,1.52,0,0,0,.58-.13,3.43,3.43,0,0,0,.67-.32.34.34,0,0,0,.36.16,1.8,1.8,0,0,0,.59-.29l.57-.38c.19-.13.36-.27.54-.41,0,.05.1.07.22.07a2.18,2.18,0,0,0,.5-.05,2.58,2.58,0,0,0,.53-.19l.09.06a1,1,0,0,0,.73-.05,2.68,2.68,0,0,0,.68-.38.66.66,0,0,0,.2.06,2.11,2.11,0,0,0,1.06-.33c.23-.13.15-.44-.08-.31Z"/><path class="cls-18" d="M233.48,581.37l8.43-.11S229.23,567.18,225.33,560l-10.71-19.78-14,3.47,17.79,25.22,15.09,12.45Z"/><path class="cls-19" d="M154.33,196.39a18.16,18.16,0,0,0-9.83-1.88,4.67,4.67,0,0,1,2.08-1c-1.69-.25-5.44,1.42-5.44,1.42-23.38-9-27.06,25.42-26.57,33.42s-7.86,10.61-20,16.92c-23.22,12-25.26,28.13-25.26,28.13.18.1.37.23.57.36,1.16-1.95,3.53-5.61,5.53-6.17a80.86,80.86,0,0,0-3.22,7.84c6.85,5.21,19.66,16.75,28.59,24.94a13,13,0,0,1,.61-5.07l1.1,6.64c4.78,4.39,8.07,7.48,8.07,7.48-.59-6.46,29.24-40.58,44.8-50.79,3.79-5.58,5.14-15.43,5.24-16.21-.66,7.81-2,12.19-3.19,14.66,13.18-12.13,5.51-55.83-3.06-60.7Z"/><path class="cls-18" d="M154.42,259.14c.08,0-7.51,4-13.22,2.42-5.37-1.47-8.88-8.43-8.81-8.45,2.28-.45,2.93-3.57,2.88-17l1,.21,17.29,3.42s-.39,5.44-.4,10.57c0,4.3.25,8.38,1.23,8.84Z"/><path class="cls-20" d="M134.87,202s8.53-9.08,19.24-.46c0,0-6.24-1.08-19.24.46Z"/><path class="cls-21" d="M153.59,239.73s-.39,5.44-.4,10.57c-9.68-.27-14.79-9.1-16.89-14l17.29,3.42Z"/><path class="cls-19" d="M134.52,232.87s-5.08-8-6.29-14.86c-.87-4.89,1.62-23,19.84-20.41a24.71,24.71,0,0,1,10.26,3.88c4,2.67,9.67,8.44,3.28,24.26L160,231.08l-25.44,1.79Z"/><path class="cls-22" d="M222.51,553.1l-9.17.28-9.92.3s-22.91-25.51-35.77-66.41c-.3-.95-.61-1.91-1-2.88-7-20.52-21.62-46.27-29.3-69.57q-1.83-5.56-3.31-10.51c-.31-1.06-.62-2.1-.91-3.13-5.67-19.67-7.31-32.6-8.82-46.4l49.07.39s15.38,94.32,49.08,197.93Z"/><path class="cls-23" d="M172.09,323.34c.65,26.4,3.87,37.73,3.87,37.73a74.53,74.53,0,0,1-52,3.19c-.33-.11,1.83-109.09,9.84-112.09,1.84,2.29,7.33,4.52,12.22,4.41,5.62-.12,7.45-2.53,7.15-5.16,6,3.34,18,34.12,18.92,71.92Z"/><path class="cls-18" d="M156.82,244.58s-22.89.38-22.9-13.88-3-23.81,11.63-24.66,17.46,4.6,18.62,9.36-1.39,28.72-7.35,29.18Z"/><path class="cls-19" d="M163.49,207.47c-3.53-4.28-6.2-3.35-7.7-2.07-4.95-7.39-20.58,3.3-20.58,3.3a30.18,30.18,0,0,0-8.91,16.09s4.17,2.58,13.79.11c7.57-2,13.06-12.72,15.06-17.23,1.36,1.21,4.23,4,5.09,6.75,1.15,3.63,1.66,11.11,3.84,10.85,0,0,4.72-11.37-.59-17.8Z"/><path class="cls-24" d="M248.94,268.25s3.23-11.63,16-10c1.47.46,5.76,2.17,3,6.76-2,3.39-2.9,1.64-6.07,6.19s-6.63,5.57-10.57,5l-2.39-8Z"/><path class="cls-18" d="M139.67,580.56c-.78-4.28-2.26-11.69-2.26-11.69l.34-26.3h-16l6,25.17a25.64,25.64,0,0,1-1.23,10.51s-1.53,7,5.35,7.11,8.57-.52,7.79-4.8Z"/><path class="cls-4" d="M126.53,578.25s-1.36,7.37-.58,10.88h14.46s.06-8-1.21-11.06c0,0-4.88,7.32-12.67.18Z"/><path class="cls-4" d="M242.05,581.33l-.14-.07c-3.37.11-6.77-1.13-9.86-4.6-9.37-10.56-14.64-11.74-16.47-11.73-1.59,3.26-3.33,6.92-1.08,11.05l3.35,13.15h3.62l0-12.42c2.38.63,4.71,1.77,5.74,3.84,2.53,5.07,4.29,8.58,6.64,8.58h16.27s-.32-4.29-8.11-7.8Z"/><path class="cls-22" d="M248.94,268.25s-15,8.4-20.39,10.83c-3.06,1.38-10.11,4.67-15.07,7a7.72,7.72,0,0,1-9.17-2c-8.15-9.52-29.26-30.16-51-32.69l0,.05-.13-.05s13.25,32.72,13.64,39.34S168.37,399,168.37,399s-.78,4.68,8.18,2.73,11.29-3.89,11.29-3.89-8.57-62.71-6.23-84.53a48.49,48.49,0,0,0-.93-14.12c13.27,8.07,29,11.66,29,11.66s11.74-5.13,27.79-16.88c5-3.69,13.89-17.77,13.89-17.77l-2.39-8Z"/><path class="cls-4" d="M213.34,553.38l-9.92.3s-22.91-25.51-35.77-66.41c-.3-.95-.61-1.91-1-2.88-7-20.52-21.62-46.27-29.3-69.57q-1.83-5.56-3.31-10.51c-.31-1.06-.62-2.1-.91-3.13l8.17-6.2s24.53,39.73,32.13,77.12c6.6,32.48,33,71.56,39.86,81.28Z"/><path class="cls-19" d="M187.29,307.28l-.48,1.48-25.68-8.35a1,1,0,0,1-.17-.91.75.75,0,0,1,.65-.57l25.68,8.35Z"/><path class="cls-22" d="M142.2,475.58c.14,18.19-.78,60-3.15,77.3h-8.78c-4.86,0-7.28-.07-7.28-.07-5.94-30.09-10.17-55-13.25-76.45-2.52-17.6-4.76-32.69-6.49-45.69s-3-24-3.38-33.28c-.06-1.45-.11-2.87-.14-4.24s0-2.73,0-4l48-4.67c-.6,31.86-5.53,80.58-5.45,91.14Z"/><path class="cls-4" d="M130.27,552.88c-4.86,0-7.28-.07-7.28-.07-5.94-30.09-10.17-55-13.25-76.45-2.52-17.6-4.76-32.69-6.49-45.69s-3-24-3.38-33.28l17.6,10.35s-11.23,4-7,34,13.78,106.93,19.75,111.18Z"/><path class="cls-22" d="M132.53,397.1s-3.38,12.2-15.06,10.64-28.3-8.57-28.3-8.57,5-15.78,11.2-36.51c7.52-25.09,16.82-57.44,21.21-77.85A125.91,125.91,0,0,0,124,270.9l9.84-18.73s14.31,32.36,15.09,40.54S132.53,397.1,132.53,397.1Z"/><path class="cls-4" d="M132,309.85c-.52,13.24-3.64,38.95-31.42,52.71a1.07,1.07,0,0,1-.22.1c7.52-25.09,16.82-57.44,21.21-77.85,5.1,7.63,10.72,17.74,10.43,25Z"/><path class="cls-18" d="M182.29,302.6c0,1.59-4.59,12.66-12.66,19.27a8.77,8.77,0,0,1-3.81,2.07,167.74,167.74,0,0,1-33.8,8V317.25c11.44-.73,25.52-1.49,31.32-1.81a17.23,17.23,0,0,0,2.45-5.84c.69-4,2.85-7,8.47-7.76s8-.82,8,.76Z"/><path class="cls-25" d="M260,254.5l26,16.89a1.53,1.53,0,0,1,.45,1.33L273.88,315a.76.76,0,0,1-1.27.32l-25.2-18.87c-.29-.22-.51-.46-.41-.81l11.48-40.48a1.09,1.09,0,0,1,1.47-.68"/><path class="cls-26" d="M259,253.9l26.19,17a.9.9,0,0,1,.37,1l-12.5,42.29a.89.89,0,0,1-1.38.46l-25.18-18.87a.89.89,0,0,1-.32-.95L257.7,254.4a.88.88,0,0,1,1.34-.5"/><polyline class="cls-14" points="258.88 255.75 284.3 271.97 272.76 309.2 248.8 291.87 258.88 255.75"/><path class="cls-25" d="M256.92,301.21a1,1,0,1,1,1,1,1,1,0,0,1-1-1Z"/><polyline class="cls-14" points="267.49 303.4 255.23 294.84 263.68 260.61 275.94 269.18 267.49 303.4"/><path class="cls-15" d="M270,283.5l-.07,0-8.12-5.68a.53.53,0,0,1-.09-.5l0-.15c0-.16.13-.27.21-.27l.06,0,8.13,5.68a.53.53,0,0,1,.09.5l0,.15c0,.16-.13.27-.21.27"/><path class="cls-15" d="M271.48,277.48l-.06,0-8.12-5.67a.54.54,0,0,1-.09-.51l0-.14c.05-.17.13-.28.22-.28l.06,0,8.12,5.68a.54.54,0,0,1,.09.51l0,.14c-.05.17-.13.27-.22.27"/><path class="cls-15" d="M271,279.57a.08.08,0,0,1-.07,0l-8.12-5.67a.54.54,0,0,1-.09-.51l0-.14c0-.17.13-.28.21-.28l.07,0,8.12,5.68a.52.52,0,0,1,.08.51l0,.14c0,.17-.13.27-.21.27"/><path class="cls-15" d="M270.48,281.54l-.06,0-8.12-5.68a.54.54,0,0,1-.09-.51l0-.14c0-.17.13-.27.22-.27a.07.07,0,0,1,.06,0l8.12,5.67a.54.54,0,0,1,.09.51l0,.14c0,.17-.12.28-.21.28"/><path class="cls-15" d="M269,287.5a.1.1,0,0,1-.07,0l-8.12-5.67a.54.54,0,0,1-.09-.51l0-.14c0-.17.13-.28.21-.28l.07,0,8.12,5.68a.54.54,0,0,1,.09.51l0,.14c0,.17-.13.27-.21.27"/><path class="cls-15" d="M269.49,285.54l-.06,0-8.12-5.68a.54.54,0,0,1-.09-.51l0-.14c.05-.17.13-.27.22-.27l.06,0,8.12,5.67a.54.54,0,0,1,.09.51l0,.15c0,.16-.13.27-.22.27"/><path class="cls-15" d="M267.46,293.65l-.07,0-2-1.38c-.12-.08-.16-.36-.1-.6s.15-.33.25-.33a.13.13,0,0,1,.08,0l2,1.38a.6.6,0,0,1,.1.6c0,.2-.15.32-.25.32"/><path class="cls-15" d="M261.42,289.43a.13.13,0,0,1-.08,0l-2-1.37a.62.62,0,0,1-.1-.61c0-.2.15-.32.25-.32l.07,0,2,1.38a.65.65,0,0,1,.1.61c-.05.19-.15.32-.25.32"/><path class="cls-16" d="M264.53,294c-.12,0-.25.16-.31.4l-.42,1.72a.79.79,0,0,0,.13.76l2.87,2,.09,0c.12,0,.25-.16.3-.4l.43-1.72a.77.77,0,0,0-.13-.75l-2.87-2-.09,0Zm2.36,4.95a.15.15,0,0,1-.11,0l-2.87-2a.8.8,0,0,1-.15-.78l.43-1.73c.06-.26.2-.43.34-.43a.17.17,0,0,1,.11,0l2.87,2a.81.81,0,0,1,.15.79l-.43,1.72c-.06.26-.2.43-.34.43Z"/><path class="cls-16" d="M258.48,289.75c-.12,0-.25.16-.31.4l-.42,1.72a.82.82,0,0,0,.12.76l2.88,2,.08,0c.13,0,.25-.16.31-.4l.43-1.72a.82.82,0,0,0-.13-.75l-2.88-2-.08,0Zm2.35,4.95a.19.19,0,0,1-.1,0l-2.88-2a.8.8,0,0,1-.14-.78l.43-1.73c.06-.26.2-.43.34-.43a.13.13,0,0,1,.1,0l2.88,2a.81.81,0,0,1,.14.79l-.42,1.72c-.07.26-.2.43-.35.43Z"/><path class="cls-16" d="M264.58,265.34c.15-.62.5-1,.82-.74a.9.9,0,0,1,.32.63l-.22.24a.61.61,0,0,0-.21-.43c-.18-.13-.38.09-.47.47s-.05.77.13.89.22,0,.34-.06l.07.43a.35.35,0,0,1-.52.07,1.51,1.51,0,0,1-.26-1.5Z"/><path class="cls-16" d="M266.53,266.7a.94.94,0,0,0-.15-.9c-.19-.13-.39.08-.49.46a1,1,0,0,0,.15.91c.19.13.39-.09.49-.47Zm-.88-.61c.16-.62.52-1,.84-.73a1.54,1.54,0,0,1,.28,1.51c-.16.62-.52,1-.84.73a1.53,1.53,0,0,1-.28-1.51Z"/><polygon class="cls-16" points="267.24 265.93 267.45 266.07 267.61 267.76 267.94 266.42 268.17 266.58 267.63 268.75 267.44 268.62 267.27 266.88 266.93 268.26 266.7 268.1 267.24 265.93 267.24 265.93"/><polygon class="cls-16" points="268.56 267.36 268.24 267.14 268.35 266.7 269.22 267.31 269.11 267.75 268.79 267.52 268.36 269.26 268.13 269.1 268.56 267.36 268.56 267.36"/><path class="cls-16" d="M269.6,268.81c.11.08.2,0,.25-.19a.4.4,0,0,0-.1-.44l-.23-.16-.16.63.24.16Zm-.21-1.38.48.33a.63.63,0,0,1,.25.44,1.42,1.42,0,0,1,0,.57c-.09.35-.23.5-.39.51l.06,1-.27-.19-.05-.85-.18-.13-.17.7-.23-.16.53-2.18Z"/><path class="cls-16" d="M270.76,269.87l0-.8-.31.61.27.19Zm.08-1.45.21.15-.09,2.51-.24-.17,0-.56-.44-.31-.22.42-.23-.16,1-1.88Z"/><path class="cls-16" d="M271.28,270c.15-.62.5-1,.82-.74a.92.92,0,0,1,.32.64l-.22.23a.61.61,0,0,0-.21-.43c-.18-.12-.38.09-.47.47a.92.92,0,0,0,.13.9c.12.08.22,0,.34-.07l.07.43a.35.35,0,0,1-.52.07,1.51,1.51,0,0,1-.26-1.5Z"/><polygon class="cls-16" points="272.83 270.35 272.51 270.13 272.62 269.69 273.49 270.29 273.38 270.73 273.06 270.51 272.63 272.25 272.4 272.08 272.83 270.35 272.83 270.35"/><path class="cls-17" d="M265.56,296.22a.77.77,0,0,0,0,.15l-.05,0c0-.06,0-.12,0-.18a.54.54,0,0,0,.07-.13.59.59,0,0,0,0,.13Zm.14-.16,0,.07,0,.05,0-.12Zm2.13-.13a8.58,8.58,0,0,0-1.41.46c0-.1.05-.2.07-.31s0-.17-.07-.1l-.06.1c0-.08,0-.15-.06-.12h0c0-.09-.05-.16-.08-.08l-.06.13c0,.07-.09.11-.14.11a1.09,1.09,0,0,1,0-.18q0-.07,0-.09c0-.06,0-.11-.05-.1a.26.26,0,0,0-.11.1c0-.1-.09-.09-.13,0v0c0-.07,0-.19-.05-.13a1,1,0,0,0-.2.43l-.1.13-.11.09a.53.53,0,0,1,0-.17h0c.07-.14.41-.79.22-.92,0,0-.05,0-.06,0a4.13,4.13,0,0,0-.22.65s0,.1,0,.16l0,0c-.1.18-.23.43-.36.46a5.25,5.25,0,0,1,.22-1.06l.12-.42,0,0a1.06,1.06,0,0,0,.19-.79c0-.09-.07-.06-.09,0-.12.4-.24.81-.35,1.23a5,5,0,0,0-.22,1.16.08.08,0,0,0,0,.08c.15,0,.29-.17.41-.39a.15.15,0,0,0,0,.1c.06.09.16,0,.24-.1v.14c0,.06,0,.08.05.08a.39.39,0,0,0,.18-.14c.07,0,.13-.08.19-.19a.73.73,0,0,0,.09-.13s0,.08,0,.11.08.07.12.06a.31.31,0,0,0,.11-.09h.08v.05s.05.06.08,0l0,.1-.21.09s-.06.16,0,.19l.17.09s.05,0,.07-.06a.74.74,0,0,1,0-.14,8.4,8.4,0,0,1,1.47-.48c.06,0,.06-.2,0-.19Z"/><path class="cls-17" d="M258.81,292.15a.25.25,0,0,1-.05.13l0,0h0v0l0-.09s.06-.15.07-.05Zm1.08-2.42c-.21.55-.35,1.17-.53,1.76a5.79,5.79,0,0,1-.31.8c-.08.17-.26.54-.37.35a.26.26,0,0,1,0-.18l0,0,.06,0a.34.34,0,0,0,.11-.16.39.39,0,0,0,0-.24s-.07,0-.11,0a1,1,0,0,0-.08.21,1.37,1.37,0,0,0-.07.29c0,.16.06.26.14.28s.17-.11.24-.22a2.82,2.82,0,0,0,.23-.46,10.32,10.32,0,0,0,.35-1.07c.12-.43.23-.87.38-1.26,0-.07,0-.14,0-.07Z"/><path class="cls-17" d="M260.61,292.4h0l0,.05v0Zm-.13-.08-.08.1c0-.06.06-.12.08-.1Zm-.49-.08a.36.36,0,0,1-.08.15h0l.09-.16Zm-.33.11a.57.57,0,0,1,.14-.24.38.38,0,0,1,0,.21l-.07.08-.07.07,0,0a.32.32,0,0,1,0-.14Zm1.1.17a.17.17,0,0,1-.11,0l0,0a.26.26,0,0,0,.07-.14c0-.09,0-.14-.08-.12a.27.27,0,0,0-.07.16v.08s-.1.06-.14,0a.54.54,0,0,0,.14-.18v-.06c0-.07-.06-.1-.1-.09s-.08.1-.1.18l0,.08a.15.15,0,0,1-.13,0h0l0-.05v-.1s-.07,0-.09.08a1,1,0,0,1-.22.2s-.05,0-.06,0l.09-.11a.42.42,0,0,0,.07-.36h0l-.09.17a1.3,1.3,0,0,0-.08.17v.06l-.08,0h0l0,0a.3.3,0,0,0,.1-.21.77.77,0,0,0,0-.27h0a.76.76,0,0,0-.21.4.3.3,0,0,0,0,.16l-.24.22,0,0v-.06c0-.05,0-.1,0-.14l.06-.29a1.55,1.55,0,0,1,.08-.23h0a.48.48,0,0,0,.1-.31s0-.06,0,0a2.27,2.27,0,0,0-.3,1c0,.08,0,.17.06.15l.07,0,.08-.07.17-.15h.09a.25.25,0,0,0,.11,0s0,.09.05.1l.09,0,.1-.07.09-.09,0,.05.08,0h.08v0a.09.09,0,0,0,.11.06.14.14,0,0,0,.11-.06l0,0c.05.05.11,0,.17,0s0-.13,0-.12Z"/><polygon class="cls-25" points="189.14 308.71 187.29 307.28 186.81 308.76 189.14 308.71 189.14 308.71"/><path class="cls-22" d="M133.8,252.17s-23.86,1.59-29.57,14.31-7.53,55-.26,67.52c0,0,10,2.85,27.71-.46l.66-.13s5.64-13.83.58-16.55c0,0-14.93.78-13.37-4.16s14.25-60.53,14.25-60.53Z"/><path class="cls-25" d="M706.15,572.08s1,16.83-2,17.07c-.41,0-15.55,0-15.55,0l-19.33-.12A6.6,6.6,0,0,1,675,583c5.65-1,15.58-4.93,17.26-13.57s13.9,2.65,13.9,2.65Z"/><path class="cls-25" d="M669.34,572.08s1,16.83-2.05,17.07c-.41,0-15.56,0-15.56,0l-19.33-.12a6.61,6.61,0,0,1,5.78-6.06c5.65-1,15.58-4.93,17.26-13.57s13.9,2.65,13.9,2.65Z"/><path class="cls-22" d="M750.11,450.07l16.94,5.84S777.83,434,780.46,431c3-3.4,5.14-29.57,6.5-53.24,1.18-20.69,1.76-39.48,1.76-39.48s-5.77,1.31-9.53,11.05c-6.46,16.69-6.41,49.28-10,66.08-2.07,9.68-15.6,33.29-19.08,34.67Z"/><path class="cls-4" d="M767.05,455.91c6.46-7.51,10.78-21.94,13.41-24.92,3-3.4,17.17-22.73,3.92-53.11-6.49,19.22-1.08,29.69-3.11,41s-13.63,29.49-14.22,37Z"/><path class="cls-10" d="M816,581.72s1.58,1.41,5.33,1.41c4.26,0,5.34-1.41,5.34-1.41V522H816v59.73Z"/><path class="cls-10" d="M757.23,497.71c0,.05,0,.09,0,.14a55.07,55.07,0,0,0,1.54,7.4,44,44,0,0,0,4.31,10.49c5.78,9.75,16.75,20.61,43,24.15,1.27.17,2.59.33,3.94.46q3.67.38,7.74.56l.51,0,.52,0a127,127,0,0,0,25.75-3.86c19.59-4.64,32.35-14.21,40.42-25.85h0c.68-1,1.34-2,2-3a64.3,64.3,0,0,0,4.19-8.17c4.49-10.47,6.2-21.76,6.36-32.23a106.6,106.6,0,0,0-3.4-25.27,46.13,46.13,0,0,0-6.23-13.87,38.38,38.38,0,0,0-2.38-3.16,35.21,35.21,0,0,0-9.66-8.14c-9.36-5.33-40.14-10.65-66.21,3.11-48,25.32-55.22,56.6-52.42,77.21Z"/><path class="cls-8" d="M765.29,519.11c7.66,8.91,14.55,18,40.84,21,1.27.14,2.59.28,3.94.38,2.45.21,5,.36,7.74.47h.51l.52,0a127,127,0,0,0,25.75-3.86c19.59-4.64,32.35-14.21,40.42-25.85h0c.68-1,1.34-2,2-3-14.87-3.55-46.61-9.76-78.15-7.23-17.11,1.38-34.86,2.91-50.05,4.25-.52,0,4,10.93,6.51,13.86Z"/><path class="cls-22" d="M855.31,362.92c-.24-1-.51-2-.78-3-3.76-13.29-9.88-22.93-19.51-24.51-1.2,3.29-13,8.76-23.29,8.22-1.14-.06-2.81-1.6-2.83-1.61-8.14-1.15-12-5.51-11.63-6.1-.35,0-8.55,2.33-8.55,2.33-7.12,31.14-8,48.44.6,92.84,3.13,16.22-1.66,25-.6,26.1,1.86,1.86,22.37,2.39,38.86,3l5.83.2c12.06.4,22,.54,22,.54.82-1,2.32-10.43,3.35-23.69,1.65-21.15,2.08-52.1-3.44-74.37Z"/><path class="cls-18" d="M829.36,336.93l-9.8,8.12-14.93-2.3c.14-1.44.88-7.67,1.52-13,.53-4.34,1-8.07,1-8.07L825,314.55l.54-.21a2.45,2.45,0,0,0,0,.27c0,.71-.08,1.41-.1,2.1-.3,12.18,4,20.22,4,20.22Z"/><path class="cls-27" d="M788.2,504.65c-49.91,3.59-65.44,2.94-67.2,5.34-11,15.1-12.13,17.7-34.48,48-4.26,5.77-9.3,12.55-15.33,20.61H647.86s25.17-48,45.3-80.58c8-12.85,15.11-23.28,19.62-27.39,15.6-14.22,77.74-13.89,77.74-13.89s54-1.31,58.21,6.69c.92,1.73-23,38.56-60.53,41.26Z"/><path class="cls-22" d="M788.2,504.65c-49.91,3.59-65.44,2.94-67.2,5.34-11,15.1-12.13,17.7-34.48,48l6.64-60c8-12.85,15.11-23.28,19.62-27.39,15.6-14.22,77.74-13.89,77.74-13.89s54-1.31,58.21,6.69c.92,1.73-23,38.56-60.53,41.26Z"/><path class="cls-3" d="M816.87,343.84l-9.82-1a1.46,1.46,0,0,0-1,1.82c.24,1.54,3.48,5.73,4.7,5.94s8.78-3.87,6.12-6.72Z"/><path class="cls-27" d="M853.34,471.68s-1.66,30.22-39.25,32.92c-49.91,3.59-60.2,2.4-63.47,5.46-16,15-5.44,18.17-43,68.5H684s28.83-95.51,41.89-106.94c15.86-13.87,80.64-14.92,80.64-14.92s43.18-3.33,47.43,4.67c.92,1.73-.57,10.31-.57,10.31Z"/><path class="cls-9" d="M805.7,539.88a55.33,55.33,0,0,0,8.16,1c.73,0,1.46.05,2.2.06h.31l.93,0c7.8-.19,16.52-1.61,26.26-3.88,26.09-6.11,40.3-20.68,47.49-37.29,4.57-10.54,6.32-21.9,6.48-32.43a105.68,105.68,0,0,0-3.47-25.45A45.88,45.88,0,0,0,887.71,428c-.56-.83-1.16-1.64-1.8-2.42-18.67,19.36-71.67,77.3-80.21,114.35Z"/><path class="cls-4" d="M805.79,332.82s1.63,7.3,5.94,10.83l-6.65,8.65s-8.05-9.53-7.82-16.36c0,0,6.39-2.86,8.53-3.12Z"/><path class="cls-22" d="M805.79,332.82s1.24,6.87,5.55,10.4L805,351.09s-7-8.15-7.69-15.15c0,0,6.39-2.86,8.53-3.12Z"/><path class="cls-4" d="M828.16,332.82s-10.17,9.64-16.82,10.4l4.55,11.36s19.81-11.73,19.86-18.76c0,0-5.45-2.93-7.59-3Z"/><path class="cls-22" d="M827.43,332.44s-9.44,10-16.09,10.78L815,353.69s20-11.23,20-18.26c0,0-5.45-2.93-7.6-3Z"/><path class="cls-4" d="M858.75,437.29c-1,13.26-.75,20.18-4.84,24.08,0,0-8.28,3.11-20.5-.93-4.17-2.13-7.43-5.06-9-9.07-8-20,7.27-36.61,8-49.86s12.92-22.92,12.92-22.92,15.06,37.55,13.41,58.7Z"/><path class="cls-3" d="M812.27,349.42s1.86,17.56,2.19,23.44c.94,16.54,1.28,66.24,1.28,66.24a11.28,11.28,0,0,1-2.41,7.8,44.78,44.78,0,0,1-5.92,5.83,21.94,21.94,0,0,1-5.94-10.7c-1.12-4.65,1.57-43.68,4.29-69.67a231.12,231.12,0,0,1,3.62-23.3s2.22-.39,2.89.36Z"/><path class="cls-9" d="M881.72,589.13H765c5.56-12.16,29.58-21.3,58.38-21.3s52.83,9.14,58.39,21.3Z"/><path class="cls-18" d="M821.64,439.94s-7.91,2.08-10.51,3.51-7.81,8.28-6.64,9.35c5.87,5.37,6.77-.59,14-2.54,1.31-.35,7.34-7.07,7.34-7.07l-4.16-3.25Z"/><polygon class="cls-19" points="815.21 456.52 803.32 415.4 735.37 415.4 747.64 458.19 747.87 458.19 815.69 458.19 836.84 458.19 836.84 456.52 815.21 456.52 815.21 456.52"/><path class="cls-7" d="M769.25,436.1a2,2,0,0,1,1.94-2.72,3.9,3.9,0,0,1,3.5,2.72,2,2,0,0,1-1.94,2.72,3.9,3.9,0,0,1-3.5-2.72Z"/><path class="cls-22" d="M835,335.43s13.49,2.2,20.24,9.21,18.18,64.4,15.32,72.45-25.7,24.41-42.06,31.16c0,0-8-3.63-8.57-9.86,0,0,27.78-23.38,29.08-29.61s-14-73.35-14-73.35Z"/><path class="cls-21" d="M825.49,314.61c0,.71-.08,1.41-.1,2.1-3.45,3.71-11.56,11.65-19.24,13.05.53-4.34,1-8.07,1-8.07L825,314.55l.52.06Z"/><path class="cls-18" d="M805.27,323.13s21.39,1,21.79-12.35,3.44-22.19-10.2-23.37-16.45,3.82-17.66,8.23.52,26.89,6.07,27.49Z"/><path class="cls-4" d="M827.06,310.78s-1.59-17.79-20.65-17.15-10.81-17.39,5.56-20c0,0-1.7,6.35,8.59,7.35,21.62,2.11,8.43,27,6.5,29.84Z"/><path class="cls-8" d="M519.51,480.26c1.34-6.88,8-12.46,14.89-12.46s11.38,5.58,10,12.46-8,12.46-14.89,12.46-11.38-5.58-10-12.46Z"/><path class="cls-16" d="M485,223.48h1.51l-1.33,4.75h-2.41c.27-1,.41-1.44.68-2.39h-6.3c-.27.95-.41,1.43-.68,2.39H474c.53-1.9.8-2.85,1.34-4.75a2.05,2.05,0,0,0,.93-.21,2.07,2.07,0,0,0,1.1-1.15,5.12,5.12,0,0,0,.3-.7c.05-.16.12-.39.2-.7l1.38-4.88h7.83Zm-5.75,0h3.2c.6-2.12.9-3.17,1.49-5.28h-2.74c-.28,1-.42,1.47-.69,2.45A9.94,9.94,0,0,1,479.22,223.48Z"/><path class="cls-16" d="M490.52,217.18a6.06,6.06,0,0,1,3.91-1.51,3.38,3.38,0,0,1,3.06,1.52,4.24,4.24,0,0,1,.4,3.63,7.17,7.17,0,0,1-2.45,3.66,6.13,6.13,0,0,1-3.91,1.51,3.42,3.42,0,0,1-3.06-1.52,4.25,4.25,0,0,1-.4-3.65A7.06,7.06,0,0,1,490.52,217.18Zm0,3.64a2.3,2.3,0,0,0,.19,1.88,1.63,1.63,0,0,0,1.52.8,3,3,0,0,0,2-.8,3.78,3.78,0,0,0,1.24-1.88,2.28,2.28,0,0,0-.18-1.89,1.68,1.68,0,0,0-1.53-.77,3,3,0,0,0-2,.78A3.82,3.82,0,0,0,490.52,220.82Z"/><path class="cls-16" d="M497.14,225.84c.27-1,.4-1.42.66-2.36a2.48,2.48,0,0,0,.89-.08,1.86,1.86,0,0,0,.6-.28,1.58,1.58,0,0,0,.42-.53A3.82,3.82,0,0,0,500,222c.05-.13.11-.35.19-.64.63-2.21.94-3.32,1.56-5.54h8.19c-1.12,4-1.68,6-2.81,10h-2.56c.83-3,1.25-4.48,2.09-7.46h-3l-.85,3a8.77,8.77,0,0,1-.7,1.8,6.49,6.49,0,0,1-1.06,1.42,4,4,0,0,1-1.61,1A6.45,6.45,0,0,1,497.14,225.84Z"/><path class="cls-16" d="M519.37,215.84c-.29,1-.43,1.53-.72,2.54h-5.1c-.86,3.05-1.29,4.57-2.14,7.61h-2.58l2.85-10.15Z"/><path class="cls-16" d="M521,217.18a6.06,6.06,0,0,1,3.91-1.51,3.38,3.38,0,0,1,3.06,1.52,4.24,4.24,0,0,1,.41,3.63,7.25,7.25,0,0,1-2.46,3.66A6.11,6.11,0,0,1,522,226a3.41,3.41,0,0,1-3-1.52,4.25,4.25,0,0,1-.41-3.65A7.12,7.12,0,0,1,521,217.18Zm0,3.64a2.27,2.27,0,0,0,.18,1.88,1.63,1.63,0,0,0,1.52.8,3,3,0,0,0,2-.8,3.82,3.82,0,0,0,1.23-1.88,2.29,2.29,0,0,0-.17-1.89,1.7,1.7,0,0,0-1.54-.77,3,3,0,0,0-2,.78A3.69,3.69,0,0,0,521,220.82Z"/><path class="cls-16" d="M528.24,225.84c1.12-4,1.68-6,2.81-10h5.46a3,3,0,0,1,2.2.73,1.91,1.91,0,0,1,.4,2,3.54,3.54,0,0,1-1.75,2.17,1.72,1.72,0,0,1,.85,2.23,3.62,3.62,0,0,1-1.53,2.05,4.47,4.47,0,0,1-2.62.82Zm4.16-6h2.74a1.23,1.23,0,0,0,1.35-.86c.15-.56-.14-.83-.87-.83h-2.74C532.69,218.87,532.59,219.21,532.4,219.89Zm-1,3.59h3a1.2,1.2,0,0,0,1.32-.83c.15-.56-.13-.83-.85-.83h-3C531.67,222.48,531.58,222.81,531.39,223.48Z"/><path class="cls-16" d="M538.74,225.84c1.12-4,1.69-6,2.81-10h2.58c-.41,1.48-.62,2.22-1,3.69h4.24c.41-1.47.62-2.21,1-3.69H551c-1.13,4-1.69,6-2.81,10h-2.58c.42-1.51.63-2.27,1.06-3.78h-4.24c-.42,1.51-.64,2.27-1.06,3.78Z"/><path class="cls-16" d="M553.53,217.16a6,6,0,0,1,3.84-1.49,3.41,3.41,0,0,1,2.73,1.17,3.87,3.87,0,0,1,.87,2.94,5,5,0,0,1-.18,1.08,5.47,5.47,0,0,1-.38,1h-7a1.57,1.57,0,0,0,.46,1.28,1.93,1.93,0,0,0,1.34.43,3.92,3.92,0,0,0,2.42-.81l2.08.68a6.18,6.18,0,0,1-2.36,1.88,6.57,6.57,0,0,1-2.83.71,3.36,3.36,0,0,1-3-1.52,4.24,4.24,0,0,1-.39-3.63A7.08,7.08,0,0,1,553.53,217.16Zm.39,2.66h4.51a1.78,1.78,0,0,0-.46-1.21,1.68,1.68,0,0,0-1.31-.49,2.79,2.79,0,0,0-1.59.49A3.68,3.68,0,0,0,553.92,219.82Z"/><path class="cls-16" d="M563.25,225.84c.84-3,1.27-4.51,2.11-7.51h-3.15l.7-2.49h8.78l-.7,2.49h-3c-.84,3-1.27,4.5-2.11,7.51Z"/><path class="cls-16" d="M569.33,224.27a2.42,2.42,0,0,1,.83-1.23,2,2,0,0,1,1.3-.51,1.14,1.14,0,0,1,1,.51,1.43,1.43,0,0,1,.14,1.23,2.37,2.37,0,0,1-.82,1.21,2.1,2.1,0,0,1-1.3.51,1.17,1.17,0,0,1-1-.5A1.41,1.41,0,0,1,569.33,224.27Z"/><path class="cls-16" d="M576.87,215.84h2.58c-.1.33-.14.5-.24.83a4.77,4.77,0,0,1,2.88-1,3.21,3.21,0,0,1,2.9,1.52,4.36,4.36,0,0,1,.37,3.63A7.27,7.27,0,0,1,583,224.5a5.84,5.84,0,0,1-3.76,1.49,2.64,2.64,0,0,1-2.31-1c-.54,1.93-.82,2.9-1.36,4.83h-2.58C574.51,224.21,575.3,221.42,576.87,215.84Zm1,5a2.18,2.18,0,0,0,.21,1.86,1.73,1.73,0,0,0,1.57.8,3,3,0,0,0,2-.79,3.64,3.64,0,0,0,1.25-1.87,2.23,2.23,0,0,0-.19-1.88,1.74,1.74,0,0,0-1.57-.78,3.15,3.15,0,0,0-2,.78A3.71,3.71,0,0,0,577.86,220.84Z"/><path class="cls-16" d="M597.58,220.8a7.19,7.19,0,0,1-2.29,3.55,6.17,6.17,0,0,1-3.55,1.58l-.32,1.11h-2.49l.32-1.11a3.25,3.25,0,0,1-2.66-1.61,4.37,4.37,0,0,1-.3-3.52,7.19,7.19,0,0,1,2.29-3.55,6.1,6.1,0,0,1,3.55-1.58c.12-.44.19-.66.31-1.1h2.49c-.12.44-.18.66-.31,1.1a3.24,3.24,0,0,1,2.66,1.6A4.3,4.3,0,0,1,597.58,220.8ZM589.8,219a3.8,3.8,0,0,0-1,1.79,2.52,2.52,0,0,0,0,1.79,1.45,1.45,0,0,0,1.16.85l1.48-5.28A2.94,2.94,0,0,0,589.8,219Zm2.64,4.43a2.94,2.94,0,0,0,1.63-.85,3.85,3.85,0,0,0,1-1.79,2.45,2.45,0,0,0,0-1.77,1.52,1.52,0,0,0-1.16-.85C593.33,220.28,593,221.33,592.44,223.44Z"/><path class="cls-15" d="M674.3,375.78c-1.29,5-6.67,9-12.28,9.54a12.1,12.1,0,0,1-1.21.06l.62-2.37h1.19l-.33,1.27c5-.52,9.68-4.13,10.81-8.5s-1.7-8-6.41-8.5l-.32,1.26h-1.19c.24-.94.36-1.42.61-2.37a11.37,11.37,0,0,1,1.18.06C672.31,366.77,675.58,370.83,674.3,375.78Z"/><path class="cls-15" d="M649.48,390.22c.2-.79.31-1.18.51-2h.73a1,1,0,0,1,.75.28.72.72,0,0,1,.15.7,1.22,1.22,0,0,1-.51.71,1.52,1.52,0,0,1-.9.28Zm.28-.19h.5a1.15,1.15,0,0,0,.72-.23,1,1,0,0,0,.41-.57.57.57,0,0,0-.12-.57.75.75,0,0,0-.6-.22h-.49Z"/><path class="cls-15" d="M652.56,388.52a1.43,1.43,0,0,1,.88-.29.89.89,0,0,1,.72.29.74.74,0,0,1,.15.71h0a1.32,1.32,0,0,1-.52.71,1.5,1.5,0,0,1-.88.29.9.9,0,0,1-.72-.29.76.76,0,0,1-.15-.72A1.31,1.31,0,0,1,652.56,388.52Zm-.28.71a.62.62,0,0,0,.1.58.71.71,0,0,0,.58.24,1.17,1.17,0,0,0,.71-.24,1.06,1.06,0,0,0,.41-.58.65.65,0,0,0-.11-.58.74.74,0,0,0-.58-.23,1.23,1.23,0,0,0-.71.23A1,1,0,0,0,652.28,389.23Z"/><path class="cls-15" d="M654.51,390.22c.2-.79.3-1.18.51-2h.23l-.46,1.78H656l-.05.19Z"/><path class="cls-15" d="M656.93,388.52a1.43,1.43,0,0,1,.88-.29.88.88,0,0,1,.57.17.69.69,0,0,1,.29.45l-.24,0a.58.58,0,0,0-.23-.34.69.69,0,0,0-.45-.13,1.14,1.14,0,0,0-.7.24,1,1,0,0,0-.41.57.65.65,0,0,0,.11.58.71.71,0,0,0,.58.23,1,1,0,0,0,.62-.19,1.07,1.07,0,0,0,.4-.49h-.84l0-.17h1.08l0,.06a1.26,1.26,0,0,1-.48.71,1.42,1.42,0,0,1-.85.28.94.94,0,0,1-.73-.29.79.79,0,0,1-.14-.72A1.26,1.26,0,0,1,656.93,388.52Z"/><path class="cls-15" d="M659.57,388.52a1.43,1.43,0,0,1,.88-.29.89.89,0,0,1,.72.29.74.74,0,0,1,.15.71h0a1.26,1.26,0,0,1-.51.71,1.52,1.52,0,0,1-.88.29.91.91,0,0,1-.73-.29.76.76,0,0,1-.15-.72A1.36,1.36,0,0,1,659.57,388.52Zm-.28.71a.62.62,0,0,0,.1.58.72.72,0,0,0,.59.24,1.14,1.14,0,0,0,.7-.24,1.06,1.06,0,0,0,.41-.58.62.62,0,0,0-.11-.58.74.74,0,0,0-.58-.23,1.17,1.17,0,0,0-.7.23A1,1,0,0,0,659.29,389.23Z"/><path class="cls-15" d="M661.75,388.25H662l.28,1.89,1.27-1.89h.25c-.53.79-.8,1.18-1.34,2h-.41C661.94,389.43,661.88,389,661.75,388.25Z"/><path class="cls-17" d="M664.77,370.09c-.89,3.46-1.34,5.19-2.24,8.65-1.16-3-1.75-4.5-2.91-7.51-.3-.76-.45-1.14-.74-1.9-.15-.37-.22-.55-.36-.92a6.37,6.37,0,0,0-.55.35c-.19.12-.36.24-.53.37a12.52,12.52,0,0,0-4.88,6.71,7.17,7.17,0,0,0,2,7.31l.85-.93a6.4,6.4,0,0,1-1.62-6.38,10.94,10.94,0,0,1,4-5.76c1.7,4.35,2.54,6.53,4.24,10.89a.45.45,0,0,0,.44.26.44.44,0,0,0,.16,0,.73.73,0,0,0,.57-.5c1.1-4.25,1.65-6.37,2.76-10.62Z"/><path class="cls-17" d="M664.69,388.25l.69,1.88c.19-.75.29-1.13.49-1.88h.23l-.52,2h-.43l-.7-1.9-.5,1.9h-.22c.2-.79.31-1.18.51-2Z"/><path class="cls-17" d="M668.21,388.25l-.05.19h-1.34l-.18.7h1.21l-.05.18h-1.21c-.07.29-.11.43-.18.71h1.34l0,.19h-1.57l.51-2Z"/><path class="cls-17" d="M668.63,388.25h1.79l0,.19h-.77l-.46,1.78h-.23c.18-.71.27-1.07.46-1.78h-.79Z"/><path class="cls-15" d="M704.16,253.4c-1.28,5-6.66,9-12.28,9.54q-.6.06-1.2.06c.24-.95.36-1.42.61-2.37h1.19l-.33,1.26c5-.51,9.69-4.12,10.82-8.49s-1.7-8-6.41-8.5l-.33,1.26H695c.24-.95.37-1.42.61-2.37a11.22,11.22,0,0,1,1.18.06C702.18,244.39,705.44,248.45,704.16,253.4Z"/><path class="cls-15" d="M679.34,267.84l.52-2h.72a1,1,0,0,1,.75.28.7.7,0,0,1,.15.7,1.22,1.22,0,0,1-.51.71,1.6,1.6,0,0,1-.9.28Zm.29-.19h.49a1.21,1.21,0,0,0,.72-.23,1,1,0,0,0,.41-.57.59.59,0,0,0-.11-.57.78.78,0,0,0-.6-.22H680C679.88,266.69,679.79,267,679.63,267.65Z"/><path class="cls-15" d="M682.42,266.14a1.44,1.44,0,0,1,.88-.3.91.91,0,0,1,.73.3.74.74,0,0,1,.14.71h0a1.26,1.26,0,0,1-.51.71,1.52,1.52,0,0,1-.88.29.93.93,0,0,1-.73-.29.74.74,0,0,1-.14-.72A1.26,1.26,0,0,1,682.42,266.14Zm-.28.71a.62.62,0,0,0,.11.58.7.7,0,0,0,.58.24,1.14,1.14,0,0,0,.7-.24,1.06,1.06,0,0,0,.41-.58.62.62,0,0,0-.11-.58.72.72,0,0,0-.58-.23,1.2,1.2,0,0,0-.7.23A1,1,0,0,0,682.14,266.85Z"/><path class="cls-15" d="M684.37,267.84c.21-.79.31-1.18.51-2h.23c-.18.71-.27,1.07-.46,1.78h1.19l-.05.19Z"/><path class="cls-15" d="M686.79,266.14a1.44,1.44,0,0,1,.88-.3,1,1,0,0,1,.58.17.77.77,0,0,1,.28.46l-.24,0a.57.57,0,0,0-.22-.34.73.73,0,0,0-.45-.13,1.12,1.12,0,0,0-.7.24,1,1,0,0,0-.41.57.62.62,0,0,0,.11.58.69.69,0,0,0,.58.23,1.06,1.06,0,0,0,.62-.19,1,1,0,0,0,.39-.49h-.84l0-.18h1.08l0,.07a1.26,1.26,0,0,1-.48.71,1.41,1.41,0,0,1-.84.28.93.93,0,0,1-.73-.29.74.74,0,0,1-.14-.72A1.26,1.26,0,0,1,686.79,266.14Z"/><path class="cls-15" d="M689.43,266.14a1.46,1.46,0,0,1,.88-.3.9.9,0,0,1,.73.3.71.71,0,0,1,.14.71h0a1.26,1.26,0,0,1-.51.71,1.5,1.5,0,0,1-.88.29.93.93,0,0,1-.73-.29.76.76,0,0,1-.14-.72A1.26,1.26,0,0,1,689.43,266.14Zm-.28.71a.62.62,0,0,0,.11.58.7.7,0,0,0,.58.24,1.12,1.12,0,0,0,.7-.24,1,1,0,0,0,.41-.58.62.62,0,0,0-.11-.58.72.72,0,0,0-.58-.23,1.2,1.2,0,0,0-.7.23A1.1,1.1,0,0,0,689.15,266.85Z"/><path class="cls-15" d="M691.61,265.87h.26l.28,1.89,1.28-1.89h.25c-.54.79-.81,1.18-1.34,2h-.41C691.8,267.05,691.74,266.66,691.61,265.87Z"/><path class="cls-17" d="M694.64,247.71c-.9,3.46-1.35,5.19-2.24,8.65l-2.92-7.51c-.3-.76-.44-1.14-.74-1.9l-.35-.92c-.19.11-.37.22-.56.35l-.53.36a12.58,12.58,0,0,0-4.88,6.72,7.18,7.18,0,0,0,2,7.31l.84-.93a6.42,6.42,0,0,1-1.62-6.38,10.93,10.93,0,0,1,4.06-5.76l4.23,10.89a.45.45,0,0,0,.45.26.39.39,0,0,0,.15,0,.73.73,0,0,0,.58-.5l2.75-10.62Z"/><path class="cls-17" d="M694.55,265.87l.69,1.88c.2-.75.3-1.13.49-1.88H696l-.51,2H695l-.7-1.9-.49,1.9h-.23c.21-.79.31-1.18.51-2Z"/><path class="cls-17" d="M698.08,265.87l-.05.19h-1.34l-.18.7h1.21l-.05.18h-1.21c-.08.29-.11.43-.19.71h1.34l-.05.19H696l.51-2Z"/><path class="cls-17" d="M698.49,265.87h1.79l0,.19h-.76l-.47,1.78h-.23c.19-.71.28-1.07.46-1.78h-.79Z"/></g></g></svg>