<svg xmlns="http://www.w3.org/2000/svg" viewBox="0 0 927.15 580.67"><defs><style>.cls-1{fill:#e0e0e0;}.cls-2{fill:#fbfbfb;}.cls-3{fill:#fcfcfc;}.cls-4{fill:#ececec;}.cls-5{fill:#f5f5f5;}.cls-6{fill:#35474f;}.cls-7{fill:#ac493f;}.cls-8{fill:#3a7a75;}.cls-9{fill:#f4a5a8;}.cls-10{fill:#f28f8f;}</style></defs><g id="Слой_2" data-name="Слой 2"><g id="Слой_1-2" data-name="Слой 1"><rect class="cls-1" x="727.81" y="0.06" width="193.58" height="201.79"/><rect class="cls-2" x="714.7" y="0.06" width="193.57" height="201.79"/><path class="cls-1" d="M908.33,201.91H714.64V0H908.33Zm-193.57-.12H908.21V.12H714.76Z"/><rect class="cls-3" x="740.72" y="27.19" width="141.53" height="147.53"/><path class="cls-1" d="M740.72,175.7c.11.13-1.23,1.68-3.49,4.06s-5.44,5.61-9,9.12-6.83,6.63-9.25,8.85-4,3.53-4.09,3.41,1.22-1.66,3.48-4,5.44-5.62,9-9.13,6.86-6.65,9.27-8.87,4-3.52,4.07-3.39"/><path class="cls-1" d="M882.25,175.34c.13-.11,1.68,1.23,4.06,3.49s5.62,5.44,9.12,9,6.64,6.83,8.85,9.24,3.53,4,3.41,4.09-1.66-1.21-4-3.47-5.63-5.45-9.14-9-6.65-6.85-8.87-9.26-3.52-4-3.39-4.07"/><path class="cls-1" d="M881.86,27.58c-.11-.13,1.24-1.68,3.5-4.06s5.43-5.62,9-9.12,6.84-6.63,9.25-8.85,4-3.53,4.09-3.41-1.21,1.66-3.47,4-5.45,5.62-9,9.14-6.85,6.65-9.26,8.87-4,3.52-4.08,3.39"/><path class="cls-1" d="M740.33,27.94c-.13.11-1.67-1.23-4.06-3.49s-5.61-5.44-9.12-9-6.63-6.83-8.85-9.24-3.53-4-3.41-4.09,1.66,1.21,4.05,3.47,5.62,5.44,9.14,9,6.64,6.85,8.86,9.26,3.53,4,3.39,4.07"/><path class="cls-1" d="M881.86,174.72a7,7,0,0,1,0-.72c0-.5,0-1.18,0-2.06,0-1.85,0-4.51-.06-8,0-7-.08-17.16-.14-30.07-.07-25.84-.17-62.65-.28-106.72l.54.54-141.13.08h0l.63-.62c0,54.15-.07,104.81-.09,147.53l-.54-.54,102.2.28,28.7.14,7.6.06,2,0,.68,0a4.34,4.34,0,0,1-.62,0l-1.9,0-7.49.06-28.59.14-102.54.28h-.54v-.54c0-42.72,0-93.38-.09-147.53v-.63h.64l141.13.08h.55v.55c-.12,44.22-.21,81.15-.28,107.07-.06,12.86-.11,23-.14,29.94,0,3.41,0,6-.06,7.86,0,.86,0,1.52,0,2a3.83,3.83,0,0,1,0,.66"/><rect class="cls-4" x="787.87" y="77.34" width="47.23" height="47.23"/><rect class="cls-1" x="40.95" y="13.33" width="168.11" height="175.24"/><rect class="cls-2" x="29.57" y="13.33" width="168.11" height="175.24"/><path class="cls-1" d="M197.73,188.63H29.52V13.28H197.73Zm-168.11-.11h168V13.38h-168Z"/><rect class="cls-3" x="52.17" y="36.89" width="122.91" height="128.13"/><path class="cls-1" d="M52.17,165.87c.09.11-1.07,1.45-3,3.52s-4.72,4.88-7.81,7.93-5.93,5.76-8,7.68-3.45,3.07-3.55,3,1.05-1.44,3-3.51,4.72-4.88,7.83-7.94,5.94-5.77,8-7.7,3.44-3.06,3.54-2.94"/><path class="cls-1" d="M175.08,165.55c.11-.09,1.46,1.07,3.53,3s4.87,4.72,7.92,7.81,5.76,5.93,7.68,8,3.07,3.45,3,3.55-1.44-1-3.51-3-4.88-4.73-7.94-7.84-5.77-5.94-7.7-8-3.05-3.44-2.94-3.54"/><path class="cls-1" d="M174.74,37.23c-.09-.11,1.07-1.46,3-3.53s4.72-4.87,7.81-7.92,5.94-5.76,8-7.68,3.45-3.07,3.55-3-1,1.44-3,3.51-4.73,4.88-7.84,7.94-5.94,5.77-8,7.7-3.44,3.06-3.54,2.94"/><path class="cls-1" d="M51.83,37.55c-.11.09-1.46-1.07-3.53-3s-4.87-4.72-7.92-7.81-5.76-5.93-7.68-8-3.07-3.45-3-3.55,1.44,1.05,3.51,3,4.88,4.73,7.94,7.83,5.77,5.95,7.7,8,3.06,3.44,2.94,3.54"/><path class="cls-1" d="M174.74,165s0-.22,0-.63,0-1,0-1.79c0-1.6,0-3.91-.05-6.91,0-6.07-.08-14.9-.13-26.11-.06-22.44-.14-54.41-.24-92.69l.47.47-122.56.07h0l.54-.54c0,47-.05,91-.08,128.13l-.46-.47,88.75.24,24.93.12,6.6.05,1.7,0,.59,0-.54,0-1.65,0-6.51.05-24.82.12-89,.24H51.7V165c0-37.11-.05-81.1-.08-128.13v-.55h.56l122.56.08h.48v.47c-.1,38.4-.18,70.48-.24,93-.06,11.17-.1,20-.13,26q0,4.45,0,6.83c0,.74,0,1.31,0,1.74a4.09,4.09,0,0,1,0,.57"/><polygon class="cls-5" points="672.22 438.65 672.22 517.68 659.03 517.68 659.03 526.26 672.22 526.26 672.22 579.15 918.87 579.15 918.87 531.03 900.6 531.03 900.6 520.54 918.87 520.54 918.87 504.82 926.99 504.82 926.99 497.67 917.35 497.67 917.35 438.65 672.22 438.65"/><polygon class="cls-1" points="853.37 438.88 853.37 578.27 918.87 578.27 918.87 530.15 900.6 530.15 900.6 520.54 918.87 520.87 918.87 505.14 927.15 505.15 926.99 497.03 917.35 496.79 917.35 438.65 853.37 438.88"/><path class="cls-1" d="M858,525.13c0,.48-44.63.87-99.68.87s-99.68-.39-99.68-.87,44.62-.88,99.68-.88,99.68.39,99.68.88"/><path class="cls-1" d="M858,517.1c0,.48-44.63.88-99.68.88s-99.68-.4-99.68-.88,44.62-.88,99.68-.88,99.68.4,99.68.88"/><path class="cls-1" d="M870.84,495.49c0,.49-44.63.88-99.67.88s-99.69-.39-99.69-.88,44.63-.87,99.69-.87,99.67.39,99.67.87"/><path class="cls-1" d="M872.07,554.37c0,.48-44.63.88-99.67.88s-99.69-.4-99.69-.88,44.63-.88,99.69-.88,99.67.4,99.67.88"/><path class="cls-6" d="M915.58,580.33c0,.19-197.9.34-442,.34s-442-.15-442-.34,197.86-.34,442-.34,442,.15,442,.34"/><path class="cls-7" d="M139.56,370.92c-26.37-27-67.7-38.33-104.16-28.58,31.67,21.23,67.26,32.61,105.39,32.93"/><path class="cls-7" d="M104.23,245.81c4.34-30.69-7.59-65.22-30.57-87.53-.76,30.42,12.08,64.65,30.57,87.53"/><path class="cls-7" d="M122.61,303.8a163.88,163.88,0,0,0-75.28-71.94c9.6,35.34,39.83,64.25,75.56,72.26"/><path class="cls-7" d="M126.41,315c-18.53.52-37.3-.13-55.23-4.87s-35.1-13.86-47-28.06a184.55,184.55,0,0,1,102,31.13"/><path class="cls-7" d="M117,278.13c9.41-35.27,24.94-59.66,52.66-79.43A73.35,73.35,0,0,1,117,278.13"/><path class="cls-7" d="M187,339c.48-20.5-12.73-40.64-31.72-48.36,1.54,18.22,15.85,39.29,31.72,48.36"/><path class="cls-7" d="M195.84,309.22c2.11-29.46,23-56.72,51-66.36-6.41,29.48-23.45,54-51,66.36"/><path class="cls-7" d="M182.5,362c6.53-9.35,17.2-15.16,28.24-18.05s22.58-3.15,34-3.39a79.47,79.47,0,0,1-61.37,25.56"/><path class="cls-7" d="M169.24,437.17a87,87,0,0,1,106.3,50.36c-38.61-7.33-76.71-24.48-106.3-50.36"/><path class="cls-7" d="M126.86,411.05c6.42,19,5.19,41.88-9.07,58.22a69.59,69.59,0,0,1,9.07-58.22"/><path class="cls-7" d="M101.82,400.51c-1.79,24.38-17.37,47.28-39.4,57.88a4.45,4.45,0,0,1-3.48.58c-1.74-.71-1.9-3.08-1.68-5,2.79-24.29,20.79-47.78,44.56-53.51"/><path class="cls-7" d="M85.46,398.05a59.27,59.27,0,0,1-42.64,18.76A59.25,59.25,0,0,1,0,398.49c27.16-3,58.51-5,85.46-.44"/><path class="cls-6" d="M81.39,180.9a4.93,4.93,0,0,0,.25.8l.83,2.29c.76,2.06,1.87,5,3.27,8.8s3.15,8.49,5.11,13.94L94,215.45c1.07,3.11,2.21,6.39,3.39,9.83,4.82,13.75,10.16,30.26,15.93,48.65s11.61,38.74,17.46,60.19,10.9,42,15.25,60.8,7.88,35.77,10.51,50.1c.67,3.58,1.32,7,1.92,10.21s1.07,6.29,1.56,9.14c1,5.71,1.82,10.62,2.39,14.65s1.09,7.11,1.42,9.28c.17,1,.3,1.82.4,2.41a5.7,5.7,0,0,0,.17.82,4.28,4.28,0,0,0-.06-.83c-.08-.6-.17-1.4-.3-2.43-.29-2.18-.7-5.31-1.23-9.3s-1.29-9-2.22-14.69l-1.47-9.16q-.88-4.86-1.86-10.24c-2.54-14.35-6.11-31.35-10.29-50.17s-9.41-39.37-15.18-60.86-11.84-41.8-17.56-60.21S103,238.77,98.08,225l-3.47-9.81-3.22-8.7c-2-5.43-3.75-10.1-5.27-13.89l-3.46-8.72-.92-2.26a4.9,4.9,0,0,0-.35-.76"/><path class="cls-6" d="M230.59,258.6a3.73,3.73,0,0,0-.47.44l-1.3,1.36c-1.13,1.21-2.77,3-4.83,5.41a192,192,0,0,0-16,21.32,143.58,143.58,0,0,0-16.72,35.78c-4.48,14.24-7.26,30.43-10,47.35-5.53,33.87-12.3,64.2-17.21,86.15-2.47,10.91-4.48,19.77-5.88,26-.67,3-1.19,5.39-1.57,7.07-.16.77-.28,1.38-.38,1.85a2.54,2.54,0,0,0-.09.64,5.09,5.09,0,0,0,.2-.62l.48-1.82c.42-1.67,1-4,1.75-7,1.49-6.18,3.6-15,6.21-25.9,5.09-21.9,12-52.24,17.51-86.14,2.77-16.92,5.52-33.06,9.92-47.24a145.11,145.11,0,0,1,16.43-35.66,206.3,206.3,0,0,1,15.68-21.46c2-2.42,3.6-4.27,4.68-5.52l1.22-1.44a3.71,3.71,0,0,0,.39-.51"/><path class="cls-6" d="M77.34,396.9a4.51,4.51,0,0,0,1,.18l2.81.31,2,.19,2.41.37c1.72.25,3.69.5,5.83,1l3.37.67,3.61.92c2.51.56,5.11,1.48,7.88,2.32a115.6,115.6,0,0,1,17.2,7.58,96.55,96.55,0,0,1,15.42,10.71,77.23,77.23,0,0,1,5.92,5.68,61.72,61.72,0,0,1,4.68,5.4A56,56,0,0,1,153,437a34.88,34.88,0,0,1,2.37,3.78l1.44,2.43a4,4,0,0,0,.57.82,3.68,3.68,0,0,0-.38-.92c-.35-.68-.77-1.52-1.28-2.53a31.36,31.36,0,0,0-2.23-3.9,53.54,53.54,0,0,0-3.38-4.91,58.31,58.31,0,0,0-4.63-5.54,74.44,74.44,0,0,0-5.92-5.81A93.77,93.77,0,0,0,124,409.51a110.43,110.43,0,0,0-17.39-7.58c-2.81-.82-5.44-1.71-8-2.25l-3.65-.86-3.41-.61c-2.16-.43-4.15-.64-5.89-.84l-2.43-.28-2-.11-2.84-.11a3.14,3.14,0,0,0-1,0"/><path class="cls-6" d="M69.61,259.25a13.65,13.65,0,0,0,2,1.88L77.15,266c4.75,4.06,11.36,9.62,18.7,15.7s14,11.56,18.9,15.47l5.8,4.6a13,13,0,0,0,2.21,1.57,13.78,13.78,0,0,0-2-1.89l-5.59-4.85c-4.75-4.06-11.36-9.61-18.7-15.7s-14-11.54-18.88-15.46l-5.8-4.59a13.81,13.81,0,0,0-2.22-1.58"/><path class="cls-6" d="M62.93,295.18c-.08.28,14.18,4.73,31.85,9.95s32.07,9.24,32.15,9-14.18-4.73-31.86-9.95-32.06-9.24-32.14-9"/><path class="cls-6" d="M115.59,280.88a12.67,12.67,0,0,0,1.47-2.05l3.76-5.73c3.19-4.83,7.72-11.41,13.07-18.41s10.52-13.11,14.32-17.47l4.52-5.16a12.57,12.57,0,0,0,1.58-2,11,11,0,0,0-1.88,1.69c-1.16,1.13-2.79,2.82-4.76,4.94-3.95,4.24-9.22,10.29-14.6,17.32s-9.83,13.71-12.87,18.65c-1.52,2.47-2.7,4.49-3.48,5.92a11.5,11.5,0,0,0-1.13,2.26"/><path class="cls-6" d="M165.12,300.82c-.12.09,1.22,2.15,3.35,5.5s5,8,8,13.27,5.51,10.13,7.3,13.67,2.88,5.75,3,5.69-.73-2.37-2.35-6-4.07-8.58-7.07-13.87-6-9.9-8.31-13.16-3.85-5.17-4-5.09"/><path class="cls-6" d="M182.07,363c.07.14,2.79-1.19,7.25-3.2S200,355.16,207,352.69s13.53-4.28,18.26-5.49,7.69-1.87,7.66-2a9.43,9.43,0,0,0-2.12.23c-1.36.2-3.31.57-5.71,1.08A160.3,160.3,0,0,0,189,359.12c-2.19,1.09-3.95,2-5.13,2.71a8,8,0,0,0-1.8,1.15"/><path class="cls-6" d="M168.73,437.29a3.38,3.38,0,0,0,.88.29l2.56.66,9.49,2.19c8,1.86,19.14,4.18,31,8.18a137.43,137.43,0,0,1,28.91,13.58c3.45,2.2,6.15,4.14,8,5.54a30,30,0,0,0,2.87,2.12s-.19-.26-.63-.67-1.09-1-2-1.77a82,82,0,0,0-7.81-5.84,126.87,126.87,0,0,0-29-13.95c-11.94-4-23.12-6.23-31.16-7.91l-9.56-1.87a22.14,22.14,0,0,0-3.53-.55"/><path class="cls-6" d="M120.48,455.6c.29,0,2-10,3.8-22.34s3-22.45,2.76-22.49-2,10-3.79,22.34-3,22.45-2.77,22.49"/><path class="cls-6" d="M70.26,437.37c.12.08,1.81-2,4.52-5.38s6.48-8,10.73-13.1,8.19-9.57,11-12.82,4.63-5.28,4.52-5.39a7.48,7.48,0,0,0-1.44,1.24c-.88.84-2.12,2.08-3.62,3.65-3,3.14-7,7.58-11.31,12.65S76.77,428,74.2,431.54c-1.29,1.75-2.3,3.18-3,4.19a6.12,6.12,0,0,0-1,1.64"/><polygon class="cls-8" points="203.18 483.95 203.18 508.77 196.97 508.77 174.91 578.4 125.99 578.4 104.62 509.46 96.35 508.77 96.35 483.95 203.18 483.95"/><path class="cls-6" d="M100.48,509.46c0,.28,21.6.52,48.25.52s48.24-.24,48.24-.52-21.59-.52-48.24-.52-48.25.23-48.25.52"/><path class="cls-6" d="M65.3,349.82a19.87,19.87,0,0,0,3.13.84L77,352.73c7.24,1.79,17.17,4.51,28,8.13s20.34,7.47,27.19,10.42l8.09,3.54a19.74,19.74,0,0,0,3,1.22,18.13,18.13,0,0,0-2.84-1.58c-1.85-1-4.57-2.29-8-3.85a280.8,280.8,0,0,0-27.16-10.73A282.81,282.81,0,0,0,77.19,352c-3.65-.81-6.62-1.41-8.68-1.75a17.79,17.79,0,0,0-3.21-.45"/><path class="cls-2" d="M116.73,548.12c0,.29,15.15.52,33.84.52s33.85-.23,33.85-.52-15.15-.51-33.85-.51-33.84.23-33.84.51"/><path class="cls-2" d="M114.82,542.37c0,.29,16.06.52,35.87.52s35.87-.23,35.87-.52-16.05-.52-35.87-.52-35.87.23-35.87.52"/><path class="cls-6" d="M802,29.13H178a19.48,19.48,0,0,0-19.48,19.48V489.36A19.48,19.48,0,0,0,178,508.84h239.5s15.23,47.11-32,71.49h224s-53.33-18.28-39.61-71.49H802a19.47,19.47,0,0,0,19.47-19.47V48.61A19.48,19.48,0,0,0,802,29.13"/><path class="cls-8" d="M498.29,462.49c8.49,12.13-4.8,25.42-16.93,16.93a4,4,0,0,1-1-1.05c-8.47-12.12,4.8-25.39,16.93-16.92a4.28,4.28,0,0,1,1,1"/><path class="cls-3" d="M810.7,428.21H169.22V49.82a12.61,12.61,0,0,1,12.61-12.61H798.08A12.61,12.61,0,0,1,810.7,49.82Z"/><path class="cls-4" d="M810.7,69.69H169.22V49.12a11.91,11.91,0,0,1,11.91-11.91H800.92A9.77,9.77,0,0,1,810.7,47Z"/><path class="cls-6" d="M194.15,54.13a4.51,4.51,0,1,1-4.51-4.5,4.51,4.51,0,0,1,4.51,4.5"/><path class="cls-6" d="M207.58,54.13a4.51,4.51,0,1,1-4.5-4.5,4.5,4.5,0,0,1,4.5,4.5"/><path class="cls-6" d="M220.36,54.13a4.51,4.51,0,1,1-4.51-4.5,4.51,4.51,0,0,1,4.51,4.5"/><path class="cls-8" d="M690.4,508.91c0,.2-88.8.37-198.31.37s-198.33-.17-198.33-.37,88.78-.38,198.33-.38,198.31.17,198.31.38"/><path class="cls-1" d="M617,274.51l-.18-.05-.53-.21-2-.82L607,270.31l-23.92-10.42-.83-.36h.17l-23.43,10-7.1,3-1.93.79-.68.25a3.1,3.1,0,0,1,.65-.33l1.9-.86,7-3.11,23.38-10.14.09,0,.09,0,.82.37L607.12,270l7.22,3.24,1.95.9.5.25a.77.77,0,0,1,.17.09"/><rect class="cls-1" x="500.65" y="271.08" width="153.63" height="115.03"/><rect class="cls-2" x="506.02" y="276.43" width="143.46" height="104.95"/><path class="cls-1" d="M537.7,322.28s.15,17.62,1,23l22.1-1s-1.94-17.32-1.2-22Z"/><path class="cls-3" d="M548.59,324.77h.32a5.57,5.57,0,0,1,.92.05,4.91,4.91,0,0,1,1.4.42,4.53,4.53,0,0,1,1.53,1.21,5.27,5.27,0,0,1,1.06,2.13,5.13,5.13,0,0,1-.23,2.72,8.37,8.37,0,0,1-.62,1.37,13.75,13.75,0,0,0-.71,1.38,11.43,11.43,0,0,0-.89,3.13v.08h-.07l-2.19,0-2.28,0h-.08v-.08a6.37,6.37,0,0,0-1.06-3c-.26-.46-.55-.88-.83-1.31a12.62,12.62,0,0,1-.77-1.27,4.26,4.26,0,0,1-.35-2.69,5.85,5.85,0,0,1,.85-2.2,4.2,4.2,0,0,1,1.44-1.29,5.54,5.54,0,0,1,1.36-.53,5.26,5.26,0,0,1,.9-.14h.24l-.24,0a6,6,0,0,0-.89.17,5.46,5.46,0,0,0-1.33.54,4.37,4.37,0,0,0-1.39,1.28,5.84,5.84,0,0,0-.81,2.17,4.19,4.19,0,0,0,.35,2.6,14.07,14.07,0,0,0,.77,1.25c.27.42.57.85.84,1.31a6.62,6.62,0,0,1,1.09,3.09l-.09-.08,2.29,0,2.18,0-.08.08a11.78,11.78,0,0,1,.92-3.19,14,14,0,0,1,.72-1.39,8.82,8.82,0,0,0,.61-1.33,5,5,0,0,0,.24-2.66,5.32,5.32,0,0,0-1-2.08,4.51,4.51,0,0,0-1.49-1.2,5,5,0,0,0-1.37-.44,5.9,5.9,0,0,0-.91-.07h-.32"/><path class="cls-3" d="M549.72,337.05a.32.32,0,0,0,0-.07c0-.05,0-.12,0-.21s-.06-.45-.12-.79c-.09-.68-.24-1.68-.34-2.91,0-.31-.05-.64-.06-1s0-.69,0-1.06a2.88,2.88,0,0,1,.25-1.1,1.62,1.62,0,0,1,.84-.85,1.12,1.12,0,0,1,1.2.23.87.87,0,0,1,.26.6,1.06,1.06,0,0,1-.23.64,1.4,1.4,0,0,1-.53.43,2.6,2.6,0,0,1-.65.21,8.24,8.24,0,0,1-2.8.1,3,3,0,0,1-.67-.19,1.85,1.85,0,0,1-.56-.4,1.31,1.31,0,0,1-.32-.59,1,1,0,0,1,.08-.65.92.92,0,0,1,.46-.45.77.77,0,0,1,.63,0,1.07,1.07,0,0,1,.47.39,1.68,1.68,0,0,1,.24.55,6.44,6.44,0,0,1,.11,1.13c0,.73.07,1.41.1,2,.07,1.23.12,2.23.15,2.93,0,.34,0,.61,0,.79s0,.16,0,.21v.07a.17.17,0,0,1,0-.07c0-.05,0-.12,0-.21s0-.45-.05-.79c0-.7-.1-1.7-.17-2.93,0-.62-.08-1.3-.12-2a6.07,6.07,0,0,0-.11-1.12,1.67,1.67,0,0,0-.23-.53,1.16,1.16,0,0,0-.44-.38.73.73,0,0,0-.58,0,.82.82,0,0,0-.43.41.94.94,0,0,0-.07.62,1.28,1.28,0,0,0,.3.56,2,2,0,0,0,1.19.56,8,8,0,0,0,1.39.07,9,9,0,0,0,1.38-.16,2.82,2.82,0,0,0,.64-.21,1.47,1.47,0,0,0,.51-.41,1,1,0,0,0,.21-.6.72.72,0,0,0-.24-.55,1.05,1.05,0,0,0-1.13-.22,1.6,1.6,0,0,0-.81.81,2.79,2.79,0,0,0-.25,1.08c0,.37,0,.72,0,1s0,.67,0,1c.09,1.24.23,2.23.32,2.92,0,.34.08.61.11.79a1.78,1.78,0,0,0,0,.2v.08"/><path class="cls-3" d="M546.81,337.16s0,.28.06.74.06,1.17.1,1.91l0-.05c.44.52.95,1.09,1.49,1.72l-.08,0,1.72-.1-.07,0c.27-.34.56-.69.86-1.05l.42-.52,0,.06c0-1,0-2-.06-2.83l.09.09-3.21,0h-1.28l.31,0,.91-.05,3.27-.12h.09v.1c0,.87.06,1.82.09,2.83v0l0,0-.43.52-.85,1,0,0h0l-1.72.08h0l0,0c-.54-.63-1-1.22-1.46-1.74l0,0v0c0-.77,0-1.42,0-2s0-.7,0-.69"/><path class="cls-3" d="M551.25,339.65s-.06,0-.16-.07-.26-.11-.45-.17a4.2,4.2,0,0,0-1.55-.24,4.65,4.65,0,0,0-1.54.33l-.43.2c-.1.06-.16.09-.16.08l.14-.1a4.11,4.11,0,0,1,.43-.22,4.22,4.22,0,0,1,1.56-.36,4.08,4.08,0,0,1,1.57.26,2.72,2.72,0,0,1,.44.2l.15.09"/><path class="cls-3" d="M551.25,339s-.06,0-.16-.07-.26-.11-.45-.17a4.2,4.2,0,0,0-1.55-.24,4.59,4.59,0,0,0-1.54.33,4.39,4.39,0,0,0-.43.21c-.1.05-.16.08-.16.07l.14-.1a4.11,4.11,0,0,1,.43-.22,4.22,4.22,0,0,1,1.56-.36,4.28,4.28,0,0,1,1.57.26,4,4,0,0,1,.44.2l.15.09"/><path class="cls-3" d="M551.21,338.31l-.16-.07-.45-.18a4.45,4.45,0,0,0-1.55-.23,4.36,4.36,0,0,0-1.54.33,4.73,4.73,0,0,0-.43.2l-.16.08.14-.1.43-.23a4.19,4.19,0,0,1,1.56-.35,4.08,4.08,0,0,1,1.57.26,2.72,2.72,0,0,1,.44.2l.15.09"/><path class="cls-4" d="M513.09,293.48s.15,17.62,1,23l22.1-1s-1.94-17.32-1.2-21.95Z"/><path class="cls-3" d="M531.71,300.88a65,65,0,0,1-7.4.66,62.81,62.81,0,0,1-7.43.23,128.49,128.49,0,0,1,14.83-.89"/><path class="cls-3" d="M531.72,304.61a128.13,128.13,0,0,1-14.83.89,65,65,0,0,1,7.4-.66,62.83,62.83,0,0,1,7.43-.23"/><path class="cls-3" d="M528,308.28a22.17,22.17,0,0,1-4.21.46,20.14,20.14,0,0,1-4.24,0,20.91,20.91,0,0,1,4.21-.47,20.49,20.49,0,0,1,4.24,0"/><path class="cls-4" d="M512.05,345.31s.15,17.62,1,23l22.1-1.05s-1.94-17.32-1.19-21.95Z"/><path class="cls-3" d="M530.67,352.71a122.47,122.47,0,0,1-14.83.89,67.58,67.58,0,0,1,7.4-.66,65.49,65.49,0,0,1,7.43-.23"/><path class="cls-3" d="M530.67,356.44a63.28,63.28,0,0,1-7.4.67,65.49,65.49,0,0,1-7.43.23,63.88,63.88,0,0,1,7.4-.67,65.53,65.53,0,0,1,7.43-.23"/><path class="cls-3" d="M526.92,360.11a41.79,41.79,0,0,1-8.45.51,20.78,20.78,0,0,1,4.21-.47,21,21,0,0,1,4.24,0"/><polygon class="cls-4" points="572.44 298.15 574.63 348.96 638.06 349.73 635.22 298.82 572.44 298.15"/><rect class="cls-5" x="571.7" y="297.79" width="63.01" height="47.58"/><path class="cls-1" d="M634.72,345.37s0-.31,0-.89,0-1.43,0-2.54c0-2.23,0-5.48,0-9.62,0-8.3,0-20.17-.09-34.54l.18.18-63,0h0l.22-.22c0,17.12,0,33.32,0,47.59l-.2-.2,45.46.1,12.92.05,3.44,0h.89l.31,0h-1.16l-3.39,0-12.89,0-45.58.1h-.19v-.19c0-14.27,0-30.47,0-47.59v-.21h.23l63,0h.17v.17c0,14.41-.07,26.32-.09,34.65,0,4.13,0,7.36,0,9.59,0,1.08,0,1.92,0,2.5s0,.85,0,.85"/><rect class="cls-5" x="579.3" y="307.86" width="25.54" height="32.15"/><path class="cls-1" d="M604.85,340s0-.06,0-.16,0-.27,0-.46c0-.42,0-1,0-1.75,0-1.56,0-3.79,0-6.6,0-5.66-.06-13.67-.09-23.18l.19.2-25.54,0,.21-.21h0v8.74c0,2.85,0,5.64,0,8.34,0,5.4,0,10.46,0,15.05l-.18-.18,18.5.1,5.19,0,1.37,0,.49,0a2.19,2.19,0,0,1-.45,0l-1.34,0-5.15.05-18.61.09h-.18V340c0-4.59,0-9.65,0-15.05,0-2.7,0-5.49,0-8.34v-8.74h0c-.2.19.26-.27.22-.22l25.54,0H605v.19c0,9.57-.07,17.62-.09,23.31,0,2.79,0,5-.06,6.55,0,.73,0,1.3,0,1.72,0,.17,0,.32,0,.43a.55.55,0,0,1,0,.14"/><rect class="cls-5" x="580.28" y="300.51" width="48.96" height="4.63"/><path class="cls-1" d="M629.24,305.14a2,2,0,0,1,0-.32c0-.22,0-.52,0-.9,0-.8,0-1.94-.05-3.41l.09.09c-8.26.07-27.08.12-49,.12h0l.22-.21h0v4.62l-.22-.22,34.7.1,10.42.06,2.83,0H629l.27,0-.24,0h-.71l-2.79,0-10.36.06-34.86.1h-.21v-4.84h0c.09-.1-.22.21.21-.22h0c21.88,0,40.7,0,49,.13h.09v.09c0,1.49,0,2.65-.05,3.46,0,.37,0,.66,0,.88a2.74,2.74,0,0,1,0,.29"/><rect class="cls-5" x="607.98" y="307.86" width="21.26" height="19.38"/><path class="cls-1" d="M629.24,327.24a1.69,1.69,0,0,1,0-.37c0-.27,0-.62,0-1.06,0-.94,0-2.27-.05-3.95,0-3.4-.06-8.22-.1-14l.19.19-21.26,0,.21-.21h0v5.19c0,1.7,0,3.37,0,5,0,3.25,0,6.33,0,9.17l-.19-.19,15.33.1,4.35.05,1.16,0,.42,0-.37,0-1.13,0-4.31.05-15.45.1h-.19v-.19c0-2.84,0-5.92,0-9.17,0-1.63,0-3.3,0-5v-5.19h0l.22-.22,21.26,0h.18v.18c0,5.83-.07,10.68-.09,14.12,0,1.66,0,3-.05,3.91,0,.42,0,.76,0,1s0,.34,0,.33"/><rect class="cls-5" x="607.98" y="330.28" width="21.26" height="9.74"/><path class="cls-1" d="M629.24,340s0-.25,0-.7,0-1.14,0-2c0-1.72,0-4.12-.08-7.07l.16.16-21.26.05.21-.21h0v5c0,1.62,0,3.2,0,4.71l-.2-.2,15.2.1,4.43,0,1.2,0,.43,0a1.76,1.76,0,0,1-.38,0l-1.16,0-4.38.06-15.34.1h-.21V340c0-1.51,0-3.09,0-4.71v-5h0l.22-.22,21.26.06h.16v.16c0,3-.06,5.43-.08,7.17,0,.8,0,1.44,0,1.92a4.89,4.89,0,0,1,0,.64"/><path class="cls-3" d="M604.22,307.92c-7.91,10.92-17,21.17-24.92,32.09"/><path class="cls-1" d="M579.3,340a1.47,1.47,0,0,1,.21-.35l.67-1c.58-.85,1.46-2.06,2.56-3.53,2.19-2.95,5.33-6.95,8.85-11.32s6.69-8.33,8.95-11.23l2.66-3.44.74-.93c.17-.21.26-.32.28-.31a1.62,1.62,0,0,1-.21.36l-.67,1c-.58.85-1.46,2.05-2.56,3.52-2.19,3-5.33,7-8.85,11.32s-6.69,8.33-8.95,11.23l-2.66,3.45-.74.93c-.17.21-.26.31-.28.3"/><line class="cls-3" x1="579.3" y1="307.86" x2="604.85" y2="340.01"/><path class="cls-1" d="M604.85,340c-.09.08-5.89-7.06-12.94-15.94s-12.7-16.13-12.61-16.21,5.89,7.07,13,15.94,12.69,16.14,12.6,16.21"/><path class="cls-1" d="M574.63,307.93a4,4,0,1,1-4-4,4,4,0,0,1,4,4"/><path class="cls-1" d="M640,298.23a4,4,0,1,1-4-4,4,4,0,0,1,4,4"/><rect class="cls-5" x="191.11" y="338.14" width="40.73" height="80.73"/><rect class="cls-5" x="233.41" y="338.14" width="44.01" height="80.73"/><polygon class="cls-5" points="283.05 336.74 329.4 336.74 329.4 265.13 330.96 265.13 330.96 336.74 368.68 336.74 368.68 263.54 283.05 263.54 283.05 336.74"/><rect class="cls-5" x="330.97" y="338.14" width="37.72" height="80.73"/><polygon class="cls-5" points="231.84 336.74 231.84 265.13 233.41 265.13 233.41 336.74 277.41 336.74 277.41 263.54 191.11 263.54 191.11 336.74 231.84 336.74"/><rect class="cls-5" x="283.06" y="338.14" width="46.34" height="80.73"/><rect class="cls-5" x="375.2" y="338.14" width="40.73" height="80.73"/><rect class="cls-5" x="417.5" y="338.14" width="44.01" height="80.73"/><polygon class="cls-5" points="415.93 336.74 415.93 265.13 417.5 265.13 417.5 336.74 461.5 336.74 461.5 263.54 375.2 263.54 375.2 336.74 415.93 336.74"/><rect class="cls-1" x="751.37" y="92.27" width="6.6" height="32.84" transform="translate(-0.57 4.02) rotate(-0.31)"/><rect class="cls-4" x="694.16" y="92.38" width="17.09" height="18.13" transform="translate(-0.53 3.75) rotate(-0.31)"/><rect class="cls-5" x="711.17" y="92.29" width="17.09" height="18.13" transform="translate(-0.53 3.84) rotate(-0.31)"/><path class="cls-1" d="M694.14,97.44c11.35.09,22.74,0,34.09-.16a.18.18,0,1,0,0-.36c-11.35-.07-22.74,0-34.1.21-.2,0-.19.31,0,.31"/><rect class="cls-4" x="683.49" y="110.25" width="31.05" height="14.77" transform="matrix(1, -0.01, 0.01, 1, -0.62, 3.75)"/><rect class="cls-5" x="714.4" y="110.08" width="31.05" height="14.77" transform="translate(-0.62 3.92) rotate(-0.31)"/><path class="cls-1" d="M683.48,114.44c20.62.23,41.32,0,61.95-.31a.18.18,0,0,0,0-.36c-20.63-.11-41.33-.09-62,.36-.2,0-.19.31,0,.31"/><rect class="cls-1" x="671.86" y="125.1" width="120.3" height="5.29"/><rect class="cls-1" x="691.56" y="127.65" width="4.88" height="18.06"/><rect class="cls-1" x="764.46" y="127.65" width="4.88" height="18.06"/><rect class="cls-4" x="757.84" y="80.02" width="6.6" height="45.17" transform="translate(-0.54 4.05) rotate(-0.31)"/><rect class="cls-5" x="764.48" y="88.44" width="10.25" height="36.6" transform="translate(-0.56 4.11) rotate(-0.31)"/><path class="cls-1" d="M774.57,95.47a77.49,77.49,0,0,1-10.26,0,73.19,73.19,0,0,1,10.26,0"/><path class="cls-1" d="M774.57,93.93a73.19,73.19,0,0,1-10.26,0,73.19,73.19,0,0,1,10.26,0"/><path class="cls-1" d="M774.57,119.51a73.19,73.19,0,0,1-10.26,0,73.19,73.19,0,0,1,10.26,0"/><path class="cls-1" d="M774.57,118a73.19,73.19,0,0,1-10.26,0,73.19,73.19,0,0,1,10.26,0"/><path class="cls-1" d="M769.6,114.62c-.1,0-.17-3.7-.17-8.25s.07-8.25.17-8.25.18,3.69.18,8.25-.08,8.25-.18,8.25"/><rect class="cls-4" x="774.68" y="97.4" width="11.16" height="27.63"/><path class="cls-1" d="M762.82,87.72a1.9,1.9,0,1,1-1.9-1.9,1.9,1.9,0,0,1,1.9,1.9"/><rect class="cls-1" x="760.34" y="92.94" width="1.17" height="26.87"/><rect class="cls-2" x="195.54" y="105.76" width="84.71" height="75.79"/><path class="cls-1" d="M280.25,181.55s0-.48,0-1.41,0-2.28,0-4.06c0-3.55,0-8.76-.05-15.38,0-13.24,0-32.16-.1-54.94l.2.2-84.71,0h0l.22-.23c0,27.58,0,53.52,0,75.79l-.19-.2,61.26.1,17.29.06,4.57,0h0l-4.53,0-17.24.05-61.39.1h-.2v-.2c0-22.27,0-48.21,0-75.79v-.22h.23l84.71,0h.19v.19c0,22.83-.08,41.79-.1,55.06,0,6.61,0,11.79,0,15.34,0,1.76,0,3.1,0,4s0,1.36,0,1.36"/><path class="cls-1" d="M228,119.23c0,.12-4.46.23-10,.23s-10-.11-10-.23,4.46-.23,10-.23,10,.11,10,.23"/><path class="cls-1" d="M263.91,124.92c0,.13-12.25.23-27.36.23s-27.35-.1-27.35-.23,12.24-.23,27.35-.23,27.36.11,27.36.23"/><rect class="cls-1" x="208.25" y="134.56" width="3.57" height="3.57"/><rect class="cls-1" x="217.03" y="134.56" width="3.57" height="3.57"/><rect class="cls-1" x="225.98" y="134.4" width="3.57" height="3.57"/><rect class="cls-1" x="234.6" y="134.56" width="3.57" height="3.57"/><rect class="cls-1" x="243.38" y="134.56" width="3.57" height="3.57"/><rect class="cls-1" x="252.17" y="134.56" width="3.57" height="3.57"/><rect class="cls-4" x="260.95" y="134.56" width="3.57" height="3.57"/><rect class="cls-4" x="208.25" y="142.15" width="3.57" height="3.57"/><rect class="cls-1" x="217.03" y="142.15" width="3.57" height="3.57"/><rect class="cls-4" x="225.81" y="142.15" width="3.57" height="3.57"/><rect class="cls-1" x="234.6" y="142.15" width="3.57" height="3.57"/><rect class="cls-1" x="243.38" y="142.15" width="3.57" height="3.57"/><rect class="cls-1" x="252.33" y="141.98" width="3.57" height="3.57"/><rect class="cls-1" x="260.95" y="142.15" width="3.57" height="3.57"/><rect class="cls-1" x="208.25" y="149.73" width="3.57" height="3.57"/><rect class="cls-1" x="217.19" y="149.57" width="3.57" height="3.57"/><rect class="cls-1" x="225.81" y="149.73" width="3.57" height="3.57"/><rect class="cls-4" x="234.6" y="149.73" width="3.57" height="3.57"/><rect class="cls-1" x="243.38" y="149.73" width="3.57" height="3.57"/><rect class="cls-1" x="252.17" y="149.73" width="3.57" height="3.57"/><rect class="cls-1" x="260.95" y="149.73" width="3.57" height="3.57"/><rect class="cls-1" x="208.25" y="157.32" width="3.57" height="3.57"/><rect class="cls-1" x="217.03" y="157.32" width="3.57" height="3.57"/><rect class="cls-1" x="225.81" y="157.32" width="3.57" height="3.57"/><rect class="cls-1" x="234.76" y="157.16" width="3.57" height="3.57"/><rect class="cls-1" x="243.38" y="157.32" width="3.57" height="3.57"/><rect class="cls-4" x="252.17" y="157.32" width="3.57" height="3.57"/><rect class="cls-1" x="260.95" y="157.32" width="3.57" height="3.57"/><rect class="cls-1" x="208.25" y="164.91" width="3.57" height="3.57"/><rect class="cls-4" x="217.03" y="164.91" width="3.57" height="3.57"/><rect class="cls-1" x="225.81" y="164.91" width="3.57" height="3.57"/><rect class="cls-1" x="234.6" y="164.91" width="3.57" height="3.57"/><rect class="cls-1" x="243.38" y="164.91" width="3.57" height="3.57"/><rect class="cls-1" x="252.33" y="164.74" width="3.57" height="3.57"/><rect class="cls-1" x="260.95" y="164.91" width="3.57" height="3.57"/><rect class="cls-5" x="416.33" y="142.12" width="42.36" height="11.21"/><path class="cls-1" d="M440.78,165.13a1.57,1.57,0,0,1,0-.2c0-.15,0-.34,0-.58,0-.52,0-1.26,0-2.2,0-1.94,0-4.72-.07-8.22l.13.13-42.36.08c.1-.09-.21.22.22-.21h0v5.67c0,1.87,0,3.71,0,5.51l-.21-.21,30.19.1,8.91.06,2.41,0h.85l-.2,0H440l-2.37,0-8.86.06-30.33.09h-.21V154h0c.43-.43.12-.12.21-.22l42.36.09h.13v.13c0,3.54-.06,6.34-.07,8.3,0,.93,0,1.65,0,2.17,0,.23,0,.41,0,.55a.93.93,0,0,1,0,.18"/><rect class="cls-4" x="198.2" y="207.9" width="42.36" height="11.21"/><path class="cls-1" d="M476.89,109.27a1.66,1.66,0,0,1,0-.21c0-.16,0-.36,0-.6,0-.56,0-1.33,0-2.32,0-2,0-5-.08-8.64l.14.14-44.49.09.23-.23h0v6c0,2,0,3.9,0,5.79l-.22-.22,31.71.1,9.35.07,2.54,0,.66,0h.23s-.06,0-.2,0h-.64l-2.48,0-9.31.06-31.86.1h-.22v-6c0-1,0-2,0-3v-3h0l.23-.22,44.49.08H477v.13c0,3.72-.06,6.67-.08,8.72,0,1,0,1.74,0,2.29,0,.23,0,.42,0,.57s0,.2,0,.19"/><path class="cls-1" d="M482.92,97.5a2,2,0,0,1,0-.22c0-.17,0-.38,0-.63,0-.58,0-1.36,0-2.36,0-2.06-.05-5-.09-8.56l.16.17L456.19,86l.23-.23h0v6c0,2,0,3.88,0,5.71l-.22-.21,19.12.1,5.58.06,1.5,0,.53,0a2.62,2.62,0,0,1-.48,0l-1.46,0-5.52.06-19.27.1H456V97.5c0-1.83,0-3.74,0-5.71v-6h0l.22-.22,26.73.06h.17v.16c0,3.63-.07,6.58-.09,8.66,0,1,0,1.76,0,2.33a5.56,5.56,0,0,1,0,.78"/><path class="cls-1" d="M476.89,231.19s0-.08,0-.22,0-.35,0-.6c0-.55,0-1.33,0-2.32,0-2,0-5-.08-8.63l.14.14-44.49.08c.1-.1-.23.23.23-.22h0v6c0,2,0,3.9,0,5.79l-.22-.22,31.71.1,9.35.06,2.54,0h.66l.23,0h-.2l-.64,0-2.48,0-9.31.06-31.86.1h-.22v-6c0-1,0-2,0-3v-3h0l.23-.23,44.49.09H477v.14c0,3.72-.06,6.67-.08,8.72,0,1,0,1.74,0,2.28,0,.24,0,.43,0,.58s0,.19,0,.19"/><path class="cls-1" d="M482.92,219.42s0-.08,0-.23,0-.37,0-.62c0-.58,0-1.37,0-2.36,0-2.06-.05-5-.09-8.56l.16.16-26.73.07.23-.23h0v6c0,2,0,3.88,0,5.71l-.22-.22,19.12.11,5.58.05,1.5,0,.53,0a2.62,2.62,0,0,1-.48,0l-1.46,0-5.52.06-19.27.1H456v-.22c0-1.83,0-3.74,0-5.71v-6h0l.22-.23,26.73.07h.17v.16c0,3.62-.07,6.57-.09,8.66,0,1,0,1.75,0,2.32a5.65,5.65,0,0,1,0,.79"/><rect class="cls-4" x="501.65" y="92.88" width="69.75" height="69.75"/><rect class="cls-3" x="503.7" y="94.93" width="65.65" height="65.65"/><rect class="cls-1" x="527.1" y="118.33" width="18.85" height="18.85"/><rect class="cls-1" x="571.4" y="92.9" width="2.94" height="69.73"/><polyline class="cls-1" points="800.1 341.24 768 301.14 767.63 301.67 765.2 305.23 799.99 349.16"/><polygon class="cls-4" points="768.72 293.16 771.02 290.09 768.51 287.93 766.07 291.01 768.72 293.16"/><path class="cls-4" d="M772.2,295.28l-8.77-7.14-9.37,10.06C738.69,299.79,732,309,732,309l26.08,22.41c9.91-9.79,6.33-24.77,6.33-24.77Z"/><path class="cls-1" d="M764.42,306.67a43.94,43.94,0,0,1-5.34-4,42.22,42.22,0,0,1-5-4.43,43.94,43.94,0,0,1,5.34,4,43.23,43.23,0,0,1,5,4.43"/><path class="cls-6" d="M488.27,428c-.18,0-.34-80.09-.34-178.86s.16-178.88.34-178.88.34,80.08.34,178.88S488.46,428,488.27,428"/><path class="cls-6" d="M811.43,250c0,.18-143.94.33-321.46.33s-321.48-.15-321.48-.33,143.91-.34,321.48-.34,321.46.15,321.46.34"/><path class="cls-6" d="M810.7,428.21c0-1.87-.09-115.1-.24-301q0-34.86,0-72.95V49.44a19.25,19.25,0,0,0-.29-4.7,9.57,9.57,0,0,0-6-6.7,10,10,0,0,0-2.3-.52c-.78-.06-1.59-.05-2.41-.05h-55l-174.56,0-192.89,0H183.1a14.06,14.06,0,0,0-6.35,1,12.15,12.15,0,0,0-7.13,9.8c-.13,2.07,0,4.25-.06,6.37V67.52q0,12.75,0,25.43V241.83c0,64.6,0,127,0,186.38l-.31-.31,641.48.31-641.48.31h-.32v-.31c0-59.42,0-121.78,0-186.38V54.75c0-2.15-.07-4.23.07-6.44A12.83,12.83,0,0,1,176.48,38a14.68,14.68,0,0,1,6.62-1.09H376.92l192.89,0,174.56,0h55c.82,0,1.63,0,2.47.05a10.11,10.11,0,0,1,8.8,7.62,19.78,19.78,0,0,1,.3,4.83v4.78q0,38.09,0,73c-.15,185.91-.24,299.11-.24,301"/><path class="cls-8" d="M195.42,89.05a5.72,5.72,0,1,1-5.72-5.72,5.72,5.72,0,0,1,5.72,5.72"/><path class="cls-8" d="M230,90.08c0,.16-7.13.29-15.93.29s-15.93-.13-15.93-.29,7.13-.29,15.93-.29,15.93.13,15.93.29"/><path class="cls-8" d="M520.76,89.05A5.72,5.72,0,1,1,515,83.33a5.73,5.73,0,0,1,5.72,5.72"/><path class="cls-8" d="M555.38,90.08c0,.16-7.14.29-15.93.29s-15.93-.13-15.93-.29,7.13-.29,15.93-.29,15.93.13,15.93.29"/><path class="cls-8" d="M520.86,276.55a5.72,5.72,0,1,1-5.72-5.72,5.72,5.72,0,0,1,5.72,5.72"/><path class="cls-8" d="M555.48,277.58c0,.16-7.13.29-15.93.29s-15.93-.13-15.93-.29,7.13-.29,15.93-.29,15.93.13,15.93.29"/><path class="cls-8" d="M195.87,276.55a5.72,5.72,0,1,1-5.72-5.72,5.72,5.72,0,0,1,5.72,5.72"/><path class="cls-8" d="M230.49,277.58c0,.16-7.13.29-15.93.29s-15.93-.13-15.93-.29,7.13-.29,15.93-.29,15.93.13,15.93.29"/><path class="cls-7" d="M787.82,101h0a11.9,11.9,0,1,1,11.9-11.9,11.9,11.9,0,0,1-11.9,11.9"/><path class="cls-3" d="M787.41,89.14a1.9,1.9,0,1,0-1.16,0,3.29,3.29,0,0,0-2.77,3.26h6.62a3.31,3.31,0,0,0-2.69-3.25"/><path class="cls-3" d="M791.12,89.7a.27.27,0,0,1-.27-.27V86.38a.27.27,0,0,1,.54,0v3.05a.27.27,0,0,1-.27.27"/><path class="cls-3" d="M792.64,88.18h-3a.27.27,0,0,1-.27-.27.28.28,0,0,1,.27-.28h3a.29.29,0,0,1,.28.28.28.28,0,0,1-.28.27"/><polygon class="cls-8" points="169.22 399.64 169.22 428.32 202.66 428.32 286.87 428.32 810.7 428.32 810.7 399.64 169.22 399.64"/><path class="cls-3" d="M521,413.42a8.92,8.92,0,1,1-8.91-8.91,8.91,8.91,0,0,1,8.91,8.91"/><path class="cls-7" d="M511.63,415.85h-1.11a1.67,1.67,0,0,1-1.67-1.67v-1.11a1.67,1.67,0,0,1,1.67-1.67h1.11a1.67,1.67,0,0,1,1.67,1.67v1.11a1.67,1.67,0,0,1-1.67,1.67"/><path class="cls-7" d="M513.7,414.41V412.9l1.13-1.2a.24.24,0,0,1,.42.17v3.42a.25.25,0,0,1-.41.18Z"/><path class="cls-3" d="M468.85,412.81a8.34,8.34,0,1,1-8.34-8.35,8.35,8.35,0,0,1,8.34,8.35"/><path class="cls-7" d="M457.86,413.63a.83.83,0,0,1,0-1.65.83.83,0,0,1,0,1.65"/><path class="cls-7" d="M460.42,413.63a.83.83,0,0,1,0-1.65.83.83,0,0,1,0,1.65"/><path class="cls-7" d="M463.16,413.63a.83.83,0,1,1,.82-.82.83.83,0,0,1-.82.82"/><path class="cls-3" d="M478.1,422.94a12.67,12.67,0,1,1,17.93,0,12.67,12.67,0,0,1-17.93,0"/><path class="cls-7" d="M482.1,416.17l2.26-.53a.63.63,0,0,0,.48-.6v-.47s-.1-.79.65-.84c.53,0,3.93,0,3.93,0s.89,0,.88.69v.67a.53.53,0,0,0,.37.51l2.46.74a.53.53,0,0,0,.64-.3l.31-.76a.93.93,0,0,0,.08-.44,2.17,2.17,0,0,0-.42-1.13c-.49-.62-2.78-2.09-7.15-1.88-4.16.2-5.07,1.95-5.31,2.37a1.81,1.81,0,0,0-.08,1.17c.05.1.12.27.19.43a.61.61,0,0,0,.71.37"/><path class="cls-6" d="M701,317.49c-2.83-2.91-7.88-3.67-11-1.11L676.4,334.52a16.36,16.36,0,0,0,4.05,8.06,10.41,10.41,0,0,0,8.22,3.27,16.47,16.47,0,0,0,10.54-5.78c2.56-3.14,4.92-6.14,5.77-11.82.6-4-1.12-7.86-4-10.76"/><path class="cls-8" d="M699.88,335.15c-.14,0,0-1-.26-2.49a10,10,0,0,0-7.47-8.2c-1.48-.39-2.45-.36-2.46-.49a4.47,4.47,0,0,1,2.58-.08,9.53,9.53,0,0,1,7.93,8.71,4.49,4.49,0,0,1-.32,2.55"/><path class="cls-8" d="M702,320.83c-.08.25-2.58-.64-5.75-.59s-5.63,1-5.72.79,2.33-1.54,5.71-1.61,5.85,1.25,5.76,1.41"/><path class="cls-6" d="M691.85,300.78c-1.79-8.49-10.3-17.25-18.45-20.24s-15.56-2.91-24.15-1.7a27.86,27.86,0,0,0-21.45,16.57c-3.72,8.91-2.83,17.39-2.1,27,.56,7.31,2.64,16,5.35,18.68s2.43,1.26,5.9,2.8c6.89,3,14.48,2.12,22,1.85s16.42-1.83,21.74-7.16c4.5-4.51,5.86-7.68,8.08-13.54,2.47-6.54,4.52-17.42,3.08-24.27"/><path class="cls-9" d="M678.91,310.24a24.44,24.44,0,0,0-25-24.8c-13.27.14-23.94,11-24.58,24-.56,11.42-.86,22.91-.38,27,1.46,12.4,9.36,16.46,12.51,17.6a17,17,0,0,0,3.41.47.08.08,0,0,1,.08.09l-1.32,14.55c-.3,9.47,5.87,17.25,15.51,17.62S675.54,379.2,676,369.7Z"/><path class="cls-6" d="M631.47,315.61c.19.22,1.82.11,3.87.83s3.38,1.83,3.64,1.76,0-.37-.61-.87a9,9,0,0,0-2.86-1.58,8.2,8.2,0,0,0-3.14-.49c-.71.06-1,.24-.9.35"/><path class="cls-6" d="M654.43,319.1c.31,0,1.62-1.1,3.81-1.93s4-.92,4.22-1.14-.26-.23-1.08-.2a10.93,10.93,0,0,0-3.45.76,10,10,0,0,0-3,1.69c-.56.5-.68.81-.54.82"/><path class="cls-6" d="M645.39,329.24a14.56,14.56,0,0,0-3.5-.76c-.55-.08-1.07-.21-1.15-.58a2.86,2.86,0,0,1,.44-1.61l1.83-4.08c2.53-5.83,4.39-10.62,4.15-10.72s-2.49,4.54-5,10.37L640.38,326a3.14,3.14,0,0,0-.38,2.13,1.39,1.39,0,0,0,.88.83,4,4,0,0,0,.94.17,14.38,14.38,0,0,0,3.57.14"/><path class="cls-10" d="M645,354.52s8.36,1,19.13-4.79c0,0-3.79,10.77-19.49,8.71Z"/><path class="cls-7" d="M646.09,334.42a3.94,3.94,0,0,1,3.57-1.29,3.52,3.52,0,0,1,2.41,1.39,2.2,2.2,0,0,1,.06,2.55,2.66,2.66,0,0,1-2.88.6,8.25,8.25,0,0,1-2.7-1.73,2.5,2.5,0,0,1-.6-.66.71.71,0,0,1,0-.79"/><path class="cls-6" d="M651.72,331c-.35,0-.45,2.29-2.55,3.85s-4.59,1.22-4.62,1.54c0,.14.54.47,1.6.54a6,6,0,0,0,3.86-1.15,5,5,0,0,0,2-3.23c.13-1-.1-1.55-.27-1.55"/><path class="cls-6" d="M654.39,307.11c.23.57,2.08.14,4.29.25s4.05.66,4.3.11c.11-.26-.24-.78-1-1.28a6.52,6.52,0,0,0-3.26-1,6.23,6.23,0,0,0-3.28.72c-.78.43-1.15.92-1.05,1.19"/><path class="cls-6" d="M631.5,306.12c.42.57,2.15.06,4.21.11s3.78.52,4.2,0c.19-.28-.06-.84-.8-1.4a6.2,6.2,0,0,0-6.77-.05c-.75.54-1,1.1-.84,1.38"/><path class="cls-6" d="M648.43,280.5c-3,6.28.45,12.59,6.58,15.84,2.65,1.41,6,2.18,7.34,4.87,1,2.08.45,4.76,1.75,6.68s3.68,2.3,5.45,3.6c2.43,1.77,3.4,4.94,3.66,7.93s0,6,.56,9,2.35,5.92,5.22,6.8c1.81-8.5,3.47-17.13,3-25.81s3-18.45-3.07-24.7-22.37-7.28-30.49-4.2"/><path class="cls-8" d="M692,314.08a5.63,5.63,0,0,0-.46-2.1A6.56,6.56,0,0,0,687,308.6a28.26,28.26,0,0,0-4.09-.62,16.71,16.71,0,0,1-4.77-1.05,8.06,8.06,0,0,1-4-3.73c-.93-1.64-1.57-3.46-2.61-5a7.54,7.54,0,0,0-4.26-3.16,28.37,28.37,0,0,0-5.14-.93,23.43,23.43,0,0,1-4.77-.95,15.34,15.34,0,0,1-8-6.33,11.43,11.43,0,0,1-.77-1.47c-.15-.35-.21-.54-.18-.55s.4.68,1.22,1.84a15.81,15.81,0,0,0,4.28,4.11,14.6,14.6,0,0,0,3.68,1.75,23.6,23.6,0,0,0,4.65.85,28.35,28.35,0,0,1,5.29.91,8.39,8.39,0,0,1,4.71,3.48c1.11,1.69,1.74,3.52,2.62,5.08a7.34,7.34,0,0,0,3.57,3.44c3,1.26,6.21,1,8.71,1.8a6.76,6.76,0,0,1,4.69,3.81,4,4,0,0,1,.29,1.66,1.23,1.23,0,0,1-.12.57"/><path class="cls-8" d="M692.09,310.43a4.33,4.33,0,0,1,0,1.42,36.52,36.52,0,0,1-.58,3.82A76.26,76.26,0,0,1,688,327.9a30.73,30.73,0,0,1-6.78,10.78,20.27,20.27,0,0,1-3,2.51,4.19,4.19,0,0,1-1.23.71c-.09-.13,1.61-1.24,3.77-3.62a33.45,33.45,0,0,0,6.43-10.68,101.16,101.16,0,0,0,3.71-12.06c.77-3.14,1-5.12,1.17-5.11"/><path class="cls-7" d="M726.64,399.64c-5.27-17.23-2.47-9.67-5.07-16.84-3.49-9.63-20.17-14.6-21.13-14.6l-2.09,8.53,3.06,22.85"/><path class="cls-7" d="M677.62,360.39c-6.72,13.54-27.51,13.54-34.2,3.51L619.22,378a22.37,22.37,0,0,0-9.36,9.68,40.75,40.75,0,0,0-4,12l101.58-.06-4.29-30.53Z"/><path class="cls-1" d="M309.91,310.23a7.08,7.08,0,0,1-3.68-4.37,7.14,7.14,0,0,0,5.54-6.67c0-2-.81-3.91-1.39-5.84s-.9-4.1.09-5.85c1.66-2.93,5.31-3.8,7.43-6.43,1.62-2,2.2-4.21,2.78-6.73a13,13,0,0,1,13-9.68c2.59.16,5.15,1.12,7.73.83,3.55-.4,6.43-3.08,9.87-4.05a10.83,10.83,0,0,1,9.79,2.12c1.9,1.6,3.21,3.84,5.21,5.31,2.19,1.6,5,2.11,7.48,3.07s5.1,2.73,5.58,5.39c.51,2.87-1.57,5.95-.41,8.63.54,1.24,2.66,3.38,3.1,4.66,2,5.92-2.52,9.87-1.77,12.2,3.95,12.3-.88,17.62-4.94,18.08l-50.67-1.08a14.37,14.37,0,0,1-19.09-8.57,8.15,8.15,0,0,0,4.35-1"/><path class="cls-9" d="M323,311.08c-.26-.11-10.62-3.34-10.47,7.29s10.79,8.28,10.81,8-.34-15.26-.34-15.26"/><path class="cls-10" d="M320,322.36s-.18.14-.49.28a1.81,1.81,0,0,1-1.38.05c-1.13-.39-2.1-2.16-2.18-4.08a6.19,6.19,0,0,1,.48-2.66,2.14,2.14,0,0,1,1.37-1.44,1,1,0,0,1,1.1.5c.15.29.08.5.14.52s.22-.18.13-.62a1.14,1.14,0,0,0-.42-.66,1.42,1.42,0,0,0-1-.25,2.57,2.57,0,0,0-1.91,1.67,6.25,6.25,0,0,0-.6,3c.1,2.14,1.22,4.13,2.77,4.55a2,2,0,0,0,1.68-.3c.33-.27.38-.51.34-.53"/><path class="cls-9" d="M376.77,332.77c.23-7.5-.57-23-1.45-37a29,29,0,0,0-28.39-27.13l-1.5,0c-16.18.66-24.66,14.77-23.55,30.93l1.41,53.34L351,370.08l9.76-7.63,0-12s15.58-2.15,16-17.68"/><path class="cls-10" d="M360.75,350.44a36.19,36.19,0,0,1-20.15-6.11s4.48,11.43,20,10.31Z"/><path class="cls-6" d="M368.5,308.35a2.22,2.22,0,0,1-2.18,2.2,2.13,2.13,0,0,1-2.26-2,2.22,2.22,0,0,1,2.18-2.2,2.14,2.14,0,0,1,2.26,2"/><path class="cls-6" d="M345,307.63a2.23,2.23,0,0,1-2.18,2.2,2.12,2.12,0,0,1-2.25-2,2.21,2.21,0,0,1,2.17-2.2,2.12,2.12,0,0,1,2.26,2"/><path class="cls-6" d="M371.29,302.78c-.28.28-1.94-1-4.33-1s-4.16,1.13-4.41.83c-.13-.13.16-.64.94-1.19a6.09,6.09,0,0,1,3.53-1,5.77,5.77,0,0,1,3.44,1.18c.72.57,1,1.1.83,1.23"/><path class="cls-6" d="M346.83,302.63c-.3.27-1.88-1.11-4.26-1.29s-4.22.86-4.45.55c-.12-.14.2-.64,1-1.13a6.12,6.12,0,0,1,3.59-.8,5.89,5.89,0,0,1,3.36,1.39c.69.62.89,1.17.75,1.28"/><path class="cls-6" d="M356.73,321.21a16.5,16.5,0,0,1,3.89-.63c.61-.05,1.19-.16,1.3-.57a3.17,3.17,0,0,0-.38-1.82q-.82-2.22-1.72-4.67c-2.39-6.65-4.11-12.12-3.84-12.21s2.43,5.22,4.81,11.87c.58,1.64,1.13,3.2,1.65,4.7a3.51,3.51,0,0,1,.27,2.4,1.52,1.52,0,0,1-1,.87,3.67,3.67,0,0,1-1,.13c-2.43.09-3.93.07-3.93-.07"/><path class="cls-1" d="M347.23,294.3c-.3.62-2.64.07-5.46.13s-5.15.58-5.46,0c-.14-.3.31-.86,1.28-1.4a9.18,9.18,0,0,1,4.16-1,9.09,9.09,0,0,1,4.17.93c1,.51,1.44,1.07,1.31,1.37"/><path class="cls-1" d="M371.6,295c-.43.54-2.06-.06-4-.12s-3.66.31-4-.27c-.17-.28.11-.82.85-1.32a5.61,5.61,0,0,1,3.3-.83,5.55,5.55,0,0,1,3.2,1.15c.69.57.91,1.13.72,1.39"/><path class="cls-1" d="M358.94,266.65c-5.84-2.54-11.88-1.53-18.21-.83a28.8,28.8,0,0,0-13.6,4.85c-6.53,4.47-10,11.85-10.58,19.75s.57,14.81,2.29,22.54c-.46,1.92-.91,4-.3,5.83s2.7,3.41,4.53,2.69c2.14-.85,2.32-3.75,2.21-6.05a165.76,165.76,0,0,1,.74-23.26c.54-5.78,4.1-12.75,8.71-15.33,10.37-5.75,18,0,21.52,1.41,5.73-4.57,11.86-1.62,15.12,2.64-1-6.28-6.59-11.69-12.43-14.24"/><path class="cls-5" d="M313,285.09c0,.36.67.8,2,1a13.27,13.27,0,0,0,5.75-.65,30.27,30.27,0,0,0,7.44-3.7c2.55-1.65,5.1-3.57,7.8-5.11a17.22,17.22,0,0,1,7.76-2.52,16.2,16.2,0,0,1,6.62,1.13c3.73,1.45,5.64,3.5,6.3,3,.16-.1.2-.35.14-.73a4.64,4.64,0,0,0-.58-1.49,12.39,12.39,0,0,0-4-4.19,16.41,16.41,0,0,0-8.41-2.75,16.8,16.8,0,0,0-5.35.62,23.31,23.31,0,0,0-5.12,2.17,65.65,65.65,0,0,0-8,5.77,49.7,49.7,0,0,1-6.05,4.24,28.5,28.5,0,0,1-4.43,2.08c-1.11.42-1.81.71-1.84,1.1"/><path class="cls-3" d="M312.59,294.44a5.6,5.6,0,0,0,2.17.46,13.91,13.91,0,0,0,10.05-3.26A5.74,5.74,0,0,0,326.3,290a19.12,19.12,0,0,0-1.73,1.35,16,16,0,0,1-9.79,3.18,20.67,20.67,0,0,0-2.19-.08"/><path class="cls-3" d="M307.54,305.92a3.21,3.21,0,0,0,.87-.2,24.27,24.27,0,0,0,2.3-.83,37.38,37.38,0,0,0,7-3.89,36.85,36.85,0,0,0,6-5.36c.68-.77,1.2-1.42,1.54-1.89s.51-.73.48-.76-.88.93-2.31,2.39a44.46,44.46,0,0,1-6,5.17,43.8,43.8,0,0,1-6.88,4,32.47,32.47,0,0,0-3,1.39"/><path class="cls-3" d="M347.5,264.34c0,.08,1,.42,2.49,1.13a15.62,15.62,0,0,1,5.23,3.79,9.26,9.26,0,0,1,2.21,5.91,14.38,14.38,0,0,1-.43,2.65s.18-.2.37-.65a6.45,6.45,0,0,0,.45-2,9.1,9.1,0,0,0-2.19-6.27,14,14,0,0,0-5.49-3.79,9.21,9.21,0,0,0-2.64-.78"/><path class="cls-3" d="M353.7,260.7c-.05.08.88.62,2.05,1.85a11.91,11.91,0,0,1,2.72,12.2c-.54,1.61-1.15,2.5-1.07,2.55s.21-.18.49-.58a10.63,10.63,0,0,0,.95-1.83A11.51,11.51,0,0,0,356,262.27a10.17,10.17,0,0,0-1.63-1.25c-.42-.25-.67-.35-.69-.32"/><path class="cls-3" d="M318.81,315.43a6.18,6.18,0,0,0,3.8-1.25,6.25,6.25,0,0,0,2.67-3,35.45,35.45,0,0,1-3,2.52,34.7,34.7,0,0,1-3.5,1.71"/><path class="cls-3" d="M318.12,317.62a8,8,0,0,0,7.42-3.91,23.6,23.6,0,0,1-3.41,2.53,25.25,25.25,0,0,1-4,1.38"/><path class="cls-3" d="M372.68,283.43a3,3,0,0,0,1.51-.53,7.62,7.62,0,0,0,3.77-6.49,3,3,0,0,0-.29-1.58,10.43,10.43,0,0,0-.09,1.56,8.58,8.58,0,0,1-3.59,6.19,11.85,11.85,0,0,0-1.31.85"/><path class="cls-3" d="M371,280.1a10.13,10.13,0,0,0,2.64-3.34,10.32,10.32,0,0,0,1.54-4c-.15-.05-.86,1.7-2,3.7S370.85,280,371,280.1"/><path class="cls-10" d="M333.63,303.51a3.53,3.53,0,0,0,1.68,1.05,3.47,3.47,0,0,0,1.94.36,6.86,6.86,0,0,0-1.79-.75,7.51,7.51,0,0,0-1.83-.66"/><path class="cls-10" d="M332,305.85a12.48,12.48,0,0,0,4.61-.29,13.08,13.08,0,0,0-4.61.29"/><path class="cls-10" d="M372.38,307.48c0,.12.57.22,1.27.23s1.28-.09,1.28-.2-.57-.22-1.28-.23-1.27.09-1.27.2"/><path class="cls-10" d="M373,306.28c.06.1.55-.08,1.09-.41s.93-.67.87-.77-.54.08-1.09.41-.93.67-.87.77"/><path class="cls-10" d="M348.44,285.12c0,.07.75.24,1.91.7s2.7,1.24,4.48,2a12.11,12.11,0,0,0,4.82,1.14,6,6,0,0,0,1.5-.18,1.46,1.46,0,0,0,.52-.2c0-.08-.77.15-2,.09a14.16,14.16,0,0,1-4.67-1.23c-1.74-.76-3.32-1.53-4.54-1.91a5.82,5.82,0,0,0-2-.41"/><path class="cls-10" d="M351.59,284.77a11.59,11.59,0,0,0,4.72,1.59,11.71,11.71,0,0,0,5-.17c0-.14-2.23.15-4.93-.25s-4.73-1.3-4.78-1.17"/><path class="cls-10" d="M346.68,323.34c.1.06.47-.86,1.48-1.26a4.55,4.55,0,0,1,1.94-.1c0-.05-.15-.23-.54-.35a2.29,2.29,0,0,0-1.56.06,2.33,2.33,0,0,0-1.17,1c-.19.35-.2.61-.15.62"/><path class="cls-10" d="M344.66,322.86c.12,0,.35-1,1.37-1.62a5.08,5.08,0,0,1,2-.58c0-.05-.23-.19-.66-.22a2.82,2.82,0,0,0-2.67,1.73c-.14.41-.12.68-.07.69"/><path class="cls-10" d="M341.19,362.24s.18,0,.45-.17a2.11,2.11,0,0,0,.76-1.07,9.24,9.24,0,0,0,.38-1.86,2.43,2.43,0,0,1,1-1.82,21.57,21.57,0,0,0,2.09-1,3.15,3.15,0,0,0,1.11-1.62,2.16,2.16,0,0,0-.09-1.75,5.08,5.08,0,0,1-.19,1.66A3,3,0,0,1,345.6,356c-.52.41-1.32.46-2.09.92a2.09,2.09,0,0,0-.83,1,4.59,4.59,0,0,0-.29,1.13,10.2,10.2,0,0,1-.27,1.83,2.41,2.41,0,0,1-.93,1.33"/><path class="cls-10" d="M337.59,361.1a2.64,2.64,0,0,0,1.52-1,4,4,0,0,0,.9-1.79,3.73,3.73,0,0,0,.07-1.21c0-.41-.13-.81-.14-1.21a2.28,2.28,0,0,1,1-1.85,8.92,8.92,0,0,0,.76-.74,2.3,2.3,0,0,0,.46-.85,1.53,1.53,0,0,0-.15-1.36c-.23-.26-.43-.27-.44-.25s.16.1.31.34a1.45,1.45,0,0,1,0,1.17,2.05,2.05,0,0,1-.44.71c-.21.23-.48.44-.76.69a4,4,0,0,0-.82.87,2.14,2.14,0,0,0-.36,1.29c0,.45.12.86.16,1.24a3.53,3.53,0,0,1,0,1.08,4,4,0,0,1-.75,1.69,7.93,7.93,0,0,1-1.29,1.18"/><path class="cls-10" d="M358.69,327c-2.93,9.58-11.51,1-6.27-2.8,2.29.37,4.41,1.72,6.62,2.46"/><path class="cls-6" d="M356.54,331.47c-3.11.72-7.32-2.92-4.63-6.65,1.29-.38,3.89,1.5,5.22,1.72,3.74,1.41,3.87,1.1.27-.62-1.64-.55-3.72-2.26-5.65-2.17-4.27,3.1.64,10.34,4.79,7.72"/><path class="cls-9" d="M229.81,399.64l-.23-5.23a3,3,0,0,0-.23-1.06l-2.77-6.63s11.25-12.82,11.85-14.4.23-3.26-2.56-2.1S224,379.75,224,379.75l-3.48-6.18s8.14-8.69,9-9.62.34-5.81-2.68-4.18-10.69,8.59-10.69,8.59L214,366.27l6-9.29s2.09-3.25-.46-4.18-3.72.93-5.58,3a69.16,69.16,0,0,0-4.73,6.62l-1.79-.14-2.77-.67.21-3.23s3.73-5.38,4.35-6.58c.52-1,2.09-3.29,0-4.22s-3.45-1.11-4.56.78a11.82,11.82,0,0,1-2.29,2.46,15.58,15.58,0,0,0-3.72-2.54c-1.65-.52-3.6,1.39-1.68,6.68.31.88,2.21,10.63,2.21,10.63l.46,5.11,2.23,4.57,10,17.47v6.88"/><path class="cls-10" d="M212,378.45a17.31,17.31,0,0,0,.69-2.66l.79-2.86c.14-.54.3-1.12.43-1.73a1.81,1.81,0,0,0,.06-.28,1,1,0,0,0,0-.24l0-.07a.48.48,0,0,0-.43-.24.46.46,0,0,0-.33.14l0,0-.07.09-.06.12-.05.14a.92.92,0,0,0,0,.31v.05a.52.52,0,0,0,.32.36.48.48,0,0,0,.4,0l0,0a.43.43,0,0,0,.12-.11l.06-.08,0-.08.11-.2a6.12,6.12,0,0,1,.49-.72,42.93,42.93,0,0,1,4.74-4.47c1.29-1.1,2.06-1.84,2-1.95a8,8,0,0,0-2.39,1.4,26.13,26.13,0,0,0-5.09,4.41,7.74,7.74,0,0,0-.58.87l-.11.21v0a1.93,1.93,0,0,0,.26.16c.1,0,.1.14.17.11.61.1.38.07.44,0l0-.07h0l-.26-.13c-.09,0-.15-.12-.18-.1s-.12,0-.33,0-.06,0-.12,0v0l0,.11c-.12.57-.24,1.14-.37,1.7-.25,1.09-.46,2.09-.59,2.94-.28,1.71-.14,2.81,0,2.8"/><path class="cls-10" d="M206.54,372.31c.29-.07-.37-2.79.81-5.88s3.07-5.11,2.82-5.32-2.47,1.62-3.74,5a9.33,9.33,0,0,0-.52,4.46c.17,1.16.53,1.78.63,1.76"/><path class="cls-10" d="M222.81,391c.21.18,2.29-1.89,4.67-4.63s4.12-5.09,3.92-5.27-2.29,1.9-4.66,4.63-4.13,5.09-3.93,5.27"/><path class="cls-10" d="M218.7,385.2c.2.18,2.3-1.55,4.68-3.88s4.17-4.37,4-4.57-2.27,1.53-4.68,3.87-4.18,4.4-4,4.58"/><path class="cls-10" d="M230.14,394.79a8.11,8.11,0,0,0-.94-3.47c-.51-1-1-1.73-1.43-2.41-.8-1.33-.87-2.3-1-2.3s-.29,1.09.4,2.61,2,3.28,2,5.6a7,7,0,0,1-1.18,4.82h1c1.1-1.22,1.2-2.26,1.1-4.85"/><path class="cls-10" d="M204.94,363.92c.22,0,.4-2.11.46-5.08l-.08.27a24.65,24.65,0,0,0,1.43-2.2c1.07-1.86,1.87-3.58,2.51-4.8s1-2,.91-2.06-.72.55-1.51,1.71-1.72,2.85-2.76,4.66c-.45.78-.9,1.51-1.33,2.16l-.09.13v.13c.07,3,.25,5.08.46,5.08"/><path class="cls-10" d="M200,371.29c.09-.05-.15-.75-.24-2a51.21,51.21,0,0,1-.07-5.32v-.09c-.28-1.6-.58-3.27-.9-5,0-.12-.05-.25-.07-.37v.05c-.08-1.45,1-2.74,1.84-3.91l2.24-3.16a13.91,13.91,0,0,0,1.86-3.05,13.3,13.3,0,0,0-2.41,2.64c-.76,1-1.56,2-2.41,3a19.25,19.25,0,0,0-1.36,1.91,4.58,4.58,0,0,0-.74,2.61v.06c0,.12,0,.25.07.38.34,1.75.67,3.42,1,5v-.09a29.25,29.25,0,0,0,.43,5.41c.24,1.32.68,2,.77,2"/><path class="cls-10" d="M219.7,381.37c.28-.08-.09-1.85.16-4s.95-3.8.7-3.94-1.42,1.45-1.67,3.83.58,4.2.81,4.1"/><path class="cls-10" d="M212.25,374.52c.29,0,.33-1.93,1-4.15s1.55-3.89,1.32-4.05-1.6,1.37-2.26,3.79-.27,4.45,0,4.41"/><path class="cls-6" d="M252.85,399.64s16.37-24.73,19.67-26.52,36.81-13.53,36.81-13.53l14.27-9.84-2.28,20.3,4.55,29.59"/><polygon class="cls-5" points="360.75 352.52 347.25 366.13 323.24 351.02 316.37 364.54 321.94 399.64 373.65 399.34 373.9 375.89 360.75 352.52"/><path class="cls-7" d="M359.12,399.64c-1.34-4.91-6.9-18.27-6.9-18.27l3.34-5.35c-.22-7.35-6.68-8-10-7.58s-4.1,7.58-4.1,7.58l4.33,6.24-5.22,17.27Z"/><path class="cls-6" d="M421.2,399.64l-5.87-16.85a10.4,10.4,0,0,0-6.47-6.9l-33.4-12-15-12,8.07,18.5,0,29.43Z"/><path class="cls-8" d="M283.06,399.34a26.21,26.21,0,0,1-.66-3.32,53.23,53.23,0,0,0-2.13-7.84,52,52,0,0,0-3.37-7.38,25.53,25.53,0,0,1-1.64-3,12.75,12.75,0,0,1,2.05,2.72,38.62,38.62,0,0,1,3.6,7.39,39.27,39.27,0,0,1,2,8,12.56,12.56,0,0,1,.19,3.4"/><path class="cls-8" d="M402.68,398.06a12.81,12.81,0,0,1,.53-3.05,70.91,70.91,0,0,1,2.07-7.18,40.36,40.36,0,0,1,3.05-6.85,9.36,9.36,0,0,1,1.8-2.53,28.12,28.12,0,0,1-1.38,2.76,60.34,60.34,0,0,0-2.83,6.84c-1.89,5.48-3,10.06-3.24,10"/><path class="cls-8" d="M382.27,399a12.19,12.19,0,0,1,.57-2.09c.47-1.46,1.08-3.34,1.8-5.59l0,.25-2.44-3.05-1.38-1.67-.74-.86-.38-.42-.32-.32-.3-.3.18-.21a13.11,13.11,0,0,1,5.1-3.36,18.44,18.44,0,0,1,2-.68l-.2.49c-2.87-4.92-5.85-9.07-7.78-12.19-1-1.55-1.74-2.82-2.23-3.71a6.22,6.22,0,0,1-.7-1.42,8.37,8.37,0,0,1,.91,1.29l2.4,3.59c2,3,5.07,7.14,8,12.1l.21.37-.41.12a19.67,19.67,0,0,0-1.9.67,12.78,12.78,0,0,0-4.86,3.14l-.12-.5a2.46,2.46,0,0,1,.54.48l.39.44.73.88,1.36,1.7,2.39,3.1.09.11-.05.14c-.81,2.21-1.49,4.06-2,5.5a11.89,11.89,0,0,1-.85,2"/><path class="cls-8" d="M305,399.64a12,12,0,0,1-.47-1.53l-1.22-4.22a52,52,0,0,1-1.44-6.48,5,5,0,0,1,.08-2,7.44,7.44,0,0,1,.84-1.93,5.18,5.18,0,0,1,3.59-2.57v.67l-3.32-.38-2.46-.27a.35.35,0,0,1-.3-.38l0-.1c2.46-5.58,4.68-10.53,6.3-14.07l2-4.17a7.59,7.59,0,0,1,.79-1.48,10.13,10.13,0,0,1-.57,1.58c-.45,1.12-1,2.54-1.75,4.25-1.51,3.59-3.66,8.58-6.1,14.16l-.27-.47,2.45.28,3.33.38a.34.34,0,0,1,.29.37.32.32,0,0,1-.28.29,4.61,4.61,0,0,0-3.14,2.25,7.06,7.06,0,0,0-.78,1.76,4.36,4.36,0,0,0-.09,1.8,59.3,59.3,0,0,0,1.28,6.43,37.22,37.22,0,0,1,1.26,5.86"/><path class="cls-3" d="M696.8,170.24c0,.21-7,.7-15.69,1.08s-15.73.51-15.74.29,7-.7,15.7-1.08,15.73-.51,15.73-.29"/><path class="cls-6" d="M620.07,114.27c1.38-7.54,3.19-15.3,7.84-21.4s12.88-10.11,20.15-7.66l9,5.2a274.1,274.1,0,0,1-12.64,61.35,13.45,13.45,0,0,1-2.79,5.43c-2.91,2.94-7.67,19.12-11.78,18.65-5-.58-12.48,6.39-14.6,1.87-1-2.17.82-29.25,1-31.65a276.17,276.17,0,0,1,3.89-31.79"/><path class="cls-9" d="M670.5,100.86,642.89,91.7c-8.94-1.61-15.74,9-17,18-1.37,10-2.64,22.26-2,29.84,1.3,15.24,12.71,18,12.71,18a36.41,36.41,0,0,0-.9,11.48c.72,10.38,7.41,13.06,12.9,13.44,8.65.91,17.67-1.83,18.67-10.47l7.54-65.45a5.3,5.3,0,0,0-4.34-5.72"/><path class="cls-6" d="M631.24,121.55a1.94,1.94,0,0,0,1.72,2.09,1.86,1.86,0,0,0,2.12-1.6,1.94,1.94,0,0,0-1.72-2.09,1.86,1.86,0,0,0-2.12,1.6"/><path class="cls-6" d="M628.9,117.6c.22.27,1.76-.71,3.84-.55s3.53,1.3,3.77,1.07-.09-.58-.72-1.11a5.32,5.32,0,0,0-3-1.17,5.11,5.11,0,0,0-3.08.75c-.67.44-.92.88-.81,1"/><path class="cls-6" d="M650.61,123.41a1.94,1.94,0,0,0,1.72,2.09,1.86,1.86,0,0,0,2.12-1.6,1.94,1.94,0,0,0-1.72-2.09,1.86,1.86,0,0,0-2.12,1.6"/><path class="cls-6" d="M649.68,119.7c.22.27,1.77-.71,3.84-.55s3.53,1.31,3.78,1.07-.09-.58-.72-1.11a5.32,5.32,0,0,0-3-1.17,5.09,5.09,0,0,0-3.08.75c-.68.44-.93.89-.82,1"/><path class="cls-6" d="M640.72,133.14a13.49,13.49,0,0,0-3.33-.86c-.53-.09-1-.23-1.09-.6a2.8,2.8,0,0,1,.47-1.55c.6-1.25,1.22-2.56,1.87-3.93,2.6-5.6,4.52-10.22,4.3-10.32s-2.52,4.35-5.12,10l-1.8,4a3.07,3.07,0,0,0-.43,2.06,1.3,1.3,0,0,0,.82.84,3.82,3.82,0,0,0,.89.2,13.67,13.67,0,0,0,3.42.25"/><path class="cls-10" d="M636.63,157.58a40.7,40.7,0,0,0,21.44-3.85s-6.73,10.17-21.71,7.66Z"/><path class="cls-6" d="M648.67,113.29c.17.58,2.27.47,4.68.94s4.35,1.28,4.71.8c.16-.24-.14-.79-.9-1.4a8.34,8.34,0,0,0-7.15-1.32c-.92.3-1.4.71-1.34,1"/><path class="cls-6" d="M628.78,111.39c.42.51,2.23.15,4.37.28s3.92.61,4.37.14c.2-.22,0-.72-.81-1.22a7.25,7.25,0,0,0-3.49-1,7,7,0,0,0-3.55.7c-.79.43-1.08.9-.89,1.14"/><path class="cls-6" d="M640.09,95.41a23.91,23.91,0,0,0,4.28,5.09L652,108a61.59,61.59,0,0,0,5.62,5.09,60.83,60.83,0,0,0,5.64,3.7c2,1.21,3,4.33,5,5.54.45.27,1.92.1,2.4.45-.1,3.38-.15,14.12-.18,18.39-.06,6.75-2.47,24.72-2.47,24.72h5.74c4.5-.69,10.84,9.12,13.24,5.26,2.67-4.27-.57-22.57-.7-26-.41-10.2-2.42-20.59-3-29.36-.23-3.54-.47-7.14-1.72-10.46-1.76-4.7-5.4-8.46-9.32-11.6-4.5-3.61-9.59-6.65-15.22-7.92s-11.84-.64-16.62,2.58a3.61,3.61,0,0,0-1.7,2c-.72,2.1.28,3.08,1.37,5m30.7,27.5c.21.4,0,1.45,0,0"/><path class="cls-9" d="M669.79,127a4.4,4.4,0,0,1,6.69-3.29c1.47,1,2.51,2.85,2.13,6.24-1,9.06-9.9,6.17-9.88,5.91s.6-5.12,1.06-8.86"/><path class="cls-10" d="M671.88,132.71s.14.13.4.28a1.58,1.58,0,0,0,1.17.15c1-.24,2-1.67,2.2-3.29a5.16,5.16,0,0,0-.19-2.31,1.85,1.85,0,0,0-1.05-1.35.82.82,0,0,0-1,.33c-.15.24-.11.43-.16.44s-.18-.17-.06-.54a1,1,0,0,1,.42-.53,1.22,1.22,0,0,1,.9-.13,2.26,2.26,0,0,1,1.49,1.59,5.35,5.35,0,0,1,.26,2.58c-.26,1.82-1.39,3.42-2.74,3.65a1.67,1.67,0,0,1-1.42-.4c-.25-.25-.27-.46-.24-.47"/><path class="cls-1" d="M674.67,136.86A1.78,1.78,0,1,1,673,135a1.78,1.78,0,0,1,1.65,1.91"/><path class="cls-10" d="M646.12,137.35a4.15,4.15,0,0,1-2.52,6.31,2.38,2.38,0,0,1-1.56-.08,3.47,3.47,0,0,1-1.51-2.27c-.23-.74-.47-1.49-.71-2.23a1,1,0,0,1,0-.76,1,1,0,0,1,.73-.36l5.46-.91"/><path class="cls-6" d="M642.17,143.33a4.84,4.84,0,0,0,2.46-.14,3.84,3.84,0,0,0,2.26-1.58,2.89,2.89,0,0,0,.44-1.64,4.85,4.85,0,0,0-.31-1.74,4.31,4.31,0,0,0-.9-1.47l-.13-.14-.19,0c-3.64,1-6.46,1.44-6.44,1.6s2.9,0,6.61-1l-.32-.09a4.07,4.07,0,0,1,.77,1.27,3.45,3.45,0,0,1,0,2.84,3.57,3.57,0,0,1-1.89,1.46c-1.37.44-2.34.45-2.32.57"/><path class="cls-6" d="M661.7,100.91a53.16,53.16,0,0,1,14.22,15.17l-4.89,8.3c-8.32-.79-9.3-1.63-15.16-7.58S638.38,99,637.73,90.67c7.86,2.22,17.32,5.49,24,10.24"/><path class="cls-8" d="M674.84,165.58a5.44,5.44,0,0,1,.4-.87c.3-.55.7-1.38,1.22-2.44a63.92,63.92,0,0,0,3.57-9.35,61.13,61.13,0,0,0,2.38-14.6,39.61,39.61,0,0,0-.45-8.7,15.15,15.15,0,0,0-4-8.16,29.17,29.17,0,0,0-7.82-5,58.5,58.5,0,0,1-7.69-4.36,56.41,56.41,0,0,1-11.08-10,63.05,63.05,0,0,1-5.92-8.15c-.62-1-1.08-1.81-1.36-2.37a3.66,3.66,0,0,1-.42-.86,5.73,5.73,0,0,1,.54.79c.33.53.82,1.31,1.47,2.3a71.74,71.74,0,0,0,6.07,8,57.59,57.59,0,0,0,11.07,9.8,59,59,0,0,0,7.63,4.29,29.68,29.68,0,0,1,8,5.14,15.84,15.84,0,0,1,4.18,8.54,39.93,39.93,0,0,1,.43,8.85,59.2,59.2,0,0,1-2.56,14.72,58,58,0,0,1-3.8,9.33c-.56,1.05-1,1.86-1.34,2.39a3.81,3.81,0,0,1-.53.8"/><path class="cls-8" d="M681.28,118.28A15.13,15.13,0,0,0,678.4,112a20.94,20.94,0,0,0-5.68-5,76.28,76.28,0,0,0-8.35-4.22A56.82,56.82,0,0,1,650,93.49a46,46,0,0,1-3.7-3.66,8.82,8.82,0,0,1-1.2-1.48,12,12,0,0,1,1.4,1.29c.88.85,2.16,2.07,3.83,3.47a62.06,62.06,0,0,0,14.36,9,70,70,0,0,1,8.4,4.31,20.82,20.82,0,0,1,5.73,5.21,13.28,13.28,0,0,1,2.26,4.71,9.07,9.07,0,0,1,.23,1.41c0,.32,0,.49,0,.5"/><path class="cls-8" d="M617.52,175a5.25,5.25,0,0,1,0-1c0-.74,0-1.66.09-2.79.1-2.44.27-5.95.51-10.29.5-8.68,1.26-20.7,2.88-33.88a112.43,112.43,0,0,1,3.41-18.38,37.88,37.88,0,0,1,6.54-13.12,19.43,19.43,0,0,1,6.94-5.66,10.34,10.34,0,0,1,2.16-.75,2.51,2.51,0,0,1,.77-.12c0,.09-1,.29-2.84,1.2A20.48,20.48,0,0,0,631.29,96,38.13,38.13,0,0,0,625,109a115.79,115.79,0,0,0-3.33,18.22c-1.61,13.14-2.45,25.13-3.08,33.8-.3,4.24-.55,7.72-.73,10.27-.09,1.13-.17,2-.23,2.79a4.41,4.41,0,0,1-.13,1"/><path class="cls-8" d="M595.12,202.66s1.63-13.06,7.92-19.59,32.63-14.7,32.63-14.7,1.09,9.32,7.4,11.56c6.68,2.38,14.24,1.49,19.14-4.19a30.61,30.61,0,0,0,6.12-12.56s31.45,2.89,36.58,11.52,11.76,42,11.76,42L687.27,223l1.88,27.1-72.26.42-2.24-24-21.27,3Z"/><path class="cls-6" d="M681.43,224.88a5,5,0,0,1-.11-1.3c0-.84,0-2.05,0-3.54,0-3,.05-7.1.14-11.65s.22-8.68.34-11.66c.06-1.49.12-2.7.18-3.53a4.79,4.79,0,0,1,.16-1.3,4.84,4.84,0,0,1,.11,1.3c0,.83,0,2,0,3.53,0,3,0,7.11-.14,11.66s-.22,8.68-.34,11.66c-.06,1.49-.13,2.7-.18,3.53a5.35,5.35,0,0,1-.16,1.3"/><path class="cls-6" d="M607.41,201.18c.18-.05,2,5.78,4.1,13s3.62,13.18,3.45,13.23-2-5.79-4.1-13-3.63-13.17-3.45-13.22"/><path class="cls-6" d="M701.62,172.63c0,.12-1.39.38-3.54,1.19a25.53,25.53,0,0,0-13.23,11.51c-1.1,2-1.56,3.38-1.67,3.34s0-.37.22-1a15.75,15.75,0,0,1,1-2.57,23.31,23.31,0,0,1,13.49-11.74,15.7,15.7,0,0,1,2.69-.66c.65-.1,1-.13,1-.08"/><path class="cls-6" d="M602.57,185.71c.18,0,.8,1.77,1.38,4s.9,4.18.72,4.23-.8-1.77-1.38-4.06-.9-4.17-.72-4.22"/><path class="cls-3" d="M682.11,191.9c0,.22-16.67,2.47-37.3,5s-37.38,4.46-37.4,4.25,16.67-2.47,37.3-5,37.37-4.46,37.4-4.25"/><path class="cls-3" d="M710.21,190.92c0,.21-6.1,1.92-13.73,3.8s-13.87,3.26-13.92,3.05,6.1-1.92,13.73-3.81,13.86-3.25,13.92-3"/><path class="cls-3" d="M715,209.11c0,.21-7.15,1.93-16.07,3.84s-16.18,3.28-16.23,3.06,7.15-1.92,16.07-3.83,16.18-3.28,16.23-3.07"/><path class="cls-3" d="M635.46,174.7c.06.21-6.86,2.16-15.45,4.36s-15.59,3.82-15.64,3.61,6.86-2.17,15.45-4.37,15.59-3.81,15.64-3.6"/><path class="cls-3" d="M680.94,219.41c0,.22-15,1.28-33.42,2.37s-33.46,1.81-33.47,1.59,15-1.28,33.42-2.37,33.46-1.81,33.47-1.59"/><path class="cls-3" d="M597.44,210.08c0-.21,2.61-.58,5.85-1s5.89-.72,5.93-.5-2.56.86-5.83,1.28-5.94.44-5.95.22"/><path class="cls-3" d="M679.86,241.58a13,13,0,0,1-2.28.24l-6.21.42-20.5,1.36-20.48,1.6-6.21.49a12.41,12.41,0,0,1-2.29.08,13,13,0,0,1,2.26-.38c1.46-.2,3.57-.45,6.18-.74,5.24-.57,12.47-1.25,20.49-1.83s15.26-.95,20.52-1.14c2.63-.09,4.76-.15,6.23-.16a11.39,11.39,0,0,1,2.29.06"/><path class="cls-9" d="M614.65,226.52l-10,1.3-9.48-24.49-15.36,6.21s8.47,28.67,11.77,40.27h31.18Z"/><path class="cls-10" d="M615.73,245.63a56.18,56.18,0,0,1-5.17-6.35,44.11,44.11,0,0,1-3.34-5.78c-.83-1.71-1.39-3.15-1.78-4.14a9.21,9.21,0,0,0-.64-1.54,7,7,0,0,0,.39,1.62,35.18,35.18,0,0,0,1.6,4.27,40.5,40.5,0,0,0,3.25,5.92,53,53,0,0,0,5.19,6.45,21.18,21.18,0,0,1,3.15,4.08l.79,0a22.57,22.57,0,0,0-3.44-4.5"/><path class="cls-9" d="M595.12,203.33s0-10.72-.89-13.74l-7.15-16.68s-2.07-1.06-2.45,2.12a13.41,13.41,0,0,0,1.17,6.66l.23,4.43L583,183.63l-5.9-11s-4.06-8.05-5.12-6.77-.71,3.86,1,7.34l4,7.87s.6,1.4-1.48-.63-6.63-11.85-7.56-13.08-2.23-4.83-4.26-4,.57,5.14.57,5.14l6.5,14.57s-3.77-5.52-4.45-6.45-2.25-4.09-3.49-5.7-2.58-2.24-3.48-1.85a1.81,1.81,0,0,0-1.12,2.22l6.94,12.05s3.48,5.41,3.47,5.82-3-1.79-3-1.79l-2.91-3.71s-3.15-5.56-4.8-5.25-1.35,1.53-1.35,1.53L562.37,190l8.48,10.91,9.08,9,5.24-1.69Z"/><path class="cls-10" d="M578.42,201.52a21.74,21.74,0,0,0,.55-3.38c.33-2,1-5,3.48-6.94a5.75,5.75,0,0,1,3.53-1.34h.43l0-.48c-.13-2.07-.06-4-.13-5.36a5.07,5.07,0,0,0-.29-2.13,10.81,10.81,0,0,0-.21,2.12c-.06,1.36-.26,3.16-.17,5.5l.41-.46a6.36,6.36,0,0,0-4.08,1.47,8.91,8.91,0,0,0-2.74,3.83,14.26,14.26,0,0,0-.81,3.71,10.34,10.34,0,0,0,.06,3.46"/><path class="cls-9" d="M684.28,223.61l-2.51,26.2h25c1-3.83,4.72-32,4.72-32Z"/><path class="cls-9" d="M319.37,130.29l-.72,58c-.12,9.86,1.71,24.37,17.31,23.85,13.5-1.47,17.08-14.25,17.19-23.45.05-4.36.1-8,.13-8.45,0,0,14.78-1.21,16-15.81.6-7,.66-21.68.56-34.92a27.29,27.29,0,0,0-25.31-27l-1.41-.11c-15.27-.22-24,12.62-23.78,27.89"/><path class="cls-10" d="M353.28,180.23a35.43,35.43,0,0,1-18.61-7s3.86,11,18.54,10.76Z"/><path class="cls-6" d="M344.91,135.48c-.29.3-2-1.06-4.42-1.12s-4.27,1.13-4.53.82c-.12-.14.18-.68,1-1.24a6.1,6.1,0,0,1,3.63-1,5.93,5.93,0,0,1,3.51,1.28c.74.62,1,1.17.83,1.3"/><path class="cls-6" d="M342.42,140.51a2,2,0,0,1-2.05,1.85,1.88,1.88,0,0,1-1.9-1.92,2,2,0,0,1,2-1.86,1.89,1.89,0,0,1,1.91,1.93"/><path class="cls-6" d="M351,152.5a14.88,14.88,0,0,1,3.7-.4c.57,0,1.12-.09,1.25-.47a3,3,0,0,0-.26-1.73c-.44-1.42-.9-2.92-1.38-4.49-1.9-6.39-3.23-11.62-3-11.7s2,5,3.91,11.43c.45,1.58.89,3.08,1.3,4.52a3.34,3.34,0,0,1,.14,2.27,1.47,1.47,0,0,1-1,.77,3.83,3.83,0,0,1-1,.06,14.51,14.51,0,0,1-3.7-.26"/><path class="cls-6" d="M343.87,126.29c-.23.54-2.19.13-4.54.25s-4.27.64-4.54.12c-.12-.25.25-.75,1-1.23a7.68,7.68,0,0,1,6.92-.29c.83.42,1.23.89,1.12,1.15"/><path class="cls-6" d="M367.1,130.82c-.26.44-2.16,0-4.48-.12s-4.23.23-4.47-.24c-.11-.22.27-.61,1.08-1a8.16,8.16,0,0,1,3.42-.56,8.33,8.33,0,0,1,3.4.84c.79.41,1.16.84,1.05,1"/><path class="cls-9" d="M319.77,141.2c-.24-.13-9.82-3.71-10.23,6.31s9.73,8.35,9.75,8.07.48-14.38.48-14.38"/><path class="cls-10" d="M316.39,151.66s-.18.11-.48.24a1.72,1.72,0,0,1-1.3,0c-1-.43-1.87-2.15-1.84-4a5.74,5.74,0,0,1,.59-2.48,2,2,0,0,1,1.37-1.29.9.9,0,0,1,1,.52c.12.29.05.49.1.51s.22-.16.16-.58a1.13,1.13,0,0,0-.37-.64,1.31,1.31,0,0,0-.95-.3,2.48,2.48,0,0,0-1.89,1.48,5.9,5.9,0,0,0-.72,2.77c0,2,.94,4,2.37,4.42a1.85,1.85,0,0,0,1.6-.19c.32-.24.39-.46.35-.48"/><path class="cls-6" d="M348.68,159.43c.11-.25-1.85-.84-3.23-2.68a11.24,11.24,0,0,1-1.39-2.62c-.29-.72-.51-1.18-.62-1.15s-.08.53.08,1.32a7.46,7.46,0,0,0,1.29,2.93,6,6,0,0,0,2.56,2c.77.31,1.28.32,1.31.24"/><path class="cls-6" d="M389.26,116.4a2.38,2.38,0,0,0-1.11-1.38,7.25,7.25,0,0,0-3.74-.61,21,21,0,0,1-11-3.34,50.45,50.45,0,0,0-5.11-6.19c-4.43-4.56-8.07-7.66-11.83-9.18-4.88-2-13-2.76-18.1-1.42s-9.64,5.45-10.35,10.65c-2.85-2.41-7.12-2.38-10.59-1l-.09,0c-3.86,1.38-6.06,5.46-7.2,9.4s-1.63,8.15-3.71,11.69c-.44.73-1,1.62-.57,2.39a1.62,1.62,0,0,0,1.7.74,4.88,4.88,0,0,0,1.8-.81l-1.29,3.09a9.07,9.07,0,0,0,4.2-.28,89.05,89.05,0,0,0,2.75,10.39c1.61,0,3.09.11,4.09,1,1.35,1.21,2,3.5,4.2,2.63,1.15-.44,2.19-2.84,2.58-4A57,57,0,0,0,328.38,116,18.27,18.27,0,0,1,334,112l-.18.15c4.08-1.41,8.7-2.81,12.57-.89,3,1.48,4.77,4.6,7,7.08a22.3,22.3,0,0,0,16.07,7.54c.22,4.11.14,9.93.35,14l3.46-6.58v0c.28-.48.51-1,.74-1.46l.08-.14v0c.36-.78.7-1.57,1.15-2.34l0,0a2.57,2.57,0,0,0,3.75-3.44,5.65,5.65,0,0,0-1.24-1.25,4.06,4.06,0,0,0,3.87,1,3.2,3.2,0,0,0,2.26-3.16,2.71,2.71,0,0,0-1.62-2.17,9.11,9.11,0,0,0,5.21-1.15c1-.58,2-1.55,1.69-2.84"/><path class="cls-8" d="M332.65,106.61a14,14,0,0,0-1.47,1.34,10.54,10.54,0,0,0-2.24,4.85,18.35,18.35,0,0,0-.37,3.71c0,1.34.1,2.78.2,4.3a37.64,37.64,0,0,1,.11,4.79,17.2,17.2,0,0,1-.33,2.53,5.23,5.23,0,0,1-1,2.45,2.2,2.2,0,0,1-2.06.69,3.26,3.26,0,0,1-1.85-1.05,7.53,7.53,0,0,1-1.41-3.71l.31,0a12.33,12.33,0,0,1-1.78,3.06,4.35,4.35,0,0,1-2.84,1.54,2.85,2.85,0,0,1-1.51-.26,2.48,2.48,0,0,1-1-1,2.51,2.51,0,0,1-.31-1.29,1.81,1.81,0,0,1,.47-1.14l.15.14a9.36,9.36,0,0,1-3.13,2.35,8.32,8.32,0,0,1-1,.38,2.75,2.75,0,0,1-.34.09,1.27,1.27,0,0,1,.33-.14c.21-.09.54-.22.94-.43a9.63,9.63,0,0,0,3-2.39l.15.14a1.88,1.88,0,0,0-.1,2.17,2.22,2.22,0,0,0,.93.89,2.58,2.58,0,0,0,1.36.23,4.1,4.1,0,0,0,2.64-1.47,12,12,0,0,0,1.71-3l.21-.47.1.51a7.28,7.28,0,0,0,1.34,3.55,2.94,2.94,0,0,0,1.66.93,1.84,1.84,0,0,0,1.75-.58,5,5,0,0,0,1-2.3,16.09,16.09,0,0,0,.33-2.47,39.16,39.16,0,0,0-.09-4.75c-.1-1.52-.19-3-.18-4.32a19.46,19.46,0,0,1,.42-3.76,10.4,10.4,0,0,1,2.38-4.89,6,6,0,0,1,1.57-1.25"/><path class="cls-8" d="M377.82,120.82l-.12.1-.36.26a4.81,4.81,0,0,1-.62.4,8.88,8.88,0,0,1-.89.47,13,13,0,0,1-6.25,1.12,16.5,16.5,0,0,1-8.81-3.25,28.6,28.6,0,0,1-7.57-8.73c-1.06-1.77-1.93-3.58-2.88-5.25a19.26,19.26,0,0,0-3.27-4.45,9.87,9.87,0,0,0-4.21-2.55,7.07,7.07,0,0,0-2.21-.26,8.29,8.29,0,0,0-2,.39,8.44,8.44,0,0,0-3,1.83A8.81,8.81,0,0,0,333.9,103a10.31,10.31,0,0,0-.75,2.19s0,0,0-.15,0-.27.07-.45a7.43,7.43,0,0,1,.55-1.65,8.6,8.6,0,0,1,4.73-4.14,7.91,7.91,0,0,1,2.1-.42,7.34,7.34,0,0,1,2.31.24,10.21,10.21,0,0,1,4.35,2.6,19.64,19.64,0,0,1,3.34,4.51c1,1.69,1.83,3.5,2.88,5.25a28.61,28.61,0,0,0,7.46,8.64,16.45,16.45,0,0,0,8.65,3.27,13.14,13.14,0,0,0,6.18-1,21.46,21.46,0,0,0,2-1.11"/><path class="cls-8" d="M379.15,114.4a2.29,2.29,0,0,1-.52.37,12.13,12.13,0,0,1-1.55.78,14.77,14.77,0,0,1-2.46.81,18.34,18.34,0,0,1-3.14.42,17.49,17.49,0,0,1-3.16-.22,14.31,14.31,0,0,1-2.5-.65,10.73,10.73,0,0,1-1.6-.68,2.94,2.94,0,0,1-.55-.33c0-.06.84.35,2.22.78a15.8,15.8,0,0,0,2.48.57,20.24,20.24,0,0,0,3.1.19,19,19,0,0,0,3.08-.39,17.52,17.52,0,0,0,2.43-.72c1.36-.52,2.14-1,2.17-.93"/><path class="cls-6" d="M367.21,136.4c-.29.3-2-1.06-4.42-1.12s-4.27,1.13-4.53.82c-.13-.14.18-.68,1-1.24a6.08,6.08,0,0,1,3.64-1,5.89,5.89,0,0,1,3.51,1.27c.73.62,1,1.17.83,1.3"/><path class="cls-6" d="M363.76,141a2,2,0,0,1-2,1.86,1.9,1.9,0,0,1-1.91-1.93,2,2,0,0,1,2.05-1.86,1.9,1.9,0,0,1,1.9,1.93"/><path class="cls-7" d="M319,183.48l-17.49,7.3a60.33,60.33,0,0,0-26.85,21.71c-1.56,2.31-6.53,20.13-6.89,21.6C266.28,240,263.91,250,263.91,250H402.84s-4.1-39.7-14-47.37c-6.42-5-35.84-18.56-35.84-18.56a13,13,0,0,1-11.9,7.49,32,32,0,0,1-22.15-8.1"/></g></g></svg>