<svg xmlns="http://www.w3.org/2000/svg" viewBox="0 0 171.62 226.93"><defs><style>.cls-1{fill:#36474f;}.cls-2{fill:#3d7b76;}</style></defs><g id="Слой_2" data-name="Слой 2"><g id="Слой_1-2" data-name="Слой 1"><path class="cls-1" d="M171.62,89.66c-.15,46.58-34.19,85.23-77.76,90.44a78.82,78.82,0,0,1-9.41.62l.07-22.29,9.41-.07,0,11.9c38.28-5.16,68.18-39.43,68.31-80.52s-29.55-74.92-67.8-79.43l0,11.9L85,22.29,85,0a77,77,0,0,1,9.41.47C138,4.94,171.77,43.08,171.62,89.66Z" transform="translate(0)"/><path class="cls-1" d="M4.67,226.93l.06-18.55,5.76,0a8.67,8.67,0,0,1,6.47,2.6,9,9,0,0,1,2.63,6.6A9.16,9.16,0,0,1,17,224.18a8.92,8.92,0,0,1-6.52,2.71Zm1.87-1.79,3.9,0a7,7,0,0,0,5.25-2.18,7.53,7.53,0,0,0,2.07-5.38,7.37,7.37,0,0,0-2.05-5.37,6.89,6.89,0,0,0-5.22-2.07l-3.9,0Z" transform="translate(0)"/><path class="cls-1" d="M25.55,210.78a8.46,8.46,0,0,1,6.36-2.84,8.32,8.32,0,0,1,6.33,2.72,9.33,9.33,0,0,1,2.59,6.69v.08a9.42,9.42,0,0,1-2.62,6.65,8.47,8.47,0,0,1-6.36,2.81,8.29,8.29,0,0,1-6.35-2.7,9.32,9.32,0,0,1-2.57-6.69A9.57,9.57,0,0,1,25.55,210.78Zm-.78,6.71a7.67,7.67,0,0,0,2,5.4,6.45,6.45,0,0,0,5.08,2.2,6.69,6.69,0,0,0,5.08-2.27A7.81,7.81,0,0,0,39,217.37a7.67,7.67,0,0,0-2-5.43,6.52,6.52,0,0,0-5.06-2.2A6.69,6.69,0,0,0,26.84,212,7.82,7.82,0,0,0,24.77,217.49Z" transform="translate(0)"/><path class="cls-1" d="M44.4,226.6l.06-18.55,1.83,0,0,16.78,9.35-.08v1.78Z" transform="translate(0)"/><path class="cls-1" d="M60.08,210.49a8.43,8.43,0,0,1,6.35-2.84,8,8,0,0,1,4.92,1.56,9.33,9.33,0,0,1,3.15,4.26l-1.82.41a7,7,0,0,0-2.45-3.21,6.16,6.16,0,0,0-3.8-1.16,6.67,6.67,0,0,0-5.08,2.25,7.79,7.79,0,0,0-2.06,5.44,7.63,7.63,0,0,0,2,5.39,6.52,6.52,0,0,0,5.07,2.18A6.12,6.12,0,0,0,70.87,223,7.9,7.9,0,0,0,73,218.28l-6.66.08,0-1.67,8.52-.07v.61a9.72,9.72,0,0,1-2.4,6.66,7.86,7.86,0,0,1-6.1,2.71A8.3,8.3,0,0,1,60,223.9a9.32,9.32,0,0,1-2.57-6.68A9.59,9.59,0,0,1,60.08,210.49Z" transform="translate(0)"/><path class="cls-1" d="M81,210.31a8.45,8.45,0,0,1,6.36-2.83,8.27,8.27,0,0,1,6.33,2.71,9.36,9.36,0,0,1,2.59,6.7V217a9.42,9.42,0,0,1-2.62,6.65,8.51,8.51,0,0,1-6.36,2.81,8.28,8.28,0,0,1-6.35-2.71A9.36,9.36,0,0,1,78.33,217,9.64,9.64,0,0,1,81,210.31ZM80.17,217a7.68,7.68,0,0,0,2,5.41,6.53,6.53,0,0,0,5.08,2.2,6.72,6.72,0,0,0,5.08-2.27,7.89,7.89,0,0,0,2.06-5.45,7.72,7.72,0,0,0-2-5.43,6.45,6.45,0,0,0-5.06-2.2,6.69,6.69,0,0,0-5.07,2.28A7.9,7.9,0,0,0,80.17,217Z" transform="translate(0)"/><path class="cls-1" d="M97.64,207.6l2,0,6,17.74L112,207.48l2,0-6.61,18.61-3.24,0Z" transform="translate(0)"/><path class="cls-2" d="M84.91,36.85l-.26,81.36L46.46,47.94l-9.67-17.8-4.68-8.66c-1.26,1-2.46,2.14-3.67,3.29s-2.36,2.3-3.46,3.51A93.08,93.08,0,0,0,0,91.7a90.58,90.58,0,0,0,30.26,68.49L35,151.4A80.89,80.89,0,0,1,9.41,91.62a82.86,82.86,0,0,1,20.4-54.41l55.4,102a4.53,4.53,0,0,0,4.07,2.46,4.59,4.59,0,0,0,1.21-.17A4.92,4.92,0,0,0,94,136.72l.32-99.95Z" transform="translate(0)"/><path class="cls-2" d="M120.84,207.41,130.11,225l.06-17.71,1.81,0-.06,18.56-3.47,0-9.35-17.79,0,17.87h-1.79l.06-18.55Z" transform="translate(0)"/><path class="cls-2" d="M148.71,207.17V209l-10.58.09,0,6.62,9.56-.08v1.73l-9.56.08,0,6.65,10.58-.09v1.78l-12.42.1.06-18.55Z" transform="translate(0)"/><path class="cls-2" d="M152,207.15l14.15-.12v1.77l-6.07,0,0,16.78-1.84,0,0-16.78-6.24,0Z" transform="translate(0)"/></g></g></svg>